%TF.GenerationSoftware,Altium Limited,Altium Designer,24.4.1 (13)*%
G04 Layer_Color=32768*
%FSLAX45Y45*%
%MOMM*%
%TF.SameCoordinates,7BA59CB3-8EBC-4C6A-B4C6-80429C3BB8AE*%
%TF.FilePolarity,Positive*%
%TF.FileFunction,Other,Mechanical_15*%
%TF.Part,Single*%
G01*
G75*
%TA.AperFunction,NonConductor*%
%ADD95C,0.15240*%
%ADD100C,0.10000*%
%ADD166C,0.05000*%
G36*
X10182082Y3832670D02*
X10086122D01*
Y3928630D01*
X9950792D01*
Y5207370D01*
X10086122D01*
Y5303330D01*
X10182082D01*
Y5438660D01*
X11460822D01*
Y5303330D01*
X11556782D01*
Y5207370D01*
X11692112D01*
Y3928630D01*
X11556782D01*
Y3832670D01*
X11460822D01*
Y3697340D01*
X10182082D01*
Y3832670D01*
D02*
G37*
D95*
X10086122D02*
Y3928630D01*
X9950792D02*
X10086122D01*
X9950792D02*
Y5207370D01*
X10086122D01*
Y5303330D01*
X11556782Y3832670D02*
Y3928630D01*
X11692112D01*
Y5207370D01*
X11556782D02*
X11692112D01*
X11556782D02*
Y5303330D01*
X10086122D02*
X10182082D01*
Y5438660D01*
X11460822D01*
Y5303330D02*
Y5438660D01*
Y5303330D02*
X11556782D01*
X10086122Y3832670D02*
X10182082D01*
Y3697340D02*
Y3832670D01*
Y3697340D02*
X11460822D01*
Y3832670D01*
X11556782D01*
D100*
X9251400Y3276600D02*
X9341400D01*
X9296400Y3231600D02*
Y3321600D01*
X5105400Y3561800D02*
Y3651800D01*
X5060400Y3606800D02*
X5150400D01*
X8616400Y8356600D02*
X8706400D01*
X8661400Y8311600D02*
Y8401600D01*
X11677692Y5747000D02*
X11773692D01*
X11725692Y5699000D02*
Y5795000D01*
X11677692Y5899400D02*
X11773692D01*
X11725692Y5851400D02*
Y5947400D01*
X10648992Y5969000D02*
X10744992D01*
X10696992Y5921000D02*
Y6017000D01*
X5893600Y10502900D02*
X5993600D01*
X5943600Y10452900D02*
Y10552900D01*
X8197300Y4089400D02*
X8287300D01*
X8242300Y4044400D02*
Y4134400D01*
X5746200Y5461000D02*
X5836200D01*
X5791200Y5416000D02*
Y5506000D01*
X5568400Y5461000D02*
X5658400D01*
X5613400Y5416000D02*
Y5506000D01*
X5365200Y5461000D02*
X5455200D01*
X5410200Y5416000D02*
Y5506000D01*
X5212800Y6019800D02*
X5302800D01*
X5257800Y5974800D02*
Y6064800D01*
X5416000Y6018600D02*
X5506000D01*
X5461000Y5973600D02*
Y6063600D01*
X5200100Y6781800D02*
X5290100D01*
X5245100Y6736800D02*
Y6826800D01*
X5377900Y6781800D02*
X5467900D01*
X5422900Y6736800D02*
Y6826800D01*
X6051000Y5283200D02*
X6141000D01*
X6096000Y5238200D02*
Y5328200D01*
X7786753Y9445907D02*
X7876753D01*
X7831753Y9400907D02*
Y9490907D01*
X9174192Y5044700D02*
Y5140700D01*
X9126192Y5092700D02*
X9222192D01*
X9172992Y4790700D02*
Y4886700D01*
X9124992Y4838700D02*
X9220992D01*
X10138192Y5527300D02*
Y5623300D01*
X10090192Y5575300D02*
X10186192D01*
X11557000Y6357880D02*
Y6453880D01*
X11509000Y6405880D02*
X11605000D01*
X9798092Y5003800D02*
X9894092D01*
X9846092Y4955800D02*
Y5051800D01*
X9753600Y4625600D02*
Y4721600D01*
X9705600Y4673600D02*
X9801600D01*
X9334500Y4549400D02*
Y4645400D01*
X9286500Y4597400D02*
X9382500D01*
X11766592Y5257800D02*
X11862592D01*
X11814592Y5209800D02*
Y5305800D01*
X11766592Y4953000D02*
X11862592D01*
X11814592Y4905000D02*
Y5001000D01*
X9321800Y4054100D02*
Y4150100D01*
X9273800Y4102100D02*
X9369800D01*
X9620292Y4318000D02*
X9716292D01*
X9668292Y4270000D02*
Y4366000D01*
X9620292Y4013200D02*
X9716292D01*
X9668292Y3965200D02*
Y4061200D01*
X9772692Y4318000D02*
X9868692D01*
X9820692Y4270000D02*
Y4366000D01*
X9772692Y4013200D02*
X9868692D01*
X9820692Y3965200D02*
Y4061200D01*
X10176292Y3520700D02*
Y3616700D01*
X10128292Y3568700D02*
X10224292D01*
X11217692Y3520700D02*
Y3616700D01*
X11169692Y3568700D02*
X11265692D01*
X11522492Y3520700D02*
Y3616700D01*
X11474492Y3568700D02*
X11570492D01*
X7670800Y10211600D02*
Y10311600D01*
X7620800Y10261600D02*
X7720800D01*
X7321000Y10198100D02*
X7411000D01*
X7366000Y10153100D02*
Y10243100D01*
X5778500Y10023100D02*
Y10119100D01*
X5730500Y10071100D02*
X5826500D01*
X5778500Y10175500D02*
Y10271500D01*
X5730500Y10223500D02*
X5826500D01*
X11644700Y10150100D02*
Y10246100D01*
X11596700Y10198100D02*
X11692700D01*
X11588200Y10363200D02*
X11678200D01*
X11633200Y10318200D02*
Y10408200D01*
X11963400Y10150100D02*
Y10246100D01*
X11915400Y10198100D02*
X12011400D01*
X11963400Y10315200D02*
Y10411200D01*
X11915400Y10363200D02*
X12011400D01*
X11435800Y10604500D02*
X11525800D01*
X11480800Y10559500D02*
Y10649500D01*
X11131000Y10236200D02*
X11221000D01*
X11176000Y10191200D02*
Y10281200D01*
X9588500Y6038300D02*
Y6128300D01*
X9543500Y6083300D02*
X9633500D01*
X9258300Y6033300D02*
Y6133300D01*
X9208300Y6083300D02*
X9308300D01*
X9271800Y8128000D02*
X9371800D01*
X9321800Y8078000D02*
Y8178000D01*
X8845000Y8110300D02*
Y8206300D01*
X8797000Y8158300D02*
X8893000D01*
X8846200Y7957900D02*
Y8053900D01*
X8798200Y8005900D02*
X8894200D01*
X9582800Y7805500D02*
Y7901500D01*
X9534800Y7853500D02*
X9630800D01*
X9536600Y7688400D02*
X9626600D01*
X9581600Y7643400D02*
Y7733400D01*
X9536600Y7510600D02*
X9626600D01*
X9581600Y7465600D02*
Y7555600D01*
X4717500Y10439400D02*
X4807500D01*
X4762500Y10394400D02*
Y10484400D01*
X4717500Y10274300D02*
X4807500D01*
X4762500Y10229300D02*
Y10319300D01*
X4400000Y10642600D02*
X4490000D01*
X4445000Y10597600D02*
Y10687600D01*
X4704800Y10642600D02*
X4794800D01*
X4749800Y10597600D02*
Y10687600D01*
X4419600Y6378200D02*
Y6474200D01*
X4371600Y6426200D02*
X4467600D01*
X4470400Y3342900D02*
Y3438900D01*
X4422400Y3390900D02*
X4518400D01*
X3828500Y3124200D02*
X3918500D01*
X3873500Y3079200D02*
Y3169200D01*
X4470400Y3038100D02*
Y3134100D01*
X4422400Y3086100D02*
X4518400D01*
X3828500Y5118100D02*
X3918500D01*
X3873500Y5073100D02*
Y5163100D01*
X4457700Y5044700D02*
Y5140700D01*
X4409700Y5092700D02*
X4505700D01*
X4457700Y5349500D02*
Y5445500D01*
X4409700Y5397500D02*
X4505700D01*
X3828500Y7048500D02*
X3918500D01*
X3873500Y7003500D02*
Y7093500D01*
X4457700Y6975100D02*
Y7071100D01*
X4409700Y7023100D02*
X4505700D01*
X4457700Y7279900D02*
Y7375900D01*
X4409700Y7327900D02*
X4505700D01*
X4128300Y3276600D02*
X4228300D01*
X4178300Y3226600D02*
Y3326600D01*
X4115600Y5283200D02*
X4215600D01*
X4165600Y5233200D02*
Y5333200D01*
X4115600Y7213600D02*
X4215600D01*
X4165600Y7163600D02*
Y7263600D01*
D166*
X3364700Y9068800D02*
Y10082800D01*
X2521700Y9068800D02*
X3364700D01*
X2521700D02*
Y10082800D01*
X3364700D01*
X8636400Y6375800D02*
Y6679800D01*
X10464400D01*
Y6375800D02*
Y6679800D01*
X8636400Y6375800D02*
X10464400D01*
X11849380Y4019300D02*
X12469380D01*
Y3569300D02*
Y4019300D01*
X11849380Y3569300D02*
X12469380D01*
X11849380D02*
Y4019300D01*
X9461400Y3176600D02*
Y3376600D01*
X9131400Y3176600D02*
Y3376600D01*
Y3176600D02*
X9461400D01*
X9131400Y3376600D02*
X9461400D01*
X5005400Y3771800D02*
X5205400D01*
X5005400Y3441800D02*
X5205400D01*
Y3771800D01*
X5005400Y3441800D02*
Y3771800D01*
X8826400Y8256600D02*
Y8456600D01*
X8496400Y8256600D02*
Y8456600D01*
Y8256600D02*
X8826400D01*
X8496400Y8456600D02*
X8826400D01*
X9339400Y7377800D02*
Y7877800D01*
X8814400Y7377800D02*
X9339400D01*
X8814400D02*
Y7877800D01*
X9339400D01*
X11875692Y5672000D02*
Y5822000D01*
X11575692Y5672000D02*
Y5822000D01*
Y5672000D02*
X11875692D01*
X11575692Y5822000D02*
X11875692D01*
Y5824400D02*
Y5974400D01*
X11575692Y5824400D02*
Y5974400D01*
Y5824400D02*
X11875692D01*
X11575692Y5974400D02*
X11875692D01*
X7644280Y7202200D02*
Y7682200D01*
X6742280Y7202200D02*
Y7682200D01*
X7644280D01*
X6742280Y7202200D02*
X7644280D01*
X10496592Y5622900D02*
Y5883300D01*
Y5622900D02*
X10846592D01*
Y5883300D01*
X10496592D02*
X10846592D01*
X10546992Y5894000D02*
Y6044000D01*
X10846992Y5894000D02*
Y6044000D01*
X10546992D02*
X10846992D01*
X10546992Y5894000D02*
X10846992D01*
X6303600Y10297900D02*
Y10707900D01*
X5583600Y10297900D02*
Y10707900D01*
Y10297900D02*
X6303600D01*
X5583600Y10707900D02*
X6303600D01*
X8142300Y3924400D02*
Y4254400D01*
X8342300Y3924400D02*
Y4254400D01*
X8142300Y3924400D02*
X8342300D01*
X8142300Y4254400D02*
X8342300D01*
X5691200Y5296000D02*
Y5626000D01*
X5891200Y5296000D02*
Y5626000D01*
X5691200Y5296000D02*
X5891200D01*
X5691200Y5626000D02*
X5891200D01*
X5713400Y5296000D02*
Y5626000D01*
X5513400Y5296000D02*
Y5626000D01*
X5713400D01*
X5513400Y5296000D02*
X5713400D01*
X5339900Y5059300D02*
Y5202300D01*
X5632900Y5059300D02*
Y5202300D01*
X5339900Y5059300D02*
X5632900D01*
X5339900Y5202300D02*
X5632900D01*
X5510200Y5296000D02*
Y5626000D01*
X5310200Y5296000D02*
Y5626000D01*
X5510200D01*
X5310200Y5296000D02*
X5510200D01*
X5357800Y5854800D02*
Y6184800D01*
X5157800Y5854800D02*
Y6184800D01*
X5357800D01*
X5157800Y5854800D02*
X5357800D01*
X5361000Y5853600D02*
Y6183600D01*
X5561000Y5853600D02*
Y6183600D01*
X5361000Y5853600D02*
X5561000D01*
X5361000Y6183600D02*
X5561000D01*
X5520900Y6640700D02*
X5705900D01*
X5520900Y6973700D02*
X5705900D01*
Y6640700D02*
Y6973700D01*
X5520900Y6640700D02*
Y6973700D01*
X5716600Y6994900D02*
X5916600D01*
X5716600Y6644900D02*
Y6994900D01*
Y6644900D02*
X5916600D01*
Y6994900D01*
X5345100Y6616800D02*
Y6946800D01*
X5145100Y6616800D02*
Y6946800D01*
X5345100D01*
X5145100Y6616800D02*
X5345100D01*
X5522900D02*
Y6946800D01*
X5322900Y6616800D02*
Y6946800D01*
X5522900D01*
X5322900Y6616800D02*
X5522900D01*
X5873300Y4881500D02*
Y5024500D01*
X6166300Y4881500D02*
Y5024500D01*
X5873300Y4881500D02*
X6166300D01*
X5873300Y5024500D02*
X6166300D01*
X6196000Y5118200D02*
Y5448200D01*
X5996000Y5118200D02*
Y5448200D01*
X6196000D01*
X5996000Y5118200D02*
X6196000D01*
X6024500Y4769300D02*
X6167500D01*
X6024500Y4476300D02*
X6167500D01*
X6024500D02*
Y4769300D01*
X6167500Y4476300D02*
Y4769300D01*
X7731753Y9280907D02*
Y9610907D01*
X7931753Y9280907D02*
Y9610907D01*
X7731753Y9280907D02*
X7931753D01*
X7731753Y9610907D02*
X7931753D01*
X9024192Y5017700D02*
X9324192D01*
X9024192Y5167700D02*
X9324192D01*
Y5017700D02*
Y5167700D01*
X9024192Y5017700D02*
Y5167700D01*
X9022992Y4763700D02*
X9322992D01*
X9022992Y4913700D02*
X9322992D01*
Y4763700D02*
Y4913700D01*
X9022992Y4763700D02*
Y4913700D01*
X9988192Y5500300D02*
X10288192D01*
X9988192Y5650300D02*
X10288192D01*
Y5500300D02*
Y5650300D01*
X9988192Y5500300D02*
Y5650300D01*
X11407000Y6330880D02*
X11707000D01*
X11407000Y6480880D02*
X11707000D01*
Y6330880D02*
Y6480880D01*
X11407000Y6330880D02*
Y6480880D01*
X9771092Y4853800D02*
Y5153800D01*
X9921092Y4853800D02*
Y5153800D01*
X9771092Y4853800D02*
X9921092D01*
X9771092Y5153800D02*
X9921092D01*
X9603600Y4598600D02*
X9903600D01*
X9603600Y4748600D02*
X9903600D01*
Y4598600D02*
Y4748600D01*
X9603600Y4598600D02*
Y4748600D01*
X9184500Y4672400D02*
X9484500D01*
X9184500Y4522400D02*
X9484500D01*
X9184500D02*
Y4672400D01*
X9484500Y4522400D02*
Y4672400D01*
X11739592Y5107800D02*
Y5407800D01*
X11889592Y5107800D02*
Y5407800D01*
X11739592Y5107800D02*
X11889592D01*
X11739592Y5407800D02*
X11889592D01*
X11889592Y4803000D02*
Y5103000D01*
X11739592Y4803000D02*
Y5103000D01*
X11889592D01*
X11739592Y4803000D02*
X11889592D01*
X9171800Y4027100D02*
X9471800D01*
X9171800Y4177100D02*
X9471800D01*
Y4027100D02*
Y4177100D01*
X9171800Y4027100D02*
Y4177100D01*
X9593292Y4168000D02*
Y4468000D01*
X9743292Y4168000D02*
Y4468000D01*
X9593292Y4168000D02*
X9743292D01*
X9593292Y4468000D02*
X9743292D01*
X9743292Y3863200D02*
Y4163200D01*
X9593292Y3863200D02*
Y4163200D01*
X9743292D01*
X9593292Y3863200D02*
X9743292D01*
X9745692Y4168000D02*
Y4468000D01*
X9895692Y4168000D02*
Y4468000D01*
X9745692Y4168000D02*
X9895692D01*
X9745692Y4468000D02*
X9895692D01*
X9895692Y3863200D02*
Y4163200D01*
X9745692Y3863200D02*
Y4163200D01*
X9895692D01*
X9745692Y3863200D02*
X9895692D01*
X10026292Y3493700D02*
X10326292D01*
X10026292Y3643700D02*
X10326292D01*
Y3493700D02*
Y3643700D01*
X10026292Y3493700D02*
Y3643700D01*
X11067692Y3493700D02*
X11367692D01*
X11067692Y3643700D02*
X11367692D01*
Y3493700D02*
Y3643700D01*
X11067692Y3493700D02*
Y3643700D01*
X11372492Y3643700D02*
X11672492D01*
X11372492Y3493700D02*
X11672492D01*
X11372492D02*
Y3643700D01*
X11672492Y3493700D02*
Y3643700D01*
X7645400Y8167400D02*
Y8647400D01*
X6743400Y8167400D02*
Y8647400D01*
X7645400D01*
X6743400Y8167400D02*
X7645400D01*
X6742280Y6719600D02*
X7644280D01*
X6742280Y7199600D02*
X7644280D01*
X6742280Y6719600D02*
Y7199600D01*
X7644280Y6719600D02*
Y7199600D01*
X6743400Y7684800D02*
X7645400D01*
X6743400Y8164800D02*
X7645400D01*
X6743400Y7684800D02*
Y8164800D01*
X7645400Y7684800D02*
Y8164800D01*
X6154520Y3518800D02*
Y3999600D01*
X6484520Y3518800D02*
Y3999600D01*
X6154520D02*
X6484520D01*
X6154520Y3518800D02*
X6484520D01*
X6510120D02*
Y3999600D01*
X6840120Y3518800D02*
Y3999600D01*
X6510120D02*
X6840120D01*
X6510120Y3518800D02*
X6840120D01*
X6865720D02*
Y3999600D01*
X7195720Y3518800D02*
Y3999600D01*
X6865720D02*
X7195720D01*
X6865720Y3518800D02*
X7195720D01*
X7571500Y4442700D02*
Y5742700D01*
X7196500Y4442700D02*
X7571500D01*
X7196500Y4357700D02*
Y4442700D01*
X6646500Y4357700D02*
X7196500D01*
X6646500D02*
Y4442700D01*
X6271500D02*
X6646500D01*
X6271500D02*
Y5742700D01*
X6646500D01*
Y5827700D01*
X7196500D01*
Y5742700D02*
Y5827700D01*
Y5742700D02*
X7571500D01*
X7470800Y10024100D02*
X7870800D01*
X7470800Y10499100D02*
X7870800D01*
X7470800Y10024100D02*
Y10499100D01*
X7870800Y10024100D02*
Y10499100D01*
X7266000Y10033100D02*
Y10363100D01*
X7466000Y10033100D02*
Y10363100D01*
X7266000Y10033100D02*
X7466000D01*
X7266000Y10363100D02*
X7466000D01*
X5628500Y10146100D02*
X5928500D01*
X5628500Y9996100D02*
X5928500D01*
X5628500D02*
Y10146100D01*
X5928500Y9996100D02*
Y10146100D01*
X5628500Y10298500D02*
X5928500D01*
X5628500Y10148500D02*
X5928500D01*
X5628500D02*
Y10298500D01*
X5928500Y10148500D02*
Y10298500D01*
X11494700Y10123100D02*
X11794700D01*
X11494700Y10273100D02*
X11794700D01*
Y10123100D02*
Y10273100D01*
X11494700Y10123100D02*
Y10273100D01*
X11798200Y10263200D02*
Y10463200D01*
X11468200Y10263200D02*
Y10463200D01*
Y10263200D02*
X11798200D01*
X11468200Y10463200D02*
X11798200D01*
X11813400Y10273100D02*
X12113400D01*
X11813400Y10123100D02*
X12113400D01*
X11813400D02*
Y10273100D01*
X12113400Y10123100D02*
Y10273100D01*
X11813400Y10438200D02*
X12113400D01*
X11813400Y10288200D02*
X12113400D01*
X11813400D02*
Y10438200D01*
X12113400Y10288200D02*
Y10438200D01*
X11315800Y10504500D02*
Y10704500D01*
X11645800Y10504500D02*
Y10704500D01*
X11315800D02*
X11645800D01*
X11315800Y10504500D02*
X11645800D01*
X11341000Y10136200D02*
Y10336200D01*
X11011000Y10136200D02*
Y10336200D01*
Y10136200D02*
X11341000D01*
X11011000Y10336200D02*
X11341000D01*
X9488500Y6248300D02*
X9688500D01*
X9488500Y5918300D02*
X9688500D01*
Y6248300D01*
X9488500Y5918300D02*
Y6248300D01*
X9020800Y6283300D02*
X9495800D01*
X9020800Y5883300D02*
X9495800D01*
X9020800D02*
Y6283300D01*
X9495800Y5883300D02*
Y6283300D01*
X10135800Y8056800D02*
Y10006800D01*
Y8056800D02*
X12785800D01*
Y10006800D01*
X10135800D02*
X12785800D01*
X8636400Y6235300D02*
X8940400D01*
Y5423300D02*
Y6235300D01*
X8636400Y5423300D02*
X8940400D01*
X8636400D02*
Y6235300D01*
X10972400Y10414400D02*
Y10718400D01*
X9906400Y10414400D02*
X10972400D01*
X9906400D02*
Y10718400D01*
X10972400D01*
X12090000Y7188600D02*
Y7746600D01*
X11024000Y7188600D02*
X12090000D01*
X11024000D02*
Y7746600D01*
X12090000D01*
X9551800Y8013000D02*
Y8243000D01*
X9091800Y8013000D02*
Y8243000D01*
Y8013000D02*
X9551800D01*
X9091800Y8243000D02*
X9551800D01*
X8695000Y8083300D02*
X8995000D01*
X8695000Y8233300D02*
X8995000D01*
Y8083300D02*
Y8233300D01*
X8695000Y8083300D02*
Y8233300D01*
X8696200Y7930900D02*
X8996200D01*
X8696200Y8080900D02*
X8996200D01*
Y7930900D02*
Y8080900D01*
X8696200Y7930900D02*
Y8080900D01*
X9432800Y7778500D02*
X9732800D01*
X9432800Y7928500D02*
X9732800D01*
Y7778500D02*
Y7928500D01*
X9432800Y7778500D02*
Y7928500D01*
X9416600Y7588400D02*
Y7788400D01*
X9746600Y7588400D02*
Y7788400D01*
X9416600D02*
X9746600D01*
X9416600Y7588400D02*
X9746600D01*
X9746600Y7410600D02*
Y7610600D01*
X9416600Y7410600D02*
Y7610600D01*
Y7410600D02*
X9746600D01*
X9416600Y7610600D02*
X9746600D01*
X6123480Y9322920D02*
X6383480D01*
X6123480D02*
Y9462920D01*
X6383480D01*
Y9322920D02*
Y9462920D01*
X6404280Y9151720D02*
Y9303920D01*
X6102680Y9151720D02*
Y9303920D01*
X6404280D01*
X6102680Y9151720D02*
X6404280D01*
X6401980Y8988720D02*
Y9136720D01*
X6104980Y8988720D02*
Y9136720D01*
X6401980D01*
X6104980Y8988720D02*
X6401980D01*
X6040580Y8268820D02*
Y8408820D01*
X5780580D02*
X6040580D01*
X5780580Y8268820D02*
Y8408820D01*
Y8268820D02*
X6040580D01*
X6414680Y8264820D02*
Y8412820D01*
X6117680Y8264820D02*
Y8412820D01*
X6414680D01*
X6117680Y8264820D02*
X6414680D01*
X4210200Y8785400D02*
Y9045400D01*
X4070200Y8785400D02*
X4210200D01*
X4070200D02*
Y9045400D01*
X4210200D01*
X5133000Y9114700D02*
X5281000D01*
X5133000Y8817700D02*
X5281000D01*
X5133000D02*
Y9114700D01*
X5281000Y8817700D02*
Y9114700D01*
X5137000Y8664400D02*
X5277000D01*
X5137000Y8404400D02*
Y8664400D01*
Y8404400D02*
X5277000D01*
Y8664400D01*
X4421800Y9062600D02*
X4569800D01*
X4421800Y8765600D02*
X4569800D01*
X4421800D02*
Y9062600D01*
X4569800Y8765600D02*
Y9062600D01*
X4241900Y9066200D02*
X4394100D01*
X4241900Y8764600D02*
X4394100D01*
X4241900D02*
Y9066200D01*
X4394100Y8764600D02*
Y9066200D01*
X4927500Y10339400D02*
Y10539400D01*
X4597500Y10339400D02*
Y10539400D01*
Y10339400D02*
X4927500D01*
X4597500Y10539400D02*
X4927500D01*
X4597500Y10174300D02*
Y10374300D01*
X4927500Y10174300D02*
Y10374300D01*
X4597500D02*
X4927500D01*
X4597500Y10174300D02*
X4927500D01*
X4610000Y10542600D02*
Y10742600D01*
X4280000Y10542600D02*
Y10742600D01*
Y10542600D02*
X4610000D01*
X4280000Y10742600D02*
X4610000D01*
X4914800Y10542600D02*
Y10742600D01*
X4584800Y10542600D02*
Y10742600D01*
Y10542600D02*
X4914800D01*
X4584800Y10742600D02*
X4914800D01*
X3520100Y9160600D02*
Y9457600D01*
X3668100Y9160600D02*
Y9457600D01*
X3520100D02*
X3668100D01*
X3520100Y9160600D02*
X3668100D01*
X3697300Y9108700D02*
Y9458700D01*
X3897300D01*
Y9108700D02*
Y9458700D01*
X3697300Y9108700D02*
X3897300D01*
X3509100Y10234000D02*
X3806100D01*
X3509100Y10086000D02*
X3806100D01*
Y10234000D01*
X3509100Y10086000D02*
Y10234000D01*
X4614000Y10035200D02*
X4911000D01*
X4614000Y10183200D02*
X4911000D01*
X4614000Y10035200D02*
Y10183200D01*
X4911000Y10035200D02*
Y10183200D01*
X4052660Y10015560D02*
X4349660D01*
X4052660Y9867560D02*
X4349660D01*
Y10015560D01*
X4052660Y9867560D02*
Y10015560D01*
X4461600Y9870100D02*
X4758600D01*
X4461600Y10018100D02*
X4758600D01*
X4461600Y9870100D02*
Y10018100D01*
X4758600Y9870100D02*
Y10018100D01*
X3954100Y6225000D02*
Y6475000D01*
X4315100D01*
Y6225000D02*
Y6475000D01*
X3954100Y6225000D02*
X4315100D01*
X4344600Y6276200D02*
X4494600D01*
X4344600Y6576200D02*
X4494600D01*
X4344600Y6276200D02*
Y6576200D01*
X4494600Y6276200D02*
Y6576200D01*
X4395400Y3540900D02*
X4545400D01*
X4395400Y3240900D02*
X4545400D01*
Y3540900D01*
X4395400Y3240900D02*
Y3540900D01*
X3973500Y2959200D02*
Y3289200D01*
X3773500Y2959200D02*
Y3289200D01*
X3973500D01*
X3773500Y2959200D02*
X3973500D01*
X4395400Y3236100D02*
X4545400D01*
X4395400Y2936100D02*
X4545400D01*
Y3236100D01*
X4395400Y2936100D02*
Y3236100D01*
X3973500Y4953100D02*
Y5283100D01*
X3773500Y4953100D02*
Y5283100D01*
X3973500D01*
X3773500Y4953100D02*
X3973500D01*
X4382700Y5242700D02*
X4532700D01*
X4382700Y4942700D02*
X4532700D01*
Y5242700D01*
X4382700Y4942700D02*
Y5242700D01*
Y5547500D02*
X4532700D01*
X4382700Y5247500D02*
X4532700D01*
Y5547500D01*
X4382700Y5247500D02*
Y5547500D01*
X3973500Y6883500D02*
Y7213500D01*
X3773500Y6883500D02*
Y7213500D01*
X3973500D01*
X3773500Y6883500D02*
X3973500D01*
X4382700Y7173100D02*
X4532700D01*
X4382700Y6873100D02*
X4532700D01*
Y7173100D01*
X4382700Y6873100D02*
Y7173100D01*
Y7477900D02*
X4532700D01*
X4382700Y7177900D02*
X4532700D01*
Y7477900D01*
X4382700Y7177900D02*
Y7477900D01*
X3980800Y3486800D02*
X4375800D01*
X3980800Y3089300D02*
Y3486800D01*
X4375800Y3089300D02*
Y3486800D01*
X3980800Y3089300D02*
X4375800Y3089300D01*
X3968100Y5493400D02*
X4363100D01*
X3968100Y5095900D02*
Y5493400D01*
X4363100Y5095900D02*
Y5493400D01*
X3968100Y5095900D02*
X4363100Y5095900D01*
X3968100Y7423800D02*
X4363100D01*
X3968100Y7026300D02*
Y7423800D01*
X4363100Y7026300D02*
Y7423800D01*
X3968100Y7026300D02*
X4363100Y7026300D01*
X1378600Y8649400D02*
X3626600D01*
Y6895400D02*
Y8649400D01*
X1378600Y6895400D02*
X3626600D01*
X1378600D02*
Y8649400D01*
Y6705400D02*
X3626600D01*
Y4951400D02*
Y6705400D01*
X1378600Y4951400D02*
X3626600D01*
X1378600D02*
Y6705400D01*
Y4724200D02*
X3626600D01*
Y2970200D02*
Y4724200D01*
X1378600Y2970200D02*
X3626600D01*
X1378600D02*
Y4724200D01*
%TF.MD5,22b6d079ff88a6830a46b6da8013a6ef*%
M02*
