%TF.GenerationSoftware,Altium Limited,Altium Designer,24.4.1 (13)*%
G04 Layer_Physical_Order=4*
G04 Layer_Color=16711680*
%FSLAX45Y45*%
%MOMM*%
%TF.SameCoordinates,7BA59CB3-8EBC-4C6A-B4C6-80429C3BB8AE*%
%TF.FilePolarity,Positive*%
%TF.FileFunction,Copper,L4,Bot,Signal*%
%TF.Part,Single*%
G01*
G75*
%TA.AperFunction,Conductor*%
%ADD68C,0.20000*%
%ADD69C,0.10000*%
%ADD70C,0.40000*%
%ADD72C,0.30000*%
%TA.AperFunction,ComponentPad*%
%ADD79C,0.65000*%
%ADD80O,2.10000X1.00000*%
G04:AMPARAMS|DCode=81|XSize=1.8mm|YSize=1mm|CornerRadius=0.25mm|HoleSize=0mm|Usage=FLASHONLY|Rotation=0.000|XOffset=0mm|YOffset=0mm|HoleType=Round|Shape=RoundedRectangle|*
%AMROUNDEDRECTD81*
21,1,1.80000,0.50000,0,0,0.0*
21,1,1.30000,1.00000,0,0,0.0*
1,1,0.50000,0.65000,-0.25000*
1,1,0.50000,-0.65000,-0.25000*
1,1,0.50000,-0.65000,0.25000*
1,1,0.50000,0.65000,0.25000*
%
%ADD81ROUNDEDRECTD81*%
%ADD82R,1.37000X1.37000*%
%ADD83C,1.37000*%
%TA.AperFunction,ViaPad*%
%ADD84O,2.00000X1.52400*%
%TA.AperFunction,ComponentPad*%
%ADD85C,0.40000*%
%ADD86R,1.37000X1.37000*%
%ADD87R,2.30000X2.30000*%
%ADD88C,2.30000*%
%TA.AperFunction,ViaPad*%
%ADD89C,0.45000*%
%ADD90C,1.00000*%
%ADD91C,0.90000*%
%ADD92C,0.60000*%
D68*
X12115800Y4114800D02*
Y6550660D01*
X12014200Y4013200D02*
X12115800Y4114800D01*
X10896600Y5969000D02*
Y6197600D01*
X10414000Y6680200D02*
X10896600Y6197600D01*
X8839200Y6680200D02*
X10414000D01*
X8788400Y6629400D02*
X8839200Y6680200D01*
X8788400Y6527800D02*
Y6629400D01*
X9652000Y3251200D02*
X10269877Y3869077D01*
X9601200Y3251200D02*
X9652000D01*
X10269877Y3869077D02*
Y3945277D01*
X10274300Y3949700D01*
X11658600Y6578600D02*
X11724640Y6644640D01*
X12021820D01*
X12115800Y6550660D01*
X5892800Y6896100D02*
X6032500D01*
X5613400Y6616700D02*
X5892800Y6896100D01*
X3733800Y10045700D02*
X4305300D01*
X4406900Y9944100D01*
X4165600Y10490200D02*
X4622800D01*
X4140200Y10515600D02*
X4165600Y10490200D01*
X4622800D02*
X5461000Y9652000D01*
X4241800Y10680700D02*
X4584700D01*
X4940300Y10274300D02*
Y10325100D01*
X4584700Y10680700D02*
X4940300Y10325100D01*
X4140200Y10515600D02*
Y10591800D01*
X6908800Y8737600D02*
Y9525000D01*
X5461000Y9652000D02*
X6781800D01*
X6908800Y9525000D01*
D69*
X11501120Y4140200D02*
X11557000D01*
X12065000Y3632200D01*
Y3200400D02*
Y3632200D01*
X11531600Y4089400D02*
X11988800Y3632200D01*
X11480800Y4089400D02*
X11531600D01*
X11988800Y3251200D02*
Y3632200D01*
X11912600Y3302000D02*
Y3632200D01*
X11455400Y4038600D02*
X11506200D01*
X11912600Y3632200D01*
X11293000Y4950300D02*
X11341100Y4902200D01*
X11353800Y4965700D02*
X11417300D01*
X10261600Y5791200D02*
X10515600Y5537200D01*
X10312400Y6519598D02*
Y6527800D01*
X10261600Y6468798D02*
X10312400Y6519598D01*
X10261600Y5791200D02*
Y6468798D01*
X10058400Y6324600D02*
X10160000Y6223000D01*
Y5816600D02*
Y6223000D01*
Y5816600D02*
X10769600Y5207000D01*
X10058400Y5791200D02*
Y6146800D01*
X9811700Y6393500D02*
X10058400Y6146800D01*
Y5791200D02*
X10693400Y5156200D01*
X9550400Y6527800D02*
X9982200Y6096000D01*
Y5765800D02*
Y6096000D01*
Y5765800D02*
X10718800Y5029200D01*
X9906000Y5765800D02*
X10695500Y4976300D01*
X9906000Y5765800D02*
Y6096000D01*
X9811700Y6393500D02*
Y6520500D01*
X9804400Y6527800D02*
X9811700Y6520500D01*
X10706837Y9499600D02*
X10807700D01*
X8966937Y7759700D02*
X10706837Y9499600D01*
X4600100Y9776300D02*
X6616700Y7759700D01*
X8966937D01*
X3338137Y9776300D02*
X4600100D01*
X3092450Y9505950D02*
X3098800Y9499600D01*
X10686500Y9429200D02*
X10807700D01*
X3352800Y9740900D02*
X4585437D01*
X8981600Y7724300D02*
X10686500Y9429200D01*
X4585437Y9740900D02*
X6602037Y7724300D01*
X8981600D01*
X3086100Y9601200D02*
X3163037D01*
X3098800Y9499600D02*
X3111500D01*
X3163037Y9601200D02*
X3338137Y9776300D01*
X3111500Y9499600D02*
X3352800Y9740900D01*
X4541600Y9593500D02*
X7353300Y6781800D01*
X3436700Y9558100D02*
X4526937D01*
X7338637Y6746400D02*
X10932000D01*
X7353300Y6781800D02*
X10946663D01*
X3436700Y9593500D02*
X4541600D01*
X4526937Y9558100D02*
X7338637Y6746400D01*
X11950700Y5105400D02*
Y5727700D01*
X10932000Y6746400D02*
X11950700Y5727700D01*
X3390900Y9512300D02*
X3436700Y9558100D01*
X10946663Y6781800D02*
X11986100Y5742363D01*
X3390900Y9639300D02*
X3436700Y9593500D01*
X11328400Y4991100D02*
X11353800Y4965700D01*
X11293000Y4950300D02*
Y5043863D01*
X11328400Y4991100D02*
Y5029200D01*
X11293000Y5043863D02*
X11341837Y5092700D01*
X11938000D01*
X11328400Y5029200D02*
X11356500Y5057300D01*
X11952663D01*
X11986100Y5090737D01*
Y5742363D01*
X11938000Y5092700D02*
X11950700Y5105400D01*
X9512300Y3365500D02*
X10210800Y4064000D01*
X5588000Y3365500D02*
X9512300D01*
X9404300Y3384500D02*
X10144481Y4124681D01*
X5708700Y3384500D02*
X9404300D01*
X4203700Y4749800D02*
X5588000Y3365500D01*
X4267200Y4826000D02*
X5708700Y3384500D01*
X4150360Y4673600D02*
X5598160Y3225800D01*
X9466580D02*
X10261600Y4020820D01*
X10210800Y4064000D02*
X10617200D01*
X10144481Y4124681D02*
X10726699D01*
X10261600Y4020820D02*
X10434627D01*
X5598160Y3225800D02*
X9466580D01*
X10434627Y4020820D02*
X10460027Y3995420D01*
X10462260D01*
X8763000Y10325100D02*
X8826500Y10261600D01*
Y9563100D02*
Y10261600D01*
X11099800Y10007600D02*
X11150600Y10058400D01*
X8813800Y10464800D02*
X9271000Y10007600D01*
X11099800D01*
X7670800Y10287000D02*
X7848600Y10464800D01*
X7670800Y10033000D02*
Y10287000D01*
X7848600Y10464800D02*
X8813800D01*
X9042400Y9525000D02*
Y10109200D01*
X8966200Y9448800D02*
X9042400Y9525000D01*
X8890000Y9499600D02*
Y10096500D01*
X11046900Y10081700D02*
X11049000Y10083800D01*
X10553700Y3881120D02*
Y3949700D01*
X5511800Y3073400D02*
X9745980D01*
X10553700Y3881120D01*
X10556240Y5816600D02*
X10840720Y5532120D01*
X10439400Y5816600D02*
X10556240D01*
X10695500Y4976300D02*
X11046900D01*
X11125200Y5054600D01*
X9042400Y6527800D02*
X9194800Y6375400D01*
X9626600D01*
X9906000Y6096000D01*
X11125200Y5054600D02*
Y5130800D01*
X10718800Y5029200D02*
X10947400D01*
X9931400Y5232400D02*
X10871200Y4292600D01*
X9982200Y5334000D02*
X11049000Y4267200D01*
X8432800Y5283200D02*
X9956800D01*
X10947400Y4292600D01*
X10871200Y3962400D02*
Y4292600D01*
X11049000Y4089400D02*
Y4267200D01*
X10947400Y4013200D02*
Y4292600D01*
X8483600Y5334000D02*
X9982200D01*
X8382000Y5232400D02*
X9931400D01*
X10058400Y6324600D02*
Y6527800D01*
X10378440Y3825240D02*
Y3952240D01*
X11177123Y4546600D02*
Y5030323D01*
X11379200Y5232400D01*
Y5689600D01*
X11353800Y4673600D02*
X11823700D01*
X11836400Y4775200D02*
X11963400Y4648200D01*
X11353800Y4775200D02*
X11836400D01*
X3810000Y6146800D02*
X3911600Y6248400D01*
X3810000Y5308600D02*
Y6146800D01*
X8623300Y9626600D02*
X8724900Y9728200D01*
X5080000Y6502400D02*
Y7594600D01*
X4813300Y6235700D02*
X5080000Y6502400D01*
X4356100Y6235700D02*
X4813300D01*
X3124200Y3860800D02*
Y4114800D01*
X3302000Y3683000D02*
X4648200D01*
X3124200Y3860800D02*
X3302000Y3683000D01*
X3013895Y4225105D02*
X3124200Y4114800D01*
X2895600Y4267200D02*
X2937695Y4225105D01*
X3013895D01*
X8382000Y9626600D02*
X8623300D01*
X4368800Y10109200D02*
Y10261600D01*
Y10109200D02*
X4953000Y9525000D01*
X4368800Y10261600D02*
X4411980Y10304780D01*
X4533900D01*
X4953000Y9525000D02*
X6324600D01*
X3759200Y5257800D02*
X3810000Y5308600D01*
X11125200Y3962400D02*
Y4419600D01*
X10160000Y5384800D02*
X11125200Y4419600D01*
X8534400Y5384800D02*
X10160000D01*
X5638800Y7975600D02*
X8382000Y5232400D01*
X5664200Y8051800D02*
X8432800Y5283200D01*
X5689600Y8128000D02*
X8483600Y5334000D01*
X4191000Y7975600D02*
X5638800D01*
X3801200Y8128000D02*
X5689600D01*
X5726800Y8192400D02*
X8534400Y5384800D01*
X4038600Y8051800D02*
X5664200D01*
X3733800Y7518400D02*
X4191000Y7975600D01*
X3581400Y7594600D02*
X4038600Y8051800D01*
X3445600Y7772400D02*
X3801200Y8128000D01*
X3445600Y8192400D02*
X5726800D01*
X3302000Y7594600D02*
X3581400D01*
X3175000Y7721600D02*
X3302000Y7594600D01*
X3149600Y7518400D02*
X3733800D01*
X2895600Y7772400D02*
X3149600Y7518400D01*
X3175000Y7721600D02*
Y7913000D01*
X2895600Y8192400D02*
X3175000Y7913000D01*
X11325860Y4244340D02*
X11480800Y4089400D01*
X11325860Y4244340D02*
Y4373880D01*
X11226800Y4267200D02*
Y4404360D01*
Y4267200D02*
X11455400Y4038600D01*
X5461000Y2997200D02*
X11607800D01*
X11912600Y3302000D01*
X11226800Y4404360D02*
X11285220Y4462780D01*
X11658600Y2921000D02*
X11988800Y3251200D01*
X5410200Y2921000D02*
X11658600D01*
X11409680Y4231640D02*
X11501120Y4140200D01*
X11709400Y2844800D02*
X12065000Y3200400D01*
X5359400Y2844800D02*
X11709400D01*
X10726699Y4124681D02*
X10728960Y4122420D01*
X9702800Y3149600D02*
X10378440Y3825240D01*
X5554980Y3149600D02*
X9702800D01*
X4572000Y3632200D02*
X5359400Y2844800D01*
X3110600Y3632200D02*
X4572000D01*
X4648200Y3683000D02*
X5410200Y2921000D01*
X4648200Y3810000D02*
X5461000Y2997200D01*
X3533163Y3810000D02*
X4648200D01*
X4699000Y3886200D02*
X5511800Y3073400D01*
X3826600Y3886200D02*
X4699000D01*
X3761740Y4826000D02*
X4267200D01*
X3251200Y5163820D02*
Y5796280D01*
X3283320Y5828400D01*
X3251200Y5163820D02*
X3665220Y4749800D01*
X3175000Y5128260D02*
X3629660Y4673600D01*
X3175000Y5128260D02*
Y5969000D01*
X2895600Y6248400D02*
X3175000Y5969000D01*
X3098800Y5087620D02*
Y5625200D01*
X2895600Y5828400D02*
X3098800Y5625200D01*
Y5087620D02*
X3589020Y4597400D01*
X4107180D02*
X5554980Y3149600D01*
X3589020Y4597400D02*
X4107180D01*
X3629660Y4673600D02*
X4150360D01*
X3665220Y4749800D02*
X4203700D01*
X3683000Y4904740D02*
X3761740Y4826000D01*
X3445600Y4267200D02*
X3826600Y3886200D01*
X3495964Y3847200D02*
X3533163Y3810000D01*
X3445600Y3847200D02*
X3495964D01*
X2895600D02*
X3110600Y3632200D01*
X3683000Y4904740D02*
Y6011000D01*
X3445600Y6248400D02*
X3683000Y6011000D01*
X3283320Y5828400D02*
X3445600D01*
Y3847200D02*
X3484600Y3886200D01*
X11409680Y4231640D02*
Y4320540D01*
D70*
X8229600Y9499600D02*
X9169400Y8559800D01*
Y8331200D02*
Y8559800D01*
X7747000Y9499600D02*
X8229600D01*
X7620000Y9626600D02*
X7747000Y9499600D01*
D72*
X11887200Y7645400D02*
Y10490200D01*
Y7645400D02*
X11938000Y7594600D01*
X10007600Y10236200D02*
X11303000D01*
X11557000Y10490200D02*
X11887200D01*
X11303000Y10236200D02*
X11557000Y10490200D01*
D79*
X3161480Y9862220D02*
D03*
X3174700Y9286800D02*
D03*
D80*
X3224700Y9143800D02*
D03*
Y10007800D02*
D03*
D81*
X2806700Y9143800D02*
D03*
Y10007800D02*
D03*
D82*
X8788400Y6527800D02*
D03*
X10820400Y10566400D02*
D03*
X11938000Y7594600D02*
D03*
D83*
X9042400Y6527800D02*
D03*
X9296400D02*
D03*
X9550400D02*
D03*
X9804400D02*
D03*
X10058400D02*
D03*
X10312400D02*
D03*
X8788400Y5829300D02*
D03*
Y5575300D02*
D03*
X10566400Y10566400D02*
D03*
X10312400D02*
D03*
X10058400D02*
D03*
X11938000Y7340600D02*
D03*
X11684000Y7594600D02*
D03*
Y7340600D02*
D03*
X11430000Y7594600D02*
D03*
Y7340600D02*
D03*
X11176000Y7594600D02*
D03*
Y7340600D02*
D03*
D84*
X9626600Y8737600D02*
D03*
X10312400Y7302500D02*
D03*
X5308600Y4635500D02*
D03*
X7747000Y6477000D02*
D03*
D85*
X11309800Y9321800D02*
D03*
X11099800Y9111800D02*
D03*
Y9251800D02*
D03*
X11239800Y9111800D02*
D03*
Y9251800D02*
D03*
X11379800Y9111800D02*
D03*
Y9251800D02*
D03*
X11169800Y9041800D02*
D03*
Y9181800D02*
D03*
Y9321800D02*
D03*
X11309800Y9041800D02*
D03*
Y9181800D02*
D03*
D86*
X8788400Y6083300D02*
D03*
D87*
X2895600Y7352400D02*
D03*
Y5408400D02*
D03*
Y3427200D02*
D03*
D88*
Y7772400D02*
D03*
Y8192400D02*
D03*
X3445600Y7352400D02*
D03*
Y7772400D02*
D03*
Y8192400D02*
D03*
X2895600Y5828400D02*
D03*
Y6248400D02*
D03*
X3445600Y5408400D02*
D03*
Y5828400D02*
D03*
Y6248400D02*
D03*
X2895600Y3847200D02*
D03*
Y4267200D02*
D03*
X3445600Y3427200D02*
D03*
Y3847200D02*
D03*
Y4267200D02*
D03*
D89*
X12014200Y4013200D02*
D03*
X12103100D02*
D03*
X10563284Y4295716D02*
D03*
X11807884Y5540316D02*
D03*
X11430000Y5168900D02*
D03*
X11341100Y4902200D02*
D03*
X11417300Y4965700D02*
D03*
X10414000Y5740400D02*
D03*
X10515600Y5537200D02*
D03*
X10807700Y9499600D02*
D03*
Y9429200D02*
D03*
X3086100Y9601200D02*
D03*
X3098800Y9499600D02*
D03*
X10388600Y9347200D02*
D03*
X10464800Y9474200D02*
D03*
X10617200Y9765716D02*
D03*
X3390900Y9512300D02*
D03*
Y9639300D02*
D03*
X7721600Y7442200D02*
D03*
Y7543800D02*
D03*
Y7340600D02*
D03*
Y7924800D02*
D03*
Y8026400D02*
D03*
Y8407400D02*
D03*
Y7823200D02*
D03*
Y8305800D02*
D03*
Y8509000D02*
D03*
X3136900Y9690100D02*
D03*
X3149600Y9423400D02*
D03*
X8864600Y8509000D02*
D03*
X5608320Y3573780D02*
D03*
X9601200Y3251200D02*
D03*
X9194800Y3505200D02*
D03*
X7188200Y3454400D02*
D03*
X6883400D02*
D03*
X6781800D02*
D03*
X6578600D02*
D03*
X6273800D02*
D03*
X6985000D02*
D03*
X6375400D02*
D03*
X7086600D02*
D03*
X6680200D02*
D03*
X6477000D02*
D03*
X6172200D02*
D03*
X9387840Y4424680D02*
D03*
X9779000Y7848600D02*
D03*
X11455400Y10198100D02*
D03*
X11938000Y6553200D02*
D03*
X4165600Y10185400D02*
D03*
X4292600Y10363200D02*
D03*
X4140200D02*
D03*
X4216400Y10287000D02*
D03*
X4003040Y9941560D02*
D03*
X5054600Y10185400D02*
D03*
X4826000Y9931400D02*
D03*
X5054600Y10363200D02*
D03*
X5003800Y10718800D02*
D03*
X3403600Y10668000D02*
D03*
X3200400Y10439400D02*
D03*
X3378200Y10185400D02*
D03*
X10820400Y5105400D02*
D03*
X10972800Y5130800D02*
D03*
X9525000Y4064000D02*
D03*
X11201400Y4191000D02*
D03*
X11303000Y4064000D02*
D03*
X10998200Y4445000D02*
D03*
X10896600Y4876800D02*
D03*
X10337800Y4673600D02*
D03*
X9804400Y5461000D02*
D03*
X9423400Y5689600D02*
D03*
X11455400Y6096000D02*
D03*
X12014200Y6019800D02*
D03*
X11303000Y3225800D02*
D03*
X12395200Y5638800D02*
D03*
Y5105400D02*
D03*
Y4368800D02*
D03*
X12319000Y3302000D02*
D03*
X12166600Y3073400D02*
D03*
X10744200Y3454400D02*
D03*
X11074400Y3200400D02*
D03*
X10490200Y3251200D02*
D03*
X8813800Y4445000D02*
D03*
X8940800Y3759200D02*
D03*
X8331200Y4851400D02*
D03*
X8382000Y6299200D02*
D03*
X11836400Y4318000D02*
D03*
X10998200Y10236200D02*
D03*
X8763000Y10325100D02*
D03*
X8572500Y10388600D02*
D03*
X12153900Y10198100D02*
D03*
Y10363200D02*
D03*
X9372600Y7886700D02*
D03*
X9766300Y7505700D02*
D03*
X8661400Y8001000D02*
D03*
Y8153400D02*
D03*
X11887200Y10490200D02*
D03*
X11557000D02*
D03*
X7670800Y10033000D02*
D03*
X11049000Y10083800D02*
D03*
X11150600Y10058400D02*
D03*
X10693400Y5562600D02*
D03*
X10414000Y3632200D02*
D03*
X10185400Y4876800D02*
D03*
X10439400Y5816600D02*
D03*
X7721600Y6858000D02*
D03*
X11277600Y9652000D02*
D03*
X11099800Y9728200D02*
D03*
X11684000Y9499600D02*
D03*
X10439400Y4191000D02*
D03*
X11201400Y5486400D02*
D03*
X10541000Y9042400D02*
D03*
X10947400Y5029200D02*
D03*
X11125200Y5130800D02*
D03*
X10693400Y5156200D02*
D03*
X10769600Y5207000D02*
D03*
X9601200Y5892800D02*
D03*
X10378440Y3952240D02*
D03*
X10058400Y9220200D02*
D03*
X7975600Y9347200D02*
D03*
X11645900Y5613400D02*
D03*
X11770360Y6418580D02*
D03*
X11177123Y4546600D02*
D03*
X11379200Y5689600D02*
D03*
X9042400Y10109200D02*
D03*
X8966200Y9448800D02*
D03*
X11226800Y3962400D02*
D03*
X11823700Y4673600D02*
D03*
X11963400Y4648200D02*
D03*
X11353800Y4673600D02*
D03*
Y4775200D02*
D03*
X10058400Y8559800D02*
D03*
Y8432800D02*
D03*
X3911600Y6350000D02*
D03*
Y6248400D02*
D03*
X8724900Y9728200D02*
D03*
X5080000Y7594600D02*
D03*
X4356100Y6235700D02*
D03*
X8890000Y10096500D02*
D03*
X8826500Y9563100D02*
D03*
X8890000Y9499600D02*
D03*
X8382000Y9626600D02*
D03*
X6032500Y6896100D02*
D03*
X7874000Y10109200D02*
D03*
X7366000Y10401300D02*
D03*
X7831753Y9626247D02*
D03*
X7880013Y9130947D02*
D03*
X8083213Y9219847D02*
D03*
X7981613D02*
D03*
X7880013D02*
D03*
X7981613Y9130947D02*
D03*
X8083213D02*
D03*
Y9042047D02*
D03*
X7981613D02*
D03*
X7880013D02*
D03*
Y8953147D02*
D03*
X7981613D02*
D03*
X8083213D02*
D03*
X8470900Y3594100D02*
D03*
X8369300D02*
D03*
X8267700D02*
D03*
Y3683000D02*
D03*
X8369300D02*
D03*
X8470900D02*
D03*
Y3771900D02*
D03*
X8369300D02*
D03*
X8267700Y3860800D02*
D03*
X8369300D02*
D03*
X8470900D02*
D03*
X8267700Y3771900D02*
D03*
X8242300Y4279900D02*
D03*
X7255173Y9245247D02*
D03*
Y9143647D02*
D03*
Y9042047D02*
D03*
Y8940447D02*
D03*
X7153573D02*
D03*
Y9042047D02*
D03*
Y9143647D02*
D03*
Y9245247D02*
D03*
Y9346847D02*
D03*
X7255173D02*
D03*
Y9448447D02*
D03*
X7153573D02*
D03*
X7721600Y7061200D02*
D03*
Y6959600D02*
D03*
X5422900Y7035800D02*
D03*
X5245100D02*
D03*
X5816600D02*
D03*
X5613400D02*
D03*
X7538720Y4140200D02*
D03*
X7640320D02*
D03*
Y4038600D02*
D03*
X7538720D02*
D03*
Y3937000D02*
D03*
Y3835400D02*
D03*
Y3733800D02*
D03*
Y3632200D02*
D03*
X7640320D02*
D03*
Y3733800D02*
D03*
Y3835400D02*
D03*
Y3937000D02*
D03*
X5880100Y4445000D02*
D03*
X5461000Y6197600D02*
D03*
X5257800D02*
D03*
X10401300Y8712200D02*
D03*
X5549900Y10642600D02*
D03*
X3733800Y10045700D02*
D03*
X4241800Y10680700D02*
D03*
X4940300Y10274300D02*
D03*
X4406900Y9944100D02*
D03*
X4538404Y10226616D02*
D03*
X4533900Y10421620D02*
D03*
X6908800Y8737600D02*
D03*
X6324600Y9525000D02*
D03*
X6337300Y10619300D02*
D03*
X6426200Y10541000D02*
D03*
X6350000Y10464800D02*
D03*
X5969000Y10210800D02*
D03*
Y10058400D02*
D03*
X5562600D02*
D03*
X4419600Y6629400D02*
D03*
X4235429Y6530446D02*
D03*
X4546600Y6350000D02*
D03*
X3873500Y2933700D02*
D03*
X4572000Y7086600D02*
D03*
Y7239000D02*
D03*
Y5181600D02*
D03*
Y5308600D02*
D03*
X4597400Y3302000D02*
D03*
Y3149600D02*
D03*
X3759200Y5257800D02*
D03*
X3746500Y3213100D02*
D03*
X10223500Y5194300D02*
D03*
X10871200Y3962400D02*
D03*
X10947400Y4013200D02*
D03*
X11049000Y4089400D02*
D03*
X11125200Y3962400D02*
D03*
X10553700Y3949700D02*
D03*
X10617200Y4064000D02*
D03*
X10728960Y4122420D02*
D03*
X10274300Y3949700D02*
D03*
X10462260Y3995420D02*
D03*
X4467860Y3573780D02*
D03*
X11409680Y4320540D02*
D03*
X11325860Y4373880D02*
D03*
X11285220Y4462780D02*
D03*
X3924300Y3314700D02*
D03*
X10840720Y5532120D02*
D03*
X10896600Y5969000D02*
D03*
X10223500Y4673600D02*
D03*
X11417300Y3949700D02*
D03*
X10325100Y4203700D02*
D03*
X10274300Y4254500D02*
D03*
X5638800Y5702300D02*
D03*
X5727700Y5778500D02*
D03*
X5613400Y5270500D02*
D03*
X5791200D02*
D03*
X5613400Y6616700D02*
D03*
X4140200Y10591800D02*
D03*
X4043680Y10574020D02*
D03*
X3886200Y10426700D02*
D03*
X3898900Y10274300D02*
D03*
X3860800Y10337800D02*
D03*
X4241800Y10566400D02*
D03*
X4533900Y10304780D02*
D03*
X4140200Y9093200D02*
D03*
X3906520Y7244080D02*
D03*
X3873500Y6858000D02*
D03*
X4457700Y7518400D02*
D03*
Y6832600D02*
D03*
X3873500Y4940300D02*
D03*
X3914140Y5303520D02*
D03*
X4457700Y4902200D02*
D03*
Y5588000D02*
D03*
X4356100Y3009900D02*
D03*
D90*
X3594100Y9042400D02*
D03*
X3797300D02*
D03*
X12014200Y7962900D02*
D03*
X12153900Y9740900D02*
D03*
X9652000Y8128000D02*
D03*
X8737600Y7620000D02*
D03*
X9169400Y8331200D02*
D03*
X7620000Y9626600D02*
D03*
X10007600Y10236200D02*
D03*
D91*
X5740400Y3733800D02*
D03*
X5537200D02*
D03*
X11658600Y6578600D02*
D03*
D92*
X5745600Y6129100D02*
D03*
X5820600D02*
D03*
X5895600D02*
D03*
X5970600D02*
D03*
X6045600D02*
D03*
X6120600D02*
D03*
X6195600D02*
D03*
X5745600Y6279100D02*
D03*
X5820600D02*
D03*
X5895600D02*
D03*
X5970600D02*
D03*
X6045600D02*
D03*
X6120600D02*
D03*
X6195600D02*
D03*
X5745600Y6204100D02*
D03*
X5820600D02*
D03*
X5895600D02*
D03*
X5970600D02*
D03*
X6045600D02*
D03*
X6120600D02*
D03*
X6195600D02*
D03*
%TF.MD5,aae3aed4ccad5edbaef25caa20d3e9a5*%
M02*
