%TF.GenerationSoftware,Altium Limited,Altium Designer,24.4.1 (13)*%
G04 Layer_Color=8388736*
%FSLAX45Y45*%
%MOMM*%
%TF.SameCoordinates,7BA59CB3-8EBC-4C6A-B4C6-80429C3BB8AE*%
%TF.FilePolarity,Positive*%
%TF.FileFunction,Other,Top_3D_Body*%
%TF.Part,Single*%
G01*
G75*
%TA.AperFunction,NonConductor*%
%ADD93C,0.20000*%
D93*
X11625692Y6078800D02*
X11825692D01*
Y6278800D01*
X11625692D02*
X11825692D01*
X11625692Y6078800D02*
Y6278800D01*
X4016800Y10075353D02*
X4416800D01*
X4016800D02*
Y10475353D01*
X4416800D01*
Y10075353D02*
Y10475353D01*
X7765773Y3715847D02*
Y4055847D01*
X8105773D01*
Y3715847D02*
Y4055847D01*
X7765773Y3715847D02*
X8105773D01*
X5665600Y5949100D02*
Y6459100D01*
X6275600D01*
Y5949100D02*
Y6459100D01*
X5665600Y5949100D02*
X6275600D01*
X7377153Y9075247D02*
Y9415247D01*
X7717153D01*
Y9075247D02*
Y9415247D01*
X7377153Y9075247D02*
X7717153D01*
X9372392Y5130700D02*
X9532392D01*
X9372392Y4800700D02*
Y5130700D01*
Y4800700D02*
X9532392D01*
Y5130700D01*
X9248892Y4454600D02*
X9418892D01*
X9248892Y4244600D02*
Y4454600D01*
Y4244600D02*
X9418892D01*
Y4454600D01*
%TF.MD5,49927900588588af1a327b230a6d3010*%
M02*
