%TF.GenerationSoftware,Altium Limited,Altium Designer,24.4.1 (13)*%
G04 Layer_Color=255*
%FSLAX45Y45*%
%MOMM*%
%TF.SameCoordinates,7BA59CB3-8EBC-4C6A-B4C6-80429C3BB8AE*%
%TF.FilePolarity,Positive*%
%TF.FileFunction,Pads,Bot*%
%TF.Part,Single*%
G01*
G75*
%TA.AperFunction,ComponentPad*%
%ADD79C,0.65000*%
%ADD80O,2.10000X1.00000*%
G04:AMPARAMS|DCode=81|XSize=1.8mm|YSize=1mm|CornerRadius=0.25mm|HoleSize=0mm|Usage=FLASHONLY|Rotation=0.000|XOffset=0mm|YOffset=0mm|HoleType=Round|Shape=RoundedRectangle|*
%AMROUNDEDRECTD81*
21,1,1.80000,0.50000,0,0,0.0*
21,1,1.30000,1.00000,0,0,0.0*
1,1,0.50000,0.65000,-0.25000*
1,1,0.50000,-0.65000,-0.25000*
1,1,0.50000,-0.65000,0.25000*
1,1,0.50000,0.65000,0.25000*
%
%ADD81ROUNDEDRECTD81*%
%ADD82R,1.37000X1.37000*%
%ADD83C,1.37000*%
%TA.AperFunction,ViaPad*%
%ADD84O,2.00000X1.52400*%
%TA.AperFunction,ComponentPad*%
%ADD85C,0.40000*%
%ADD86R,1.37000X1.37000*%
%ADD87R,2.30000X2.30000*%
%ADD88C,2.30000*%
D79*
X3161480Y9862220D02*
D03*
X3174700Y9286800D02*
D03*
D80*
X3224700Y9143800D02*
D03*
Y10007800D02*
D03*
D81*
X2806700Y9143800D02*
D03*
Y10007800D02*
D03*
D82*
X8788400Y6527800D02*
D03*
X10820400Y10566400D02*
D03*
X11938000Y7594600D02*
D03*
D83*
X9042400Y6527800D02*
D03*
X9296400D02*
D03*
X9550400D02*
D03*
X9804400D02*
D03*
X10058400D02*
D03*
X10312400D02*
D03*
X8788400Y5829300D02*
D03*
Y5575300D02*
D03*
X10566400Y10566400D02*
D03*
X10312400D02*
D03*
X10058400D02*
D03*
X11938000Y7340600D02*
D03*
X11684000Y7594600D02*
D03*
Y7340600D02*
D03*
X11430000Y7594600D02*
D03*
Y7340600D02*
D03*
X11176000Y7594600D02*
D03*
Y7340600D02*
D03*
D84*
X9626600Y8737600D02*
D03*
X10312400Y7302500D02*
D03*
X5308600Y4635500D02*
D03*
X7747000Y6477000D02*
D03*
D85*
X11309800Y9321800D02*
D03*
X11099800Y9111800D02*
D03*
Y9251800D02*
D03*
X11239800Y9111800D02*
D03*
Y9251800D02*
D03*
X11379800Y9111800D02*
D03*
Y9251800D02*
D03*
X11169800Y9041800D02*
D03*
Y9181800D02*
D03*
Y9321800D02*
D03*
X11309800Y9041800D02*
D03*
Y9181800D02*
D03*
D86*
X8788400Y6083300D02*
D03*
D87*
X2895600Y7352400D02*
D03*
Y5408400D02*
D03*
Y3427200D02*
D03*
D88*
Y7772400D02*
D03*
Y8192400D02*
D03*
X3445600Y7352400D02*
D03*
Y7772400D02*
D03*
Y8192400D02*
D03*
X2895600Y5828400D02*
D03*
Y6248400D02*
D03*
X3445600Y5408400D02*
D03*
Y5828400D02*
D03*
Y6248400D02*
D03*
X2895600Y3847200D02*
D03*
Y4267200D02*
D03*
X3445600Y3427200D02*
D03*
Y3847200D02*
D03*
Y4267200D02*
D03*
%TF.MD5,616e0458a79f7a22b4cdb5bd939d9bbc*%
M02*
