%TF.GenerationSoftware,Altium Limited,Altium Designer,24.4.1 (13)*%
G04 Layer_Color=128*
%FSLAX45Y45*%
%MOMM*%
%TF.SameCoordinates,7BA59CB3-8EBC-4C6A-B4C6-80429C3BB8AE*%
%TF.FilePolarity,Positive*%
%TF.FileFunction,Drillmap*%
%TF.Part,Single*%
G01*
G75*
%TA.AperFunction,NonConductor*%
%ADD96C,0.12700*%
D96*
X3128980Y9862220D02*
X3193980D01*
X3161480Y9829720D02*
Y9894720D01*
X3142200Y9286800D02*
X3207200D01*
X3174700Y9254300D02*
Y9319300D01*
X3194700Y9143800D02*
X3254700D01*
X3224700Y9113800D02*
Y9173800D01*
X3194700Y10007800D02*
X3254700D01*
X3224700Y9977800D02*
Y10037800D01*
X2776700Y9143800D02*
X2836700D01*
X2806700Y9113800D02*
Y9173800D01*
X2776700Y10007800D02*
X2836700D01*
X2806700Y9977800D02*
Y10037800D01*
X8737400Y6527800D02*
X8839400D01*
X8788400Y6476800D02*
Y6578800D01*
X8991400Y6527800D02*
X9093400D01*
X9042400Y6476800D02*
Y6578800D01*
X9245400Y6527800D02*
X9347400D01*
X9296400Y6476800D02*
Y6578800D01*
X9499400Y6527800D02*
X9601400D01*
X9550400Y6476800D02*
Y6578800D01*
X9753400Y6527800D02*
X9855400D01*
X9804400Y6476800D02*
Y6578800D01*
X10007400Y6527800D02*
X10109400D01*
X10058400Y6476800D02*
Y6578800D01*
X10261400Y6527800D02*
X10363400D01*
X10312400Y6476800D02*
Y6578800D01*
X9526600Y8737600D02*
X9726600D01*
X9626600Y8637600D02*
Y8837600D01*
X10212400Y7302500D02*
X10412400D01*
X10312400Y7202500D02*
Y7402500D01*
X5208600Y4635500D02*
X5408600D01*
X5308600Y4535500D02*
Y4735500D01*
X7647000Y6477000D02*
X7847000D01*
X7747000Y6377000D02*
Y6577000D01*
X11299800Y9321800D02*
X11319800D01*
X11309800Y9311800D02*
Y9331800D01*
X11089800Y9111800D02*
X11109800D01*
X11099800Y9101800D02*
Y9121800D01*
X11089800Y9251800D02*
X11109800D01*
X11099800Y9241800D02*
Y9261800D01*
X11229800Y9111800D02*
X11249800D01*
X11239800Y9101800D02*
Y9121800D01*
X11229800Y9251800D02*
X11249800D01*
X11239800Y9241800D02*
Y9261800D01*
X11369800Y9111800D02*
X11389800D01*
X11379800Y9101800D02*
Y9121800D01*
X11369800Y9251800D02*
X11389800D01*
X11379800Y9241800D02*
Y9261800D01*
X11159800Y9041800D02*
X11179800D01*
X11169800Y9031800D02*
Y9051800D01*
X11159800Y9181800D02*
X11179800D01*
X11169800Y9171800D02*
Y9191800D01*
X11159800Y9321800D02*
X11179800D01*
X11169800Y9311800D02*
Y9331800D01*
X11299800Y9041800D02*
X11319800D01*
X11309800Y9031800D02*
Y9051800D01*
X11299800Y9181800D02*
X11319800D01*
X11309800Y9171800D02*
Y9191800D01*
X8737400Y6083300D02*
X8839400D01*
X8788400Y6032300D02*
Y6134300D01*
X8737400Y5829300D02*
X8839400D01*
X8788400Y5778300D02*
Y5880300D01*
X8737400Y5575300D02*
X8839400D01*
X8788400Y5524300D02*
Y5626300D01*
X10769400Y10566400D02*
X10871400D01*
X10820400Y10515400D02*
Y10617400D01*
X10515400Y10566400D02*
X10617400D01*
X10566400Y10515400D02*
Y10617400D01*
X10261400Y10566400D02*
X10363400D01*
X10312400Y10515400D02*
Y10617400D01*
X10007400Y10566400D02*
X10109400D01*
X10058400Y10515400D02*
Y10617400D01*
X11887000Y7594600D02*
X11989000D01*
X11938000Y7543600D02*
Y7645600D01*
X11887000Y7340600D02*
X11989000D01*
X11938000Y7289600D02*
Y7391600D01*
X11633000Y7594600D02*
X11735000D01*
X11684000Y7543600D02*
Y7645600D01*
X11633000Y7340600D02*
X11735000D01*
X11684000Y7289600D02*
Y7391600D01*
X11379000Y7594600D02*
X11481000D01*
X11430000Y7543600D02*
Y7645600D01*
X11379000Y7340600D02*
X11481000D01*
X11430000Y7289600D02*
Y7391600D01*
X11125000Y7594600D02*
X11227000D01*
X11176000Y7543600D02*
Y7645600D01*
X11125000Y7340600D02*
X11227000D01*
X11176000Y7289600D02*
Y7391600D01*
X2805600Y7352400D02*
X2985600D01*
X2895600Y7262400D02*
Y7442400D01*
X2805600Y7772400D02*
X2985600D01*
X2895600Y7682400D02*
Y7862400D01*
X2805600Y8192400D02*
X2985600D01*
X2895600Y8102400D02*
Y8282400D01*
X3355600Y7352400D02*
X3535600D01*
X3445600Y7262400D02*
Y7442400D01*
X3355600Y7772400D02*
X3535600D01*
X3445600Y7682400D02*
Y7862400D01*
X3355600Y8192400D02*
X3535600D01*
X3445600Y8102400D02*
Y8282400D01*
X2805600Y5408400D02*
X2985600D01*
X2895600Y5318400D02*
Y5498400D01*
X2805600Y5828400D02*
X2985600D01*
X2895600Y5738400D02*
Y5918400D01*
X2805600Y6248400D02*
X2985600D01*
X2895600Y6158400D02*
Y6338400D01*
X3355600Y5408400D02*
X3535600D01*
X3445600Y5318400D02*
Y5498400D01*
X3355600Y5828400D02*
X3535600D01*
X3445600Y5738400D02*
Y5918400D01*
X3355600Y6248400D02*
X3535600D01*
X3445600Y6158400D02*
Y6338400D01*
X2805600Y3427200D02*
X2985600D01*
X2895600Y3337200D02*
Y3517200D01*
X2805600Y3847200D02*
X2985600D01*
X2895600Y3757200D02*
Y3937200D01*
X2805600Y4267200D02*
X2985600D01*
X2895600Y4177200D02*
Y4357200D01*
X3355600Y3427200D02*
X3535600D01*
X3445600Y3337200D02*
Y3517200D01*
X3355600Y3847200D02*
X3535600D01*
X3445600Y3757200D02*
Y3937200D01*
X3355600Y4267200D02*
X3535600D01*
X3445600Y4177200D02*
Y4357200D01*
X11999200Y4013200D02*
X12029200D01*
X12014200Y3998200D02*
Y4028200D01*
X12088100Y4013200D02*
X12118100D01*
X12103100Y3998200D02*
Y4028200D01*
X10548284Y4295716D02*
X10578284D01*
X10563284Y4280716D02*
Y4310716D01*
X11792884Y5540316D02*
X11822884D01*
X11807884Y5525316D02*
Y5555316D01*
X11415000Y5168900D02*
X11445000D01*
X11430000Y5153900D02*
Y5183900D01*
X11326100Y4902200D02*
X11356100D01*
X11341100Y4887200D02*
Y4917200D01*
X11402300Y4965700D02*
X11432300D01*
X11417300Y4950700D02*
Y4980700D01*
X10399000Y5740400D02*
X10429000D01*
X10414000Y5725400D02*
Y5755400D01*
X10500600Y5537200D02*
X10530600D01*
X10515600Y5522200D02*
Y5552200D01*
X10792700Y9499600D02*
X10822700D01*
X10807700Y9484600D02*
Y9514600D01*
X10792700Y9429200D02*
X10822700D01*
X10807700Y9414200D02*
Y9444200D01*
X3071100Y9601200D02*
X3101100D01*
X3086100Y9586200D02*
Y9616200D01*
X3083800Y9499600D02*
X3113800D01*
X3098800Y9484600D02*
Y9514600D01*
X10373600Y9347200D02*
X10403600D01*
X10388600Y9332200D02*
Y9362200D01*
X10449800Y9474200D02*
X10479800D01*
X10464800Y9459200D02*
Y9489200D01*
X10602200Y9765716D02*
X10632200D01*
X10617200Y9750716D02*
Y9780716D01*
X3375900Y9512300D02*
X3405900D01*
X3390900Y9497300D02*
Y9527300D01*
X3375900Y9639300D02*
X3405900D01*
X3390900Y9624300D02*
Y9654300D01*
X7706600Y7442200D02*
X7736600D01*
X7721600Y7427200D02*
Y7457200D01*
X7706600Y7543800D02*
X7736600D01*
X7721600Y7528800D02*
Y7558800D01*
X7706600Y7340600D02*
X7736600D01*
X7721600Y7325600D02*
Y7355600D01*
X7706600Y7924800D02*
X7736600D01*
X7721600Y7909800D02*
Y7939800D01*
X7706600Y8026400D02*
X7736600D01*
X7721600Y8011400D02*
Y8041400D01*
X7706600Y8407400D02*
X7736600D01*
X7721600Y8392400D02*
Y8422400D01*
X7706600Y7823200D02*
X7736600D01*
X7721600Y7808200D02*
Y7838200D01*
X7706600Y8305800D02*
X7736600D01*
X7721600Y8290800D02*
Y8320800D01*
X7706600Y8509000D02*
X7736600D01*
X7721600Y8494000D02*
Y8524000D01*
X3121900Y9690100D02*
X3151900D01*
X3136900Y9675100D02*
Y9705100D01*
X3134600Y9423400D02*
X3164600D01*
X3149600Y9408400D02*
Y9438400D01*
X8849600Y8509000D02*
X8879600D01*
X8864600Y8494000D02*
Y8524000D01*
X5593320Y3573780D02*
X5623320D01*
X5608320Y3558780D02*
Y3588780D01*
X9586200Y3251200D02*
X9616200D01*
X9601200Y3236200D02*
Y3266200D01*
X9179800Y3505200D02*
X9209800D01*
X9194800Y3490200D02*
Y3520200D01*
X7173200Y3454400D02*
X7203200D01*
X7188200Y3439400D02*
Y3469400D01*
X6868400Y3454400D02*
X6898400D01*
X6883400Y3439400D02*
Y3469400D01*
X6766800Y3454400D02*
X6796800D01*
X6781800Y3439400D02*
Y3469400D01*
X6563600Y3454400D02*
X6593600D01*
X6578600Y3439400D02*
Y3469400D01*
X6258800Y3454400D02*
X6288800D01*
X6273800Y3439400D02*
Y3469400D01*
X6970000Y3454400D02*
X7000000D01*
X6985000Y3439400D02*
Y3469400D01*
X6360400Y3454400D02*
X6390400D01*
X6375400Y3439400D02*
Y3469400D01*
X7071600Y3454400D02*
X7101600D01*
X7086600Y3439400D02*
Y3469400D01*
X6665200Y3454400D02*
X6695200D01*
X6680200Y3439400D02*
Y3469400D01*
X6462000Y3454400D02*
X6492000D01*
X6477000Y3439400D02*
Y3469400D01*
X6157200Y3454400D02*
X6187200D01*
X6172200Y3439400D02*
Y3469400D01*
X9372840Y4424680D02*
X9402840D01*
X9387840Y4409680D02*
Y4439680D01*
X9764000Y7848600D02*
X9794000D01*
X9779000Y7833600D02*
Y7863600D01*
X11440400Y10198100D02*
X11470400D01*
X11455400Y10183100D02*
Y10213100D01*
X11923000Y6553200D02*
X11953000D01*
X11938000Y6538200D02*
Y6568200D01*
X4150600Y10185400D02*
X4180600D01*
X4165600Y10170400D02*
Y10200400D01*
X4277600Y10363200D02*
X4307600D01*
X4292600Y10348200D02*
Y10378200D01*
X4125200Y10363200D02*
X4155200D01*
X4140200Y10348200D02*
Y10378200D01*
X4201400Y10287000D02*
X4231400D01*
X4216400Y10272000D02*
Y10302000D01*
X3988040Y9941560D02*
X4018040D01*
X4003040Y9926560D02*
Y9956560D01*
X5039600Y10185400D02*
X5069600D01*
X5054600Y10170400D02*
Y10200400D01*
X4811000Y9931400D02*
X4841000D01*
X4826000Y9916400D02*
Y9946400D01*
X5039600Y10363200D02*
X5069600D01*
X5054600Y10348200D02*
Y10378200D01*
X4988800Y10718800D02*
X5018800D01*
X5003800Y10703800D02*
Y10733800D01*
X3388600Y10668000D02*
X3418600D01*
X3403600Y10653000D02*
Y10683000D01*
X3185400Y10439400D02*
X3215400D01*
X3200400Y10424400D02*
Y10454400D01*
X3363200Y10185400D02*
X3393200D01*
X3378200Y10170400D02*
Y10200400D01*
X10805400Y5105400D02*
X10835400D01*
X10820400Y5090400D02*
Y5120400D01*
X10957800Y5130800D02*
X10987800D01*
X10972800Y5115800D02*
Y5145800D01*
X9510000Y4064000D02*
X9540000D01*
X9525000Y4049000D02*
Y4079000D01*
X11186400Y4191000D02*
X11216400D01*
X11201400Y4176000D02*
Y4206000D01*
X11288000Y4064000D02*
X11318000D01*
X11303000Y4049000D02*
Y4079000D01*
X10983200Y4445000D02*
X11013200D01*
X10998200Y4430000D02*
Y4460000D01*
X10881600Y4876800D02*
X10911600D01*
X10896600Y4861800D02*
Y4891800D01*
X10322800Y4673600D02*
X10352800D01*
X10337800Y4658600D02*
Y4688600D01*
X9789400Y5461000D02*
X9819400D01*
X9804400Y5446000D02*
Y5476000D01*
X9408400Y5689600D02*
X9438400D01*
X9423400Y5674600D02*
Y5704600D01*
X11440400Y6096000D02*
X11470400D01*
X11455400Y6081000D02*
Y6111000D01*
X11999200Y6019800D02*
X12029200D01*
X12014200Y6004800D02*
Y6034800D01*
X11288000Y3225800D02*
X11318000D01*
X11303000Y3210800D02*
Y3240800D01*
X12380200Y5638800D02*
X12410200D01*
X12395200Y5623800D02*
Y5653800D01*
X12380200Y5105400D02*
X12410200D01*
X12395200Y5090400D02*
Y5120400D01*
X12380200Y4368800D02*
X12410200D01*
X12395200Y4353800D02*
Y4383800D01*
X12304000Y3302000D02*
X12334000D01*
X12319000Y3287000D02*
Y3317000D01*
X12151600Y3073400D02*
X12181600D01*
X12166600Y3058400D02*
Y3088400D01*
X10729200Y3454400D02*
X10759200D01*
X10744200Y3439400D02*
Y3469400D01*
X11059400Y3200400D02*
X11089400D01*
X11074400Y3185400D02*
Y3215400D01*
X10475200Y3251200D02*
X10505200D01*
X10490200Y3236200D02*
Y3266200D01*
X8798800Y4445000D02*
X8828800D01*
X8813800Y4430000D02*
Y4460000D01*
X8925800Y3759200D02*
X8955800D01*
X8940800Y3744200D02*
Y3774200D01*
X8316200Y4851400D02*
X8346200D01*
X8331200Y4836400D02*
Y4866400D01*
X8367000Y6299200D02*
X8397000D01*
X8382000Y6284200D02*
Y6314200D01*
X11821400Y4318000D02*
X11851400D01*
X11836400Y4303000D02*
Y4333000D01*
X10983200Y10236200D02*
X11013200D01*
X10998200Y10221200D02*
Y10251200D01*
X3564100Y9042400D02*
X3624100D01*
X3594100Y9012400D02*
Y9072400D01*
X3767300Y9042400D02*
X3827300D01*
X3797300Y9012400D02*
Y9072400D01*
X8748000Y10325100D02*
X8778000D01*
X8763000Y10310100D02*
Y10340100D01*
X8557500Y10388600D02*
X8587500D01*
X8572500Y10373600D02*
Y10403600D01*
X11984200Y7962900D02*
X12044200D01*
X12014200Y7932900D02*
Y7992900D01*
X12123900Y9740900D02*
X12183900D01*
X12153900Y9710900D02*
Y9770900D01*
X12138900Y10198100D02*
X12168900D01*
X12153900Y10183100D02*
Y10213100D01*
X12138900Y10363200D02*
X12168900D01*
X12153900Y10348200D02*
Y10378200D01*
X9357600Y7886700D02*
X9387600D01*
X9372600Y7871700D02*
Y7901700D01*
X9751300Y7505700D02*
X9781300D01*
X9766300Y7490700D02*
Y7520700D01*
X9622000Y8128000D02*
X9682000D01*
X9652000Y8098000D02*
Y8158000D01*
X8646400Y8001000D02*
X8676400D01*
X8661400Y7986000D02*
Y8016000D01*
X8646400Y8153400D02*
X8676400D01*
X8661400Y8138400D02*
Y8168400D01*
X8707600Y7620000D02*
X8767600D01*
X8737600Y7590000D02*
Y7650000D01*
X9139400Y8331200D02*
X9199400D01*
X9169400Y8301200D02*
Y8361200D01*
X7590000Y9626600D02*
X7650000D01*
X7620000Y9596600D02*
Y9656600D01*
X9977600Y10236200D02*
X10037600D01*
X10007600Y10206200D02*
Y10266200D01*
X11872200Y10490200D02*
X11902200D01*
X11887200Y10475200D02*
Y10505200D01*
X11542000Y10490200D02*
X11572000D01*
X11557000Y10475200D02*
Y10505200D01*
X7655800Y10033000D02*
X7685800D01*
X7670800Y10018000D02*
Y10048000D01*
X11034000Y10083800D02*
X11064000D01*
X11049000Y10068800D02*
Y10098800D01*
X11135600Y10058400D02*
X11165600D01*
X11150600Y10043400D02*
Y10073400D01*
X5710400Y3733800D02*
X5770400D01*
X5740400Y3703800D02*
Y3763800D01*
X5507200Y3733800D02*
X5567200D01*
X5537200Y3703800D02*
Y3763800D01*
X11628600Y6578600D02*
X11688600D01*
X11658600Y6548600D02*
Y6608600D01*
X10678400Y5562600D02*
X10708400D01*
X10693400Y5547600D02*
Y5577600D01*
X10399000Y3632200D02*
X10429000D01*
X10414000Y3617200D02*
Y3647200D01*
X10170400Y4876800D02*
X10200400D01*
X10185400Y4861800D02*
Y4891800D01*
X10424400Y5816600D02*
X10454400D01*
X10439400Y5801600D02*
Y5831600D01*
X7706600Y6858000D02*
X7736600D01*
X7721600Y6843000D02*
Y6873000D01*
X11262600Y9652000D02*
X11292600D01*
X11277600Y9637000D02*
Y9667000D01*
X11084800Y9728200D02*
X11114800D01*
X11099800Y9713200D02*
Y9743200D01*
X11669000Y9499600D02*
X11699000D01*
X11684000Y9484600D02*
Y9514600D01*
X10424400Y4191000D02*
X10454400D01*
X10439400Y4176000D02*
Y4206000D01*
X11186400Y5486400D02*
X11216400D01*
X11201400Y5471400D02*
Y5501400D01*
X10526000Y9042400D02*
X10556000D01*
X10541000Y9027400D02*
Y9057400D01*
X10932400Y5029200D02*
X10962400D01*
X10947400Y5014200D02*
Y5044200D01*
X11110200Y5130800D02*
X11140200D01*
X11125200Y5115800D02*
Y5145800D01*
X10678400Y5156200D02*
X10708400D01*
X10693400Y5141200D02*
Y5171200D01*
X10754600Y5207000D02*
X10784600D01*
X10769600Y5192000D02*
Y5222000D01*
X9586200Y5892800D02*
X9616200D01*
X9601200Y5877800D02*
Y5907800D01*
X10363440Y3952240D02*
X10393440D01*
X10378440Y3937240D02*
Y3967240D01*
X10043400Y9220200D02*
X10073400D01*
X10058400Y9205200D02*
Y9235200D01*
X7960600Y9347200D02*
X7990600D01*
X7975600Y9332200D02*
Y9362200D01*
X11630900Y5613400D02*
X11660900D01*
X11645900Y5598400D02*
Y5628400D01*
X11755360Y6418580D02*
X11785360D01*
X11770360Y6403580D02*
Y6433580D01*
X11162123Y4546600D02*
X11192123D01*
X11177123Y4531600D02*
Y4561600D01*
X11364200Y5689600D02*
X11394200D01*
X11379200Y5674600D02*
Y5704600D01*
X9027400Y10109200D02*
X9057400D01*
X9042400Y10094200D02*
Y10124200D01*
X8951200Y9448800D02*
X8981200D01*
X8966200Y9433800D02*
Y9463800D01*
X11211800Y3962400D02*
X11241800D01*
X11226800Y3947400D02*
Y3977400D01*
X11808700Y4673600D02*
X11838700D01*
X11823700Y4658600D02*
Y4688600D01*
X11948400Y4648200D02*
X11978400D01*
X11963400Y4633200D02*
Y4663200D01*
X11338800Y4673600D02*
X11368800D01*
X11353800Y4658600D02*
Y4688600D01*
X11338800Y4775200D02*
X11368800D01*
X11353800Y4760200D02*
Y4790200D01*
X10043400Y8559800D02*
X10073400D01*
X10058400Y8544800D02*
Y8574800D01*
X10043400Y8432800D02*
X10073400D01*
X10058400Y8417800D02*
Y8447800D01*
X3896600Y6350000D02*
X3926600D01*
X3911600Y6335000D02*
Y6365000D01*
X3896600Y6248400D02*
X3926600D01*
X3911600Y6233400D02*
Y6263400D01*
X8709900Y9728200D02*
X8739900D01*
X8724900Y9713200D02*
Y9743200D01*
X5065000Y7594600D02*
X5095000D01*
X5080000Y7579600D02*
Y7609600D01*
X4341100Y6235700D02*
X4371100D01*
X4356100Y6220700D02*
Y6250700D01*
X8875000Y10096500D02*
X8905000D01*
X8890000Y10081500D02*
Y10111500D01*
X8811500Y9563100D02*
X8841500D01*
X8826500Y9548100D02*
Y9578100D01*
X8875000Y9499600D02*
X8905000D01*
X8890000Y9484600D02*
Y9514600D01*
X8367000Y9626600D02*
X8397000D01*
X8382000Y9611600D02*
Y9641600D01*
X6017500Y6896100D02*
X6047500D01*
X6032500Y6881100D02*
Y6911100D01*
X7859000Y10109200D02*
X7889000D01*
X7874000Y10094200D02*
Y10124200D01*
X7351000Y10401300D02*
X7381000D01*
X7366000Y10386300D02*
Y10416300D01*
X7816753Y9626247D02*
X7846753D01*
X7831753Y9611247D02*
Y9641247D01*
X7865013Y9130947D02*
X7895013D01*
X7880013Y9115947D02*
Y9145947D01*
X8068213Y9219847D02*
X8098213D01*
X8083213Y9204847D02*
Y9234847D01*
X7966613Y9219847D02*
X7996613D01*
X7981613Y9204847D02*
Y9234847D01*
X7865013Y9219847D02*
X7895013D01*
X7880013Y9204847D02*
Y9234847D01*
X7966613Y9130947D02*
X7996613D01*
X7981613Y9115947D02*
Y9145947D01*
X8068213Y9130947D02*
X8098213D01*
X8083213Y9115947D02*
Y9145947D01*
X8068213Y9042047D02*
X8098213D01*
X8083213Y9027047D02*
Y9057047D01*
X7966613Y9042047D02*
X7996613D01*
X7981613Y9027047D02*
Y9057047D01*
X7865013Y9042047D02*
X7895013D01*
X7880013Y9027047D02*
Y9057047D01*
X7865013Y8953147D02*
X7895013D01*
X7880013Y8938147D02*
Y8968147D01*
X7966613Y8953147D02*
X7996613D01*
X7981613Y8938147D02*
Y8968147D01*
X8068213Y8953147D02*
X8098213D01*
X8083213Y8938147D02*
Y8968147D01*
X8455900Y3594100D02*
X8485900D01*
X8470900Y3579100D02*
Y3609100D01*
X8354300Y3594100D02*
X8384300D01*
X8369300Y3579100D02*
Y3609100D01*
X8252700Y3594100D02*
X8282700D01*
X8267700Y3579100D02*
Y3609100D01*
X8252700Y3683000D02*
X8282700D01*
X8267700Y3668000D02*
Y3698000D01*
X8354300Y3683000D02*
X8384300D01*
X8369300Y3668000D02*
Y3698000D01*
X8455900Y3683000D02*
X8485900D01*
X8470900Y3668000D02*
Y3698000D01*
X8455900Y3771900D02*
X8485900D01*
X8470900Y3756900D02*
Y3786900D01*
X8354300Y3771900D02*
X8384300D01*
X8369300Y3756900D02*
Y3786900D01*
X8252700Y3860800D02*
X8282700D01*
X8267700Y3845800D02*
Y3875800D01*
X8354300Y3860800D02*
X8384300D01*
X8369300Y3845800D02*
Y3875800D01*
X8455900Y3860800D02*
X8485900D01*
X8470900Y3845800D02*
Y3875800D01*
X8252700Y3771900D02*
X8282700D01*
X8267700Y3756900D02*
Y3786900D01*
X8227300Y4279900D02*
X8257300D01*
X8242300Y4264900D02*
Y4294900D01*
X7240173Y9245247D02*
X7270173D01*
X7255173Y9230247D02*
Y9260247D01*
X7240173Y9143647D02*
X7270173D01*
X7255173Y9128647D02*
Y9158647D01*
X7240173Y9042047D02*
X7270173D01*
X7255173Y9027047D02*
Y9057047D01*
X7240173Y8940447D02*
X7270173D01*
X7255173Y8925447D02*
Y8955447D01*
X7138573Y8940447D02*
X7168573D01*
X7153573Y8925447D02*
Y8955447D01*
X7138573Y9042047D02*
X7168573D01*
X7153573Y9027047D02*
Y9057047D01*
X7138573Y9143647D02*
X7168573D01*
X7153573Y9128647D02*
Y9158647D01*
X7138573Y9245247D02*
X7168573D01*
X7153573Y9230247D02*
Y9260247D01*
X7138573Y9346847D02*
X7168573D01*
X7153573Y9331847D02*
Y9361847D01*
X7240173Y9346847D02*
X7270173D01*
X7255173Y9331847D02*
Y9361847D01*
X7240173Y9448447D02*
X7270173D01*
X7255173Y9433447D02*
Y9463447D01*
X7138573Y9448447D02*
X7168573D01*
X7153573Y9433447D02*
Y9463447D01*
X7706600Y7061200D02*
X7736600D01*
X7721600Y7046200D02*
Y7076200D01*
X7706600Y6959600D02*
X7736600D01*
X7721600Y6944600D02*
Y6974600D01*
X5407900Y7035800D02*
X5437900D01*
X5422900Y7020800D02*
Y7050800D01*
X5230100Y7035800D02*
X5260100D01*
X5245100Y7020800D02*
Y7050800D01*
X5801600Y7035800D02*
X5831600D01*
X5816600Y7020800D02*
Y7050800D01*
X5598400Y7035800D02*
X5628400D01*
X5613400Y7020800D02*
Y7050800D01*
X7523720Y4140200D02*
X7553720D01*
X7538720Y4125200D02*
Y4155200D01*
X7625320Y4140200D02*
X7655320D01*
X7640320Y4125200D02*
Y4155200D01*
X7625320Y4038600D02*
X7655320D01*
X7640320Y4023600D02*
Y4053600D01*
X7523720Y4038600D02*
X7553720D01*
X7538720Y4023600D02*
Y4053600D01*
X7523720Y3937000D02*
X7553720D01*
X7538720Y3922000D02*
Y3952000D01*
X7523720Y3835400D02*
X7553720D01*
X7538720Y3820400D02*
Y3850400D01*
X7523720Y3733800D02*
X7553720D01*
X7538720Y3718800D02*
Y3748800D01*
X7523720Y3632200D02*
X7553720D01*
X7538720Y3617200D02*
Y3647200D01*
X7625320Y3632200D02*
X7655320D01*
X7640320Y3617200D02*
Y3647200D01*
X7625320Y3733800D02*
X7655320D01*
X7640320Y3718800D02*
Y3748800D01*
X7625320Y3835400D02*
X7655320D01*
X7640320Y3820400D02*
Y3850400D01*
X7625320Y3937000D02*
X7655320D01*
X7640320Y3922000D02*
Y3952000D01*
X5865100Y4445000D02*
X5895100D01*
X5880100Y4430000D02*
Y4460000D01*
X5446000Y6197600D02*
X5476000D01*
X5461000Y6182600D02*
Y6212600D01*
X5242800Y6197600D02*
X5272800D01*
X5257800Y6182600D02*
Y6212600D01*
X10386300Y8712200D02*
X10416300D01*
X10401300Y8697200D02*
Y8727200D01*
X5534900Y10642600D02*
X5564900D01*
X5549900Y10627600D02*
Y10657600D01*
X3718800Y10045700D02*
X3748800D01*
X3733800Y10030700D02*
Y10060700D01*
X4226800Y10680700D02*
X4256800D01*
X4241800Y10665700D02*
Y10695700D01*
X4925300Y10274300D02*
X4955300D01*
X4940300Y10259300D02*
Y10289300D01*
X4391900Y9944100D02*
X4421900D01*
X4406900Y9929100D02*
Y9959100D01*
X4523404Y10226616D02*
X4553404D01*
X4538404Y10211616D02*
Y10241616D01*
X4518900Y10421620D02*
X4548900D01*
X4533900Y10406620D02*
Y10436620D01*
X6893800Y8737600D02*
X6923800D01*
X6908800Y8722600D02*
Y8752600D01*
X6309600Y9525000D02*
X6339600D01*
X6324600Y9510000D02*
Y9540000D01*
X6322300Y10619300D02*
X6352300D01*
X6337300Y10604300D02*
Y10634300D01*
X6411200Y10541000D02*
X6441200D01*
X6426200Y10526000D02*
Y10556000D01*
X6335000Y10464800D02*
X6365000D01*
X6350000Y10449800D02*
Y10479800D01*
X5954000Y10210800D02*
X5984000D01*
X5969000Y10195800D02*
Y10225800D01*
X5954000Y10058400D02*
X5984000D01*
X5969000Y10043400D02*
Y10073400D01*
X5547600Y10058400D02*
X5577600D01*
X5562600Y10043400D02*
Y10073400D01*
X4404600Y6629400D02*
X4434600D01*
X4419600Y6614400D02*
Y6644400D01*
X4220429Y6530446D02*
X4250429D01*
X4235429Y6515446D02*
Y6545446D01*
X4531600Y6350000D02*
X4561600D01*
X4546600Y6335000D02*
Y6365000D01*
X3858500Y2933700D02*
X3888500D01*
X3873500Y2918700D02*
Y2948700D01*
X4557000Y7086600D02*
X4587000D01*
X4572000Y7071600D02*
Y7101600D01*
X4557000Y7239000D02*
X4587000D01*
X4572000Y7224000D02*
Y7254000D01*
X4557000Y5181600D02*
X4587000D01*
X4572000Y5166600D02*
Y5196600D01*
X4557000Y5308600D02*
X4587000D01*
X4572000Y5293600D02*
Y5323600D01*
X4582400Y3302000D02*
X4612400D01*
X4597400Y3287000D02*
Y3317000D01*
X4582400Y3149600D02*
X4612400D01*
X4597400Y3134600D02*
Y3164600D01*
X3744200Y5257800D02*
X3774200D01*
X3759200Y5242800D02*
Y5272800D01*
X3731500Y3213100D02*
X3761500D01*
X3746500Y3198100D02*
Y3228100D01*
X10208500Y5194300D02*
X10238500D01*
X10223500Y5179300D02*
Y5209300D01*
X10856200Y3962400D02*
X10886200D01*
X10871200Y3947400D02*
Y3977400D01*
X10932400Y4013200D02*
X10962400D01*
X10947400Y3998200D02*
Y4028200D01*
X11034000Y4089400D02*
X11064000D01*
X11049000Y4074400D02*
Y4104400D01*
X11110200Y3962400D02*
X11140200D01*
X11125200Y3947400D02*
Y3977400D01*
X10538700Y3949700D02*
X10568700D01*
X10553700Y3934700D02*
Y3964700D01*
X10602200Y4064000D02*
X10632200D01*
X10617200Y4049000D02*
Y4079000D01*
X10713960Y4122420D02*
X10743960D01*
X10728960Y4107420D02*
Y4137420D01*
X10259300Y3949700D02*
X10289300D01*
X10274300Y3934700D02*
Y3964700D01*
X10447260Y3995420D02*
X10477260D01*
X10462260Y3980420D02*
Y4010420D01*
X4452860Y3573780D02*
X4482860D01*
X4467860Y3558780D02*
Y3588780D01*
X11394680Y4320540D02*
X11424680D01*
X11409680Y4305540D02*
Y4335540D01*
X11310860Y4373880D02*
X11340860D01*
X11325860Y4358880D02*
Y4388880D01*
X11270220Y4462780D02*
X11300220D01*
X11285220Y4447780D02*
Y4477780D01*
X3909300Y3314700D02*
X3939300D01*
X3924300Y3299700D02*
Y3329700D01*
X10825720Y5532120D02*
X10855720D01*
X10840720Y5517120D02*
Y5547120D01*
X10881600Y5969000D02*
X10911600D01*
X10896600Y5954000D02*
Y5984000D01*
X10208500Y4673600D02*
X10238500D01*
X10223500Y4658600D02*
Y4688600D01*
X11402300Y3949700D02*
X11432300D01*
X11417300Y3934700D02*
Y3964700D01*
X10310100Y4203700D02*
X10340100D01*
X10325100Y4188700D02*
Y4218700D01*
X10259300Y4254500D02*
X10289300D01*
X10274300Y4239500D02*
Y4269500D01*
X5623800Y5702300D02*
X5653800D01*
X5638800Y5687300D02*
Y5717300D01*
X5712700Y5778500D02*
X5742700D01*
X5727700Y5763500D02*
Y5793500D01*
X5598400Y5270500D02*
X5628400D01*
X5613400Y5255500D02*
Y5285500D01*
X5776200Y5270500D02*
X5806200D01*
X5791200Y5255500D02*
Y5285500D01*
X5598400Y6616700D02*
X5628400D01*
X5613400Y6601700D02*
Y6631700D01*
X5730600Y6129100D02*
X5760600D01*
X5745600Y6114100D02*
Y6144100D01*
X5805600Y6129100D02*
X5835600D01*
X5820600Y6114100D02*
Y6144100D01*
X5880600Y6129100D02*
X5910600D01*
X5895600Y6114100D02*
Y6144100D01*
X5955600Y6129100D02*
X5985600D01*
X5970600Y6114100D02*
Y6144100D01*
X6030600Y6129100D02*
X6060600D01*
X6045600Y6114100D02*
Y6144100D01*
X6105600Y6129100D02*
X6135600D01*
X6120600Y6114100D02*
Y6144100D01*
X6180600Y6129100D02*
X6210600D01*
X6195600Y6114100D02*
Y6144100D01*
X5730600Y6279100D02*
X5760600D01*
X5745600Y6264100D02*
Y6294100D01*
X5805600Y6279100D02*
X5835600D01*
X5820600Y6264100D02*
Y6294100D01*
X5880600Y6279100D02*
X5910600D01*
X5895600Y6264100D02*
Y6294100D01*
X5955600Y6279100D02*
X5985600D01*
X5970600Y6264100D02*
Y6294100D01*
X6030600Y6279100D02*
X6060600D01*
X6045600Y6264100D02*
Y6294100D01*
X6105600Y6279100D02*
X6135600D01*
X6120600Y6264100D02*
Y6294100D01*
X6180600Y6279100D02*
X6210600D01*
X6195600Y6264100D02*
Y6294100D01*
X5730600Y6204100D02*
X5760600D01*
X5745600Y6189100D02*
Y6219100D01*
X5805600Y6204100D02*
X5835600D01*
X5820600Y6189100D02*
Y6219100D01*
X5880600Y6204100D02*
X5910600D01*
X5895600Y6189100D02*
Y6219100D01*
X5955600Y6204100D02*
X5985600D01*
X5970600Y6189100D02*
Y6219100D01*
X6030600Y6204100D02*
X6060600D01*
X6045600Y6189100D02*
Y6219100D01*
X6105600Y6204100D02*
X6135600D01*
X6120600Y6189100D02*
Y6219100D01*
X6180600Y6204100D02*
X6210600D01*
X6195600Y6189100D02*
Y6219100D01*
X4125200Y10591800D02*
X4155200D01*
X4140200Y10576800D02*
Y10606800D01*
X4028680Y10574020D02*
X4058680D01*
X4043680Y10559020D02*
Y10589020D01*
X3871200Y10426700D02*
X3901200D01*
X3886200Y10411700D02*
Y10441700D01*
X3883900Y10274300D02*
X3913900D01*
X3898900Y10259300D02*
Y10289300D01*
X3845800Y10337800D02*
X3875800D01*
X3860800Y10322800D02*
Y10352800D01*
X4226800Y10566400D02*
X4256800D01*
X4241800Y10551400D02*
Y10581400D01*
X4518900Y10304780D02*
X4548900D01*
X4533900Y10289780D02*
Y10319780D01*
X4125200Y9093200D02*
X4155200D01*
X4140200Y9078200D02*
Y9108200D01*
X3891520Y7244080D02*
X3921520D01*
X3906520Y7229080D02*
Y7259080D01*
X3858500Y6858000D02*
X3888500D01*
X3873500Y6843000D02*
Y6873000D01*
X4442700Y7518400D02*
X4472700D01*
X4457700Y7503400D02*
Y7533400D01*
X4442700Y6832600D02*
X4472700D01*
X4457700Y6817600D02*
Y6847600D01*
X3858500Y4940300D02*
X3888500D01*
X3873500Y4925300D02*
Y4955300D01*
X3899140Y5303520D02*
X3929140D01*
X3914140Y5288520D02*
Y5318520D01*
X4442700Y4902200D02*
X4472700D01*
X4457700Y4887200D02*
Y4917200D01*
X4442700Y5588000D02*
X4472700D01*
X4457700Y5573000D02*
Y5603000D01*
X4341100Y3009900D02*
X4371100D01*
X4356100Y2994900D02*
Y3024900D01*
%TF.MD5,1a37b928113e317ff1730e6b8c5f49f2*%
M02*
