%TF.GenerationSoftware,Altium Limited,Altium Designer,24.4.1 (13)*%
G04 Layer_Color=32768*
%FSLAX45Y45*%
%MOMM*%
%TF.SameCoordinates,7BA59CB3-8EBC-4C6A-B4C6-80429C3BB8AE*%
%TF.FilePolarity,Positive*%
%TF.FileFunction,Other,Top_Courtyard*%
%TF.Part,Single*%
G01*
G75*
%TA.AperFunction,NonConductor*%
%ADD93C,0.20000*%
%ADD166C,0.05000*%
D93*
X11615692Y6043193D02*
X11835692D01*
Y6314406D01*
X11615692D02*
X11835692D01*
X11615692Y6043193D02*
Y6314406D01*
X3981193Y10039747D02*
X4452406D01*
X3981193D02*
Y10510960D01*
X4452406D01*
Y10039747D02*
Y10510960D01*
X7750773Y3705847D02*
Y4065847D01*
X8120773D01*
Y3705847D02*
Y4065847D01*
X7750773Y3705847D02*
X8120773D01*
X5655600Y5904100D02*
Y6504100D01*
X6285600D01*
Y5904100D02*
Y6504100D01*
X5655600Y5904100D02*
X6285600D01*
X7362153Y9065247D02*
Y9425247D01*
X7732153D01*
Y9065247D02*
Y9425247D01*
X7362153Y9065247D02*
X7732153D01*
X9347392Y5155700D02*
X9557392D01*
X9347392Y4775700D02*
Y5155700D01*
Y4775700D02*
X9557392D01*
Y5155700D01*
X9228892Y4474600D02*
X9438892D01*
X9228892Y4224600D02*
Y4474600D01*
Y4224600D02*
X9438892D01*
Y4474600D01*
D166*
X9441480Y3064200D02*
Y3184200D01*
X9161480D02*
X9441480D01*
X9161480Y3064200D02*
Y3184200D01*
Y3064200D02*
X9441480D01*
X9301480Y3074200D02*
Y3174200D01*
X9251480Y3124200D02*
X9351480D01*
X8801400Y8449000D02*
Y8569000D01*
X8521400D02*
X8801400D01*
X8521400Y8449000D02*
Y8569000D01*
Y8449000D02*
X8801400D01*
X8661400Y8459000D02*
Y8559000D01*
X8611400Y8509000D02*
X8711400D01*
X5499400Y3470600D02*
Y3590600D01*
X5219400D02*
X5499400D01*
X5219400Y3470600D02*
Y3590600D01*
Y3470600D02*
X5499400D01*
X5359400Y3480600D02*
Y3580600D01*
X5309400Y3530600D02*
X5409400D01*
%TF.MD5,13f3163be8a0752f08b7aa20e2538aee*%
M02*
