%TF.GenerationSoftware,Altium Limited,Altium Designer,24.4.1 (13)*%
G04 Layer_Physical_Order=1*
G04 Layer_Color=255*
%FSLAX45Y45*%
%MOMM*%
%TF.SameCoordinates,7BA59CB3-8EBC-4C6A-B4C6-80429C3BB8AE*%
%TF.FilePolarity,Positive*%
%TF.FileFunction,Copper,L1,Top,Signal*%
%TF.Part,Single*%
G01*
G75*
%TA.AperFunction,SMDPad,CuDef*%
%ADD10R,1.15000X0.30000*%
%ADD11R,1.15000X0.60000*%
%TA.AperFunction,ConnectorPad*%
%ADD12R,0.90000X1.50000*%
%TA.AperFunction,SMDPad,CuDef*%
%ADD13R,0.30000X0.70000*%
%ADD14R,0.30000X1.00000*%
%ADD15R,0.80000X0.80000*%
G04:AMPARAMS|DCode=16|XSize=0.60607mm|YSize=0.29247mm|CornerRadius=0.14624mm|HoleSize=0mm|Usage=FLASHONLY|Rotation=90.000|XOffset=0mm|YOffset=0mm|HoleType=Round|Shape=RoundedRectangle|*
%AMROUNDEDRECTD16*
21,1,0.60607,0.00000,0,0,90.0*
21,1,0.31360,0.29247,0,0,90.0*
1,1,0.29247,0.00000,0.15680*
1,1,0.29247,0.00000,-0.15680*
1,1,0.29247,0.00000,-0.15680*
1,1,0.29247,0.00000,0.15680*
%
%ADD16ROUNDEDRECTD16*%
%ADD17R,0.29247X0.60607*%
%ADD18R,1.70000X1.00000*%
%ADD19R,0.80000X1.00000*%
%ADD20R,1.00000X0.80000*%
%ADD21R,0.40000X0.80000*%
%ADD22R,2.35000X1.60000*%
%ADD23R,0.50000X1.10000*%
%ADD24R,4.60000X0.96000*%
%ADD25R,0.80000X0.40000*%
%ADD26R,1.05000X1.00000*%
%ADD27R,2.30000X2.52000*%
%ADD28R,2.00000X0.80000*%
%ADD29R,2.85000X2.85000*%
%ADD30R,0.68107X0.23928*%
G04:AMPARAMS|DCode=31|XSize=0.68107mm|YSize=0.23928mm|CornerRadius=0.11964mm|HoleSize=0mm|Usage=FLASHONLY|Rotation=180.000|XOffset=0mm|YOffset=0mm|HoleType=Round|Shape=RoundedRectangle|*
%AMROUNDEDRECTD31*
21,1,0.68107,0.00000,0,0,180.0*
21,1,0.44178,0.23928,0,0,180.0*
1,1,0.23928,-0.22089,0.00000*
1,1,0.23928,0.22089,0.00000*
1,1,0.23928,0.22089,0.00000*
1,1,0.23928,-0.22089,0.00000*
%
%ADD31ROUNDEDRECTD31*%
G04:AMPARAMS|DCode=32|XSize=0.23928mm|YSize=0.68107mm|CornerRadius=0.11964mm|HoleSize=0mm|Usage=FLASHONLY|Rotation=180.000|XOffset=0mm|YOffset=0mm|HoleType=Round|Shape=RoundedRectangle|*
%AMROUNDEDRECTD32*
21,1,0.23928,0.44178,0,0,180.0*
21,1,0.00000,0.68107,0,0,180.0*
1,1,0.23928,0.00000,0.22089*
1,1,0.23928,0.00000,0.22089*
1,1,0.23928,0.00000,-0.22089*
1,1,0.23928,0.00000,-0.22089*
%
%ADD32ROUNDEDRECTD32*%
%ADD33R,0.20000X1.60000*%
%ADD34R,0.54000X0.35000*%
%TA.AperFunction,ConnectorPad*%
G04:AMPARAMS|DCode=35|XSize=0.45mm|YSize=1.55mm|CornerRadius=0.0495mm|HoleSize=0mm|Usage=FLASHONLY|Rotation=270.000|XOffset=0mm|YOffset=0mm|HoleType=Round|Shape=RoundedRectangle|*
%AMROUNDEDRECTD35*
21,1,0.45000,1.45100,0,0,270.0*
21,1,0.35100,1.55000,0,0,270.0*
1,1,0.09900,-0.72550,-0.17550*
1,1,0.09900,-0.72550,0.17550*
1,1,0.09900,0.72550,0.17550*
1,1,0.09900,0.72550,-0.17550*
%
%ADD35ROUNDEDRECTD35*%
%TA.AperFunction,SMDPad,CuDef*%
%ADD36R,0.63000X0.50000*%
%ADD37C,1.69552*%
%ADD38R,0.89000X0.93000*%
%ADD39R,1.38000X1.10000*%
%ADD40R,1.45000X1.15000*%
%ADD41R,0.93000X0.89000*%
%TA.AperFunction,BGAPad,CuDef*%
%ADD42C,0.25200*%
%TA.AperFunction,SMDPad,CuDef*%
%ADD43R,5.48000X3.24000*%
%ADD44R,1.46200X0.27940*%
%ADD45R,0.27940X1.46200*%
%ADD46R,1.90000X1.10000*%
%ADD47R,1.00000X1.05000*%
%ADD48R,0.80000X0.90000*%
%ADD49R,2.81000X1.45000*%
%ADD50R,5.00000X3.10000*%
%ADD51R,0.60000X1.35000*%
%ADD52R,1.35000X0.60000*%
%TA.AperFunction,ConnectorPad*%
%ADD53R,1.50000X0.90000*%
%TA.AperFunction,BGAPad,CuDef*%
%ADD54R,0.90000X0.90000*%
%TA.AperFunction,SMDPad,CuDef*%
%ADD55R,1.30000X1.80000*%
%ADD56R,0.65000X0.90000*%
%ADD57R,1.04000X1.02000*%
%ADD58R,0.92000X0.98000*%
%ADD59R,0.90000X0.65000*%
%ADD60R,0.98000X0.92000*%
%ADD61R,0.50800X1.98120*%
%ADD62R,1.02000X1.04000*%
%ADD63R,1.98120X0.50800*%
G04:AMPARAMS|DCode=64|XSize=1.19mm|YSize=0.4mm|CornerRadius=0.05mm|HoleSize=0mm|Usage=FLASHONLY|Rotation=180.000|XOffset=0mm|YOffset=0mm|HoleType=Round|Shape=RoundedRectangle|*
%AMROUNDEDRECTD64*
21,1,1.19000,0.30000,0,0,180.0*
21,1,1.09000,0.40000,0,0,180.0*
1,1,0.10000,-0.54500,0.15000*
1,1,0.10000,0.54500,0.15000*
1,1,0.10000,0.54500,-0.15000*
1,1,0.10000,-0.54500,-0.15000*
%
%ADD64ROUNDEDRECTD64*%
%ADD65R,0.30000X0.85000*%
%ADD66R,0.85000X0.30000*%
%TA.AperFunction,SMDPad,SMDef*%
%ADD67R,0.30000X0.50000*%
%TA.AperFunction,Conductor*%
%ADD68C,0.20000*%
%ADD69C,0.10000*%
%ADD70C,0.40000*%
%ADD71C,0.80000*%
%ADD72C,0.30000*%
%ADD73C,0.50000*%
%ADD74C,1.00000*%
%ADD75C,0.15000*%
%ADD76C,0.38100*%
%ADD77R,0.80000X1.30000*%
%ADD78R,0.80000X1.30000*%
%TA.AperFunction,ComponentPad*%
%ADD79C,0.65000*%
%ADD80O,2.10000X1.00000*%
G04:AMPARAMS|DCode=81|XSize=1.8mm|YSize=1mm|CornerRadius=0.25mm|HoleSize=0mm|Usage=FLASHONLY|Rotation=0.000|XOffset=0mm|YOffset=0mm|HoleType=Round|Shape=RoundedRectangle|*
%AMROUNDEDRECTD81*
21,1,1.80000,0.50000,0,0,0.0*
21,1,1.30000,1.00000,0,0,0.0*
1,1,0.50000,0.65000,-0.25000*
1,1,0.50000,-0.65000,-0.25000*
1,1,0.50000,-0.65000,0.25000*
1,1,0.50000,0.65000,0.25000*
%
%ADD81ROUNDEDRECTD81*%
%ADD82R,1.37000X1.37000*%
%ADD83C,1.37000*%
%TA.AperFunction,ViaPad*%
%ADD84O,2.00000X1.52400*%
%TA.AperFunction,ComponentPad*%
%ADD85C,0.40000*%
%ADD86R,1.37000X1.37000*%
%ADD87R,2.30000X2.30000*%
%ADD88C,2.30000*%
%TA.AperFunction,ViaPad*%
%ADD89C,0.45000*%
%ADD90C,1.00000*%
%ADD91C,0.90000*%
%ADD92C,0.60000*%
G36*
X4177221Y10409621D02*
X4191800Y10406721D01*
X4206379Y10409621D01*
X4216800Y10416584D01*
X4227221Y10409621D01*
X4241800Y10406721D01*
X4256379Y10409621D01*
X4266800Y10416584D01*
X4277221Y10409621D01*
X4287020Y10407672D01*
X4287020Y10394723D01*
X4274457Y10392224D01*
X4259753Y10382400D01*
X4184753Y10307400D01*
X4174929Y10292697D01*
X4172900Y10282497D01*
X4097116Y10206713D01*
X4083335Y10210893D01*
X4082532Y10214932D01*
X4075569Y10225353D01*
X4082532Y10235774D01*
X4085432Y10250353D01*
X4082532Y10264932D01*
X4075569Y10275353D01*
X4082532Y10285774D01*
X4085432Y10300353D01*
X4082532Y10314932D01*
X4075569Y10325353D01*
X4082532Y10335774D01*
X4085432Y10350353D01*
X4082532Y10364932D01*
X4075569Y10375353D01*
X4082532Y10385774D01*
X4085432Y10400353D01*
X4091800Y10406721D01*
X4106379Y10409621D01*
X4116800Y10416584D01*
X4127221Y10409621D01*
X4141800Y10406721D01*
X4156379Y10409621D01*
X4166800Y10416584D01*
X4177221Y10409621D01*
D02*
G37*
G36*
X5123180Y10728960D02*
Y9928860D01*
X5065258Y9870938D01*
X4604000D01*
Y10018500D01*
X4613600Y10028100D01*
Y10034800D01*
X4756400D01*
Y10183600D01*
X4753800Y10186200D01*
X4755073Y10198900D01*
X4902900D01*
Y10225999D01*
X4907036Y10229098D01*
X4915600Y10232685D01*
X4930772Y10226400D01*
X4949828D01*
X4967433Y10233693D01*
X4980907Y10247167D01*
X4988200Y10264772D01*
Y10283828D01*
X4980907Y10301433D01*
X4967433Y10314907D01*
X4949828Y10322200D01*
X4930772D01*
X4915600Y10315915D01*
X4907036Y10319502D01*
X4902900Y10322601D01*
Y10349700D01*
X4752900D01*
X4752900Y10349700D01*
Y10514800D01*
X4740200Y10527500D01*
Y10567200D01*
Y10718000D01*
X4304600D01*
Y10694674D01*
X4291900Y10688500D01*
X4289700Y10690228D01*
X4282407Y10707833D01*
X4268933Y10721307D01*
X4251328Y10728600D01*
X4232272D01*
X4214667Y10721307D01*
X4201193Y10707833D01*
X4193900Y10690228D01*
Y10671172D01*
X4201193Y10653567D01*
X4214667Y10640093D01*
X4232272Y10632800D01*
X4237268D01*
X4241681Y10627000D01*
X4235386Y10614300D01*
X4232272D01*
X4214667Y10607007D01*
X4201193Y10593533D01*
X4200800Y10592585D01*
X4188100Y10595111D01*
Y10601328D01*
X4180807Y10618933D01*
X4167333Y10632407D01*
X4149728Y10639700D01*
X4130672D01*
X4113067Y10632407D01*
X4099593Y10618933D01*
X4094762Y10607272D01*
X4093965Y10606806D01*
X4080567Y10604874D01*
X4070813Y10614627D01*
X4053208Y10621920D01*
X4034152D01*
X4016547Y10614627D01*
X4003073Y10601153D01*
X3995780Y10583548D01*
Y10564492D01*
X4003073Y10546887D01*
X4016547Y10533413D01*
X4034152Y10526120D01*
X4047745D01*
X4059605Y10514261D01*
Y10508065D01*
X4056604Y10503574D01*
X4053704Y10488996D01*
Y10450131D01*
X4049582Y10442571D01*
X4042022Y10438449D01*
X4003158D01*
X3988579Y10435549D01*
X3983001Y10431822D01*
X3934100D01*
Y10436228D01*
X3926807Y10453833D01*
X3913333Y10467307D01*
X3895728Y10474600D01*
X3876672D01*
X3859067Y10467307D01*
X3845593Y10453833D01*
X3838300Y10436228D01*
Y10417172D01*
X3845593Y10399567D01*
X3847726Y10397433D01*
X3844361Y10382837D01*
X3833667Y10378407D01*
X3820193Y10364933D01*
X3812900Y10347328D01*
Y10328272D01*
X3820193Y10310667D01*
X3833667Y10297193D01*
X3841454Y10293967D01*
X3851000Y10283828D01*
Y10264772D01*
X3858293Y10247167D01*
X3871767Y10233693D01*
X3889372Y10226400D01*
X3908428D01*
X3926033Y10233693D01*
X3939507Y10247167D01*
X3946223Y10263380D01*
X3952335Y10265203D01*
X3958220Y10265661D01*
X3966184Y10255996D01*
X3965061Y10250353D01*
X3967961Y10235774D01*
X3974925Y10225353D01*
X3967961Y10214932D01*
X3965061Y10200353D01*
X3965875Y10196264D01*
X3957818Y10186446D01*
X3940053D01*
X3926241Y10183699D01*
X3914531Y10175875D01*
X3886078Y10147422D01*
X3878254Y10135712D01*
X3875507Y10121900D01*
Y9870938D01*
X3229804D01*
X3223768Y9881004D01*
X3223260Y9882523D01*
Y9931400D01*
X3114040D01*
X3073400Y9972040D01*
Y10761980D01*
X3106420Y10795000D01*
X5057140D01*
X5123180Y10728960D01*
D02*
G37*
G36*
X4195479Y10013741D02*
X4207260Y10013741D01*
Y9870938D01*
X3947693D01*
Y10001433D01*
X3960231Y10013741D01*
X4195479D01*
D02*
G37*
G36*
X11424920Y8996680D02*
X11054080D01*
Y9367520D01*
X11424920D01*
Y8996680D01*
D02*
G37*
G36*
X3393440Y9276080D02*
X3909060D01*
X3949700Y9235440D01*
Y9014460D01*
X3893820Y8958580D01*
X3134360D01*
X3075940Y9017000D01*
Y9184640D01*
X3116580Y9225280D01*
X3225800D01*
Y9258866D01*
X3232600Y9275283D01*
Y9280400D01*
X3365100D01*
Y9283202D01*
X3386318D01*
X3393440Y9276080D01*
D02*
G37*
G36*
X7793653Y9283347D02*
X8116233D01*
X8184813Y9214767D01*
Y8925207D01*
X8141633Y8882027D01*
X7760633D01*
X7659033Y8983627D01*
Y9303667D01*
X7773333D01*
X7793653Y9283347D01*
D02*
G37*
G36*
X7606626Y9483074D02*
Y9379008D01*
X7603153Y9367747D01*
X7593926Y9367747D01*
X7603153D01*
Y9122747D01*
X7372153D01*
X7593926D01*
X7603153Y9122747D01*
X7606626Y9111486D01*
Y9071594D01*
Y8951540D01*
X7532033Y8876947D01*
X7049433D01*
X7026573Y8899807D01*
Y9517027D01*
X7072293Y9562747D01*
X7526953D01*
X7606626Y9483074D01*
D02*
G37*
G36*
X6825327Y9674513D02*
X6825327Y8829955D01*
X6732972Y8737600D01*
X6210300D01*
Y8930640D01*
X6540500D01*
X6626860Y9017000D01*
Y9471660D01*
X6441440Y9657080D01*
X4897121Y9658293D01*
X4892040Y9657080D01*
X4826000Y9591040D01*
Y8897620D01*
X4648200D01*
Y9283700D01*
X4622800Y9309100D01*
X3229299D01*
X3229241Y9309392D01*
X3225800Y9314541D01*
Y9364980D01*
X3272388D01*
X3280800Y9363307D01*
X3289212Y9364980D01*
X3408680D01*
X3449320Y9405620D01*
X3449320Y9745980D01*
X3408680Y9786620D01*
X3225800D01*
Y9837059D01*
X3229241Y9842208D01*
X3229804Y9845040D01*
X6654800D01*
X6825327Y9674513D01*
D02*
G37*
G36*
X6090920Y8897620D02*
Y8646160D01*
X6062980Y8618220D01*
X5730240D01*
Y8669020D01*
X5996940D01*
X6017260Y8689340D01*
Y8846820D01*
X5991860Y8872220D01*
X5730240D01*
Y8923020D01*
X6065520D01*
X6090920Y8897620D01*
D02*
G37*
G36*
X4953000Y8699500D02*
Y8404860D01*
X4902200D01*
Y8661400D01*
X4861560Y8702040D01*
X4739640Y8702040D01*
X4699000Y8661400D01*
Y8404860D01*
X4648200D01*
Y8696960D01*
X4706620Y8755380D01*
X4897120D01*
X4953000Y8699500D01*
D02*
G37*
G36*
X7802880Y8536940D02*
Y8277860D01*
X7767320Y8242300D01*
X7658100D01*
X7620000Y8280400D01*
X7388860D01*
Y8534400D01*
X7625080D01*
X7663180Y8572500D01*
X7767320D01*
X7802880Y8536940D01*
D02*
G37*
G36*
Y8054340D02*
Y7795260D01*
X7767320Y7759700D01*
X7658100D01*
X7620000Y7797800D01*
X7388860D01*
Y8051800D01*
X7625080D01*
X7663180Y8089900D01*
X7767320D01*
X7802880Y8054340D01*
D02*
G37*
G36*
Y7571740D02*
Y7312660D01*
X7767320Y7277100D01*
X7658100D01*
X7620000Y7315200D01*
X7388860D01*
Y7569200D01*
X7625080D01*
X7663180Y7607300D01*
X7767320D01*
X7802880Y7571740D01*
D02*
G37*
G36*
Y7089140D02*
Y6830060D01*
X7767320Y6794500D01*
X7658100D01*
X7620000Y6832600D01*
X7388860D01*
Y7086600D01*
X7625080D01*
X7663180Y7124700D01*
X7767320D01*
X7802880Y7089140D01*
D02*
G37*
G36*
X6997700Y8608156D02*
Y6776720D01*
X6898640Y6677660D01*
X6367780D01*
X6234600Y6544480D01*
Y6417301D01*
X6226399Y6409100D01*
X5967815D01*
X5962670Y6411232D01*
X5958731Y6415170D01*
X5956600Y6420315D01*
Y6423100D01*
Y6728760D01*
X6299200Y7071360D01*
Y8455660D01*
X6263640Y8491220D01*
X6223000D01*
Y8669020D01*
X6936836D01*
X6997700Y8608156D01*
D02*
G37*
G36*
X5934600Y6423100D02*
Y6420315D01*
X5932468Y6415170D01*
X5928530Y6411232D01*
X5923385Y6409100D01*
X5917815D01*
X5912670Y6411232D01*
X5908731Y6415170D01*
X5906600Y6420315D01*
Y6423100D01*
X5906600D01*
Y6494100D01*
X5934600D01*
Y6423100D01*
D02*
G37*
G36*
X5884600D02*
Y6420315D01*
X5882468Y6415170D01*
X5878530Y6411232D01*
X5873384Y6409100D01*
X5867815D01*
X5862670Y6411232D01*
X5858731Y6415170D01*
X5856600Y6420315D01*
Y6423100D01*
Y6494100D01*
X5884600D01*
Y6423100D01*
D02*
G37*
G36*
X5834600D02*
Y6420315D01*
X5832468Y6415170D01*
X5828530Y6411232D01*
X5823385Y6409100D01*
X5817815D01*
X5812670Y6411232D01*
X5808731Y6415170D01*
X5806600Y6420315D01*
Y6423100D01*
Y6494100D01*
X5834600D01*
Y6423100D01*
D02*
G37*
G36*
X5784600D02*
Y6420315D01*
X5782468Y6415170D01*
X5778530Y6411232D01*
X5773384Y6409100D01*
X5767815D01*
X5762669Y6411232D01*
X5758731Y6415170D01*
X5756600Y6420315D01*
Y6423100D01*
Y6494100D01*
X5784600D01*
X5784600Y6423100D01*
D02*
G37*
G36*
X5734600D02*
Y6420315D01*
X5732468Y6415170D01*
X5728530Y6411232D01*
X5723385Y6409100D01*
X5717815D01*
X5712670Y6411232D01*
X5708731Y6415170D01*
X5706600Y6420315D01*
Y6423100D01*
Y6494100D01*
X5734600D01*
Y6423100D01*
D02*
G37*
G36*
X6228530Y5996968D02*
X6234600Y5990899D01*
Y5987885D01*
Y5985100D01*
Y5914100D01*
X6344800Y5803900D01*
X7172960D01*
Y5494020D01*
X6083300D01*
X5956599Y5620720D01*
X5956600Y5985100D01*
Y5987885D01*
X5958731Y5993030D01*
X5962670Y5996968D01*
X5967815Y5999100D01*
X5973385D01*
X5978530Y5996968D01*
X6012669D01*
X6017815Y5999100D01*
X6023384D01*
X6028530Y5996968D01*
X6062670D01*
X6067815Y5999100D01*
X6073385D01*
X6078530Y5996968D01*
X6112670D01*
X6117815Y5999100D01*
X6123385D01*
X6128530Y5996968D01*
X6162670D01*
X6167815Y5999100D01*
X6173385D01*
X6178530Y5996968D01*
X6212670D01*
X6217815Y5999100D01*
X6223385D01*
X6228530Y5996968D01*
D02*
G37*
G36*
X5928530D02*
X5932468Y5993030D01*
X5934600Y5987885D01*
Y5985100D01*
Y5914100D01*
X5906600D01*
X5906600Y5985100D01*
Y5987885D01*
X5908731Y5993030D01*
X5912670Y5996968D01*
X5917815Y5999100D01*
X5923385D01*
X5928530Y5996968D01*
D02*
G37*
G36*
X5878530D02*
X5882468Y5993030D01*
X5884600Y5987885D01*
Y5985100D01*
Y5914100D01*
X5856600D01*
Y5985100D01*
Y5987885D01*
X5858731Y5993030D01*
X5862670Y5996968D01*
X5867815Y5999100D01*
X5873384D01*
X5878530Y5996968D01*
D02*
G37*
G36*
X5828530D02*
X5832468Y5993030D01*
X5834600Y5987885D01*
Y5985100D01*
Y5914100D01*
X5806600D01*
Y5985100D01*
Y5987885D01*
X5808731Y5993030D01*
X5812670Y5996968D01*
X5817815Y5999100D01*
X5823385D01*
X5828530Y5996968D01*
D02*
G37*
G36*
X5778530D02*
X5782468Y5993030D01*
X5784600Y5987885D01*
Y5985100D01*
X5784600D01*
Y5914100D01*
X5756600D01*
Y5985100D01*
Y5987885D01*
X5758731Y5993030D01*
X5762669Y5996968D01*
X5767815Y5999100D01*
X5773384D01*
X5778530Y5996968D01*
D02*
G37*
G36*
X5728530D02*
X5732468Y5993030D01*
X5734600Y5987885D01*
Y5985100D01*
Y5914100D01*
X5706600D01*
Y5985100D01*
Y5987885D01*
X5708731Y5993030D01*
X5712670Y5996968D01*
X5717815Y5999100D01*
X5723385D01*
X5728530Y5996968D01*
D02*
G37*
G36*
X12494260Y6576060D02*
Y2893060D01*
X12446000Y2844800D01*
X8966200D01*
X8790332Y3020668D01*
Y4189068D01*
X8204200Y4775200D01*
Y6451600D01*
X8432800Y6680200D01*
X10344766D01*
X10941804Y6083161D01*
Y6042660D01*
X10849892D01*
Y6044400D01*
X10694092D01*
Y5893600D01*
X10753998D01*
Y5871000D01*
X10737692D01*
Y5759096D01*
X10731900D01*
X10720039Y5756736D01*
X10709983Y5750017D01*
X10696883Y5736917D01*
X10690164Y5726862D01*
X10687804Y5715000D01*
Y5610500D01*
X10683872D01*
X10666267Y5603207D01*
X10663436Y5600376D01*
X10650736Y5605637D01*
Y5806440D01*
X10648376Y5818302D01*
X10641657Y5828357D01*
X10619997Y5850017D01*
X10609941Y5856736D01*
X10605492Y5857622D01*
Y5871000D01*
X10500692D01*
Y5830492D01*
X10487992Y5824254D01*
X10487300Y5824788D01*
Y5826128D01*
X10480007Y5843733D01*
X10466533Y5857207D01*
X10448928Y5864500D01*
X10429872D01*
X10412267Y5857207D01*
X10398793Y5843733D01*
X10391500Y5826128D01*
Y5807072D01*
X10398793Y5789467D01*
X10398029Y5785631D01*
X10386867Y5781007D01*
X10373393Y5767533D01*
X10366100Y5749928D01*
Y5730872D01*
X10373393Y5713267D01*
X10386867Y5699793D01*
X10404472Y5692500D01*
X10423528D01*
X10425817Y5693448D01*
X10433065Y5692007D01*
X10500692D01*
Y5685200D01*
X10588744D01*
Y5534660D01*
X10591104Y5522798D01*
X10597823Y5512743D01*
X10640456Y5470109D01*
Y5438660D01*
X10549521D01*
Y5503381D01*
X10556207Y5510067D01*
X10563500Y5527672D01*
Y5546728D01*
X10556207Y5564333D01*
X10542733Y5577807D01*
X10525128Y5585100D01*
X10506072D01*
X10488467Y5577807D01*
X10474993Y5564333D01*
X10467700Y5546728D01*
Y5527672D01*
X10474993Y5510067D01*
X10487530Y5497529D01*
Y5438660D01*
X10282082D01*
Y5241660D01*
X10719926D01*
X10726850Y5228960D01*
X10721700Y5216528D01*
Y5210071D01*
X10709000Y5201585D01*
X10702928Y5204100D01*
X10683872D01*
X10666267Y5196807D01*
X10652793Y5183333D01*
X10645500Y5165728D01*
Y5146672D01*
X10652793Y5129067D01*
X10662404Y5119455D01*
Y4915039D01*
X10297961Y4550596D01*
X10147792D01*
Y4634707D01*
X10194653D01*
X10196367Y4632993D01*
X10213972Y4625700D01*
X10233028D01*
X10250633Y4632993D01*
X10264107Y4646467D01*
X10271400Y4664072D01*
Y4683128D01*
X10264107Y4700733D01*
X10250633Y4714207D01*
X10233028Y4721500D01*
X10213972D01*
X10196367Y4714207D01*
X10189053Y4706894D01*
X10147792D01*
Y4707370D01*
X9950792D01*
Y4704093D01*
X9906500D01*
Y4737004D01*
X9950792D01*
Y4728630D01*
X10147792D01*
Y4830074D01*
X10160492Y4835271D01*
X10175872Y4828900D01*
X10194928D01*
X10212533Y4836193D01*
X10226007Y4849667D01*
X10233300Y4867272D01*
Y4886328D01*
X10226007Y4903933D01*
X10212533Y4917407D01*
X10194928Y4924700D01*
X10188544D01*
X10173692Y4939552D01*
X10161982Y4947376D01*
X10148170Y4950123D01*
X10147792D01*
Y5078630D01*
Y5207370D01*
X9950792D01*
Y5078630D01*
Y4954093D01*
X9921492D01*
Y5006700D01*
X9770692D01*
X9606292Y5171100D01*
X9572792D01*
Y5171100D01*
Y5171100D01*
X9331992D01*
Y5171100D01*
X9327092Y5168100D01*
X9171292D01*
Y5017300D01*
Y4915300D01*
X9170092Y4914100D01*
Y4763300D01*
X9325891D01*
X9331992Y4760300D01*
Y4760300D01*
X9572792D01*
Y4807704D01*
X9588361D01*
X9649983Y4746083D01*
X9660038Y4739364D01*
X9671900Y4737004D01*
X9750700D01*
Y4602996D01*
X9616002D01*
X9604140Y4600636D01*
X9594085Y4593917D01*
X9549359Y4549192D01*
X9337400D01*
Y4672800D01*
X9181600D01*
Y4522000D01*
X9228505D01*
Y4490000D01*
X9213492D01*
Y4349200D01*
X9323492D01*
Y4209200D01*
X9365804D01*
Y4177500D01*
X9318900D01*
Y4026700D01*
X9474700D01*
Y4161896D01*
X9479313Y4164979D01*
X9521517Y4207183D01*
X9528236Y4217238D01*
X9530596Y4229100D01*
Y4394061D01*
X9626739Y4490204D01*
X9918700D01*
X9930562Y4492564D01*
X9938092Y4497596D01*
X9950792Y4493391D01*
Y4378630D01*
Y4278630D01*
X10147792D01*
Y4337005D01*
X10540200D01*
X10552062Y4339364D01*
X10562117Y4346083D01*
X10858639Y4642604D01*
X11317055D01*
X11326667Y4632993D01*
X11344272Y4625700D01*
X11363328D01*
X11380933Y4632993D01*
X11394407Y4646467D01*
X11401700Y4664072D01*
Y4683128D01*
X11394407Y4700733D01*
X11380933Y4714207D01*
X11372920Y4717527D01*
Y4731273D01*
X11380933Y4734593D01*
X11394407Y4748067D01*
X11401700Y4765672D01*
Y4784728D01*
X11394407Y4802333D01*
X11380933Y4815807D01*
X11363328Y4823100D01*
X11344272D01*
X11326667Y4815807D01*
X11317055Y4806196D01*
X10871200D01*
X10859338Y4803836D01*
X10849283Y4797117D01*
X10501161Y4448996D01*
X10147792D01*
Y4488604D01*
X10310800D01*
X10322662Y4490964D01*
X10332717Y4497683D01*
X10715317Y4880283D01*
X10722036Y4890338D01*
X10724396Y4902200D01*
Y5119455D01*
X10734007Y5129067D01*
X10741300Y5146672D01*
Y5153129D01*
X10754000Y5161615D01*
X10760072Y5159100D01*
X10779128D01*
X10796733Y5166393D01*
X10810207Y5179867D01*
X10817500Y5197472D01*
Y5216528D01*
X10812350Y5228960D01*
X10819274Y5241660D01*
X11353432D01*
X11358292Y5229927D01*
X11290161Y5161796D01*
X11161945D01*
X11152333Y5171407D01*
X11134728Y5178700D01*
X11115672D01*
X11098067Y5171407D01*
X11084593Y5157933D01*
X11077300Y5140328D01*
Y5121272D01*
X11084593Y5103667D01*
X11098067Y5090193D01*
X11115672Y5082900D01*
X11134728D01*
X11152333Y5090193D01*
X11161945Y5099804D01*
X11303000D01*
X11314862Y5102164D01*
X11324917Y5108883D01*
X11370419Y5154385D01*
X11385400Y5151405D01*
X11389393Y5141767D01*
X11402867Y5128293D01*
X11420472Y5121000D01*
X11439528D01*
X11457133Y5128293D01*
X11461197Y5132357D01*
X11495112D01*
Y5128630D01*
X11692112D01*
Y5131907D01*
X11739192D01*
Y5104093D01*
X11692112D01*
Y5107370D01*
X11495112D01*
Y5054596D01*
X10988727D01*
X10988007Y5056333D01*
X10974533Y5069807D01*
X10956928Y5077100D01*
X10937872D01*
X10920267Y5069807D01*
X10906793Y5056333D01*
X10899500Y5038728D01*
Y5019672D01*
X10906793Y5002067D01*
X10920267Y4988593D01*
X10937872Y4981300D01*
X10956928D01*
X10974533Y4988593D01*
X10978545Y4992604D01*
X11365168D01*
X11372224Y4982045D01*
X11369400Y4975228D01*
Y4956172D01*
X11369451Y4956050D01*
X11359731Y4946329D01*
X11350628Y4950100D01*
X11331572D01*
X11313967Y4942807D01*
X11300493Y4929333D01*
X11293200Y4911728D01*
Y4892672D01*
X11300493Y4875067D01*
X11313967Y4861593D01*
X11331572Y4854300D01*
X11350628D01*
X11368233Y4861593D01*
X11377845Y4871204D01*
X11495112D01*
Y4778630D01*
Y4678630D01*
Y4578630D01*
Y4496386D01*
X11319355D01*
X11312353Y4503387D01*
X11294748Y4510680D01*
X11275692D01*
X11258087Y4503387D01*
X11244613Y4489913D01*
X11237320Y4472308D01*
Y4453252D01*
X11244613Y4435647D01*
X11258087Y4422173D01*
X11275692Y4414880D01*
X11281159D01*
X11286420Y4402180D01*
X11285253Y4401013D01*
X11277960Y4383408D01*
Y4364352D01*
X11285253Y4346747D01*
X11298727Y4333273D01*
X11316332Y4325980D01*
X11335388D01*
X11349872Y4331980D01*
X11359190Y4326883D01*
X11361780Y4324212D01*
Y4311012D01*
X11369073Y4293407D01*
X11382547Y4279933D01*
X11400152Y4272640D01*
X11419208D01*
X11436813Y4279933D01*
X11450287Y4293407D01*
X11457580Y4311012D01*
Y4324606D01*
X11469979Y4337004D01*
X11495112D01*
Y4228630D01*
Y4128630D01*
Y4028630D01*
Y3928630D01*
X11692112D01*
Y4037004D01*
X11940642D01*
X11943980Y3984700D01*
Y3863900D01*
X12374780D01*
Y3931306D01*
X12375376Y3934300D01*
X12374780Y3937294D01*
Y3984700D01*
X12365376D01*
Y4175620D01*
X12363016Y4187482D01*
X12356297Y4197537D01*
X12313917Y4239917D01*
X12303862Y4246636D01*
X12292000Y4248996D01*
X11692112D01*
Y4328630D01*
Y4428630D01*
Y4528630D01*
Y4628630D01*
Y4728630D01*
Y4828630D01*
Y4928630D01*
Y5031907D01*
X11739192D01*
Y4950100D01*
X11889992D01*
Y5104900D01*
Y5260700D01*
X11739192D01*
Y5204093D01*
X11692112D01*
Y5207370D01*
X11495112D01*
Y5204544D01*
X11462097D01*
X11457133Y5209507D01*
X11447495Y5213500D01*
X11443838Y5225762D01*
X11444170Y5228533D01*
X11450088Y5237390D01*
X11450937Y5241660D01*
X11460822D01*
Y5438660D01*
X11352447D01*
Y5637405D01*
X11363007Y5644461D01*
X11369672Y5641700D01*
X11388728D01*
X11406333Y5648993D01*
X11419807Y5662467D01*
X11427100Y5680072D01*
Y5699128D01*
X11419807Y5716733D01*
X11410196Y5726345D01*
Y5765800D01*
X11407836Y5777662D01*
X11401117Y5787717D01*
X11359396Y5829439D01*
Y6273800D01*
X11357036Y6285662D01*
X11350317Y6295717D01*
X10977568Y6668467D01*
X10982428Y6680200D01*
X12135604D01*
Y4788039D01*
X12102961Y4755396D01*
X11874500D01*
X11862638Y4753036D01*
X11852583Y4746317D01*
X11827766Y4721500D01*
X11814172D01*
X11796567Y4714207D01*
X11783093Y4700733D01*
X11775800Y4683128D01*
Y4664072D01*
X11783093Y4646467D01*
X11796567Y4632993D01*
X11814172Y4625700D01*
X11833228D01*
X11850833Y4632993D01*
X11864307Y4646467D01*
X11871600Y4664072D01*
Y4677666D01*
X11887339Y4693404D01*
X11922903D01*
X11928164Y4680704D01*
X11922793Y4675333D01*
X11915500Y4657728D01*
Y4638672D01*
X11922793Y4621067D01*
X11936267Y4607593D01*
X11953872Y4600300D01*
X11972928D01*
X11990533Y4607593D01*
X12000145Y4617204D01*
X12141200D01*
X12153062Y4619564D01*
X12163117Y4626283D01*
X12225471Y4688637D01*
X12237204Y4683777D01*
Y4407039D01*
X12179161Y4348996D01*
X11873145D01*
X11863533Y4358607D01*
X11845928Y4365900D01*
X11826872D01*
X11809267Y4358607D01*
X11795793Y4345133D01*
X11788500Y4327528D01*
Y4308472D01*
X11795793Y4290867D01*
X11809267Y4277393D01*
X11826872Y4270100D01*
X11845928D01*
X11863533Y4277393D01*
X11873145Y4287004D01*
X12192000D01*
X12203862Y4289364D01*
X12213917Y4296083D01*
X12290117Y4372283D01*
X12296836Y4382338D01*
X12299196Y4394200D01*
Y6680200D01*
X12390120D01*
X12494260Y6576060D01*
D02*
G37*
G36*
X9524333Y4475467D02*
X9477683Y4428817D01*
X9470964Y4418762D01*
X9468604Y4406900D01*
Y4252037D01*
X9466992Y4250960D01*
X9454292Y4257748D01*
Y4350000D01*
X9344292D01*
Y4487200D01*
X9519472D01*
X9524333Y4475467D01*
D02*
G37*
G36*
X7172960Y4684917D02*
Y3827780D01*
X4654346D01*
X4486173Y3995953D01*
X4874095Y4383875D01*
X6672001D01*
Y4690801D01*
X6672580Y4691380D01*
X7163957Y4693874D01*
X7172960Y4684917D01*
D02*
G37*
G36*
X7991773Y4174827D02*
Y4008347D01*
Y3763347D01*
Y3643293D01*
X7917180Y3568700D01*
X7434580D01*
X7411720Y3591560D01*
Y4208780D01*
X7457440Y4254500D01*
X7912100D01*
X7991773Y4174827D01*
D02*
G37*
G36*
X8181340Y3924300D02*
X8503920D01*
X8572500Y3855720D01*
Y3566160D01*
X8529320Y3522980D01*
X8148320D01*
X8046720Y3624580D01*
Y3944620D01*
X8161020D01*
X8181340Y3924300D01*
D02*
G37*
G36*
X7266940Y3657600D02*
Y3395980D01*
X7246620Y3375660D01*
X6123940D01*
X6103620Y3395980D01*
Y3655060D01*
X6136640Y3688080D01*
X7236460D01*
X7266940Y3657600D01*
D02*
G37*
%LPC*%
G36*
X3580100Y10196093D02*
X3566288Y10193346D01*
X3554578Y10185522D01*
X3546754Y10173812D01*
X3544007Y10160000D01*
X3546754Y10146188D01*
X3554578Y10134478D01*
X3555878Y10133178D01*
X3567588Y10125354D01*
X3581400Y10122607D01*
X3595212Y10125354D01*
X3606922Y10133178D01*
X3614746Y10144888D01*
X3617493Y10158700D01*
X3614746Y10172512D01*
X3606922Y10184222D01*
X3605622Y10185522D01*
X3593912Y10193346D01*
X3580100Y10196093D01*
D02*
G37*
G36*
X3806500Y10234400D02*
X3663700D01*
Y10085600D01*
X3687999D01*
X3693260Y10072900D01*
X3693193Y10072833D01*
X3685900Y10055228D01*
Y10036172D01*
X3693193Y10018567D01*
X3706667Y10005093D01*
X3724272Y9997800D01*
X3743328D01*
X3760933Y10005093D01*
X3774407Y10018567D01*
X3781700Y10036172D01*
Y10055228D01*
X3774407Y10072833D01*
X3774340Y10072900D01*
X3779601Y10085600D01*
X3806500D01*
Y10234400D01*
D02*
G37*
G36*
X4121120Y9980193D02*
X4107308Y9977446D01*
X4095598Y9969622D01*
X4087774Y9957912D01*
X4085027Y9944100D01*
X4087774Y9930288D01*
X4095598Y9918578D01*
X4098138Y9916038D01*
X4109848Y9908214D01*
X4123660Y9905467D01*
X4137472Y9908214D01*
X4149182Y9916038D01*
X4157006Y9927748D01*
X4159753Y9941560D01*
X4157006Y9955372D01*
X4149182Y9967082D01*
X4146642Y9969622D01*
X4134932Y9977446D01*
X4121120Y9980193D01*
D02*
G37*
G36*
X10324762Y6621700D02*
X10300038D01*
X10276156Y6615301D01*
X10254744Y6602939D01*
X10237261Y6585456D01*
X10224899Y6564044D01*
X10218500Y6540162D01*
Y6515438D01*
X10224899Y6491556D01*
X10237261Y6470144D01*
X10254744Y6452661D01*
X10276156Y6440299D01*
X10300038Y6433900D01*
X10324762D01*
X10348644Y6440299D01*
X10370056Y6452661D01*
X10387539Y6470144D01*
X10399901Y6491556D01*
X10406300Y6515438D01*
Y6540162D01*
X10399901Y6564044D01*
X10387539Y6585456D01*
X10370056Y6602939D01*
X10348644Y6615301D01*
X10324762Y6621700D01*
D02*
G37*
G36*
X10070762D02*
X10046038D01*
X10022156Y6615301D01*
X10000744Y6602939D01*
X9983261Y6585456D01*
X9970899Y6564044D01*
X9964500Y6540162D01*
Y6515438D01*
X9970899Y6491556D01*
X9983261Y6470144D01*
X10000744Y6452661D01*
X10022156Y6440299D01*
X10046038Y6433900D01*
X10070762D01*
X10094644Y6440299D01*
X10116056Y6452661D01*
X10133539Y6470144D01*
X10145901Y6491556D01*
X10152300Y6515438D01*
Y6540162D01*
X10145901Y6564044D01*
X10133539Y6585456D01*
X10116056Y6602939D01*
X10094644Y6615301D01*
X10070762Y6621700D01*
D02*
G37*
G36*
X9816762D02*
X9792038D01*
X9768156Y6615301D01*
X9746744Y6602939D01*
X9729261Y6585456D01*
X9716899Y6564044D01*
X9710500Y6540162D01*
Y6515438D01*
X9716899Y6491556D01*
X9729261Y6470144D01*
X9746744Y6452661D01*
X9768156Y6440299D01*
X9792038Y6433900D01*
X9816762D01*
X9840644Y6440299D01*
X9862056Y6452661D01*
X9879539Y6470144D01*
X9891901Y6491556D01*
X9898300Y6515438D01*
Y6540162D01*
X9891901Y6564044D01*
X9879539Y6585456D01*
X9862056Y6602939D01*
X9840644Y6615301D01*
X9816762Y6621700D01*
D02*
G37*
G36*
X9562762D02*
X9538038D01*
X9514156Y6615301D01*
X9492744Y6602939D01*
X9475261Y6585456D01*
X9462899Y6564044D01*
X9456500Y6540162D01*
Y6515438D01*
X9462899Y6491556D01*
X9475261Y6470144D01*
X9492744Y6452661D01*
X9514156Y6440299D01*
X9538038Y6433900D01*
X9562762D01*
X9586644Y6440299D01*
X9608056Y6452661D01*
X9625539Y6470144D01*
X9637901Y6491556D01*
X9644300Y6515438D01*
Y6540162D01*
X9637901Y6564044D01*
X9625539Y6585456D01*
X9608056Y6602939D01*
X9586644Y6615301D01*
X9562762Y6621700D01*
D02*
G37*
G36*
X9054762D02*
X9030038D01*
X9006156Y6615301D01*
X8984744Y6602939D01*
X8967261Y6585456D01*
X8954899Y6564044D01*
X8948500Y6540162D01*
Y6515438D01*
X8954899Y6491556D01*
X8967261Y6470144D01*
X8984744Y6452661D01*
X9006156Y6440299D01*
X9030038Y6433900D01*
X9054762D01*
X9078644Y6440299D01*
X9100056Y6452661D01*
X9117539Y6470144D01*
X9129901Y6491556D01*
X9136300Y6515438D01*
Y6540162D01*
X9129901Y6564044D01*
X9117539Y6585456D01*
X9100056Y6602939D01*
X9078644Y6615301D01*
X9054762Y6621700D01*
D02*
G37*
G36*
X8882300D02*
X8694500D01*
Y6433900D01*
X8882300D01*
Y6621700D01*
D02*
G37*
G36*
X11667868Y6649000D02*
X11649332D01*
X11631427Y6644202D01*
X11615373Y6634934D01*
X11602266Y6621827D01*
X11592998Y6605773D01*
X11588200Y6587868D01*
Y6569332D01*
X11592998Y6551427D01*
X11602266Y6535373D01*
X11615373Y6522266D01*
X11617409Y6521091D01*
Y6481280D01*
X11554100D01*
Y6330480D01*
X11619500D01*
Y6273800D01*
X11619884Y6271871D01*
Y6258424D01*
X11622990Y6242807D01*
X11631836Y6229568D01*
X11645075Y6220722D01*
X11660692Y6217616D01*
X11676308Y6220722D01*
X11684027Y6225880D01*
X11693192Y6228519D01*
X11702357Y6225880D01*
X11710075Y6220722D01*
X11725692Y6217616D01*
X11741308Y6220722D01*
X11749027Y6225880D01*
X11758192Y6228519D01*
X11767357Y6225880D01*
X11775076Y6220722D01*
X11790692Y6217616D01*
X11806308Y6220722D01*
X11819547Y6229568D01*
X11828393Y6242807D01*
X11831500Y6258424D01*
Y6289783D01*
X11828393Y6305399D01*
X11821688Y6315435D01*
Y6334633D01*
X11858317Y6371263D01*
X11865036Y6381318D01*
X11867396Y6393180D01*
Y6451600D01*
X11865036Y6463462D01*
X11858317Y6473517D01*
X11807517Y6524317D01*
X11797462Y6531036D01*
X11785600Y6533396D01*
X11747639D01*
X11725345Y6555690D01*
X11729000Y6569332D01*
Y6587868D01*
X11724202Y6605773D01*
X11714934Y6621827D01*
X11701827Y6634934D01*
X11685773Y6644202D01*
X11667868Y6649000D01*
D02*
G37*
G36*
X11725692Y6139984D02*
X11713415Y6137542D01*
X11700715Y6139200D01*
Y6139200D01*
X11700715Y6139200D01*
X11620668D01*
Y6027793D01*
X11624598D01*
Y5974800D01*
X11572792D01*
Y5824001D01*
X11572791D01*
Y5822399D01*
X11572792D01*
Y5671600D01*
X11609807D01*
Y5645047D01*
X11605293Y5640533D01*
X11598000Y5622928D01*
Y5603872D01*
X11605293Y5586267D01*
X11618767Y5572793D01*
X11636372Y5565500D01*
X11655428D01*
X11673033Y5572793D01*
X11686507Y5586267D01*
X11693800Y5603872D01*
Y5622928D01*
X11686507Y5640533D01*
X11681993Y5645047D01*
Y5671600D01*
X11728592D01*
Y5822399D01*
X11728592D01*
Y5824001D01*
X11728592D01*
Y5974800D01*
X11754547Y6000755D01*
Y6038962D01*
X11763393Y6052200D01*
X11766499Y6067817D01*
Y6099176D01*
X11763393Y6114793D01*
X11754547Y6128032D01*
X11741308Y6136877D01*
X11725692Y6139984D01*
D02*
G37*
G36*
X8882300Y6177200D02*
X8694500D01*
Y5989400D01*
X8882300D01*
Y6042109D01*
X9045400D01*
Y6027900D01*
X9231200D01*
Y6138700D01*
X9045400D01*
Y6124491D01*
X8882300D01*
Y6177200D01*
D02*
G37*
G36*
X9663900Y6073700D02*
X9513100D01*
Y6019296D01*
X9471200D01*
Y6043700D01*
X9285400D01*
Y5932900D01*
X9471200D01*
Y5957304D01*
X9513100D01*
Y5942900D01*
X9570204D01*
Y5929545D01*
X9560593Y5919933D01*
X9553300Y5902328D01*
Y5883272D01*
X9560593Y5865667D01*
X9574067Y5852193D01*
X9591672Y5844900D01*
X9610728D01*
X9628333Y5852193D01*
X9641807Y5865667D01*
X9649100Y5883272D01*
Y5902328D01*
X9641807Y5919933D01*
X9632196Y5929545D01*
Y5942900D01*
X9663900D01*
Y6073700D01*
D02*
G37*
G36*
X8800762Y5923200D02*
X8776038D01*
X8752156Y5916801D01*
X8730744Y5904439D01*
X8713261Y5886956D01*
X8700899Y5865544D01*
X8694500Y5841662D01*
Y5816938D01*
X8700899Y5793056D01*
X8713261Y5771644D01*
X8730744Y5754161D01*
X8752156Y5741799D01*
X8776038Y5735400D01*
X8800762D01*
X8824644Y5741799D01*
X8846056Y5754161D01*
X8863539Y5771644D01*
X8875901Y5793056D01*
X8882300Y5816938D01*
Y5841662D01*
X8875901Y5865544D01*
X8863539Y5886956D01*
X8846056Y5904439D01*
X8824644Y5916801D01*
X8800762Y5923200D01*
D02*
G37*
G36*
Y5669200D02*
X8776038D01*
X8752156Y5662801D01*
X8730744Y5650439D01*
X8713261Y5632956D01*
X8700899Y5611544D01*
X8694500Y5587662D01*
Y5562938D01*
X8700899Y5539056D01*
X8713261Y5517644D01*
X8730744Y5500161D01*
X8752156Y5487799D01*
X8776038Y5481400D01*
X8800762D01*
X8824644Y5487799D01*
X8846056Y5500161D01*
X8863539Y5517644D01*
X8875901Y5539056D01*
X8882300Y5562938D01*
Y5587662D01*
X8875901Y5611544D01*
X8863539Y5632956D01*
X8846056Y5650439D01*
X8824644Y5662801D01*
X8800762Y5669200D01*
D02*
G37*
G36*
X10291092Y5650700D02*
X10135292D01*
Y5499900D01*
X10185358D01*
Y5438660D01*
X10182082D01*
Y5241660D01*
X10186382D01*
Y5224923D01*
X10182893Y5221433D01*
X10175600Y5203828D01*
Y5184772D01*
X10182893Y5167167D01*
X10196367Y5153693D01*
X10213972Y5146400D01*
X10233028D01*
X10250633Y5153693D01*
X10264107Y5167167D01*
X10271400Y5184772D01*
Y5203828D01*
X10264107Y5221433D01*
X10258569Y5226971D01*
Y5241660D01*
X10260822D01*
Y5438660D01*
X10257545D01*
Y5499900D01*
X10291092D01*
Y5650700D01*
D02*
G37*
G36*
X11186650Y4594500D02*
X11167595D01*
X11149990Y4587207D01*
X11136515Y4573733D01*
X11129223Y4556128D01*
Y4537072D01*
X11136515Y4519467D01*
X11146127Y4509855D01*
Y4458961D01*
X10783923Y4096757D01*
X10773156Y4103951D01*
X10776860Y4112892D01*
Y4131948D01*
X10769567Y4149553D01*
X10756093Y4163027D01*
X10738488Y4170320D01*
X10719432D01*
X10701827Y4163027D01*
X10688353Y4149553D01*
X10681060Y4131948D01*
Y4118354D01*
X10655823Y4093118D01*
X10644333Y4104607D01*
X10626728Y4111900D01*
X10607672D01*
X10590067Y4104607D01*
X10576593Y4091133D01*
X10574690Y4086539D01*
X10562233Y4084061D01*
X10556377Y4089917D01*
X10546322Y4096636D01*
X10534460Y4098996D01*
X10407823D01*
X10402963Y4110729D01*
X10435335Y4143100D01*
X10448928D01*
X10466533Y4150393D01*
X10480007Y4163867D01*
X10487300Y4181472D01*
Y4200528D01*
X10480007Y4218133D01*
X10466533Y4231607D01*
X10448928Y4238900D01*
X10429872D01*
X10412267Y4231607D01*
X10398793Y4218133D01*
X10391500Y4200528D01*
Y4186935D01*
X10378267Y4173701D01*
X10367500Y4180895D01*
X10373000Y4194172D01*
Y4213228D01*
X10365707Y4230833D01*
X10352233Y4244307D01*
X10334628Y4251600D01*
X10322200D01*
Y4264028D01*
X10314907Y4281633D01*
X10301433Y4295107D01*
X10283828Y4302400D01*
X10264772D01*
X10247167Y4295107D01*
X10233693Y4281633D01*
X10226400Y4264028D01*
Y4258890D01*
X10221604Y4254093D01*
X10147792D01*
Y4257370D01*
X9952101D01*
X9940949Y4268522D01*
X9929239Y4276346D01*
X9915427Y4279094D01*
X9896092D01*
Y4320900D01*
X9745292D01*
Y4320901D01*
X9743691D01*
Y4320900D01*
X9592892D01*
Y4165100D01*
Y4010300D01*
X9743691D01*
Y4010299D01*
X9745292D01*
Y4010300D01*
X9896092D01*
Y4069622D01*
X9905356Y4075812D01*
X9939059Y4109515D01*
X9950792Y4104654D01*
Y4028630D01*
Y3928630D01*
X10227629D01*
X10236782Y3919477D01*
Y3894340D01*
X10232082D01*
Y3697340D01*
X10235358D01*
Y3644100D01*
X10173392D01*
Y3493300D01*
X10329192D01*
Y3644100D01*
X10307545D01*
Y3697340D01*
X10340456D01*
Y3674748D01*
X10342815Y3662887D01*
X10349535Y3652831D01*
X10366100Y3636266D01*
Y3622672D01*
X10373393Y3605067D01*
X10386867Y3591593D01*
X10404472Y3584300D01*
X10423528D01*
X10441133Y3591593D01*
X10454607Y3605067D01*
X10461900Y3622672D01*
Y3641728D01*
X10454607Y3659333D01*
X10441133Y3672807D01*
X10423528Y3680100D01*
X10416963D01*
X10413432Y3684640D01*
X10419643Y3697340D01*
X11214792D01*
Y3644100D01*
Y3493300D01*
X11525392D01*
Y3644100D01*
X11457545D01*
Y3697340D01*
X11460822D01*
Y3894340D01*
X11455469D01*
Y3920129D01*
X11457907Y3922567D01*
X11465200Y3940172D01*
Y3959228D01*
X11457907Y3976833D01*
X11444433Y3990307D01*
X11426828Y3997600D01*
X11407772D01*
X11390167Y3990307D01*
X11376693Y3976833D01*
X11369400Y3959228D01*
Y3940172D01*
X11376693Y3922567D01*
X11383283Y3915977D01*
Y3894340D01*
X11382082D01*
Y3723640D01*
X11360822D01*
Y3894340D01*
X11255122D01*
Y3922981D01*
X11267407Y3935267D01*
X11274700Y3952872D01*
Y3971928D01*
X11267407Y3989533D01*
X11253933Y4003007D01*
X11236328Y4010300D01*
X11217272D01*
X11199667Y4003007D01*
X11186193Y3989533D01*
X11182873Y3981520D01*
X11169127D01*
X11165807Y3989533D01*
X11152333Y4003007D01*
X11134728Y4010300D01*
X11115672D01*
X11098067Y4003007D01*
X11092696Y3997636D01*
X11079996Y4002897D01*
Y4052655D01*
X11089607Y4062267D01*
X11096900Y4079872D01*
Y4098928D01*
X11089607Y4116533D01*
X11076133Y4130007D01*
X11058528Y4137300D01*
X11039472D01*
X11021867Y4130007D01*
X11008393Y4116533D01*
X11001100Y4098928D01*
Y4079872D01*
X11008393Y4062267D01*
X11018004Y4052655D01*
Y3914179D01*
X11012518Y3908238D01*
X11006475Y3904534D01*
X11002447Y3905822D01*
Y3984219D01*
X11000088Y3996081D01*
X10995191Y4003409D01*
X10995300Y4003672D01*
Y4022728D01*
X10988007Y4040333D01*
X10974533Y4053807D01*
X10956928Y4061100D01*
X10937872D01*
X10920267Y4053807D01*
X10906793Y4040333D01*
X10899500Y4022728D01*
Y4016271D01*
X10886800Y4007785D01*
X10880728Y4010300D01*
X10861672D01*
X10844067Y4003007D01*
X10830593Y3989533D01*
X10823300Y3971928D01*
Y3952872D01*
X10830593Y3935267D01*
X10840330Y3925529D01*
Y3894340D01*
X10752447D01*
Y3977613D01*
X11199040Y4424206D01*
X11205759Y4434261D01*
X11208118Y4446123D01*
Y4509855D01*
X11217730Y4519467D01*
X11225023Y4537072D01*
Y4556128D01*
X11217730Y4573733D01*
X11204256Y4587207D01*
X11186650Y4594500D01*
D02*
G37*
G36*
X9436800Y3352000D02*
X9156000D01*
Y3202267D01*
X9156000Y3201201D01*
X9156000D01*
X9156079Y3189599D01*
X9156080D01*
Y3058800D01*
X9286880D01*
Y3189600D01*
X9286880Y3189600D01*
X9289534Y3201201D01*
X9306000D01*
X9306000Y3201200D01*
X9436800D01*
Y3240507D01*
X9553783D01*
X9560593Y3224067D01*
X9574067Y3210593D01*
X9591672Y3203300D01*
X9610728D01*
X9628333Y3210593D01*
X9641807Y3224067D01*
X9649100Y3241672D01*
Y3260728D01*
X9641807Y3278333D01*
X9628333Y3291807D01*
X9610728Y3299100D01*
X9604344D01*
X9601322Y3302122D01*
X9589612Y3309946D01*
X9575800Y3312693D01*
X9436800D01*
Y3352000D01*
D02*
G37*
%LPD*%
D10*
X3268980Y9748220D02*
D03*
Y9698220D02*
D03*
Y9648220D02*
D03*
Y9398220D02*
D03*
Y9448220D02*
D03*
Y9498220D02*
D03*
Y9598220D02*
D03*
Y9548220D02*
D03*
D11*
Y9333220D02*
D03*
Y9813220D02*
D03*
Y9253220D02*
D03*
Y9893220D02*
D03*
D12*
X10360800Y9906800D02*
D03*
X10487800D02*
D03*
X12011800Y8156800D02*
D03*
X11884800D02*
D03*
X11757800D02*
D03*
X11630800D02*
D03*
X11503800D02*
D03*
X11376800D02*
D03*
X11249800D02*
D03*
X11122800D02*
D03*
X10995800D02*
D03*
X10868800D02*
D03*
X10741800D02*
D03*
X10614800D02*
D03*
X10487800D02*
D03*
X10360800D02*
D03*
X10614800Y9906800D02*
D03*
X10741800D02*
D03*
X10868800D02*
D03*
X10995800D02*
D03*
X11122800D02*
D03*
X11249800D02*
D03*
X11376800D02*
D03*
X11503800D02*
D03*
X11630800D02*
D03*
X11757800D02*
D03*
X11884800D02*
D03*
X12011800D02*
D03*
D13*
X12184380Y3924300D02*
D03*
X12134380D02*
D03*
X12084380D02*
D03*
X12034380D02*
D03*
X11984380D02*
D03*
X12234380D02*
D03*
X12284380D02*
D03*
X12334380D02*
D03*
D14*
X11905380Y3659300D02*
D03*
X12413380D02*
D03*
D15*
X9381480Y3124200D02*
D03*
X9221480D02*
D03*
X8741400Y8509000D02*
D03*
X8581400D02*
D03*
X5439400Y3530600D02*
D03*
X5279400D02*
D03*
D16*
X11660692Y6274103D02*
D03*
X11725692D02*
D03*
X11790692D02*
D03*
Y6083497D02*
D03*
X11725692D02*
D03*
D17*
X11660692D02*
D03*
D18*
X11725692Y6178800D02*
D03*
D19*
X9371400Y3276600D02*
D03*
X9221400D02*
D03*
X8736400Y8356600D02*
D03*
X8586400D02*
D03*
X11708200Y10363200D02*
D03*
X11558200D02*
D03*
X11405800Y10604500D02*
D03*
X11555800D02*
D03*
X11251000Y10236200D02*
D03*
X11101000D02*
D03*
X9506600Y7688400D02*
D03*
X9656600D02*
D03*
X9656600Y7510600D02*
D03*
X9506600D02*
D03*
X4837500Y10439400D02*
D03*
X4687500D02*
D03*
X4687500Y10274300D02*
D03*
X4837500D02*
D03*
X4520000Y10642600D02*
D03*
X4370000D02*
D03*
X4824800D02*
D03*
X4674800D02*
D03*
D20*
X5105400Y3681800D02*
D03*
Y3531800D02*
D03*
X8242300Y4014400D02*
D03*
Y4164400D02*
D03*
X5791200Y5386000D02*
D03*
Y5536000D02*
D03*
X5613400Y5536000D02*
D03*
Y5386000D02*
D03*
X5410200Y5536000D02*
D03*
Y5386000D02*
D03*
X5257800Y6094800D02*
D03*
Y5944800D02*
D03*
X5461000Y5943600D02*
D03*
Y6093600D02*
D03*
X5245100Y6856800D02*
D03*
Y6706800D02*
D03*
X5422900Y6856800D02*
D03*
Y6706800D02*
D03*
X6096000Y5358200D02*
D03*
Y5208200D02*
D03*
X7831753Y9370907D02*
D03*
Y9520907D02*
D03*
X7366000Y10123100D02*
D03*
Y10273100D02*
D03*
X9588500Y6158300D02*
D03*
Y6008300D02*
D03*
X3873500Y3199200D02*
D03*
Y3049200D02*
D03*
Y5193100D02*
D03*
Y5043100D02*
D03*
Y7123500D02*
D03*
Y6973500D02*
D03*
D21*
X9254400Y7812800D02*
D03*
Y7442800D02*
D03*
D22*
X8971900Y7772800D02*
D03*
Y7482800D02*
D03*
D23*
X9169400Y7457800D02*
D03*
Y7797800D02*
D03*
D24*
X9084400Y7627800D02*
D03*
D25*
X9274400Y7542800D02*
D03*
Y7712800D02*
D03*
D26*
X11800692Y5747000D02*
D03*
X11650692D02*
D03*
X11800692Y5899400D02*
D03*
X11650692D02*
D03*
X10621992Y5969000D02*
D03*
X10771992D02*
D03*
X9249192Y5092700D02*
D03*
X9099192D02*
D03*
X9247992Y4838700D02*
D03*
X9097992D02*
D03*
X10213192Y5575300D02*
D03*
X10063192D02*
D03*
X11632000Y6405880D02*
D03*
X11482000D02*
D03*
X9828600Y4673600D02*
D03*
X9678600D02*
D03*
X9259500Y4597400D02*
D03*
X9409500D02*
D03*
X9396800Y4102100D02*
D03*
X9246800D02*
D03*
X10251292Y3568700D02*
D03*
X10101292D02*
D03*
X11292692D02*
D03*
X11142692D02*
D03*
X11447492D02*
D03*
X11597492D02*
D03*
X5703500Y10071100D02*
D03*
X5853500D02*
D03*
X5703500Y10223500D02*
D03*
X5853500D02*
D03*
X11719700Y10198100D02*
D03*
X11569700D02*
D03*
X11888400D02*
D03*
X12038400D02*
D03*
X11888400Y10363200D02*
D03*
X12038400D02*
D03*
X8920000Y8158300D02*
D03*
X8770000D02*
D03*
X8921200Y8005900D02*
D03*
X8771200D02*
D03*
X9657800Y7853500D02*
D03*
X9507800D02*
D03*
D27*
X7504280Y7442200D02*
D03*
X6882280D02*
D03*
X7505400Y8407400D02*
D03*
X6883400D02*
D03*
X6882280Y6959600D02*
D03*
X7504280D02*
D03*
X6883400Y7924800D02*
D03*
X7505400D02*
D03*
D28*
X9678800Y10261600D02*
D03*
Y10134600D02*
D03*
Y10007600D02*
D03*
Y9880600D02*
D03*
Y9753600D02*
D03*
Y9626600D02*
D03*
X8178800D02*
D03*
Y9753600D02*
D03*
Y9880600D02*
D03*
Y10007600D02*
D03*
Y10134600D02*
D03*
Y10261600D02*
D03*
Y10388600D02*
D03*
Y10515600D02*
D03*
X9678800Y10388600D02*
D03*
Y10515600D02*
D03*
D29*
X4216800Y10275353D02*
D03*
D30*
X4408353Y10150353D02*
D03*
D31*
Y10200353D02*
D03*
Y10250353D02*
D03*
Y10300353D02*
D03*
Y10350353D02*
D03*
Y10400353D02*
D03*
X4025247D02*
D03*
Y10350353D02*
D03*
Y10300353D02*
D03*
Y10250353D02*
D03*
Y10200353D02*
D03*
Y10150353D02*
D03*
D32*
X4341800Y10466906D02*
D03*
X4291800D02*
D03*
X4241800D02*
D03*
X4191800D02*
D03*
X4141800D02*
D03*
X4091800D02*
D03*
Y10083800D02*
D03*
X4141800D02*
D03*
X4191800D02*
D03*
X4241800D02*
D03*
X4291800D02*
D03*
X4341800D02*
D03*
D33*
X10671592Y5753100D02*
D03*
D34*
X10790092Y5828100D02*
D03*
Y5778100D02*
D03*
Y5728100D02*
D03*
Y5678100D02*
D03*
X10553092D02*
D03*
Y5728100D02*
D03*
Y5778100D02*
D03*
Y5828100D02*
D03*
D35*
X5711100Y10600400D02*
D03*
Y10535400D02*
D03*
Y10470400D02*
D03*
Y10405400D02*
D03*
X6176100Y10600400D02*
D03*
Y10535400D02*
D03*
Y10470400D02*
D03*
Y10405400D02*
D03*
D36*
X8079273Y3788347D02*
D03*
Y3853347D02*
D03*
Y3918347D02*
D03*
Y3983347D02*
D03*
X7690653Y9147747D02*
D03*
Y9212747D02*
D03*
Y9277747D02*
D03*
Y9342747D02*
D03*
D37*
X7894320Y3860800D02*
D03*
X7505700Y9220200D02*
D03*
D38*
X5409400Y5130800D02*
D03*
X5563400D02*
D03*
X5942800Y4953000D02*
D03*
X6096800D02*
D03*
D39*
X5613400Y6720900D02*
D03*
Y6893500D02*
D03*
D40*
X5816600Y6729900D02*
D03*
Y6909900D02*
D03*
X3797300Y9193700D02*
D03*
Y9373700D02*
D03*
D41*
X6096000Y4699800D02*
D03*
Y4545800D02*
D03*
D42*
X5720600Y5956600D02*
D03*
X5770600D02*
D03*
X5820600D02*
D03*
X5870600D02*
D03*
X5920600D02*
D03*
X5970600Y5928100D02*
D03*
X6020600D02*
D03*
X6070600Y5956600D02*
D03*
X6120600Y5928100D02*
D03*
X6170600Y5956600D02*
D03*
X6220600Y5928100D02*
D03*
Y6451600D02*
D03*
X6170600D02*
D03*
X6120600D02*
D03*
X6070600D02*
D03*
X6020600D02*
D03*
X5970600Y6479100D02*
D03*
X5920600D02*
D03*
X5870600Y6451600D02*
D03*
X5820600Y6479100D02*
D03*
X5770600Y6451600D02*
D03*
X5720600Y6479100D02*
D03*
D43*
X5970600Y6204100D02*
D03*
D44*
X10049292Y5168000D02*
D03*
Y5118000D02*
D03*
Y5068000D02*
D03*
Y5018000D02*
D03*
Y4968000D02*
D03*
Y4918000D02*
D03*
Y4868000D02*
D03*
Y4818000D02*
D03*
Y4768000D02*
D03*
Y4718000D02*
D03*
Y4668000D02*
D03*
Y4618000D02*
D03*
Y4568000D02*
D03*
Y4518000D02*
D03*
Y4468000D02*
D03*
Y4418000D02*
D03*
Y4368000D02*
D03*
Y4318000D02*
D03*
Y4268000D02*
D03*
Y4218000D02*
D03*
Y4168000D02*
D03*
Y4118000D02*
D03*
Y4068000D02*
D03*
Y4018000D02*
D03*
Y3968000D02*
D03*
X11593612D02*
D03*
Y4018000D02*
D03*
Y4068000D02*
D03*
Y4118000D02*
D03*
Y4168000D02*
D03*
Y4218000D02*
D03*
Y4268000D02*
D03*
Y4318000D02*
D03*
Y4368000D02*
D03*
Y4418000D02*
D03*
Y4468000D02*
D03*
Y4518000D02*
D03*
Y4568000D02*
D03*
Y4618000D02*
D03*
Y4668000D02*
D03*
Y4718000D02*
D03*
Y4768000D02*
D03*
Y4818000D02*
D03*
Y4868000D02*
D03*
Y4918000D02*
D03*
Y4968000D02*
D03*
Y5018000D02*
D03*
Y5068000D02*
D03*
Y5118000D02*
D03*
Y5168000D02*
D03*
D45*
X10221452Y3795840D02*
D03*
X10271452D02*
D03*
X10321452D02*
D03*
X10371452D02*
D03*
X10421452D02*
D03*
X10471452D02*
D03*
X10521452D02*
D03*
X10571452D02*
D03*
X10621452D02*
D03*
X10671452D02*
D03*
X10721452D02*
D03*
X10771452D02*
D03*
X10821452D02*
D03*
X10871452D02*
D03*
X10921452D02*
D03*
X10971452D02*
D03*
X11021452D02*
D03*
X11071452D02*
D03*
X11121452D02*
D03*
X11171452D02*
D03*
X11221452D02*
D03*
X11271452D02*
D03*
X11321452D02*
D03*
X11371452D02*
D03*
X11421452D02*
D03*
Y5340160D02*
D03*
X11371452D02*
D03*
X11321452D02*
D03*
X11271452D02*
D03*
X11221452D02*
D03*
X11171452D02*
D03*
X11121452D02*
D03*
X11071452D02*
D03*
X11021452D02*
D03*
X10971452D02*
D03*
X10921452D02*
D03*
X10871452D02*
D03*
X10821452D02*
D03*
X10771452D02*
D03*
X10721452D02*
D03*
X10671452D02*
D03*
X10621452D02*
D03*
X10571452D02*
D03*
X10521452D02*
D03*
X10471452D02*
D03*
X10421452D02*
D03*
X10371452D02*
D03*
X10321452D02*
D03*
X10271452D02*
D03*
X10221452D02*
D03*
D46*
X9452392Y4840700D02*
D03*
Y5090700D02*
D03*
D47*
X9846092Y4928800D02*
D03*
Y5078800D02*
D03*
X11814592Y5182800D02*
D03*
Y5332800D02*
D03*
Y5028000D02*
D03*
Y4878000D02*
D03*
X9668292Y4243000D02*
D03*
Y4393000D02*
D03*
Y4088200D02*
D03*
Y3938200D02*
D03*
X9820692Y4243000D02*
D03*
Y4393000D02*
D03*
Y4088200D02*
D03*
Y3938200D02*
D03*
X4419600Y6351200D02*
D03*
Y6501200D02*
D03*
X4470400Y3465900D02*
D03*
Y3315900D02*
D03*
Y3161100D02*
D03*
Y3011100D02*
D03*
X4457700Y5167700D02*
D03*
Y5017700D02*
D03*
Y5472500D02*
D03*
Y5322500D02*
D03*
Y7098100D02*
D03*
Y6948100D02*
D03*
Y7402900D02*
D03*
Y7252900D02*
D03*
D48*
X9388892Y4419600D02*
D03*
Y4279600D02*
D03*
X9278892D02*
D03*
Y4419600D02*
D03*
D49*
X6319520Y3902200D02*
D03*
Y3616200D02*
D03*
X6675120Y3902200D02*
D03*
Y3616200D02*
D03*
X7030720Y3902200D02*
D03*
Y3616200D02*
D03*
D50*
X6921500Y5647700D02*
D03*
Y4537700D02*
D03*
D51*
X7575800Y10141600D02*
D03*
X7765800D02*
D03*
X7670800Y10381600D02*
D03*
D52*
X9138300Y6083300D02*
D03*
X9378300Y6178300D02*
D03*
Y5988300D02*
D03*
D53*
X10235800Y8333300D02*
D03*
Y8460300D02*
D03*
Y8587300D02*
D03*
Y8714300D02*
D03*
Y8841300D02*
D03*
Y8968300D02*
D03*
Y9095300D02*
D03*
Y9222300D02*
D03*
Y9349300D02*
D03*
Y9476300D02*
D03*
Y9603300D02*
D03*
Y9730300D02*
D03*
D54*
X11379800Y9041800D02*
D03*
Y9181800D02*
D03*
Y9321800D02*
D03*
X11099800Y9041800D02*
D03*
Y9181800D02*
D03*
Y9321800D02*
D03*
X11239800Y9041800D02*
D03*
Y9321800D02*
D03*
Y9181800D02*
D03*
D55*
X9461800Y8128000D02*
D03*
X9181800D02*
D03*
D56*
X6180980Y9392920D02*
D03*
X6325980D02*
D03*
X5983080Y8338820D02*
D03*
X5838080D02*
D03*
D57*
X6326980Y9227820D02*
D03*
X6179980D02*
D03*
D58*
X6330980Y9062720D02*
D03*
X6175980D02*
D03*
X6343680Y8338820D02*
D03*
X6188680D02*
D03*
X3735100Y10160000D02*
D03*
X3580100D02*
D03*
X4685000Y10109200D02*
D03*
X4840000D02*
D03*
X4278660Y9941560D02*
D03*
X4123660D02*
D03*
X4532600Y9944100D02*
D03*
X4687600D02*
D03*
D59*
X4140200Y8842900D02*
D03*
Y8987900D02*
D03*
X5207000Y8606900D02*
D03*
Y8461900D02*
D03*
D60*
Y9043700D02*
D03*
Y8888700D02*
D03*
X4495800Y8991600D02*
D03*
Y8836600D02*
D03*
X3594100Y9386600D02*
D03*
Y9231600D02*
D03*
D61*
X4673600Y8996680D02*
D03*
X4800600D02*
D03*
X4927600D02*
D03*
X5054600D02*
D03*
Y8503920D02*
D03*
X4927600D02*
D03*
X4800600D02*
D03*
X4673600D02*
D03*
D62*
X4318000Y8988900D02*
D03*
Y8841900D02*
D03*
D63*
X5829300Y8897620D02*
D03*
Y8770620D02*
D03*
Y8643620D02*
D03*
Y8516620D02*
D03*
X6322060D02*
D03*
Y8643620D02*
D03*
Y8770620D02*
D03*
Y8897620D02*
D03*
D64*
X4230600Y6415000D02*
D03*
Y6350000D02*
D03*
Y6285000D02*
D03*
X4038600D02*
D03*
Y6350000D02*
D03*
Y6415000D02*
D03*
D65*
X4103300Y3141800D02*
D03*
X4153300D02*
D03*
X4203300D02*
D03*
X4253300D02*
D03*
X4090600Y5148400D02*
D03*
X4140600D02*
D03*
X4190600D02*
D03*
X4240600D02*
D03*
X4090600Y7078800D02*
D03*
X4140600D02*
D03*
X4190600D02*
D03*
X4240600D02*
D03*
D66*
X4323300Y3211800D02*
D03*
Y3261800D02*
D03*
X4033300Y3211800D02*
D03*
Y3261800D02*
D03*
X4310600Y5218400D02*
D03*
Y5268400D02*
D03*
X4020600Y5218400D02*
D03*
Y5268400D02*
D03*
X4310600Y7148800D02*
D03*
Y7198800D02*
D03*
X4020600Y7148800D02*
D03*
Y7198800D02*
D03*
D67*
X4146500Y3411400D02*
D03*
X4108400D02*
D03*
X4208400D02*
D03*
X4246500D02*
D03*
X4133800Y5418000D02*
D03*
X4095700D02*
D03*
X4195700D02*
D03*
X4233800D02*
D03*
X4133800Y7348400D02*
D03*
X4095700D02*
D03*
X4195700D02*
D03*
X4233800D02*
D03*
D68*
X12103100Y4013200D02*
X12134380Y3981920D01*
Y3924300D02*
Y3981920D01*
X12084380Y3924300D02*
Y3989300D01*
X12103100Y4008020D01*
Y4013200D01*
X12014200Y4012707D02*
Y4013200D01*
X11986590Y3985097D02*
X12014200Y4012707D01*
X12034380Y3924300D02*
Y3993020D01*
X12014200Y4013200D02*
X12034380Y3993020D01*
X11986590Y3926510D02*
Y3985097D01*
X11984380Y3924300D02*
X11986590Y3926510D01*
X11430000Y5168900D02*
X11430450Y5168450D01*
X11593162D02*
X11593612Y5168000D01*
X11430450Y5168450D02*
X11593162D01*
X10414000Y5740400D02*
X10420765D01*
X3911600Y9800561D02*
Y10121900D01*
X3940053Y10150353D01*
X8741400Y8509000D02*
X8864600D01*
X5439400Y3530600D02*
X5563111D01*
X5606291Y3573780D02*
X5608320D01*
X5563111Y3530600D02*
X5606291Y3573780D01*
X9371400Y3276600D02*
X9575800D01*
X9601200Y3251200D01*
X9221400Y3124280D02*
Y3276600D01*
Y3124280D02*
X9221480Y3124200D01*
X5105400Y3531800D02*
X5278200D01*
X5279400Y3530600D01*
X5105400Y3681800D02*
Y3886200D01*
X8581400Y8361600D02*
X8586400Y8356600D01*
X8581400Y8361600D02*
Y8509000D01*
X11455400Y10198100D02*
X11569700D01*
X4091800Y10083800D02*
X4092552Y10083048D01*
X12011800Y8156800D02*
X12014200Y8154400D01*
X12038400Y10198100D02*
X12153900D01*
X12038400Y10363200D02*
X12153900D01*
X9372600Y7886700D02*
X9405800Y7853500D01*
X9507800D01*
X9661500Y7505700D02*
X9766300D01*
X9656600Y7510600D02*
X9661500Y7505700D01*
X8766300Y8001000D02*
X8771200Y8005900D01*
X8661400Y8001000D02*
X8766300D01*
X8661400Y8153400D02*
X8765100D01*
X8770000Y8158300D01*
X9076600Y7620000D02*
X9084400Y7627800D01*
X9169400Y8115600D02*
X9181800Y8128000D01*
X11632000Y6405880D02*
X11658600Y6432480D01*
X10420765Y5740400D02*
X10433065Y5728100D01*
X10553092D01*
X11321452Y3597460D02*
Y3795840D01*
X11593612Y5068000D02*
X11774592D01*
X10049292Y4168000D02*
X10286554D01*
X9946500D02*
X10049292D01*
X11645900Y5742208D02*
X11650692Y5747000D01*
Y5899400D01*
X11645900Y5613400D02*
Y5742208D01*
X11650692Y5899400D02*
X11660692Y5909400D01*
Y6083800D01*
X11634500Y6405880D02*
X11658304Y6429685D01*
X11649812Y6405880D02*
X11660692Y6395000D01*
X11632000Y6405880D02*
X11634500D01*
X11649812D01*
X3911600Y6350000D02*
X4038600D01*
X5612489Y6675900D02*
X5613400D01*
X5638800D01*
X6134100Y6896100D02*
X6146800Y6883400D01*
X6032500Y6896100D02*
X6134100D01*
X7366000Y10273100D02*
Y10401300D01*
X7831753Y9520907D02*
Y9626247D01*
X7690653Y9342747D02*
X7798513D01*
X8079273Y3983347D02*
X8211247D01*
X8242300Y4164400D02*
Y4279900D01*
X5613400Y6893500D02*
Y7035800D01*
X5816600Y6909900D02*
Y7035800D01*
X3580100Y10160000D02*
X3581400Y10158700D01*
X4406900Y9944100D02*
X4532600D01*
X4281200D02*
X4406900D01*
X5613400Y6720900D02*
X5613856Y6743400D01*
X5612489Y6675900D02*
X5613400Y6720900D01*
X4121120Y9944100D02*
X4123660Y9941560D01*
X6907100Y8735900D02*
X6908800Y8737600D01*
X6907100Y8685100D02*
Y8735900D01*
X6846267Y8624267D02*
X6907100Y8685100D01*
X3280800Y9399400D02*
X3282200Y9400800D01*
X6313685Y10602450D02*
X6330535Y10619300D01*
X6337300D01*
X6178150Y10602450D02*
X6313685D01*
X5866200Y10210800D02*
X5969000D01*
X5866200Y10058400D02*
X5969000D01*
X5853500Y10071100D02*
X5866200Y10058400D01*
X6176100Y10600400D02*
X6178150Y10602450D01*
X5710610Y10599910D02*
X5711100Y10600400D01*
X5853500Y10223500D02*
X5866200Y10210800D01*
X4419600Y6501200D02*
Y6629400D01*
Y6501200D02*
X4459600Y6541200D01*
X4420800Y6350000D02*
X4546600D01*
X4230600D02*
X4418400D01*
X3873500Y2933700D02*
Y3049200D01*
X4457700Y7252900D02*
X4471600Y7239000D01*
X4572000D01*
X4457700Y5167700D02*
X4471600Y5181600D01*
X4471600Y5308600D02*
X4572000D01*
X4470280Y5309920D02*
X4471600Y5308600D01*
X4470400Y3313400D02*
X4481800Y3302000D01*
X4597400D01*
X10222476Y5195324D02*
Y5339136D01*
X10221452Y5340160D02*
X10222476Y5339136D01*
Y5195324D02*
X10223500Y5194300D01*
X10221452Y5340160D02*
Y5567040D01*
X10148170Y4914030D02*
X10185400Y4876800D01*
X10053262Y4914030D02*
X10148170D01*
X10049292Y4918000D02*
X10053262Y4914030D01*
X9856892Y4918000D02*
X10049292D01*
X10271452Y3795840D02*
X10272876Y3797264D01*
Y3948276D01*
X10274300Y3949700D01*
X4467860Y3468440D02*
Y3573780D01*
Y3468440D02*
X4470400Y3465900D01*
X3924300Y3314700D02*
X3975287Y3263713D01*
X4031387D02*
X4033300Y3261800D01*
X3975287Y3263713D02*
X4031387D01*
X10790092Y5778100D02*
Y5828100D01*
Y5950900D01*
X10771992Y5969000D02*
X10790092Y5950900D01*
X10771992Y5969000D02*
X10896600D01*
X10220700Y4670800D02*
X10223500Y4673600D01*
X10049292Y4668000D02*
X10052092Y4670800D01*
X10220700D01*
X11419376Y3797916D02*
Y3947624D01*
Y3797916D02*
X11421452Y3795840D01*
X11417300Y3949700D02*
X11419376Y3947624D01*
X11421452Y3594740D02*
Y3795840D01*
X10322254Y4203700D02*
X10325100D01*
X10286554Y4168000D02*
X10322254Y4203700D01*
X10273054Y4254500D02*
X10274300D01*
X10236554Y4218000D02*
X10273054Y4254500D01*
X10049292Y4218000D02*
X10236554D01*
X9833826Y4101334D02*
X9879834D01*
X9946500Y4168000D01*
X9668292Y4088200D02*
X9820692D01*
X9915427Y4243000D02*
X9940427Y4218000D01*
X10049292D01*
X9820692Y4243000D02*
X9915427D01*
X9668292D02*
X9820692D01*
X9835700Y4668000D02*
X10049292D01*
X11593612Y5168000D02*
X11799792D01*
X10271452Y3588860D02*
Y3795840D01*
X11884800Y10194500D02*
X11888400Y10198100D01*
X5613400Y5270500D02*
Y5386000D01*
X5791200Y5270500D02*
Y5386000D01*
X5613400Y6616700D02*
X5765800D01*
X5613400D02*
Y6675900D01*
X5771658Y6610842D02*
X5870600Y6511900D01*
X5765800Y6616700D02*
X5771658Y6610842D01*
X5870600Y6451600D02*
Y6511900D01*
X4140200Y10591800D02*
X4141800Y10590200D01*
Y10466906D02*
Y10590200D01*
X4091800Y10083800D02*
Y10150353D01*
X4216800Y10275353D01*
X4241800Y10083800D02*
Y10250353D01*
X4291800Y10350353D02*
X4408353D01*
X4341800Y10061711D02*
Y10083800D01*
X4291800Y9967400D02*
Y10083800D01*
X3940053Y10150353D02*
X4025247D01*
X4320650Y8839250D02*
X5110430D01*
X5207000Y8606900D02*
Y8742680D01*
X5110430Y8839250D02*
X5207000Y8742680D01*
Y8888700D01*
X4140200Y8987900D02*
Y9093200D01*
X4140700Y8842400D02*
X4317500D01*
X4319350Y8990250D02*
X4494450D01*
X3898800Y7148800D02*
X4020600D01*
X3873500Y7123500D02*
X3898800Y7148800D01*
X3906520Y7241540D02*
Y7244080D01*
Y7241540D02*
X3948336Y7199724D01*
X4019676D01*
X3873500Y6858000D02*
Y6973500D01*
X4457700Y7402900D02*
Y7518400D01*
Y6832600D02*
Y6948100D01*
X4310600Y7148800D02*
X4409500D01*
X4457700Y7100600D01*
X4310600Y7198800D02*
X4406099D01*
X4457700Y7250400D01*
X3873500Y4940300D02*
Y5043100D01*
X3951025Y5273400D02*
X4015600D01*
X3920905Y5303520D02*
X3951025Y5273400D01*
X4015600D02*
X4020600Y5268400D01*
X3914140Y5303520D02*
X3920905D01*
X3898800Y5218400D02*
X4020600D01*
X4457700Y4902200D02*
Y5017700D01*
Y5472500D02*
Y5588000D01*
X4409500Y5218400D02*
X4457700Y5170200D01*
X4310600Y5218400D02*
X4409500D01*
X4310600Y5268400D02*
X4406099D01*
X4457700Y5320000D01*
X4469200Y3009900D02*
X4469800Y3010500D01*
X4356100Y3009900D02*
X4469200D01*
X4323300Y3211800D02*
X4422200D01*
X4470400Y3163600D01*
X4418799Y3261800D02*
X4470400Y3313400D01*
X4323300Y3261800D02*
X4418799D01*
X3873500Y3199200D02*
X3886100Y3211800D01*
X4033300D01*
D69*
X12184380Y3924300D02*
Y4046220D01*
X12162600Y4068000D02*
X12184380Y4046220D01*
X11593612Y4068000D02*
X12162600D01*
X12234380Y3924300D02*
Y4072420D01*
X12188800Y4118000D02*
X12234380Y4072420D01*
X11593612Y4118000D02*
X12188800D01*
X12284380Y3924300D02*
Y4124020D01*
X12240400Y4168000D02*
X12284380Y4124020D01*
X11593612Y4168000D02*
X12240400D01*
X12292000Y4218000D02*
X12334380Y4175620D01*
Y3924300D02*
Y4175620D01*
X11593612Y4218000D02*
X12292000D01*
X12334380Y3924300D02*
X12344380Y3934300D01*
X11341100Y4902200D02*
X11499712D01*
X11513212Y4965700D02*
X11515512Y4968000D01*
X11417300Y4965700D02*
X11513212D01*
X11515512Y4968000D02*
X11593612D01*
X11499712Y4902200D02*
X11515512Y4918000D01*
X10518526Y5343086D02*
Y5534274D01*
X10515600Y5537200D02*
X10518526Y5534274D01*
Y5343086D02*
X10521452Y5340160D01*
X3206480Y9648220D02*
X3268980D01*
X3159460Y9601200D02*
X3206480Y9648220D01*
X3086100Y9601200D02*
X3159460D01*
X10487800Y9730600D02*
X10718800Y9499600D01*
X10807700D01*
X10487800Y9730600D02*
Y9906800D01*
X3098800Y9499600D02*
X3205100D01*
X3092450Y9505950D02*
X3098800Y9499600D01*
X3205100D02*
X3206480Y9498220D01*
X3268980D01*
X10365800Y9802537D02*
X10739137Y9429200D01*
X10365800Y9802537D02*
Y9901800D01*
X10360800Y9906800D02*
X10365800Y9901800D01*
X10739137Y9429200D02*
X10807700D01*
X10237900Y9347200D02*
X10388600D01*
X10237900Y9474200D02*
X10464800D01*
X10617200Y9765716D02*
Y9904400D01*
X10614800Y9906800D02*
X10617200Y9904400D01*
X11515512Y4918000D02*
X11593612D01*
X3354980Y9548220D02*
X3390900Y9512300D01*
X3268980Y9548220D02*
X3354980D01*
X3349820Y9598220D02*
X3390900Y9639300D01*
X3268980Y9598220D02*
X3349820D01*
X3268980D02*
X3278700Y9588500D01*
X3269500Y9690100D02*
X3281200Y9701800D01*
X3136900Y9690100D02*
X3269500D01*
X3149600Y9423400D02*
X3154633D01*
X3178633Y9399400D01*
X12192000Y4318000D02*
X12268200Y4394200D01*
X11836400Y4318000D02*
X12192000D01*
X10947400Y10706100D02*
X11251000Y10402500D01*
Y10236200D02*
Y10402500D01*
X11556400Y10490800D02*
Y10603900D01*
X11383558Y10626742D02*
X11405800Y10604500D01*
X11383558Y10626742D02*
Y10663642D01*
X11303000Y10744200D02*
X11383558Y10663642D01*
X10134600Y10744200D02*
X11303000D01*
X11376800Y10528300D02*
Y10645000D01*
X10998200Y10236200D02*
X11101000D01*
X5549900Y10642600D02*
X5592590Y10599910D01*
X5710610D01*
X8699500Y10261600D02*
X8763000Y10325100D01*
X8178800Y10261600D02*
X8699500D01*
X11376800Y9906800D02*
Y10439400D01*
Y10528300D01*
X9254400Y7812800D02*
X9334740D01*
X9380220Y7767320D01*
Y7632700D02*
Y7767320D01*
X9506600Y7599500D02*
Y7688400D01*
Y7510600D02*
Y7599500D01*
X9380220Y7632700D02*
X9413420Y7599500D01*
X9506600D01*
X11557600Y10363800D02*
Y10489600D01*
X7557300Y10123100D02*
X7573342Y10139142D01*
X7575800Y10141600D01*
X7573342Y10054258D02*
X7594600Y10033000D01*
X7573342Y10054258D02*
Y10139142D01*
X7594600Y10033000D02*
X7670800D01*
X11122800Y10030600D02*
X11150600Y10058400D01*
X11122800Y9906800D02*
Y10030600D01*
X10995800D02*
X11049000Y10083800D01*
X10995800Y9906800D02*
Y10030600D01*
X11836400Y6393180D02*
Y6451600D01*
X11785600Y6502400D02*
X11836400Y6451600D01*
X11734800Y6502400D02*
X11785600D01*
X11658600Y6578600D02*
X11734800Y6502400D01*
X10718800Y5590233D02*
Y5715000D01*
X10693400Y5562600D02*
Y5564833D01*
X10718800Y5590233D01*
X10731900Y5728100D02*
X10790092D01*
X10718800Y5715000D02*
X10731900Y5728100D01*
X10619740Y5534660D02*
X10671452Y5482948D01*
X10619740Y5534660D02*
Y5806440D01*
X10671452Y5340160D02*
Y5482948D01*
X10371452Y3674748D02*
X10414000Y3632200D01*
X10371452Y3674748D02*
Y3795840D01*
X10439400Y5816600D02*
X10477500Y5778500D01*
X10552692D01*
X11292692Y3568700D02*
X11321452Y3597460D01*
X11774592Y5068000D02*
X11814592Y5028000D01*
X10795000Y9652000D02*
X11277600D01*
X10896600Y9728200D02*
X11099800D01*
X10741800Y9705200D02*
X10795000Y9652000D01*
X10741800Y9705200D02*
Y9906800D01*
X10868800Y9756000D02*
Y9906800D01*
Y9756000D02*
X10896600Y9728200D01*
X11506200Y9677400D02*
X11684000Y9499600D01*
X11506200Y9677400D02*
Y9904400D01*
X10049292Y4118000D02*
X10366400D01*
X10439400Y4191000D01*
X11171452Y5456452D02*
X11201400Y5486400D01*
X11171452Y5340160D02*
Y5456452D01*
X10541000Y9042400D02*
X10868800Y8714600D01*
Y8156800D02*
Y8714600D01*
X10947400Y5029200D02*
X10953000Y5023600D01*
X11588012D01*
X11593612Y5018000D01*
X11125200Y5130800D02*
X11303000D01*
X11421452Y5249252D01*
X10310800Y4519600D02*
X10693400Y4902200D01*
Y5156200D01*
X11421452Y5249252D02*
Y5340160D01*
X10769600Y5207000D02*
X10770526Y5207926D01*
Y5339234D01*
X10771452Y5340160D01*
X10049292Y4518000D02*
X10050892Y4519600D01*
X10310800D01*
X9601200Y5892800D02*
Y5995600D01*
X9588500Y6008300D02*
X9601200Y5995600D01*
X11503800Y9906800D02*
X11506200Y9904400D01*
X10378440Y3952240D02*
X10421452Y3909228D01*
X8079273Y3983347D02*
Y4493727D01*
X8051800Y4521200D02*
X8079273Y4493727D01*
X7975600Y4597400D02*
X8051800Y4521200D01*
X7975600Y4597400D02*
Y8661400D01*
X8178800Y9347200D02*
X8225045Y9300955D01*
X7975600Y9347200D02*
X8178800D01*
X8225045Y8910845D02*
Y9300955D01*
X7975600Y8661400D02*
X8225045Y8910845D01*
X8509000Y9118600D02*
Y9829800D01*
X8026400Y6908800D02*
Y8636000D01*
X8509000Y9118600D01*
X8077200Y8610600D02*
X8559800Y9093200D01*
Y9931400D01*
X8077200Y6934200D02*
Y8610600D01*
X8128000Y6959600D02*
Y8585200D01*
X8610600Y9067800D02*
Y9817100D01*
X8128000Y8585200D02*
X8610600Y9067800D01*
X8661400Y9042400D02*
Y9664700D01*
X8178800Y6985000D02*
Y8559800D01*
X8661400Y9042400D01*
X8229600Y7010400D02*
Y8534400D01*
X8712200Y9017000D02*
Y9588500D01*
X8229600Y8534400D02*
X8712200Y9017000D01*
X8280400Y7035800D02*
Y8509000D01*
X8763000Y8991600D02*
Y9499600D01*
X8280400Y8509000D02*
X8763000Y8991600D01*
X8331200Y8483600D02*
X8813800Y8966200D01*
X8331200Y7086600D02*
Y8483600D01*
X8813800Y8966200D02*
Y9423400D01*
X8864600Y8940800D02*
Y9347200D01*
X8382000Y8458200D02*
X8864600Y8940800D01*
X8382000Y7112000D02*
Y8458200D01*
X10233700Y9220200D02*
X10235800Y9222300D01*
X10058400Y9220200D02*
X10233700D01*
X7801053Y9337667D02*
X7833023Y9369637D01*
X7831753Y9370907D02*
X7946274D01*
X7969982Y9347200D01*
X7975600D01*
X11725692Y6273800D02*
Y6378992D01*
X11765280Y6418580D01*
X11770360D01*
X11790692Y6273800D02*
Y6347472D01*
X11836400Y6393180D01*
X10721452Y3795840D02*
Y3990452D01*
X11177123Y4446123D01*
Y4546600D01*
X11328400Y5816600D02*
X11379200Y5765800D01*
Y5689600D02*
Y5765800D01*
X11328400Y5816600D02*
Y6273800D01*
X11321452Y5340160D02*
Y5747348D01*
X11277600Y5791200D02*
X11321452Y5747348D01*
X11277600Y5791200D02*
Y6248400D01*
X10490200Y7035800D02*
X11277600Y6248400D01*
X10515600Y7086600D02*
X11328400Y6273800D01*
X8382000Y7035800D02*
X10490200D01*
X8407400Y7086600D02*
X10515600D01*
X8382000Y7112000D02*
X8407400Y7086600D01*
X8864600Y9347200D02*
X8966200Y9448800D01*
X8991600Y10160000D02*
X9042400Y10109200D01*
X8204200Y10160000D02*
X8991600D01*
X8178800Y10134600D02*
X8204200Y10160000D01*
X8636000Y10007600D02*
X9678800D01*
X8559800Y9931400D02*
X8636000Y10007600D01*
X8674100Y9880600D02*
X9678800D01*
X8610600Y9817100D02*
X8674100Y9880600D01*
X12268200Y4394200D02*
Y6908800D01*
X11224126Y3798514D02*
Y3959726D01*
X11226800Y3962400D01*
X11221452Y3795840D02*
X11224126Y3798514D01*
X11874500Y4724400D02*
X12115800D01*
X11823700Y4673600D02*
X11874500Y4724400D01*
X12115800D02*
X12166600Y4775200D01*
X11963400Y4648200D02*
X12141200D01*
X12217400Y4724400D01*
X10845800Y4673600D02*
X11353800D01*
X10871200Y4775200D02*
X11353800D01*
X10540200Y4368000D02*
X10845800Y4673600D01*
X10049292Y4368000D02*
X10540200D01*
X10514000Y4418000D02*
X10871200Y4775200D01*
X10049292Y4418000D02*
X10514000D01*
X11125200Y7010400D02*
X12166600D01*
X12268200Y6908800D01*
X11099800Y6959600D02*
X12115800D01*
X12217400Y6858000D01*
Y4724400D02*
Y6858000D01*
X12090400Y6908800D02*
X12166600Y6832600D01*
Y4775200D02*
Y6832600D01*
X11074400Y6908800D02*
X12090400D01*
X9984300Y8968300D02*
X10235800D01*
X9906000Y8153400D02*
Y8890000D01*
X9984300Y8968300D01*
X9958900Y9095300D02*
X10235800D01*
X9855200Y8991600D02*
X9958900Y9095300D01*
X9855200Y8128000D02*
Y8991600D01*
Y8128000D02*
X11074400Y6908800D01*
X9906000Y8153400D02*
X11099800Y6959600D01*
X9956800Y8178800D02*
X11125200Y7010400D01*
X9956800Y8788400D02*
X10009700Y8841300D01*
X9956800Y8178800D02*
Y8788400D01*
X10009700Y8841300D02*
X10235800D01*
X10058400Y8432800D02*
X10085900Y8460300D01*
X10235800D01*
X10085900Y8587300D02*
X10235800D01*
X10058400Y8559800D02*
X10085900Y8587300D01*
X11757800Y9756000D02*
Y9906800D01*
Y9756000D02*
X11836400Y9677400D01*
X12014200D01*
X12141200Y9550400D01*
Y7391400D02*
Y9550400D01*
X12090400Y7340600D02*
X12141200Y7391400D01*
X11938000Y7340600D02*
X12090400D01*
X10363200Y7924800D02*
Y8154400D01*
X10360800Y8156800D02*
X10363200Y8154400D01*
Y7924800D02*
X10414000Y7874000D01*
X10896600D01*
X10947400Y7416800D02*
Y7823200D01*
X10896600Y7874000D02*
X10947400Y7823200D01*
Y7416800D02*
X11023600Y7340600D01*
X11176000D01*
X11630800Y7659487D02*
X11684000Y7606287D01*
X11630800Y7659487D02*
Y8156800D01*
X11684000Y7594600D02*
Y7606287D01*
X11430000Y7594600D02*
X11503800Y7668400D01*
Y8156800D01*
X3911600Y6248400D02*
X3947160Y6283960D01*
X4037560D01*
X4038600Y6285000D01*
X8661400Y9664700D02*
X8724900Y9728200D01*
X4306800Y6285000D02*
X4356100Y6235700D01*
Y6235700D02*
Y6235700D01*
X4270100Y6285000D02*
X4306800D01*
X8534400Y10007600D02*
X8623300Y10096500D01*
X8890000D01*
X8178800Y10007600D02*
X8534400D01*
X8750300Y9626600D02*
X9678800D01*
X8712200Y9588500D02*
X8750300Y9626600D01*
X8763000Y9499600D02*
X8826500Y9563100D01*
X8813800Y9423400D02*
X8890000Y9499600D01*
X8178800Y9626600D02*
X8382000D01*
X8178800Y9880600D02*
X8458200D01*
X8509000Y9829800D01*
X8331200Y7086600D02*
X8382000Y7035800D01*
X8280400D02*
X8331200Y6985000D01*
X8229600Y7010400D02*
X8305800Y6934200D01*
X8178800Y6985000D02*
X8280400Y6883400D01*
X8128000Y6959600D02*
X8255000Y6832600D01*
X8077200Y6934200D02*
X8229600Y6781800D01*
X8026400Y6908800D02*
X8204200Y6731000D01*
X8331200Y6985000D02*
X10464800D01*
X11226800Y6223000D01*
Y5765800D02*
Y6223000D01*
X11271452Y5340160D02*
Y5721148D01*
X11226800Y5765800D02*
X11271452Y5721148D01*
X8305800Y6934200D02*
X10439400D01*
X11176000Y6197600D01*
X8280400Y6883400D02*
X10414000D01*
X11125200Y6172200D01*
X8255000Y6832600D02*
X10388600D01*
X11074400Y6146800D01*
X8229600Y6781800D02*
X10363200D01*
X11023600Y6121400D01*
X11176000Y5829300D02*
Y6197600D01*
X11121452Y5774752D02*
X11176000Y5829300D01*
X11121452Y5340160D02*
Y5774752D01*
X11125200Y5854700D02*
Y6172200D01*
X11071452Y5800952D02*
X11125200Y5854700D01*
X11071452Y5340160D02*
Y5800952D01*
X10337800Y6731000D02*
X10972800Y6096000D01*
X8204200Y6731000D02*
X10337800D01*
X11074400Y5867400D02*
Y6146800D01*
X11021452Y5814452D02*
X11074400Y5867400D01*
X11021452Y5340160D02*
Y5814452D01*
X11023600Y5892800D02*
Y6121400D01*
X10971452Y5840652D02*
X11023600Y5892800D01*
X10971452Y5340160D02*
Y5840652D01*
X10972800Y5905500D02*
Y6096000D01*
X10921452Y5854152D02*
X10972800Y5905500D01*
X10921452Y5340160D02*
Y5854152D01*
X7366000Y10123100D02*
X7557300D01*
X10312400Y10655300D02*
X10363200Y10706100D01*
X10312400Y10566400D02*
Y10655300D01*
X10363200Y10706100D02*
X10947400D01*
X10058400Y10566400D02*
Y10668000D01*
X10134600Y10744200D01*
X8211247Y3983347D02*
X8242300Y4014400D01*
X5422900Y6856800D02*
Y7035800D01*
X5245100Y6856800D02*
Y7035800D01*
X5880100Y4356100D02*
Y4445000D01*
X5867400Y4343400D02*
X5880100Y4356100D01*
X5214620Y5041900D02*
Y5689600D01*
X5316220Y5791200D01*
X5448300D01*
X5461000Y6093600D02*
Y6197600D01*
X5257800Y6094800D02*
Y6197600D01*
X6096000Y4343400D02*
Y4545800D01*
X10235800Y8714300D02*
X10237900Y8712200D01*
X10401300D01*
X4341800Y10083800D02*
X4495800D01*
X4521200Y10109200D02*
X4685000D01*
X4495800Y10083800D02*
X4521200Y10109200D01*
X4408353Y10150353D02*
X4536953D01*
X4615900Y10229300D01*
X4652500D02*
X4687500Y10264300D01*
Y10274300D01*
X4615900Y10229300D02*
X4652500D01*
X4687500Y10274300D02*
Y10439400D01*
X4533900Y10375900D02*
Y10421620D01*
X6085880Y8448080D02*
X6151880Y8514080D01*
Y9038620D01*
X6179980Y9066720D01*
X5679440Y8752840D02*
X5697220Y8770620D01*
X5679440Y8498840D02*
Y8752840D01*
Y8498840D02*
X5697220Y8516620D01*
X5679440Y8366760D02*
X5707380Y8338820D01*
X5679440Y8366760D02*
Y8498840D01*
X5697220Y8770620D02*
X5829300D01*
X5697220Y8516620D02*
X5829300D01*
X5707380Y8338820D02*
X5838080D01*
X6085880D02*
X6188680D01*
X5983080D02*
X6085880D01*
Y8448080D01*
X6179980Y9066720D02*
Y9227820D01*
X6180980Y9228820D01*
Y9392920D01*
X6324600Y9394300D02*
Y9525000D01*
Y9394300D02*
X6325980Y9392920D01*
X3178633Y9399400D02*
X3280800D01*
X11249800Y9906800D02*
Y10236200D01*
X6426200Y10439400D02*
Y10541000D01*
X6392200Y10405400D02*
X6426200Y10439400D01*
X6181700Y10464800D02*
X6350000D01*
X6176100Y10470400D02*
X6181700Y10464800D01*
X6176100Y10405400D02*
X6392200D01*
X5711100D02*
Y10470400D01*
Y10535400D01*
X10235800Y9349300D02*
X10237900Y9347200D01*
X10235800Y9476300D02*
X10237900Y9474200D01*
X4235429Y6419829D02*
Y6530446D01*
X4467880Y7087920D02*
X4570680D01*
X4471600Y5181600D02*
X4572000D01*
X4481900Y3149600D02*
X4597400D01*
X4480280Y3151220D02*
X4481900Y3149600D01*
X4230600Y6415000D02*
X4235429Y6419829D01*
X3759200Y5257800D02*
X3788900Y5228100D01*
X3838500D02*
X3872900Y5193700D01*
X3788900Y5228100D02*
X3838500D01*
X3770400Y6415000D02*
X4038600D01*
X3708400Y6477000D02*
Y7086600D01*
Y6477000D02*
X3770400Y6415000D01*
X3708400Y7086600D02*
X3745300Y7123500D01*
X3873500D01*
X3746500Y3213100D02*
X3859600D01*
X3873500Y3199200D01*
X10871200Y3962400D02*
X10871326Y3962274D01*
Y3795966D02*
X10871452Y3795840D01*
X10871326Y3795966D02*
Y3962274D01*
X10947400Y4008271D02*
X10971452Y3984219D01*
X10947400Y4008271D02*
Y4013200D01*
X10971452Y3795840D02*
Y3984219D01*
X11049000Y3911600D02*
Y4089400D01*
Y3911600D02*
X11071452Y3889148D01*
Y3795840D02*
Y3889148D01*
X11123326Y3797714D02*
Y3960526D01*
X11125200Y3962400D01*
X11121452Y3795840D02*
X11123326Y3797714D01*
X10556240Y3952240D02*
Y4046220D01*
X10553700Y3949700D02*
X10556240Y3952240D01*
X10534460Y4068000D02*
X10556240Y4046220D01*
X10671452Y4064912D02*
X10728960Y4122420D01*
X10671452Y3795840D02*
Y4064912D01*
X10619326Y3797966D02*
Y4061874D01*
X10617200Y4064000D02*
X10619326Y4061874D01*
Y3797966D02*
X10621452Y3795840D01*
X10421452D02*
Y3909228D01*
X10466856Y3800436D02*
Y3990824D01*
X10462260Y3995420D02*
X10466856Y3990824D01*
Y3800436D02*
X10471452Y3795840D01*
X10049292Y4068000D02*
X10534460D01*
X11457140Y4368000D02*
X11593612D01*
X11409680Y4320540D02*
X11457140Y4368000D01*
X11369980Y4418000D02*
X11593612D01*
X11325860Y4373880D02*
X11369980Y4418000D01*
X11591002Y4465390D02*
X11593612Y4468000D01*
X11285220Y4462780D02*
X11287830Y4465390D01*
X11591002D01*
X9378300Y5988300D02*
X9568500D01*
X9588500Y6008300D01*
X10552692Y5778500D02*
X10553092Y5778100D01*
X10821452Y5340160D02*
Y5503381D01*
X10840720Y5522649D02*
Y5532120D01*
X10821452Y5503381D02*
X10840720Y5522649D01*
X10790092Y5565312D02*
Y5678100D01*
X10780592Y5668600D02*
X10790092Y5678100D01*
X10721452Y5340160D02*
Y5496672D01*
X10790092Y5565312D01*
X10598080Y5828100D02*
X10619740Y5806440D01*
X10553092Y5828100D02*
X10598080D01*
X9499600Y4406900D02*
X9613900Y4521200D01*
X9918700D01*
X9965500Y4568000D01*
X10049292D01*
X9396800Y4186896D02*
Y4271692D01*
Y4102100D02*
Y4186896D01*
X9457396D01*
X9499600Y4229100D01*
Y4406900D01*
X9259500Y4518196D02*
X9562198D01*
X9616002Y4572000D01*
X9918700D01*
X9964700Y4618000D01*
X9259500Y4518196D02*
Y4597400D01*
Y4438992D02*
Y4518196D01*
X9964700Y4618000D02*
X10049292D01*
X9259500Y4438992D02*
X9278892Y4419600D01*
X9388892Y4279600D02*
X9396800Y4271692D01*
X9639300Y4953000D02*
X9774300Y4818000D01*
X9639300Y4953000D02*
Y5016500D01*
X9249192Y5092700D02*
X9563100D01*
X9639300Y5016500D01*
X9247992Y4838700D02*
X9601200D01*
X9671900Y4768000D01*
X10049292D01*
X9774300Y4818000D02*
X10049292D01*
X9820692Y4088200D02*
X9833826Y4101334D01*
X9828600Y4660900D02*
X9835700Y4668000D01*
X9846092Y4928800D02*
X9856892Y4918000D01*
X10213192Y5575300D02*
X10221452Y5567040D01*
X11799792Y5168000D02*
X11814592Y5182800D01*
X11421452Y3594740D02*
X11447492Y3568700D01*
X10251292D02*
X10271452Y3588860D01*
X11708200Y10363200D02*
X11719700Y10351700D01*
Y10198100D02*
Y10351700D01*
Y10098900D02*
Y10198100D01*
Y10098900D02*
X11757800Y10060800D01*
Y9906800D02*
Y10060800D01*
X5638800Y5702300D02*
X5745480D01*
X5820600Y5777420D02*
Y5956600D01*
X5745480Y5702300D02*
X5820600Y5777420D01*
X5770600Y5821400D02*
Y5956600D01*
X5727700Y5778500D02*
X5770600Y5821400D01*
X5214620Y5041900D02*
X5303520Y4953000D01*
X5359400Y5880100D02*
X5448300Y5791200D01*
X5638800D01*
X5720600Y5873000D01*
X5359400Y5880100D02*
Y5943000D01*
X5303520Y4953000D02*
X5942800D01*
X5360000Y5943600D02*
X5461000D01*
X5259000D02*
X5360000D01*
X5359400Y5943000D02*
X5360000Y5943600D01*
X5720600Y5873000D02*
Y5956600D01*
X5951220Y5504180D02*
X6037580Y5590540D01*
X5951220Y5285740D02*
Y5504180D01*
X5796280Y5130800D02*
X5951220Y5285740D01*
X5563400Y5130800D02*
X5796280D01*
X5409400D02*
X5410200Y5131600D01*
Y5386000D01*
X5450840Y5643880D02*
X5765800D01*
X5410200Y5603240D02*
X5450840Y5643880D01*
X5765800D02*
X5870600Y5748680D01*
Y5956600D01*
X5410200Y5536000D02*
Y5603240D01*
X5795962Y5592762D02*
X5920600Y5717400D01*
Y5956600D01*
X5795962Y5540762D02*
Y5592762D01*
X5791200Y5536000D02*
X5795962Y5540762D01*
X6096000Y5358200D02*
Y5537200D01*
X6121400Y5562600D01*
X6096000Y4699800D02*
X6096800Y4700600D01*
Y4953000D01*
X6096000Y4953800D02*
X6096800Y4953000D01*
X6096000Y4953800D02*
Y5208200D01*
X5257800Y5944800D02*
X5259000Y5943600D01*
X5613400Y5536000D02*
X5613400Y5536000D01*
X5791200D01*
X6057900Y5182800D02*
Y5208200D01*
Y5182800D02*
X6058700Y5182000D01*
X5422900Y6591300D02*
Y6706800D01*
X5453380Y6560820D02*
X5760872D01*
X5422900Y6591300D02*
X5453380Y6560820D01*
X5245100Y6553200D02*
Y6706800D01*
X5273040Y6525260D02*
X5746432D01*
X5245100Y6553200D02*
X5273040Y6525260D01*
X5816600Y6654800D02*
X5920600Y6550800D01*
X5816600Y6654800D02*
Y6729900D01*
X5746432Y6525260D02*
X5770600Y6501092D01*
Y6451600D02*
Y6501092D01*
X5760872Y6560820D02*
X5817692Y6504000D01*
Y6482008D02*
X5820600Y6479100D01*
X5817692Y6482008D02*
Y6504000D01*
X5920600Y6479100D02*
Y6550800D01*
X4043680Y10574020D02*
X4090600Y10527100D01*
Y10468106D02*
Y10527100D01*
X3887486Y10426700D02*
X3913359Y10400827D01*
X4024773D01*
X3886200Y10426700D02*
X3887486D01*
X4433107Y10413830D02*
X4597400Y10578123D01*
X4433107Y10406787D02*
Y10413830D01*
X4426673Y10400353D02*
X4433107Y10406787D01*
X4408353Y10400353D02*
X4426673D01*
X4597400Y10578123D02*
Y10642600D01*
X4674800D01*
X4520000D02*
X4597400D01*
X3899827Y10274300D02*
X3925880Y10300353D01*
X4025247D01*
X3898900Y10274300D02*
X3899827D01*
X3870271Y10337800D02*
X3882824Y10350353D01*
X3860800Y10337800D02*
X3870271D01*
X3882824Y10350353D02*
X4025247D01*
X4024773Y10400827D02*
X4025247Y10400353D01*
X4241800Y10466906D02*
Y10566400D01*
X4090600Y10468106D02*
X4091800Y10466906D01*
X4430442Y10300353D02*
X4528041Y10370042D01*
X4533900Y10375900D01*
X4408353Y10300353D02*
X4430442D01*
X4480411Y10250353D02*
X4533900Y10303842D01*
Y10304780D01*
X4408353Y10250353D02*
X4480411D01*
X5080000Y8341360D02*
X5166360D01*
X5207000Y8382000D01*
X5054600Y8366760D02*
X5080000Y8341360D01*
X4800600Y8364220D02*
X4823460Y8341360D01*
X5080000D01*
X5054600Y8366760D02*
Y8503920D01*
X5207000Y8382000D02*
Y8461900D01*
X4800600Y8364220D02*
Y8503920D01*
D70*
X6322060Y8897620D02*
X6325580D01*
X6330980Y8903020D02*
Y9062720D01*
X6325580Y8897620D02*
X6330980Y8903020D01*
X6328980Y9064720D02*
X6330980Y9062720D01*
X6326980Y9227820D02*
X6328980Y9225820D01*
Y9064720D02*
Y9225820D01*
X6651786Y9779000D02*
X7467600D01*
X7620000Y9626600D01*
D71*
X8920000Y8356600D02*
Y8399300D01*
Y8158300D02*
Y8356600D01*
X9029700Y8509000D02*
X10007600Y9486900D01*
X8920000Y8399300D02*
X9029700Y8509000D01*
X10007600Y9486900D02*
Y10236200D01*
D72*
X8736400Y8356600D02*
X8920000D01*
X9029700Y8509000D02*
X9563100D01*
X9779000Y8293100D01*
Y7848600D02*
Y8293100D01*
X9774941Y7848600D02*
X9779000D01*
X9657800Y7853500D02*
X9770041D01*
X9774941Y7848600D01*
X11555800Y10604500D02*
X11556400Y10603900D01*
Y10490800D02*
X11557000Y10490200D01*
X8343900Y10388600D02*
X8406800Y10325700D01*
X8636600D01*
X8178800Y10388600D02*
X8343900D01*
X8826500Y10515600D02*
X9678800D01*
X8636600Y10325700D02*
X8826500Y10515600D01*
X8445500D02*
X8572500Y10388600D01*
X8178800Y10515600D02*
X8445500D01*
X9867900Y9779000D02*
Y10477500D01*
X9678800Y9753600D02*
X9842500D01*
X9867900Y9779000D01*
X9842436Y10502964D02*
X9867900Y10477500D01*
X9829800Y10515600D02*
X9842436Y10502964D01*
X9678800Y10515600D02*
X9829800D01*
X7975600Y9817100D02*
Y10337800D01*
X7924800Y10388600D02*
X8178800D01*
X7924800D02*
X7975600Y10337800D01*
X7677800Y10388600D02*
X7924800D01*
X7975600Y9817100D02*
X8039100Y9753600D01*
X7670800Y10381600D02*
X7677800Y10388600D01*
X8039100Y9753600D02*
X8178800D01*
X9656600Y7688400D02*
Y7852300D01*
X9657800Y7853500D01*
X9506600Y7510600D02*
X9506600Y7510600D01*
X11557600Y10363800D02*
X11558200Y10363200D01*
X11557000Y10490200D02*
X11557600Y10489600D01*
X11887200Y10364400D02*
Y10490200D01*
Y10364400D02*
X11888400Y10363200D01*
X8920000Y8158300D02*
X8921200Y8157100D01*
Y7823500D02*
X8971900Y7772800D01*
X11658600Y6432480D02*
Y6578600D01*
X11660692Y6273800D02*
Y6395000D01*
X4230600Y6285000D02*
X4270100D01*
X7780800Y10109200D02*
X7874000D01*
X7765800Y10124200D02*
X7780800Y10109200D01*
X7765800Y10124200D02*
Y10141600D01*
X5562600Y10058400D02*
X5566659D01*
X5579359Y10071100D01*
X5703500D01*
X5711000Y10405400D02*
X5711100D01*
X5703500Y10223500D02*
Y10397900D01*
X5711000Y10405400D01*
X5703500Y10071100D02*
Y10223500D01*
X4419600Y6351200D02*
X4420800Y6350000D01*
X4418400D02*
X4419600Y6351200D01*
X8788400Y6083300D02*
X9138300D01*
X11888400Y10198100D02*
Y10363200D01*
X11884800Y9906800D02*
Y10194500D01*
D73*
X12014200Y7962900D02*
Y8154400D01*
X12041089Y9740900D02*
X12153900D01*
X12011800Y9770190D02*
X12041089Y9740900D01*
X12011800Y9770190D02*
Y9906800D01*
X9461800Y8128000D02*
X9652000D01*
X8737600Y7620000D02*
X9076600D01*
X9175600Y8134200D02*
Y8325000D01*
Y8134200D02*
X9181800Y8128000D01*
X9169400Y8331200D02*
X9175600Y8325000D01*
X9169400Y7797800D02*
Y8115600D01*
X5740400Y3733800D02*
Y3886200D01*
X5537200Y3733800D02*
Y3911600D01*
X5079200Y9043700D02*
X5207000D01*
X4318000Y8841900D02*
X4320650Y8839250D01*
X4317500Y8842400D02*
X4318000Y8841900D01*
X4140200Y8842900D02*
X4140700Y8842400D01*
X4318000Y8988900D02*
X4319350Y8990250D01*
X4494450D02*
X4495800Y8991600D01*
X4668520D01*
D74*
X8921200Y8005900D02*
Y8157100D01*
Y7823500D02*
Y8005900D01*
X4233800Y7348400D02*
Y7561200D01*
Y5418000D02*
Y5630800D01*
Y5401400D02*
Y5418000D01*
X4246500Y3411400D02*
Y3687700D01*
X5054600Y8996680D02*
Y9296400D01*
X4826000Y7747000D02*
X5334000D01*
X5562600Y7975600D01*
Y9220200D01*
X4826000Y5765800D02*
Y7747000D01*
X4927600Y9220200D02*
X5080000Y9372600D01*
X5054600Y9296400D02*
X5130800Y9372600D01*
X5410200D01*
X5080000D02*
X5130800D01*
X4927600Y8996680D02*
Y9220200D01*
X5410200Y9372600D02*
X5562600Y9220200D01*
X4419600Y7747000D02*
X4826000D01*
X4233800Y7561200D02*
X4419600Y7747000D01*
X4368800Y5765800D02*
X4826000D01*
X4233800Y5630800D02*
X4368800Y5765800D01*
X4826000Y4267200D02*
Y5765800D01*
X4246500Y3687700D02*
X4826000Y4267200D01*
X3445600Y7352400D02*
X4094650D01*
X3445600Y5408400D02*
X4088000D01*
X3445600Y3427200D02*
X4094500D01*
D75*
X3735100Y10047000D02*
Y10160000D01*
X3733800Y10045700D02*
X3735100Y10047000D01*
X4279900Y10642600D02*
X4370000D01*
X4241800Y10680700D02*
X4279900Y10642600D01*
X4837500Y10274300D02*
X4940300D01*
X4278660Y9941560D02*
X4281200Y9944100D01*
X4531438Y10226616D02*
X4538404D01*
X4505175Y10200353D02*
X4531438Y10226616D01*
X3735100Y10160000D02*
X3758400Y10183300D01*
X4674800Y10642600D02*
X4674800Y10642600D01*
X4408353Y10200353D02*
X4505175D01*
D76*
X4570680Y7087920D02*
X4572000Y7086600D01*
X4457700Y7098100D02*
X4467880Y7087920D01*
X4457700Y5322500D02*
X4470280Y5309920D01*
X4470400Y3161100D02*
X4480280Y3151220D01*
X3872900Y5193700D02*
X3873500Y5193100D01*
X4216800Y10275353D02*
X4241800Y10250353D01*
X4216800Y10275353D02*
X4291800Y10350353D01*
X4457700Y7098100D02*
Y7100600D01*
Y7250400D02*
Y7252900D01*
X3873500Y5193100D02*
X3894450Y5214050D01*
X4457700Y5167700D02*
Y5170200D01*
Y5320000D02*
Y5322500D01*
X4469800Y3010500D02*
X4470400Y3011100D01*
Y3161100D02*
Y3163600D01*
X4094650Y7352400D02*
X4095700Y7351350D01*
Y7348400D02*
Y7351350D01*
X4088000Y5408400D02*
X4095700Y5416100D01*
Y5418000D01*
X4108400Y3417350D02*
X4142450D01*
X4108400Y3411400D02*
Y3413300D01*
X4094500Y3427200D02*
X4108400Y3413300D01*
X3445600Y7352400D02*
X3447600Y7350400D01*
X4093700D02*
X4095700Y7348400D01*
X4114800Y5435600D02*
Y5439050D01*
X4095700Y5418000D02*
Y5419900D01*
X3445600Y5408400D02*
X3480850Y5373150D01*
X3445600Y3427200D02*
X3461400Y3411400D01*
D77*
X4128300Y3411800D02*
D03*
X4115600Y5418400D02*
D03*
Y7348800D02*
D03*
D78*
X4228300Y3411800D02*
D03*
X4215600Y5418400D02*
D03*
Y7348800D02*
D03*
D79*
X3161480Y9862220D02*
D03*
X3174700Y9286800D02*
D03*
D80*
X3224700Y9143800D02*
D03*
Y10007800D02*
D03*
D81*
X2806700Y9143800D02*
D03*
Y10007800D02*
D03*
D82*
X8788400Y6527800D02*
D03*
X10820400Y10566400D02*
D03*
X11938000Y7594600D02*
D03*
D83*
X9042400Y6527800D02*
D03*
X9296400D02*
D03*
X9550400D02*
D03*
X9804400D02*
D03*
X10058400D02*
D03*
X10312400D02*
D03*
X8788400Y5829300D02*
D03*
Y5575300D02*
D03*
X10566400Y10566400D02*
D03*
X10312400D02*
D03*
X10058400D02*
D03*
X11938000Y7340600D02*
D03*
X11684000Y7594600D02*
D03*
Y7340600D02*
D03*
X11430000Y7594600D02*
D03*
Y7340600D02*
D03*
X11176000Y7594600D02*
D03*
Y7340600D02*
D03*
D84*
X9626600Y8737600D02*
D03*
X10312400Y7302500D02*
D03*
X5308600Y4635500D02*
D03*
X7747000Y6477000D02*
D03*
D85*
X11309800Y9321800D02*
D03*
X11099800Y9111800D02*
D03*
Y9251800D02*
D03*
X11239800Y9111800D02*
D03*
Y9251800D02*
D03*
X11379800Y9111800D02*
D03*
Y9251800D02*
D03*
X11169800Y9041800D02*
D03*
Y9181800D02*
D03*
Y9321800D02*
D03*
X11309800Y9041800D02*
D03*
Y9181800D02*
D03*
D86*
X8788400Y6083300D02*
D03*
D87*
X2895600Y7352400D02*
D03*
Y5408400D02*
D03*
Y3427200D02*
D03*
D88*
Y7772400D02*
D03*
Y8192400D02*
D03*
X3445600Y7352400D02*
D03*
Y7772400D02*
D03*
Y8192400D02*
D03*
X2895600Y5828400D02*
D03*
Y6248400D02*
D03*
X3445600Y5408400D02*
D03*
Y5828400D02*
D03*
Y6248400D02*
D03*
X2895600Y3847200D02*
D03*
Y4267200D02*
D03*
X3445600Y3427200D02*
D03*
Y3847200D02*
D03*
Y4267200D02*
D03*
D89*
X12014200Y4013200D02*
D03*
X12103100D02*
D03*
X10563284Y4295716D02*
D03*
X11807884Y5540316D02*
D03*
X11430000Y5168900D02*
D03*
X11341100Y4902200D02*
D03*
X11417300Y4965700D02*
D03*
X10414000Y5740400D02*
D03*
X10515600Y5537200D02*
D03*
X10807700Y9499600D02*
D03*
Y9429200D02*
D03*
X3086100Y9601200D02*
D03*
X3098800Y9499600D02*
D03*
X10388600Y9347200D02*
D03*
X10464800Y9474200D02*
D03*
X10617200Y9765716D02*
D03*
X3390900Y9512300D02*
D03*
Y9639300D02*
D03*
X7721600Y7442200D02*
D03*
Y7543800D02*
D03*
Y7340600D02*
D03*
Y7924800D02*
D03*
Y8026400D02*
D03*
Y8407400D02*
D03*
Y7823200D02*
D03*
Y8305800D02*
D03*
Y8509000D02*
D03*
X3136900Y9690100D02*
D03*
X3149600Y9423400D02*
D03*
X8864600Y8509000D02*
D03*
X5608320Y3573780D02*
D03*
X9601200Y3251200D02*
D03*
X9194800Y3505200D02*
D03*
X7188200Y3454400D02*
D03*
X6883400D02*
D03*
X6781800D02*
D03*
X6578600D02*
D03*
X6273800D02*
D03*
X6985000D02*
D03*
X6375400D02*
D03*
X7086600D02*
D03*
X6680200D02*
D03*
X6477000D02*
D03*
X6172200D02*
D03*
X9387840Y4424680D02*
D03*
X9779000Y7848600D02*
D03*
X11455400Y10198100D02*
D03*
X11938000Y6553200D02*
D03*
X4165600Y10185400D02*
D03*
X4292600Y10363200D02*
D03*
X4140200D02*
D03*
X4216400Y10287000D02*
D03*
X4003040Y9941560D02*
D03*
X5054600Y10185400D02*
D03*
X4826000Y9931400D02*
D03*
X5054600Y10363200D02*
D03*
X5003800Y10718800D02*
D03*
X3403600Y10668000D02*
D03*
X3200400Y10439400D02*
D03*
X3378200Y10185400D02*
D03*
X10820400Y5105400D02*
D03*
X10972800Y5130800D02*
D03*
X9525000Y4064000D02*
D03*
X11201400Y4191000D02*
D03*
X11303000Y4064000D02*
D03*
X10998200Y4445000D02*
D03*
X10896600Y4876800D02*
D03*
X10337800Y4673600D02*
D03*
X9804400Y5461000D02*
D03*
X9423400Y5689600D02*
D03*
X11455400Y6096000D02*
D03*
X12014200Y6019800D02*
D03*
X11303000Y3225800D02*
D03*
X12395200Y5638800D02*
D03*
Y5105400D02*
D03*
Y4368800D02*
D03*
X12319000Y3302000D02*
D03*
X12166600Y3073400D02*
D03*
X10744200Y3454400D02*
D03*
X11074400Y3200400D02*
D03*
X10490200Y3251200D02*
D03*
X8813800Y4445000D02*
D03*
X8940800Y3759200D02*
D03*
X8331200Y4851400D02*
D03*
X8382000Y6299200D02*
D03*
X11836400Y4318000D02*
D03*
X10998200Y10236200D02*
D03*
X8763000Y10325100D02*
D03*
X8572500Y10388600D02*
D03*
X12153900Y10198100D02*
D03*
Y10363200D02*
D03*
X9372600Y7886700D02*
D03*
X9766300Y7505700D02*
D03*
X8661400Y8001000D02*
D03*
Y8153400D02*
D03*
X11887200Y10490200D02*
D03*
X11557000D02*
D03*
X7670800Y10033000D02*
D03*
X11049000Y10083800D02*
D03*
X11150600Y10058400D02*
D03*
X10693400Y5562600D02*
D03*
X10414000Y3632200D02*
D03*
X10185400Y4876800D02*
D03*
X10439400Y5816600D02*
D03*
X7721600Y6858000D02*
D03*
X11277600Y9652000D02*
D03*
X11099800Y9728200D02*
D03*
X11684000Y9499600D02*
D03*
X10439400Y4191000D02*
D03*
X11201400Y5486400D02*
D03*
X10541000Y9042400D02*
D03*
X10947400Y5029200D02*
D03*
X11125200Y5130800D02*
D03*
X10693400Y5156200D02*
D03*
X10769600Y5207000D02*
D03*
X9601200Y5892800D02*
D03*
X10378440Y3952240D02*
D03*
X10058400Y9220200D02*
D03*
X7975600Y9347200D02*
D03*
X11645900Y5613400D02*
D03*
X11770360Y6418580D02*
D03*
X11177123Y4546600D02*
D03*
X11379200Y5689600D02*
D03*
X9042400Y10109200D02*
D03*
X8966200Y9448800D02*
D03*
X11226800Y3962400D02*
D03*
X11823700Y4673600D02*
D03*
X11963400Y4648200D02*
D03*
X11353800Y4673600D02*
D03*
Y4775200D02*
D03*
X10058400Y8559800D02*
D03*
Y8432800D02*
D03*
X3911600Y6350000D02*
D03*
Y6248400D02*
D03*
X8724900Y9728200D02*
D03*
X5080000Y7594600D02*
D03*
X4356100Y6235700D02*
D03*
X8890000Y10096500D02*
D03*
X8826500Y9563100D02*
D03*
X8890000Y9499600D02*
D03*
X8382000Y9626600D02*
D03*
X6032500Y6896100D02*
D03*
X7874000Y10109200D02*
D03*
X7366000Y10401300D02*
D03*
X7831753Y9626247D02*
D03*
X7880013Y9130947D02*
D03*
X8083213Y9219847D02*
D03*
X7981613D02*
D03*
X7880013D02*
D03*
X7981613Y9130947D02*
D03*
X8083213D02*
D03*
Y9042047D02*
D03*
X7981613D02*
D03*
X7880013D02*
D03*
Y8953147D02*
D03*
X7981613D02*
D03*
X8083213D02*
D03*
X8470900Y3594100D02*
D03*
X8369300D02*
D03*
X8267700D02*
D03*
Y3683000D02*
D03*
X8369300D02*
D03*
X8470900D02*
D03*
Y3771900D02*
D03*
X8369300D02*
D03*
X8267700Y3860800D02*
D03*
X8369300D02*
D03*
X8470900D02*
D03*
X8267700Y3771900D02*
D03*
X8242300Y4279900D02*
D03*
X7255173Y9245247D02*
D03*
Y9143647D02*
D03*
Y9042047D02*
D03*
Y8940447D02*
D03*
X7153573D02*
D03*
Y9042047D02*
D03*
Y9143647D02*
D03*
Y9245247D02*
D03*
Y9346847D02*
D03*
X7255173D02*
D03*
Y9448447D02*
D03*
X7153573D02*
D03*
X7721600Y7061200D02*
D03*
Y6959600D02*
D03*
X5422900Y7035800D02*
D03*
X5245100D02*
D03*
X5816600D02*
D03*
X5613400D02*
D03*
X7538720Y4140200D02*
D03*
X7640320D02*
D03*
Y4038600D02*
D03*
X7538720D02*
D03*
Y3937000D02*
D03*
Y3835400D02*
D03*
Y3733800D02*
D03*
Y3632200D02*
D03*
X7640320D02*
D03*
Y3733800D02*
D03*
Y3835400D02*
D03*
Y3937000D02*
D03*
X5880100Y4445000D02*
D03*
X5461000Y6197600D02*
D03*
X5257800D02*
D03*
X10401300Y8712200D02*
D03*
X5549900Y10642600D02*
D03*
X3733800Y10045700D02*
D03*
X4241800Y10680700D02*
D03*
X4940300Y10274300D02*
D03*
X4406900Y9944100D02*
D03*
X4538404Y10226616D02*
D03*
X4533900Y10421620D02*
D03*
X6908800Y8737600D02*
D03*
X6324600Y9525000D02*
D03*
X6337300Y10619300D02*
D03*
X6426200Y10541000D02*
D03*
X6350000Y10464800D02*
D03*
X5969000Y10210800D02*
D03*
Y10058400D02*
D03*
X5562600D02*
D03*
X4419600Y6629400D02*
D03*
X4235429Y6530446D02*
D03*
X4546600Y6350000D02*
D03*
X3873500Y2933700D02*
D03*
X4572000Y7086600D02*
D03*
Y7239000D02*
D03*
Y5181600D02*
D03*
Y5308600D02*
D03*
X4597400Y3302000D02*
D03*
Y3149600D02*
D03*
X3759200Y5257800D02*
D03*
X3746500Y3213100D02*
D03*
X10223500Y5194300D02*
D03*
X10871200Y3962400D02*
D03*
X10947400Y4013200D02*
D03*
X11049000Y4089400D02*
D03*
X11125200Y3962400D02*
D03*
X10553700Y3949700D02*
D03*
X10617200Y4064000D02*
D03*
X10728960Y4122420D02*
D03*
X10274300Y3949700D02*
D03*
X10462260Y3995420D02*
D03*
X4467860Y3573780D02*
D03*
X11409680Y4320540D02*
D03*
X11325860Y4373880D02*
D03*
X11285220Y4462780D02*
D03*
X3924300Y3314700D02*
D03*
X10840720Y5532120D02*
D03*
X10896600Y5969000D02*
D03*
X10223500Y4673600D02*
D03*
X11417300Y3949700D02*
D03*
X10325100Y4203700D02*
D03*
X10274300Y4254500D02*
D03*
X5638800Y5702300D02*
D03*
X5727700Y5778500D02*
D03*
X5613400Y5270500D02*
D03*
X5791200D02*
D03*
X5613400Y6616700D02*
D03*
X4140200Y10591800D02*
D03*
X4043680Y10574020D02*
D03*
X3886200Y10426700D02*
D03*
X3898900Y10274300D02*
D03*
X3860800Y10337800D02*
D03*
X4241800Y10566400D02*
D03*
X4533900Y10304780D02*
D03*
X4140200Y9093200D02*
D03*
X3906520Y7244080D02*
D03*
X3873500Y6858000D02*
D03*
X4457700Y7518400D02*
D03*
Y6832600D02*
D03*
X3873500Y4940300D02*
D03*
X3914140Y5303520D02*
D03*
X4457700Y4902200D02*
D03*
Y5588000D02*
D03*
X4356100Y3009900D02*
D03*
D90*
X3594100Y9042400D02*
D03*
X3797300D02*
D03*
X12014200Y7962900D02*
D03*
X12153900Y9740900D02*
D03*
X9652000Y8128000D02*
D03*
X8737600Y7620000D02*
D03*
X9169400Y8331200D02*
D03*
X7620000Y9626600D02*
D03*
X10007600Y10236200D02*
D03*
D91*
X5740400Y3733800D02*
D03*
X5537200D02*
D03*
X11658600Y6578600D02*
D03*
D92*
X5745600Y6129100D02*
D03*
X5820600D02*
D03*
X5895600D02*
D03*
X5970600D02*
D03*
X6045600D02*
D03*
X6120600D02*
D03*
X6195600D02*
D03*
X5745600Y6279100D02*
D03*
X5820600D02*
D03*
X5895600D02*
D03*
X5970600D02*
D03*
X6045600D02*
D03*
X6120600D02*
D03*
X6195600D02*
D03*
X5745600Y6204100D02*
D03*
X5820600D02*
D03*
X5895600D02*
D03*
X5970600D02*
D03*
X6045600D02*
D03*
X6120600D02*
D03*
X6195600D02*
D03*
%TF.MD5,e118115c525a7d577810e4feded235b5*%
M02*
