%TF.GenerationSoftware,Altium Limited,Altium Designer,24.4.1 (13)*%
G04 Layer_Physical_Order=2*
G04 Layer_Color=36540*
%FSLAX45Y45*%
%MOMM*%
%TF.SameCoordinates,7BA59CB3-8EBC-4C6A-B4C6-80429C3BB8AE*%
%TF.FilePolarity,Positive*%
%TF.FileFunction,Copper,L2,Inr,Signal*%
%TF.Part,Single*%
G01*
G75*
%TA.AperFunction,ComponentPad*%
%ADD79C,0.65000*%
%ADD80O,2.10000X1.00000*%
G04:AMPARAMS|DCode=81|XSize=1.8mm|YSize=1mm|CornerRadius=0.25mm|HoleSize=0mm|Usage=FLASHONLY|Rotation=0.000|XOffset=0mm|YOffset=0mm|HoleType=Round|Shape=RoundedRectangle|*
%AMROUNDEDRECTD81*
21,1,1.80000,0.50000,0,0,0.0*
21,1,1.30000,1.00000,0,0,0.0*
1,1,0.50000,0.65000,-0.25000*
1,1,0.50000,-0.65000,-0.25000*
1,1,0.50000,-0.65000,0.25000*
1,1,0.50000,0.65000,0.25000*
%
%ADD81ROUNDEDRECTD81*%
%ADD82R,1.37000X1.37000*%
%ADD83C,1.37000*%
%TA.AperFunction,ViaPad*%
%ADD84O,2.00000X1.52400*%
%TA.AperFunction,ComponentPad*%
%ADD85C,0.40000*%
%ADD86R,1.37000X1.37000*%
%ADD88C,2.30000*%
%TA.AperFunction,ViaPad*%
%ADD89C,0.45000*%
%ADD90C,1.00000*%
%ADD91C,0.90000*%
%ADD92C,0.60000*%
G36*
X12496800Y10744200D02*
X12496800Y2895600D01*
X12446000Y2844800D01*
X2667000D01*
X2616200Y2895600D01*
Y10744200D01*
X2667000Y10795000D01*
X12446000D01*
X12496800Y10744200D01*
D02*
G37*
%LPC*%
G36*
X4251328Y10728600D02*
X4232272D01*
X4214667Y10721307D01*
X4201193Y10707833D01*
X4193900Y10690228D01*
Y10671172D01*
X4201193Y10653567D01*
X4214667Y10640093D01*
X4232272Y10632800D01*
X4251328D01*
X4268933Y10640093D01*
X4282407Y10653567D01*
X4289700Y10671172D01*
Y10690228D01*
X4282407Y10707833D01*
X4268933Y10721307D01*
X4251328Y10728600D01*
D02*
G37*
G36*
X4149728Y10639700D02*
X4130672D01*
X4113067Y10632407D01*
X4099593Y10618933D01*
X4094762Y10607272D01*
X4093965Y10606806D01*
X4080567Y10604874D01*
X4070813Y10614627D01*
X4053208Y10621920D01*
X4034152D01*
X4016547Y10614627D01*
X4003073Y10601153D01*
X3995780Y10583548D01*
Y10564492D01*
X4003073Y10546887D01*
X4016547Y10533413D01*
X4034152Y10526120D01*
X4053208D01*
X4070813Y10533413D01*
X4084287Y10546887D01*
X4089118Y10558548D01*
X4089915Y10559014D01*
X4103313Y10560946D01*
X4113067Y10551193D01*
X4130672Y10543900D01*
X4149728D01*
X4167333Y10551193D01*
X4180807Y10564667D01*
X4181200Y10565615D01*
X4193900Y10563089D01*
Y10556872D01*
X4201193Y10539267D01*
X4214667Y10525793D01*
X4232272Y10518500D01*
X4251328D01*
X4268933Y10525793D01*
X4282407Y10539267D01*
X4289700Y10556872D01*
Y10575928D01*
X4282407Y10593533D01*
X4268933Y10607007D01*
X4251328Y10614300D01*
X4232272D01*
X4214667Y10607007D01*
X4201193Y10593533D01*
X4200800Y10592585D01*
X4188100Y10595111D01*
Y10601328D01*
X4180807Y10618933D01*
X4167333Y10632407D01*
X4149728Y10639700D01*
D02*
G37*
G36*
X6435728Y10588900D02*
X6416672D01*
X6399067Y10581607D01*
X6385593Y10568133D01*
X6378300Y10550528D01*
Y10531472D01*
X6385593Y10513867D01*
X6377133Y10505407D01*
X6359528Y10512700D01*
X6340472D01*
X6322867Y10505407D01*
X6309393Y10491933D01*
X6302100Y10474328D01*
Y10455272D01*
X6309393Y10437667D01*
X6322867Y10424193D01*
X6340472Y10416900D01*
X6359528D01*
X6377133Y10424193D01*
X6390607Y10437667D01*
X6397900Y10455272D01*
Y10474328D01*
X6390607Y10491933D01*
X6399067Y10500393D01*
X6416672Y10493100D01*
X6435728D01*
X6453333Y10500393D01*
X6466807Y10513867D01*
X6474100Y10531472D01*
Y10550528D01*
X6466807Y10568133D01*
X6453333Y10581607D01*
X6435728Y10588900D01*
D02*
G37*
G36*
X10578762Y10660300D02*
X10554038D01*
X10530156Y10653901D01*
X10508744Y10641539D01*
X10491261Y10624056D01*
X10478899Y10602644D01*
X10472500Y10578762D01*
Y10554038D01*
X10478899Y10530156D01*
X10491261Y10508744D01*
X10508744Y10491261D01*
X10530156Y10478899D01*
X10554038Y10472500D01*
X10578762D01*
X10602644Y10478899D01*
X10624056Y10491261D01*
X10641539Y10508744D01*
X10653901Y10530156D01*
X10660300Y10554038D01*
Y10578762D01*
X10653901Y10602644D01*
X10641539Y10624056D01*
X10624056Y10641539D01*
X10602644Y10653901D01*
X10578762Y10660300D01*
D02*
G37*
G36*
X10324762D02*
X10300038D01*
X10276156Y10653901D01*
X10254744Y10641539D01*
X10237261Y10624056D01*
X10224899Y10602644D01*
X10218500Y10578762D01*
Y10554038D01*
X10224899Y10530156D01*
X10237261Y10508744D01*
X10254744Y10491261D01*
X10276156Y10478899D01*
X10300038Y10472500D01*
X10324762D01*
X10348644Y10478899D01*
X10370056Y10491261D01*
X10387539Y10508744D01*
X10399901Y10530156D01*
X10406300Y10554038D01*
Y10578762D01*
X10399901Y10602644D01*
X10387539Y10624056D01*
X10370056Y10641539D01*
X10348644Y10653901D01*
X10324762Y10660300D01*
D02*
G37*
G36*
X10070762D02*
X10046038D01*
X10022156Y10653901D01*
X10000744Y10641539D01*
X9983261Y10624056D01*
X9970899Y10602644D01*
X9964500Y10578762D01*
Y10554038D01*
X9970899Y10530156D01*
X9983261Y10508744D01*
X10000744Y10491261D01*
X10022156Y10478899D01*
X10046038Y10472500D01*
X10070762D01*
X10094644Y10478899D01*
X10116056Y10491261D01*
X10133539Y10508744D01*
X10145901Y10530156D01*
X10152300Y10554038D01*
Y10578762D01*
X10145901Y10602644D01*
X10133539Y10624056D01*
X10116056Y10641539D01*
X10094644Y10653901D01*
X10070762Y10660300D01*
D02*
G37*
G36*
X11896728Y10538100D02*
X11877672D01*
X11860067Y10530807D01*
X11846593Y10517333D01*
X11839300Y10499728D01*
Y10480672D01*
X11846593Y10463067D01*
X11860067Y10449593D01*
X11877672Y10442300D01*
X11896728D01*
X11914333Y10449593D01*
X11927807Y10463067D01*
X11935100Y10480672D01*
Y10499728D01*
X11927807Y10517333D01*
X11914333Y10530807D01*
X11896728Y10538100D01*
D02*
G37*
G36*
X11566528D02*
X11547472D01*
X11529867Y10530807D01*
X11516393Y10517333D01*
X11509100Y10499728D01*
Y10480672D01*
X11516393Y10463067D01*
X11529867Y10449593D01*
X11547472Y10442300D01*
X11566528D01*
X11584133Y10449593D01*
X11597607Y10463067D01*
X11604900Y10480672D01*
Y10499728D01*
X11597607Y10517333D01*
X11584133Y10530807D01*
X11566528Y10538100D01*
D02*
G37*
G36*
X4543428Y10469520D02*
X4524372D01*
X4506767Y10462227D01*
X4493293Y10448753D01*
X4486000Y10431148D01*
Y10412092D01*
X4493293Y10394487D01*
X4506767Y10381013D01*
X4524372Y10373720D01*
X4543428D01*
X4561033Y10381013D01*
X4574507Y10394487D01*
X4581800Y10412092D01*
Y10431148D01*
X4574507Y10448753D01*
X4561033Y10462227D01*
X4543428Y10469520D01*
D02*
G37*
G36*
X8582028Y10436500D02*
X8562972D01*
X8545367Y10429207D01*
X8531893Y10415733D01*
X8524600Y10398128D01*
Y10379072D01*
X8531893Y10361467D01*
X8545367Y10347993D01*
X8562972Y10340700D01*
X8582028D01*
X8599633Y10347993D01*
X8613107Y10361467D01*
X8620400Y10379072D01*
Y10398128D01*
X8613107Y10415733D01*
X8599633Y10429207D01*
X8582028Y10436500D01*
D02*
G37*
G36*
X8772528Y10373000D02*
X8753472D01*
X8735867Y10365707D01*
X8722393Y10352233D01*
X8715100Y10334628D01*
Y10315572D01*
X8722393Y10297967D01*
X8735867Y10284493D01*
X8753472Y10277200D01*
X8772528D01*
X8790133Y10284493D01*
X8803607Y10297967D01*
X8810900Y10315572D01*
Y10334628D01*
X8803607Y10352233D01*
X8790133Y10365707D01*
X8772528Y10373000D01*
D02*
G37*
G36*
X4949828Y10322200D02*
X4930772D01*
X4913167Y10314907D01*
X4899693Y10301433D01*
X4892400Y10283828D01*
Y10264772D01*
X4899693Y10247167D01*
X4913167Y10233693D01*
X4930772Y10226400D01*
X4949828D01*
X4967433Y10233693D01*
X4980907Y10247167D01*
X4988200Y10264772D01*
Y10283828D01*
X4980907Y10301433D01*
X4967433Y10314907D01*
X4949828Y10322200D01*
D02*
G37*
G36*
X3895728Y10474600D02*
X3876672D01*
X3859067Y10467307D01*
X3845593Y10453833D01*
X3838300Y10436228D01*
Y10417172D01*
X3845593Y10399567D01*
X3847726Y10397433D01*
X3844361Y10382837D01*
X3833667Y10378407D01*
X3820193Y10364933D01*
X3812900Y10347328D01*
Y10328272D01*
X3820193Y10310667D01*
X3833667Y10297193D01*
X3841454Y10293967D01*
X3851000Y10283828D01*
Y10264772D01*
X3858293Y10247167D01*
X3871767Y10233693D01*
X3889372Y10226400D01*
X3908428D01*
X3926033Y10233693D01*
X3939507Y10247167D01*
X3946800Y10264772D01*
Y10283828D01*
X3939507Y10301433D01*
X3926033Y10314907D01*
X3918246Y10318133D01*
X3908700Y10328272D01*
Y10347328D01*
X3901407Y10364933D01*
X3899274Y10367067D01*
X3902639Y10381663D01*
X3913333Y10386093D01*
X3926807Y10399567D01*
X3934100Y10417172D01*
Y10436228D01*
X3926807Y10453833D01*
X3913333Y10467307D01*
X3895728Y10474600D01*
D02*
G37*
G36*
X11007728Y10284100D02*
X10988672D01*
X10971067Y10276807D01*
X10957593Y10263333D01*
X10950300Y10245728D01*
Y10226672D01*
X10957593Y10209067D01*
X10971067Y10195593D01*
X10988672Y10188300D01*
X11007728D01*
X11025333Y10195593D01*
X11038807Y10209067D01*
X11046100Y10226672D01*
Y10245728D01*
X11038807Y10263333D01*
X11025333Y10276807D01*
X11007728Y10284100D01*
D02*
G37*
G36*
X4543428Y10352680D02*
X4524372D01*
X4506767Y10345387D01*
X4493293Y10331913D01*
X4486000Y10314308D01*
Y10295252D01*
X4493293Y10277647D01*
X4498513Y10272426D01*
X4498814Y10254767D01*
X4497796Y10253749D01*
X4490504Y10236144D01*
Y10217088D01*
X4497796Y10199483D01*
X4511271Y10186008D01*
X4528876Y10178716D01*
X4547932D01*
X4565537Y10186008D01*
X4579011Y10199483D01*
X4586304Y10217088D01*
Y10236144D01*
X4579011Y10253749D01*
X4573791Y10258970D01*
X4573490Y10276629D01*
X4574507Y10277647D01*
X4581800Y10295252D01*
Y10314308D01*
X4574507Y10331913D01*
X4561033Y10345387D01*
X4543428Y10352680D01*
D02*
G37*
G36*
X10017527Y10311600D02*
X9997673D01*
X9978497Y10306462D01*
X9961303Y10296535D01*
X9947265Y10282497D01*
X9937338Y10265303D01*
X9932200Y10246127D01*
Y10226273D01*
X9937338Y10207097D01*
X9947265Y10189903D01*
X9961303Y10175865D01*
X9978497Y10165938D01*
X9997673Y10160800D01*
X10017527D01*
X10036703Y10165938D01*
X10053897Y10175865D01*
X10067935Y10189903D01*
X10077862Y10207097D01*
X10083000Y10226273D01*
Y10246127D01*
X10077862Y10265303D01*
X10067935Y10282497D01*
X10053897Y10296535D01*
X10036703Y10306462D01*
X10017527Y10311600D01*
D02*
G37*
G36*
X9051928Y10157100D02*
X9032872D01*
X9015267Y10149807D01*
X9001793Y10136333D01*
X8994500Y10118728D01*
Y10099672D01*
X9001793Y10082067D01*
X9015267Y10068593D01*
X9032872Y10061300D01*
X9051928D01*
X9069533Y10068593D01*
X9083007Y10082067D01*
X9090300Y10099672D01*
Y10118728D01*
X9083007Y10136333D01*
X9069533Y10149807D01*
X9051928Y10157100D01*
D02*
G37*
G36*
X8899528Y10144400D02*
X8880472D01*
X8862867Y10137107D01*
X8849393Y10123633D01*
X8842100Y10106028D01*
Y10086972D01*
X8849393Y10069367D01*
X8862867Y10055893D01*
X8880472Y10048600D01*
X8899528D01*
X8917133Y10055893D01*
X8930607Y10069367D01*
X8937900Y10086972D01*
Y10106028D01*
X8930607Y10123633D01*
X8917133Y10137107D01*
X8899528Y10144400D01*
D02*
G37*
G36*
X11058528Y10131700D02*
X11039472D01*
X11021867Y10124407D01*
X11008393Y10110933D01*
X11001100Y10093328D01*
Y10074272D01*
X11008393Y10056667D01*
X11021867Y10043193D01*
X11039472Y10035900D01*
X11058528D01*
X11076133Y10043193D01*
X11089607Y10056667D01*
X11090000Y10057615D01*
X11102700Y10055089D01*
Y10048872D01*
X11109993Y10031267D01*
X11123467Y10017793D01*
X11141072Y10010500D01*
X11160128D01*
X11177733Y10017793D01*
X11191207Y10031267D01*
X11198500Y10048872D01*
Y10067928D01*
X11191207Y10085533D01*
X11177733Y10099007D01*
X11160128Y10106300D01*
X11141072D01*
X11123467Y10099007D01*
X11109993Y10085533D01*
X11109600Y10084585D01*
X11096900Y10087111D01*
Y10093328D01*
X11089607Y10110933D01*
X11076133Y10124407D01*
X11058528Y10131700D01*
D02*
G37*
G36*
X5572128Y10106300D02*
X5553072D01*
X5535467Y10099007D01*
X5521993Y10085533D01*
X5514700Y10067928D01*
Y10048872D01*
X5521993Y10031267D01*
X5535467Y10017793D01*
X5553072Y10010500D01*
X5572128D01*
X5589733Y10017793D01*
X5603207Y10031267D01*
X5610500Y10048872D01*
Y10067928D01*
X5603207Y10085533D01*
X5589733Y10099007D01*
X5572128Y10106300D01*
D02*
G37*
G36*
X3743328Y10093600D02*
X3724272D01*
X3706667Y10086307D01*
X3693193Y10072833D01*
X3685900Y10055228D01*
Y10036172D01*
X3693193Y10018567D01*
X3706667Y10005093D01*
X3724272Y9997800D01*
X3743328D01*
X3760933Y10005093D01*
X3774407Y10018567D01*
X3781700Y10036172D01*
Y10055228D01*
X3774407Y10072833D01*
X3760933Y10086307D01*
X3743328Y10093600D01*
D02*
G37*
G36*
X7680328Y10080900D02*
X7661272D01*
X7643667Y10073607D01*
X7630193Y10060133D01*
X7622900Y10042528D01*
Y10023472D01*
X7630193Y10005867D01*
X7643667Y9992393D01*
X7661272Y9985100D01*
X7680328D01*
X7697933Y9992393D01*
X7711407Y10005867D01*
X7718700Y10023472D01*
Y10042528D01*
X7711407Y10060133D01*
X7697933Y10073607D01*
X7680328Y10080900D01*
D02*
G37*
G36*
X4416428Y9992000D02*
X4397372D01*
X4379767Y9984707D01*
X4366293Y9971233D01*
X4359000Y9953628D01*
Y9934572D01*
X4366293Y9916967D01*
X4379767Y9903493D01*
X4397372Y9896200D01*
X4416428D01*
X4434033Y9903493D01*
X4447507Y9916967D01*
X4454800Y9934572D01*
Y9953628D01*
X4447507Y9971233D01*
X4434033Y9984707D01*
X4416428Y9992000D01*
D02*
G37*
G36*
X3172997Y9920120D02*
X3149963D01*
X3128682Y9911305D01*
X3112395Y9895018D01*
X3103580Y9873737D01*
Y9850703D01*
X3112395Y9829422D01*
X3128682Y9813135D01*
X3149963Y9804320D01*
X3172997D01*
X3194278Y9813135D01*
X3210565Y9829422D01*
X3219380Y9850703D01*
Y9873737D01*
X3210565Y9895018D01*
X3194278Y9911305D01*
X3172997Y9920120D01*
D02*
G37*
G36*
X10626728Y9813616D02*
X10607672D01*
X10590067Y9806323D01*
X10576593Y9792849D01*
X10569300Y9775244D01*
Y9756188D01*
X10576593Y9738583D01*
X10590067Y9725108D01*
X10607672Y9717816D01*
X10626728D01*
X10644333Y9725108D01*
X10657807Y9738583D01*
X10665100Y9756188D01*
Y9775244D01*
X10657807Y9792849D01*
X10644333Y9806323D01*
X10626728Y9813616D01*
D02*
G37*
G36*
X11109328Y9776100D02*
X11090272D01*
X11072667Y9768807D01*
X11059193Y9755333D01*
X11051900Y9737728D01*
Y9718672D01*
X11059193Y9701067D01*
X11072667Y9687593D01*
X11090272Y9680300D01*
X11109328D01*
X11126933Y9687593D01*
X11140407Y9701067D01*
X11147700Y9718672D01*
Y9737728D01*
X11140407Y9755333D01*
X11126933Y9768807D01*
X11109328Y9776100D01*
D02*
G37*
G36*
X8734428D02*
X8715372D01*
X8697767Y9768807D01*
X8684293Y9755333D01*
X8677000Y9737728D01*
Y9718672D01*
X8684293Y9701067D01*
X8697767Y9687593D01*
X8715372Y9680300D01*
X8734428D01*
X8752033Y9687593D01*
X8765507Y9701067D01*
X8772800Y9718672D01*
Y9737728D01*
X8765507Y9755333D01*
X8752033Y9768807D01*
X8734428Y9776100D01*
D02*
G37*
G36*
X11287128Y9699900D02*
X11268072D01*
X11250467Y9692607D01*
X11236993Y9679133D01*
X11229700Y9661528D01*
Y9642472D01*
X11236993Y9624867D01*
X11250467Y9611393D01*
X11268072Y9604100D01*
X11287128D01*
X11304733Y9611393D01*
X11318207Y9624867D01*
X11325500Y9642472D01*
Y9661528D01*
X11318207Y9679133D01*
X11304733Y9692607D01*
X11287128Y9699900D01*
D02*
G37*
G36*
X3400428Y9687200D02*
X3381372D01*
X3363767Y9679907D01*
X3350293Y9666433D01*
X3343000Y9648828D01*
Y9629772D01*
X3350293Y9612167D01*
X3363767Y9598693D01*
X3381372Y9591400D01*
X3400428D01*
X3418033Y9598693D01*
X3431507Y9612167D01*
X3438800Y9629772D01*
Y9648828D01*
X3431507Y9666433D01*
X3418033Y9679907D01*
X3400428Y9687200D01*
D02*
G37*
G36*
X8391528Y9674500D02*
X8372472D01*
X8354867Y9667207D01*
X8341393Y9653733D01*
X8334100Y9636128D01*
Y9617072D01*
X8341393Y9599467D01*
X8354867Y9585993D01*
X8372472Y9578700D01*
X8391528D01*
X8409133Y9585993D01*
X8422607Y9599467D01*
X8429900Y9617072D01*
Y9636128D01*
X8422607Y9653733D01*
X8409133Y9667207D01*
X8391528Y9674500D01*
D02*
G37*
G36*
X7350750Y9588998D02*
X6373112D01*
X6370312Y9588441D01*
X6367456Y9588372D01*
X6366513Y9588161D01*
X6364556Y9587296D01*
X6363201Y9587026D01*
X6361752Y9586058D01*
X6357467Y9584209D01*
X6357383Y9584122D01*
X6357272Y9584073D01*
X6353866Y9580501D01*
X6350427Y9576960D01*
X6345449Y9569268D01*
X6344186Y9568733D01*
X6334128Y9572900D01*
X6315072D01*
X6305014Y9568733D01*
X6303751Y9569268D01*
X6298773Y9576960D01*
X6295337Y9580498D01*
X6291929Y9584072D01*
X6291818Y9584122D01*
X6291733Y9584209D01*
X6287449Y9586058D01*
X6285999Y9587026D01*
X6284644Y9587296D01*
X6282689Y9588161D01*
X6281746Y9588372D01*
X6278890Y9588440D01*
X6276088Y9588998D01*
X5704851D01*
X5702349Y9588500D01*
X5699797Y9588500D01*
X5697440Y9588031D01*
X5695085Y9587055D01*
X5694940Y9587026D01*
X5694817Y9586944D01*
X5690732Y9585252D01*
X5690586Y9585223D01*
X5690463Y9585141D01*
X5688107Y9584165D01*
X5686110Y9582830D01*
X5684306Y9581026D01*
X5682184Y9579609D01*
X5482591Y9380016D01*
X5481174Y9377895D01*
X5479371Y9376092D01*
X5478036Y9374095D01*
X5478035Y9374094D01*
X5477059Y9371736D01*
X5476977Y9371614D01*
X5476949Y9371470D01*
X5475256Y9367383D01*
X5475174Y9367260D01*
X5475145Y9367115D01*
X5474169Y9364758D01*
X5473700Y9362402D01*
Y9359851D01*
X5473202Y9357350D01*
Y7605327D01*
X5374072Y7506197D01*
X5107951Y7506198D01*
X5105449Y7505700D01*
X5102897Y7505700D01*
X5100540Y7505231D01*
X5098185Y7504255D01*
X5098040Y7504226D01*
X5097917Y7504144D01*
X5093832Y7502452D01*
X5093686Y7502423D01*
X5093563Y7502341D01*
X5091207Y7501365D01*
X5089210Y7500030D01*
X5087406Y7498226D01*
X5085284Y7496809D01*
X4974591Y7386116D01*
X4973174Y7383995D01*
X4971371Y7382192D01*
X4970036Y7380195D01*
X4970035Y7380194D01*
X4969059Y7377836D01*
X4968977Y7377714D01*
X4968949Y7377570D01*
X4967256Y7373483D01*
X4967174Y7373360D01*
X4967145Y7373215D01*
X4966169Y7370858D01*
X4965700Y7368502D01*
Y7365951D01*
X4965202Y7363450D01*
Y4053851D01*
X4965700Y4051349D01*
X4965700Y4048797D01*
X4966169Y4046440D01*
X4967145Y4044085D01*
X4967174Y4043940D01*
X4967256Y4043817D01*
X4968948Y4039732D01*
X4968977Y4039586D01*
X4969059Y4039463D01*
X4970035Y4037107D01*
X4971370Y4035110D01*
X4973174Y4033306D01*
X4974591Y4031184D01*
X5199584Y3806191D01*
X5201705Y3804774D01*
X5203508Y3802971D01*
X5205505Y3801636D01*
X5205506Y3801635D01*
X5207864Y3800659D01*
X5207986Y3800577D01*
X5208130Y3800549D01*
X5212217Y3798856D01*
X5212340Y3798774D01*
X5212485Y3798745D01*
X5214842Y3797769D01*
X5217198Y3797300D01*
X5219749D01*
X5222250Y3796802D01*
X5482681D01*
X5487942Y3784102D01*
X5480866Y3777027D01*
X5471598Y3760973D01*
X5466800Y3743068D01*
Y3724532D01*
X5471598Y3706627D01*
X5480866Y3690573D01*
X5493973Y3677466D01*
X5510027Y3668198D01*
X5527932Y3663400D01*
X5546468D01*
X5564373Y3668198D01*
X5580427Y3677466D01*
X5593534Y3690573D01*
X5602802Y3706627D01*
X5607600Y3724532D01*
Y3743068D01*
X5602802Y3760973D01*
X5593534Y3777027D01*
X5586458Y3784102D01*
X5591719Y3796802D01*
X5685881D01*
X5691142Y3784102D01*
X5684066Y3777027D01*
X5674798Y3760973D01*
X5670000Y3743068D01*
Y3724532D01*
X5674798Y3706627D01*
X5684066Y3690573D01*
X5697173Y3677466D01*
X5713227Y3668198D01*
X5731132Y3663400D01*
X5749668D01*
X5767573Y3668198D01*
X5783627Y3677466D01*
X5796734Y3690573D01*
X5806002Y3706627D01*
X5810800Y3724532D01*
Y3743068D01*
X5806002Y3760973D01*
X5796734Y3777027D01*
X5789658Y3784102D01*
X5794919Y3796802D01*
X5920173D01*
X6038352Y3678623D01*
Y3310901D01*
X6038850Y3308399D01*
X6038850Y3305847D01*
X6039319Y3303490D01*
X6040295Y3301135D01*
X6040324Y3300990D01*
X6040406Y3300867D01*
X6042098Y3296782D01*
X6042127Y3296636D01*
X6042209Y3296513D01*
X6043185Y3294157D01*
X6044520Y3292160D01*
X6046324Y3290356D01*
X6047741Y3288234D01*
X6126684Y3209291D01*
X6128805Y3207874D01*
X6130608Y3206071D01*
X6132605Y3204736D01*
X6132606Y3204735D01*
X6134964Y3203759D01*
X6135086Y3203677D01*
X6135230Y3203649D01*
X6139317Y3201956D01*
X6139440Y3201874D01*
X6139585Y3201845D01*
X6141942Y3200869D01*
X6144298Y3200400D01*
X6146849D01*
X6149350Y3199902D01*
X7795249D01*
X7797751Y3200400D01*
X7800303Y3200400D01*
X7802660Y3200869D01*
X7805015Y3201845D01*
X7805160Y3201874D01*
X7805283Y3201956D01*
X7809368Y3203648D01*
X7809514Y3203677D01*
X7809637Y3203759D01*
X7811993Y3204735D01*
X7813990Y3206070D01*
X7815794Y3207874D01*
X7817916Y3209291D01*
X7928608Y3319983D01*
X7930025Y3322104D01*
X7931829Y3323908D01*
X7933163Y3325905D01*
X7933164Y3325906D01*
X7934140Y3328263D01*
X7934222Y3328385D01*
X7934251Y3328530D01*
X7935943Y3332616D01*
X7936026Y3332739D01*
X7936055Y3332885D01*
X7937031Y3335241D01*
X7937499Y3337598D01*
Y3340148D01*
X7937997Y3342650D01*
Y3688533D01*
Y3823169D01*
Y4053851D01*
Y4397100D01*
Y4518646D01*
Y4618991D01*
X7937997Y4760900D01*
Y5260972D01*
Y5280028D01*
Y5737893D01*
Y5826400D01*
Y6156993D01*
Y6245500D01*
Y6360146D01*
Y6460491D01*
Y6602400D01*
Y6643833D01*
Y6905628D01*
Y6923233D01*
Y7365806D01*
X7937998Y7482271D01*
Y7605327D01*
Y8722349D01*
X7937500Y8724851D01*
X7937500Y8727403D01*
X7937031Y8729760D01*
X7936055Y8732115D01*
X7936026Y8732260D01*
X7935944Y8732383D01*
X7934252Y8736468D01*
X7934223Y8736614D01*
X7934141Y8736737D01*
X7933165Y8739093D01*
X7931830Y8741090D01*
X7930026Y8742894D01*
X7928609Y8745016D01*
X7843316Y8830308D01*
X7841195Y8831725D01*
X7839392Y8833529D01*
X7837395Y8834863D01*
X7837394Y8834864D01*
X7835036Y8835841D01*
X7834914Y8835922D01*
X7834770Y8835951D01*
X7830683Y8837644D01*
X7830560Y8837726D01*
X7830415Y8837755D01*
X7828058Y8838731D01*
X7825702Y8839200D01*
X7823151D01*
X7820650Y8839697D01*
X7529127D01*
X7468098Y8900727D01*
Y9471649D01*
X7467600Y9474151D01*
X7467600Y9476703D01*
X7467131Y9479060D01*
X7466155Y9481415D01*
X7466126Y9481560D01*
X7466044Y9481683D01*
X7464352Y9485768D01*
X7464323Y9485914D01*
X7464241Y9486037D01*
X7463265Y9488393D01*
X7461930Y9490390D01*
X7460126Y9492194D01*
X7458709Y9494316D01*
X7373416Y9579609D01*
X7371295Y9581026D01*
X7369492Y9582829D01*
X7367495Y9584164D01*
X7367494Y9584165D01*
X7365136Y9585141D01*
X7365014Y9585223D01*
X7364870Y9585251D01*
X7360783Y9586944D01*
X7360660Y9587026D01*
X7360515Y9587055D01*
X7358158Y9588031D01*
X7355802Y9588500D01*
X7353251D01*
X7350750Y9588998D01*
D02*
G37*
G36*
X7629927Y9702000D02*
X7610073D01*
X7590897Y9696862D01*
X7573703Y9686935D01*
X7559665Y9672897D01*
X7549738Y9655703D01*
X7544600Y9636527D01*
Y9616673D01*
X7549738Y9597497D01*
X7559665Y9580303D01*
X7573703Y9566265D01*
X7590897Y9556338D01*
X7610073Y9551200D01*
X7629927D01*
X7649103Y9556338D01*
X7666297Y9566265D01*
X7680335Y9580303D01*
X7690262Y9597497D01*
X7695400Y9616673D01*
Y9636527D01*
X7690262Y9655703D01*
X7680335Y9672897D01*
X7666297Y9686935D01*
X7649103Y9696862D01*
X7629927Y9702000D01*
D02*
G37*
G36*
X3400428Y9560200D02*
X3381372D01*
X3363767Y9552907D01*
X3350293Y9539433D01*
X3343000Y9521828D01*
Y9502772D01*
X3350293Y9485167D01*
X3363767Y9471693D01*
X3381372Y9464400D01*
X3400428D01*
X3418033Y9471693D01*
X3431507Y9485167D01*
X3438800Y9502772D01*
Y9521828D01*
X3431507Y9539433D01*
X3418033Y9552907D01*
X3400428Y9560200D01*
D02*
G37*
G36*
X11693528Y9547500D02*
X11674472D01*
X11656867Y9540207D01*
X11643393Y9526733D01*
X11636100Y9509128D01*
Y9490072D01*
X11643393Y9472467D01*
X11656867Y9458993D01*
X11674472Y9451700D01*
X11693528D01*
X11711133Y9458993D01*
X11724607Y9472467D01*
X11731900Y9490072D01*
Y9509128D01*
X11724607Y9526733D01*
X11711133Y9540207D01*
X11693528Y9547500D01*
D02*
G37*
G36*
X10474328Y9522100D02*
X10455272D01*
X10437667Y9514807D01*
X10424193Y9501333D01*
X10416900Y9483728D01*
Y9464672D01*
X10424193Y9447067D01*
X10437667Y9433593D01*
X10455272Y9426300D01*
X10474328D01*
X10491933Y9433593D01*
X10505407Y9447067D01*
X10512700Y9464672D01*
Y9483728D01*
X10505407Y9501333D01*
X10491933Y9514807D01*
X10474328Y9522100D01*
D02*
G37*
G36*
X8836028Y9611000D02*
X8816972D01*
X8799367Y9603707D01*
X8785893Y9590233D01*
X8778600Y9572628D01*
Y9553572D01*
X8785893Y9535967D01*
X8799367Y9522493D01*
X8816972Y9515200D01*
X8830869D01*
X8838159Y9511259D01*
X8842100Y9503969D01*
Y9490072D01*
X8849393Y9472467D01*
X8862867Y9458993D01*
X8880472Y9451700D01*
X8899528D01*
X8905600Y9454215D01*
X8918300Y9445729D01*
Y9439272D01*
X8925593Y9421667D01*
X8939067Y9408193D01*
X8956672Y9400900D01*
X8975728D01*
X8993333Y9408193D01*
X9006807Y9421667D01*
X9014100Y9439272D01*
Y9458328D01*
X9006807Y9475933D01*
X8993333Y9489407D01*
X8975728Y9496700D01*
X8956672D01*
X8950600Y9494185D01*
X8937900Y9502671D01*
Y9509128D01*
X8930607Y9526733D01*
X8917133Y9540207D01*
X8899528Y9547500D01*
X8885631D01*
X8878341Y9551441D01*
X8874400Y9558731D01*
Y9572628D01*
X8867107Y9590233D01*
X8853633Y9603707D01*
X8836028Y9611000D01*
D02*
G37*
G36*
X10817228Y9547500D02*
X10798172D01*
X10780567Y9540207D01*
X10767093Y9526733D01*
X10759800Y9509128D01*
Y9490072D01*
X10767093Y9472467D01*
X10775160Y9464400D01*
X10767093Y9456333D01*
X10759800Y9438728D01*
Y9419672D01*
X10767093Y9402067D01*
X10780567Y9388592D01*
X10798172Y9381300D01*
X10817228D01*
X10834833Y9388592D01*
X10848307Y9402067D01*
X10855600Y9419672D01*
Y9438728D01*
X10848307Y9456333D01*
X10840240Y9464400D01*
X10848307Y9472467D01*
X10855600Y9490072D01*
Y9509128D01*
X10848307Y9526733D01*
X10834833Y9540207D01*
X10817228Y9547500D01*
D02*
G37*
G36*
X3146428Y9738000D02*
X3127372D01*
X3109767Y9730707D01*
X3096293Y9717233D01*
X3089000Y9699628D01*
Y9680572D01*
X3096293Y9662967D01*
X3098426Y9660833D01*
X3098059Y9659295D01*
X3092199Y9649100D01*
X3076572D01*
X3058967Y9641807D01*
X3045493Y9628333D01*
X3038200Y9610728D01*
Y9591672D01*
X3045493Y9574067D01*
X3058967Y9560593D01*
X3073330Y9554643D01*
X3074808Y9542706D01*
X3074594Y9541420D01*
X3071667Y9540207D01*
X3058193Y9526733D01*
X3050900Y9509128D01*
Y9490072D01*
X3058193Y9472467D01*
X3071667Y9458993D01*
X3089272Y9451700D01*
X3095729D01*
X3104215Y9439000D01*
X3101700Y9432928D01*
Y9413872D01*
X3108993Y9396267D01*
X3122467Y9382793D01*
X3140072Y9375500D01*
X3159128D01*
X3176733Y9382793D01*
X3190207Y9396267D01*
X3197500Y9413872D01*
Y9432928D01*
X3190207Y9450533D01*
X3176733Y9464007D01*
X3159128Y9471300D01*
X3152671D01*
X3144185Y9484000D01*
X3146700Y9490072D01*
Y9509128D01*
X3139407Y9526733D01*
X3125933Y9540207D01*
X3111570Y9546157D01*
X3110092Y9558094D01*
X3110306Y9559380D01*
X3113233Y9560593D01*
X3126707Y9574067D01*
X3134000Y9591672D01*
Y9610728D01*
X3126707Y9628333D01*
X3124574Y9630467D01*
X3124941Y9632005D01*
X3130801Y9642200D01*
X3146428D01*
X3164033Y9649493D01*
X3177507Y9662967D01*
X3184800Y9680572D01*
Y9699628D01*
X3177507Y9717233D01*
X3164033Y9730707D01*
X3146428Y9738000D01*
D02*
G37*
G36*
X10398128Y9395100D02*
X10379072D01*
X10361467Y9387807D01*
X10347993Y9374333D01*
X10340700Y9356728D01*
Y9337672D01*
X10347993Y9320067D01*
X10361467Y9306593D01*
X10379072Y9299300D01*
X10398128D01*
X10415733Y9306593D01*
X10429207Y9320067D01*
X10436500Y9337672D01*
Y9356728D01*
X10429207Y9374333D01*
X10415733Y9387807D01*
X10398128Y9395100D01*
D02*
G37*
G36*
X7985128D02*
X7966072D01*
X7948467Y9387807D01*
X7934993Y9374333D01*
X7927700Y9356728D01*
Y9337672D01*
X7934993Y9320067D01*
X7948467Y9306593D01*
X7966072Y9299300D01*
X7985128D01*
X8002733Y9306593D01*
X8016207Y9320067D01*
X8023500Y9337672D01*
Y9356728D01*
X8016207Y9374333D01*
X8002733Y9387807D01*
X7985128Y9395100D01*
D02*
G37*
G36*
X3186217Y9344700D02*
X3163183D01*
X3141902Y9335885D01*
X3125615Y9319598D01*
X3116800Y9298317D01*
Y9275283D01*
X3125615Y9254002D01*
X3141902Y9237715D01*
X3163183Y9228900D01*
X3186217D01*
X3207498Y9237715D01*
X3223785Y9254002D01*
X3232600Y9275283D01*
Y9298317D01*
X3223785Y9319598D01*
X3207498Y9335885D01*
X3186217Y9344700D01*
D02*
G37*
G36*
X10067928Y9268100D02*
X10048872D01*
X10031267Y9260807D01*
X10017793Y9247333D01*
X10010500Y9229728D01*
Y9210672D01*
X10017793Y9193067D01*
X10031267Y9179593D01*
X10048872Y9172300D01*
X10067928D01*
X10085533Y9179593D01*
X10099007Y9193067D01*
X10106300Y9210672D01*
Y9229728D01*
X10099007Y9247333D01*
X10085533Y9260807D01*
X10067928Y9268100D01*
D02*
G37*
G36*
X4149728Y9141100D02*
X4130672D01*
X4113067Y9133807D01*
X4099593Y9120333D01*
X4092300Y9102728D01*
Y9083672D01*
X4099593Y9066067D01*
X4113067Y9052593D01*
X4130672Y9045300D01*
X4149728D01*
X4167333Y9052593D01*
X4180807Y9066067D01*
X4188100Y9083672D01*
Y9102728D01*
X4180807Y9120333D01*
X4167333Y9133807D01*
X4149728Y9141100D01*
D02*
G37*
G36*
X10550528Y9090300D02*
X10531472D01*
X10513867Y9083007D01*
X10500393Y9069533D01*
X10493100Y9051928D01*
Y9032872D01*
X10500393Y9015267D01*
X10513867Y9001793D01*
X10531472Y8994500D01*
X10550528D01*
X10568133Y9001793D01*
X10581607Y9015267D01*
X10588900Y9032872D01*
Y9051928D01*
X10581607Y9069533D01*
X10568133Y9083007D01*
X10550528Y9090300D01*
D02*
G37*
G36*
X10410828Y8760100D02*
X10391772D01*
X10374167Y8752807D01*
X10360693Y8739333D01*
X10353400Y8721728D01*
Y8702672D01*
X10360693Y8685067D01*
X10374167Y8671593D01*
X10391772Y8664300D01*
X10410828D01*
X10428433Y8671593D01*
X10441907Y8685067D01*
X10449200Y8702672D01*
Y8721728D01*
X10441907Y8739333D01*
X10428433Y8752807D01*
X10410828Y8760100D01*
D02*
G37*
G36*
X10067928Y8607700D02*
X10048872D01*
X10031267Y8600407D01*
X10017793Y8586933D01*
X10010500Y8569328D01*
Y8550272D01*
X10017793Y8532667D01*
X10031267Y8519193D01*
X10048872Y8511900D01*
X10067928D01*
X10085533Y8519193D01*
X10099007Y8532667D01*
X10106300Y8550272D01*
Y8569328D01*
X10099007Y8586933D01*
X10085533Y8600407D01*
X10067928Y8607700D01*
D02*
G37*
G36*
Y8480700D02*
X10048872D01*
X10031267Y8473407D01*
X10017793Y8459933D01*
X10010500Y8442328D01*
Y8423272D01*
X10017793Y8405667D01*
X10031267Y8392193D01*
X10048872Y8384900D01*
X10067928D01*
X10085533Y8392193D01*
X10099007Y8405667D01*
X10106300Y8423272D01*
Y8442328D01*
X10099007Y8459933D01*
X10085533Y8473407D01*
X10067928Y8480700D01*
D02*
G37*
G36*
X9179327Y8406600D02*
X9159473D01*
X9140297Y8401462D01*
X9123103Y8391535D01*
X9109065Y8377497D01*
X9099138Y8360303D01*
X9094000Y8341127D01*
Y8321273D01*
X9099138Y8302097D01*
X9109065Y8284903D01*
X9123103Y8270865D01*
X9140297Y8260938D01*
X9159473Y8255800D01*
X9179327D01*
X9198503Y8260938D01*
X9215697Y8270865D01*
X9229735Y8284903D01*
X9239662Y8302097D01*
X9244800Y8321273D01*
Y8341127D01*
X9239662Y8360303D01*
X9229735Y8377497D01*
X9215697Y8391535D01*
X9198503Y8401462D01*
X9179327Y8406600D01*
D02*
G37*
G36*
X3464084Y8332800D02*
X3427116D01*
X3391407Y8323232D01*
X3359392Y8304748D01*
X3333252Y8278608D01*
X3314768Y8246593D01*
X3305200Y8210884D01*
Y8173916D01*
X3314768Y8138208D01*
X3333252Y8106193D01*
X3359392Y8080052D01*
X3391407Y8061568D01*
X3427116Y8052000D01*
X3464084D01*
X3499792Y8061568D01*
X3531808Y8080052D01*
X3557948Y8106193D01*
X3576432Y8138208D01*
X3586000Y8173916D01*
Y8210884D01*
X3576432Y8246593D01*
X3557948Y8278608D01*
X3531808Y8304748D01*
X3499792Y8323232D01*
X3464084Y8332800D01*
D02*
G37*
G36*
X2914084D02*
X2877116D01*
X2841408Y8323232D01*
X2809392Y8304748D01*
X2783252Y8278608D01*
X2764768Y8246593D01*
X2755200Y8210884D01*
Y8173916D01*
X2764768Y8138208D01*
X2783252Y8106193D01*
X2809392Y8080052D01*
X2841408Y8061568D01*
X2877116Y8052000D01*
X2914084D01*
X2949792Y8061568D01*
X2981808Y8080052D01*
X3007948Y8106193D01*
X3026432Y8138208D01*
X3036000Y8173916D01*
Y8210884D01*
X3026432Y8246593D01*
X3007948Y8278608D01*
X2981808Y8304748D01*
X2949792Y8323232D01*
X2914084Y8332800D01*
D02*
G37*
G36*
X9788528Y7896500D02*
X9769472D01*
X9751867Y7889207D01*
X9738393Y7875733D01*
X9731100Y7858128D01*
Y7839072D01*
X9738393Y7821467D01*
X9751867Y7807993D01*
X9769472Y7800700D01*
X9788528D01*
X9806133Y7807993D01*
X9819607Y7821467D01*
X9826900Y7839072D01*
Y7858128D01*
X9819607Y7875733D01*
X9806133Y7889207D01*
X9788528Y7896500D01*
D02*
G37*
G36*
X3464084Y7912800D02*
X3427116D01*
X3391407Y7903232D01*
X3359392Y7884748D01*
X3333252Y7858608D01*
X3314768Y7826592D01*
X3305200Y7790884D01*
Y7753916D01*
X3314768Y7718208D01*
X3333252Y7686192D01*
X3359392Y7660052D01*
X3391407Y7641568D01*
X3427116Y7632000D01*
X3464084D01*
X3499792Y7641568D01*
X3531808Y7660052D01*
X3557948Y7686192D01*
X3576432Y7718208D01*
X3586000Y7753916D01*
Y7790884D01*
X3576432Y7826592D01*
X3557948Y7858608D01*
X3531808Y7884748D01*
X3499792Y7903232D01*
X3464084Y7912800D01*
D02*
G37*
G36*
X2914084D02*
X2877116D01*
X2841408Y7903232D01*
X2809392Y7884748D01*
X2783252Y7858608D01*
X2764768Y7826592D01*
X2755200Y7790884D01*
Y7753916D01*
X2764768Y7718208D01*
X2783252Y7686192D01*
X2809392Y7660052D01*
X2841408Y7641568D01*
X2877116Y7632000D01*
X2914084D01*
X2949792Y7641568D01*
X2981808Y7660052D01*
X3007948Y7686192D01*
X3026432Y7718208D01*
X3036000Y7753916D01*
Y7790884D01*
X3026432Y7826592D01*
X3007948Y7858608D01*
X2981808Y7884748D01*
X2949792Y7903232D01*
X2914084Y7912800D01*
D02*
G37*
G36*
X5089528Y7642500D02*
X5070472D01*
X5052867Y7635207D01*
X5039393Y7621733D01*
X5032100Y7604128D01*
Y7585072D01*
X5039393Y7567467D01*
X5052867Y7553993D01*
X5070472Y7546700D01*
X5089528D01*
X5107133Y7553993D01*
X5120607Y7567467D01*
X5127900Y7585072D01*
Y7604128D01*
X5120607Y7621733D01*
X5107133Y7635207D01*
X5089528Y7642500D01*
D02*
G37*
G36*
X12031900Y7688500D02*
X11844100D01*
Y7500700D01*
X12031900D01*
Y7688500D01*
D02*
G37*
G36*
X11696362D02*
X11671638D01*
X11647756Y7682101D01*
X11626344Y7669739D01*
X11608861Y7652256D01*
X11596499Y7630844D01*
X11590100Y7606962D01*
Y7582238D01*
X11596499Y7558356D01*
X11608861Y7536944D01*
X11626344Y7519461D01*
X11647756Y7507099D01*
X11671638Y7500700D01*
X11696362D01*
X11720244Y7507099D01*
X11741656Y7519461D01*
X11759139Y7536944D01*
X11771501Y7558356D01*
X11777900Y7582238D01*
Y7606962D01*
X11771501Y7630844D01*
X11759139Y7652256D01*
X11741656Y7669739D01*
X11720244Y7682101D01*
X11696362Y7688500D01*
D02*
G37*
G36*
X11442362D02*
X11417638D01*
X11393756Y7682101D01*
X11372344Y7669739D01*
X11354861Y7652256D01*
X11342499Y7630844D01*
X11336100Y7606962D01*
Y7582238D01*
X11342499Y7558356D01*
X11354861Y7536944D01*
X11372344Y7519461D01*
X11393756Y7507099D01*
X11417638Y7500700D01*
X11442362D01*
X11466244Y7507099D01*
X11487656Y7519461D01*
X11505139Y7536944D01*
X11517501Y7558356D01*
X11523900Y7582238D01*
Y7606962D01*
X11517501Y7630844D01*
X11505139Y7652256D01*
X11487656Y7669739D01*
X11466244Y7682101D01*
X11442362Y7688500D01*
D02*
G37*
G36*
X11950362Y7434500D02*
X11925638D01*
X11901756Y7428101D01*
X11880344Y7415739D01*
X11862861Y7398256D01*
X11850499Y7376844D01*
X11844100Y7352962D01*
Y7328238D01*
X11850499Y7304356D01*
X11862861Y7282944D01*
X11880344Y7265461D01*
X11901756Y7253099D01*
X11925638Y7246700D01*
X11950362D01*
X11974244Y7253099D01*
X11995656Y7265461D01*
X12013139Y7282944D01*
X12025501Y7304356D01*
X12031900Y7328238D01*
Y7352962D01*
X12025501Y7376844D01*
X12013139Y7398256D01*
X11995656Y7415739D01*
X11974244Y7428101D01*
X11950362Y7434500D01*
D02*
G37*
G36*
X11188362D02*
X11163638D01*
X11139756Y7428101D01*
X11118344Y7415739D01*
X11100861Y7398256D01*
X11088499Y7376844D01*
X11082100Y7352962D01*
Y7328238D01*
X11088499Y7304356D01*
X11100861Y7282944D01*
X11118344Y7265461D01*
X11139756Y7253099D01*
X11163638Y7246700D01*
X11188362D01*
X11212244Y7253099D01*
X11233656Y7265461D01*
X11251139Y7282944D01*
X11263501Y7304356D01*
X11269900Y7328238D01*
Y7352962D01*
X11263501Y7376844D01*
X11251139Y7398256D01*
X11233656Y7415739D01*
X11212244Y7428101D01*
X11188362Y7434500D01*
D02*
G37*
G36*
X3464084Y7492800D02*
X3427116D01*
X3391407Y7483232D01*
X3359392Y7464748D01*
X3333252Y7438608D01*
X3314768Y7406593D01*
X3305200Y7370884D01*
Y7333916D01*
X3314768Y7298208D01*
X3333252Y7266192D01*
X3359392Y7240052D01*
X3391407Y7221568D01*
X3427116Y7212000D01*
X3464084D01*
X3499792Y7221568D01*
X3531808Y7240052D01*
X3557948Y7266192D01*
X3576432Y7298208D01*
X3586000Y7333916D01*
Y7370884D01*
X3576432Y7406593D01*
X3557948Y7438608D01*
X3531808Y7464748D01*
X3499792Y7483232D01*
X3464084Y7492800D01*
D02*
G37*
G36*
X4581528Y7286900D02*
X4562472D01*
X4544867Y7279607D01*
X4531393Y7266133D01*
X4524100Y7248528D01*
Y7229472D01*
X4531393Y7211867D01*
X4544867Y7198393D01*
X4562472Y7191100D01*
X4581528D01*
X4599133Y7198393D01*
X4612607Y7211867D01*
X4619900Y7229472D01*
Y7248528D01*
X4612607Y7266133D01*
X4599133Y7279607D01*
X4581528Y7286900D01*
D02*
G37*
G36*
X10328909Y7427900D02*
X10295891D01*
X10263998Y7419354D01*
X10235403Y7402845D01*
X10212055Y7379497D01*
X10195546Y7350902D01*
X10187000Y7319009D01*
Y7285991D01*
X10195546Y7254098D01*
X10212055Y7225503D01*
X10235403Y7202155D01*
X10263998Y7185646D01*
X10295891Y7177100D01*
X10328909D01*
X10360802Y7185646D01*
X10389397Y7202155D01*
X10412745Y7225503D01*
X10429254Y7254098D01*
X10437800Y7285991D01*
Y7319009D01*
X10429254Y7350902D01*
X10412745Y7379497D01*
X10389397Y7402845D01*
X10360802Y7419354D01*
X10328909Y7427900D01*
D02*
G37*
G36*
X4581528Y7134500D02*
X4562472D01*
X4544867Y7127207D01*
X4531393Y7113733D01*
X4524100Y7096128D01*
Y7077072D01*
X4531393Y7059467D01*
X4544867Y7045993D01*
X4562472Y7038700D01*
X4581528D01*
X4599133Y7045993D01*
X4612607Y7059467D01*
X4619900Y7077072D01*
Y7096128D01*
X4612607Y7113733D01*
X4599133Y7127207D01*
X4581528Y7134500D01*
D02*
G37*
G36*
X3883028Y6905900D02*
X3863972D01*
X3846367Y6898607D01*
X3832893Y6885133D01*
X3825600Y6867528D01*
Y6848472D01*
X3832893Y6830867D01*
X3846367Y6817393D01*
X3863972Y6810100D01*
X3883028D01*
X3900633Y6817393D01*
X3914107Y6830867D01*
X3921400Y6848472D01*
Y6867528D01*
X3914107Y6885133D01*
X3900633Y6898607D01*
X3883028Y6905900D01*
D02*
G37*
G36*
X11667868Y6649000D02*
X11649332D01*
X11631427Y6644202D01*
X11615373Y6634934D01*
X11602266Y6621827D01*
X11592998Y6605773D01*
X11588200Y6587868D01*
Y6569332D01*
X11592998Y6551427D01*
X11602266Y6535373D01*
X11615373Y6522266D01*
X11631427Y6512998D01*
X11649332Y6508200D01*
X11667868D01*
X11685773Y6512998D01*
X11701827Y6522266D01*
X11714934Y6535373D01*
X11724202Y6551427D01*
X11729000Y6569332D01*
Y6587868D01*
X11724202Y6605773D01*
X11714934Y6621827D01*
X11701827Y6634934D01*
X11685773Y6644202D01*
X11667868Y6649000D01*
D02*
G37*
G36*
X4244957Y6578346D02*
X4225902D01*
X4208296Y6571054D01*
X4194822Y6557579D01*
X4187530Y6539974D01*
Y6520919D01*
X4194822Y6503313D01*
X4208296Y6489839D01*
X4225902Y6482547D01*
X4244957D01*
X4262562Y6489839D01*
X4276037Y6503313D01*
X4283329Y6520919D01*
Y6539974D01*
X4276037Y6557579D01*
X4262562Y6571054D01*
X4244957Y6578346D01*
D02*
G37*
G36*
X10324762Y6621700D02*
X10300038D01*
X10276156Y6615301D01*
X10254744Y6602939D01*
X10237261Y6585456D01*
X10224899Y6564044D01*
X10218500Y6540162D01*
Y6515438D01*
X10224899Y6491556D01*
X10237261Y6470144D01*
X10254744Y6452661D01*
X10276156Y6440299D01*
X10300038Y6433900D01*
X10324762D01*
X10348644Y6440299D01*
X10370056Y6452661D01*
X10387539Y6470144D01*
X10399901Y6491556D01*
X10406300Y6515438D01*
Y6540162D01*
X10399901Y6564044D01*
X10387539Y6585456D01*
X10370056Y6602939D01*
X10348644Y6615301D01*
X10324762Y6621700D01*
D02*
G37*
G36*
X10070762D02*
X10046038D01*
X10022156Y6615301D01*
X10000744Y6602939D01*
X9983261Y6585456D01*
X9970899Y6564044D01*
X9964500Y6540162D01*
Y6515438D01*
X9970899Y6491556D01*
X9983261Y6470144D01*
X10000744Y6452661D01*
X10022156Y6440299D01*
X10046038Y6433900D01*
X10070762D01*
X10094644Y6440299D01*
X10116056Y6452661D01*
X10133539Y6470144D01*
X10145901Y6491556D01*
X10152300Y6515438D01*
Y6540162D01*
X10145901Y6564044D01*
X10133539Y6585456D01*
X10116056Y6602939D01*
X10094644Y6615301D01*
X10070762Y6621700D01*
D02*
G37*
G36*
X9816762D02*
X9792038D01*
X9768156Y6615301D01*
X9746744Y6602939D01*
X9729261Y6585456D01*
X9716899Y6564044D01*
X9710500Y6540162D01*
Y6515438D01*
X9716899Y6491556D01*
X9729261Y6470144D01*
X9746744Y6452661D01*
X9768156Y6440299D01*
X9792038Y6433900D01*
X9816762D01*
X9840644Y6440299D01*
X9862056Y6452661D01*
X9879539Y6470144D01*
X9891901Y6491556D01*
X9898300Y6515438D01*
Y6540162D01*
X9891901Y6564044D01*
X9879539Y6585456D01*
X9862056Y6602939D01*
X9840644Y6615301D01*
X9816762Y6621700D01*
D02*
G37*
G36*
X9562762D02*
X9538038D01*
X9514156Y6615301D01*
X9492744Y6602939D01*
X9475261Y6585456D01*
X9462899Y6564044D01*
X9456500Y6540162D01*
Y6515438D01*
X9462899Y6491556D01*
X9475261Y6470144D01*
X9492744Y6452661D01*
X9514156Y6440299D01*
X9538038Y6433900D01*
X9562762D01*
X9586644Y6440299D01*
X9608056Y6452661D01*
X9625539Y6470144D01*
X9637901Y6491556D01*
X9644300Y6515438D01*
Y6540162D01*
X9637901Y6564044D01*
X9625539Y6585456D01*
X9608056Y6602939D01*
X9586644Y6615301D01*
X9562762Y6621700D01*
D02*
G37*
G36*
X9054762D02*
X9030038D01*
X9006156Y6615301D01*
X8984744Y6602939D01*
X8967261Y6585456D01*
X8954899Y6564044D01*
X8948500Y6540162D01*
Y6515438D01*
X8954899Y6491556D01*
X8967261Y6470144D01*
X8984744Y6452661D01*
X9006156Y6440299D01*
X9030038Y6433900D01*
X9054762D01*
X9078644Y6440299D01*
X9100056Y6452661D01*
X9117539Y6470144D01*
X9129901Y6491556D01*
X9136300Y6515438D01*
Y6540162D01*
X9129901Y6564044D01*
X9117539Y6585456D01*
X9100056Y6602939D01*
X9078644Y6615301D01*
X9054762Y6621700D01*
D02*
G37*
G36*
X8882300D02*
X8694500D01*
Y6433900D01*
X8882300D01*
Y6621700D01*
D02*
G37*
G36*
X11779888Y6466480D02*
X11760832D01*
X11743227Y6459187D01*
X11729753Y6445713D01*
X11722460Y6428108D01*
Y6409052D01*
X11729753Y6391447D01*
X11743227Y6377973D01*
X11760832Y6370680D01*
X11779888D01*
X11797493Y6377973D01*
X11810967Y6391447D01*
X11818260Y6409052D01*
Y6428108D01*
X11810967Y6445713D01*
X11797493Y6459187D01*
X11779888Y6466480D01*
D02*
G37*
G36*
X4556128Y6397900D02*
X4537072D01*
X4519467Y6390607D01*
X4505993Y6377133D01*
X4498700Y6359528D01*
Y6340472D01*
X4505993Y6322867D01*
X4519467Y6309393D01*
X4537072Y6302100D01*
X4556128D01*
X4573733Y6309393D01*
X4587207Y6322867D01*
X4594500Y6340472D01*
Y6359528D01*
X4587207Y6377133D01*
X4573733Y6390607D01*
X4556128Y6397900D01*
D02*
G37*
G36*
X3921128Y6296300D02*
X3902072D01*
X3884467Y6289007D01*
X3870993Y6275533D01*
X3863700Y6257928D01*
Y6238872D01*
X3870993Y6221267D01*
X3884467Y6207793D01*
X3902072Y6200500D01*
X3921128D01*
X3938733Y6207793D01*
X3952207Y6221267D01*
X3959500Y6238872D01*
Y6257928D01*
X3952207Y6275533D01*
X3938733Y6289007D01*
X3921128Y6296300D01*
D02*
G37*
G36*
X4365628Y6283600D02*
X4346572D01*
X4328967Y6276307D01*
X4315493Y6262833D01*
X4308200Y6245228D01*
Y6226172D01*
X4315493Y6208567D01*
X4328967Y6195093D01*
X4346572Y6187800D01*
X4365628D01*
X4383233Y6195093D01*
X4396707Y6208567D01*
X4404000Y6226172D01*
Y6245228D01*
X4396707Y6262833D01*
X4383233Y6276307D01*
X4365628Y6283600D01*
D02*
G37*
G36*
X3464084Y6388800D02*
X3427116D01*
X3391407Y6379232D01*
X3359392Y6360748D01*
X3333252Y6334608D01*
X3314768Y6302592D01*
X3305200Y6266884D01*
Y6229916D01*
X3314768Y6194208D01*
X3333252Y6162192D01*
X3359392Y6136052D01*
X3391407Y6117568D01*
X3427116Y6108000D01*
X3464084D01*
X3499792Y6117568D01*
X3531808Y6136052D01*
X3557948Y6162192D01*
X3576432Y6194208D01*
X3586000Y6229916D01*
Y6266884D01*
X3576432Y6302592D01*
X3557948Y6334608D01*
X3531808Y6360748D01*
X3499792Y6379232D01*
X3464084Y6388800D01*
D02*
G37*
G36*
X2914084D02*
X2877116D01*
X2841408Y6379232D01*
X2809392Y6360748D01*
X2783252Y6334608D01*
X2764768Y6302592D01*
X2755200Y6266884D01*
Y6229916D01*
X2764768Y6194208D01*
X2783252Y6162192D01*
X2809392Y6136052D01*
X2841408Y6117568D01*
X2877116Y6108000D01*
X2914084D01*
X2949792Y6117568D01*
X2981808Y6136052D01*
X3007948Y6162192D01*
X3026432Y6194208D01*
X3036000Y6229916D01*
Y6266884D01*
X3026432Y6302592D01*
X3007948Y6334608D01*
X2981808Y6360748D01*
X2949792Y6379232D01*
X2914084Y6388800D01*
D02*
G37*
G36*
X8882300Y6177200D02*
X8694500D01*
Y5989400D01*
X8882300D01*
Y6177200D01*
D02*
G37*
G36*
X10906128Y6016900D02*
X10887072D01*
X10869467Y6009607D01*
X10855993Y5996133D01*
X10848700Y5978528D01*
Y5959472D01*
X10855993Y5941867D01*
X10869467Y5928393D01*
X10887072Y5921100D01*
X10906128D01*
X10923733Y5928393D01*
X10937207Y5941867D01*
X10944500Y5959472D01*
Y5978528D01*
X10937207Y5996133D01*
X10923733Y6009607D01*
X10906128Y6016900D01*
D02*
G37*
G36*
X9610728Y5940700D02*
X9591672D01*
X9574067Y5933407D01*
X9560593Y5919933D01*
X9553300Y5902328D01*
Y5883272D01*
X9560593Y5865667D01*
X9574067Y5852193D01*
X9591672Y5844900D01*
X9610728D01*
X9628333Y5852193D01*
X9641807Y5865667D01*
X9649100Y5883272D01*
Y5902328D01*
X9641807Y5919933D01*
X9628333Y5933407D01*
X9610728Y5940700D01*
D02*
G37*
G36*
X8800762Y5923200D02*
X8776038D01*
X8752156Y5916801D01*
X8730744Y5904439D01*
X8713261Y5886956D01*
X8700899Y5865544D01*
X8694500Y5841662D01*
Y5816938D01*
X8700899Y5793056D01*
X8713261Y5771644D01*
X8730744Y5754161D01*
X8752156Y5741799D01*
X8776038Y5735400D01*
X8800762D01*
X8824644Y5741799D01*
X8846056Y5754161D01*
X8863539Y5771644D01*
X8875901Y5793056D01*
X8882300Y5816938D01*
Y5841662D01*
X8875901Y5865544D01*
X8863539Y5886956D01*
X8846056Y5904439D01*
X8824644Y5916801D01*
X8800762Y5923200D01*
D02*
G37*
G36*
X10448928Y5864500D02*
X10429872D01*
X10412267Y5857207D01*
X10398793Y5843733D01*
X10391500Y5826128D01*
Y5807072D01*
X10398793Y5789467D01*
X10398029Y5785631D01*
X10386867Y5781007D01*
X10373393Y5767533D01*
X10366100Y5749928D01*
Y5730872D01*
X10373393Y5713267D01*
X10386867Y5699793D01*
X10404472Y5692500D01*
X10423528D01*
X10441133Y5699793D01*
X10454607Y5713267D01*
X10461900Y5730872D01*
Y5749928D01*
X10454607Y5767533D01*
X10455371Y5771369D01*
X10466533Y5775993D01*
X10480007Y5789467D01*
X10487300Y5807072D01*
Y5826128D01*
X10480007Y5843733D01*
X10466533Y5857207D01*
X10448928Y5864500D01*
D02*
G37*
G36*
X3464084Y5968800D02*
X3427116D01*
X3391407Y5959232D01*
X3359392Y5940748D01*
X3333252Y5914607D01*
X3314768Y5882592D01*
X3305200Y5846884D01*
Y5809916D01*
X3314768Y5774207D01*
X3333252Y5742192D01*
X3359392Y5716052D01*
X3391407Y5697568D01*
X3427116Y5688000D01*
X3464084D01*
X3499792Y5697568D01*
X3531808Y5716052D01*
X3557948Y5742192D01*
X3576432Y5774207D01*
X3586000Y5809916D01*
Y5846884D01*
X3576432Y5882592D01*
X3557948Y5914607D01*
X3531808Y5940748D01*
X3499792Y5959232D01*
X3464084Y5968800D01*
D02*
G37*
G36*
X2914084D02*
X2877116D01*
X2841408Y5959232D01*
X2809392Y5940748D01*
X2783252Y5914607D01*
X2764768Y5882592D01*
X2755200Y5846884D01*
Y5809916D01*
X2764768Y5774207D01*
X2783252Y5742192D01*
X2809392Y5716052D01*
X2841408Y5697568D01*
X2877116Y5688000D01*
X2914084D01*
X2949792Y5697568D01*
X2981808Y5716052D01*
X3007948Y5742192D01*
X3026432Y5774207D01*
X3036000Y5809916D01*
Y5846884D01*
X3026432Y5882592D01*
X3007948Y5914607D01*
X2981808Y5940748D01*
X2949792Y5959232D01*
X2914084Y5968800D01*
D02*
G37*
G36*
X11388728Y5737500D02*
X11369672D01*
X11352067Y5730207D01*
X11338593Y5716733D01*
X11331300Y5699128D01*
Y5680072D01*
X11338593Y5662467D01*
X11352067Y5648993D01*
X11369672Y5641700D01*
X11388728D01*
X11406333Y5648993D01*
X11419807Y5662467D01*
X11427100Y5680072D01*
Y5699128D01*
X11419807Y5716733D01*
X11406333Y5730207D01*
X11388728Y5737500D01*
D02*
G37*
G36*
X11655428Y5661300D02*
X11636372D01*
X11618767Y5654007D01*
X11605293Y5640533D01*
X11598000Y5622928D01*
Y5603872D01*
X11605293Y5586267D01*
X11618767Y5572793D01*
X11636372Y5565500D01*
X11655428D01*
X11673033Y5572793D01*
X11686507Y5586267D01*
X11693800Y5603872D01*
Y5622928D01*
X11686507Y5640533D01*
X11673033Y5654007D01*
X11655428Y5661300D01*
D02*
G37*
G36*
X10702928Y5610500D02*
X10683872D01*
X10666267Y5603207D01*
X10652793Y5589733D01*
X10645500Y5572128D01*
Y5553072D01*
X10652793Y5535467D01*
X10666267Y5521993D01*
X10683872Y5514700D01*
X10702928D01*
X10720533Y5521993D01*
X10734007Y5535467D01*
X10741300Y5553072D01*
Y5572128D01*
X10734007Y5589733D01*
X10720533Y5603207D01*
X10702928Y5610500D01*
D02*
G37*
G36*
X10525128Y5585100D02*
X10506072D01*
X10488467Y5577807D01*
X10474993Y5564333D01*
X10467700Y5546728D01*
Y5527672D01*
X10474993Y5510067D01*
X10488467Y5496593D01*
X10506072Y5489300D01*
X10525128D01*
X10542733Y5496593D01*
X10556207Y5510067D01*
X10563500Y5527672D01*
Y5546728D01*
X10556207Y5564333D01*
X10542733Y5577807D01*
X10525128Y5585100D01*
D02*
G37*
G36*
X10850248Y5580020D02*
X10831192D01*
X10813587Y5572727D01*
X10800113Y5559253D01*
X10792820Y5541648D01*
Y5522592D01*
X10800113Y5504987D01*
X10813587Y5491513D01*
X10831192Y5484220D01*
X10850248D01*
X10867853Y5491513D01*
X10881327Y5504987D01*
X10888620Y5522592D01*
Y5541648D01*
X10881327Y5559253D01*
X10867853Y5572727D01*
X10850248Y5580020D01*
D02*
G37*
G36*
X8800762Y5669200D02*
X8776038D01*
X8752156Y5662801D01*
X8730744Y5650439D01*
X8713261Y5632956D01*
X8700899Y5611544D01*
X8694500Y5587662D01*
Y5562938D01*
X8700899Y5539056D01*
X8713261Y5517644D01*
X8730744Y5500161D01*
X8752156Y5487799D01*
X8776038Y5481400D01*
X8800762D01*
X8824644Y5487799D01*
X8846056Y5500161D01*
X8863539Y5517644D01*
X8875901Y5539056D01*
X8882300Y5562938D01*
Y5587662D01*
X8875901Y5611544D01*
X8863539Y5632956D01*
X8846056Y5650439D01*
X8824644Y5662801D01*
X8800762Y5669200D01*
D02*
G37*
G36*
X11210928Y5534300D02*
X11191872D01*
X11174267Y5527007D01*
X11160793Y5513533D01*
X11153500Y5495928D01*
Y5476872D01*
X11160793Y5459267D01*
X11174267Y5445793D01*
X11191872Y5438500D01*
X11210928D01*
X11228533Y5445793D01*
X11242007Y5459267D01*
X11249300Y5476872D01*
Y5495928D01*
X11242007Y5513533D01*
X11228533Y5527007D01*
X11210928Y5534300D01*
D02*
G37*
G36*
X3464084Y5548800D02*
X3427116D01*
X3391407Y5539232D01*
X3359392Y5520748D01*
X3333252Y5494608D01*
X3314768Y5462592D01*
X3305200Y5426884D01*
Y5389916D01*
X3314768Y5354207D01*
X3333252Y5322192D01*
X3359392Y5296052D01*
X3391407Y5277568D01*
X3427116Y5268000D01*
X3464084D01*
X3499792Y5277568D01*
X3531808Y5296052D01*
X3557948Y5322192D01*
X3576432Y5354207D01*
X3586000Y5389916D01*
Y5426884D01*
X3576432Y5462592D01*
X3557948Y5494608D01*
X3531808Y5520748D01*
X3499792Y5539232D01*
X3464084Y5548800D01*
D02*
G37*
G36*
X4581528Y5356500D02*
X4562472D01*
X4544867Y5349207D01*
X4531393Y5335733D01*
X4524100Y5318128D01*
Y5299072D01*
X4531393Y5281467D01*
X4544867Y5267993D01*
X4562472Y5260700D01*
X4581528D01*
X4599133Y5267993D01*
X4612607Y5281467D01*
X4619900Y5299072D01*
Y5318128D01*
X4612607Y5335733D01*
X4599133Y5349207D01*
X4581528Y5356500D01*
D02*
G37*
G36*
X3768728Y5305700D02*
X3749672D01*
X3732067Y5298407D01*
X3718593Y5284933D01*
X3711300Y5267328D01*
Y5248272D01*
X3718593Y5230667D01*
X3732067Y5217193D01*
X3749672Y5209900D01*
X3768728D01*
X3786333Y5217193D01*
X3799807Y5230667D01*
X3807100Y5248272D01*
Y5267328D01*
X3799807Y5284933D01*
X3786333Y5298407D01*
X3768728Y5305700D01*
D02*
G37*
G36*
X10779128Y5254900D02*
X10760072D01*
X10742467Y5247607D01*
X10728993Y5234133D01*
X10721700Y5216528D01*
Y5210071D01*
X10709000Y5201585D01*
X10702928Y5204100D01*
X10683872D01*
X10666267Y5196807D01*
X10652793Y5183333D01*
X10645500Y5165728D01*
Y5146672D01*
X10652793Y5129067D01*
X10666267Y5115593D01*
X10683872Y5108300D01*
X10702928D01*
X10720533Y5115593D01*
X10734007Y5129067D01*
X10741300Y5146672D01*
Y5153129D01*
X10754000Y5161615D01*
X10760072Y5159100D01*
X10779128D01*
X10796733Y5166393D01*
X10810207Y5179867D01*
X10817500Y5197472D01*
Y5216528D01*
X10810207Y5234133D01*
X10796733Y5247607D01*
X10779128Y5254900D01*
D02*
G37*
G36*
X10233028Y5242200D02*
X10213972D01*
X10196367Y5234907D01*
X10182893Y5221433D01*
X10175600Y5203828D01*
Y5184772D01*
X10182893Y5167167D01*
X10196367Y5153693D01*
X10213972Y5146400D01*
X10233028D01*
X10250633Y5153693D01*
X10264107Y5167167D01*
X10271400Y5184772D01*
Y5203828D01*
X10264107Y5221433D01*
X10250633Y5234907D01*
X10233028Y5242200D01*
D02*
G37*
G36*
X4581528Y5229500D02*
X4562472D01*
X4544867Y5222207D01*
X4531393Y5208733D01*
X4524100Y5191128D01*
Y5172072D01*
X4531393Y5154467D01*
X4544867Y5140993D01*
X4562472Y5133700D01*
X4581528D01*
X4599133Y5140993D01*
X4612607Y5154467D01*
X4619900Y5172072D01*
Y5191128D01*
X4612607Y5208733D01*
X4599133Y5222207D01*
X4581528Y5229500D01*
D02*
G37*
G36*
X11439528Y5216800D02*
X11420472D01*
X11402867Y5209507D01*
X11389393Y5196033D01*
X11382100Y5178428D01*
Y5159372D01*
X11389393Y5141767D01*
X11402867Y5128293D01*
X11420472Y5121000D01*
X11439528D01*
X11457133Y5128293D01*
X11470607Y5141767D01*
X11477900Y5159372D01*
Y5178428D01*
X11470607Y5196033D01*
X11457133Y5209507D01*
X11439528Y5216800D01*
D02*
G37*
G36*
X11134728Y5178700D02*
X11115672D01*
X11098067Y5171407D01*
X11084593Y5157933D01*
X11077300Y5140328D01*
Y5121272D01*
X11084593Y5103667D01*
X11098067Y5090193D01*
X11115672Y5082900D01*
X11134728D01*
X11152333Y5090193D01*
X11165807Y5103667D01*
X11173100Y5121272D01*
Y5140328D01*
X11165807Y5157933D01*
X11152333Y5171407D01*
X11134728Y5178700D01*
D02*
G37*
G36*
X10956928Y5077100D02*
X10937872D01*
X10920267Y5069807D01*
X10906793Y5056333D01*
X10899500Y5038728D01*
Y5019672D01*
X10906793Y5002067D01*
X10920267Y4988593D01*
X10937872Y4981300D01*
X10956928D01*
X10974533Y4988593D01*
X10988007Y5002067D01*
X10995300Y5019672D01*
Y5038728D01*
X10988007Y5056333D01*
X10974533Y5069807D01*
X10956928Y5077100D01*
D02*
G37*
G36*
X11426828Y5013600D02*
X11407772D01*
X11390167Y5006307D01*
X11376693Y4992833D01*
X11369400Y4975228D01*
Y4956172D01*
X11369451Y4956050D01*
X11359731Y4946329D01*
X11350628Y4950100D01*
X11331572D01*
X11313967Y4942807D01*
X11300493Y4929333D01*
X11293200Y4911728D01*
Y4892672D01*
X11300493Y4875067D01*
X11313967Y4861593D01*
X11331572Y4854300D01*
X11350628D01*
X11368233Y4861593D01*
X11381707Y4875067D01*
X11389000Y4892672D01*
Y4911728D01*
X11388949Y4911850D01*
X11398669Y4921571D01*
X11407772Y4917800D01*
X11426828D01*
X11444433Y4925093D01*
X11457907Y4938567D01*
X11465200Y4956172D01*
Y4975228D01*
X11457907Y4992833D01*
X11444433Y5006307D01*
X11426828Y5013600D01*
D02*
G37*
G36*
X3883028Y4988200D02*
X3863972D01*
X3846367Y4980907D01*
X3832893Y4967433D01*
X3825600Y4949828D01*
Y4930772D01*
X3832893Y4913167D01*
X3846367Y4899693D01*
X3863972Y4892400D01*
X3883028D01*
X3900633Y4899693D01*
X3914107Y4913167D01*
X3921400Y4930772D01*
Y4949828D01*
X3914107Y4967433D01*
X3900633Y4980907D01*
X3883028Y4988200D01*
D02*
G37*
G36*
X10194928Y4924700D02*
X10175872D01*
X10158267Y4917407D01*
X10144793Y4903933D01*
X10137500Y4886328D01*
Y4867272D01*
X10144793Y4849667D01*
X10158267Y4836193D01*
X10175872Y4828900D01*
X10194928D01*
X10212533Y4836193D01*
X10226007Y4849667D01*
X10233300Y4867272D01*
Y4886328D01*
X10226007Y4903933D01*
X10212533Y4917407D01*
X10194928Y4924700D01*
D02*
G37*
G36*
X11833228Y4721500D02*
X11814172D01*
X11796567Y4714207D01*
X11783093Y4700733D01*
X11775800Y4683128D01*
Y4664072D01*
X11783093Y4646467D01*
X11796567Y4632993D01*
X11814172Y4625700D01*
X11833228D01*
X11850833Y4632993D01*
X11864307Y4646467D01*
X11871600Y4664072D01*
Y4683128D01*
X11864307Y4700733D01*
X11850833Y4714207D01*
X11833228Y4721500D01*
D02*
G37*
G36*
X11363328Y4823100D02*
X11344272D01*
X11326667Y4815807D01*
X11313193Y4802333D01*
X11305900Y4784728D01*
Y4765672D01*
X11313193Y4748067D01*
X11326667Y4734593D01*
X11334680Y4731273D01*
Y4717527D01*
X11326667Y4714207D01*
X11313193Y4700733D01*
X11305900Y4683128D01*
Y4664072D01*
X11313193Y4646467D01*
X11326667Y4632993D01*
X11344272Y4625700D01*
X11363328D01*
X11380933Y4632993D01*
X11394407Y4646467D01*
X11401700Y4664072D01*
Y4683128D01*
X11394407Y4700733D01*
X11380933Y4714207D01*
X11372920Y4717527D01*
Y4731273D01*
X11380933Y4734593D01*
X11394407Y4748067D01*
X11401700Y4765672D01*
Y4784728D01*
X11394407Y4802333D01*
X11380933Y4815807D01*
X11363328Y4823100D01*
D02*
G37*
G36*
X10233028Y4721500D02*
X10213972D01*
X10196367Y4714207D01*
X10182893Y4700733D01*
X10175600Y4683128D01*
Y4664072D01*
X10182893Y4646467D01*
X10196367Y4632993D01*
X10213972Y4625700D01*
X10233028D01*
X10250633Y4632993D01*
X10264107Y4646467D01*
X10271400Y4664072D01*
Y4683128D01*
X10264107Y4700733D01*
X10250633Y4714207D01*
X10233028Y4721500D01*
D02*
G37*
G36*
X11972928Y4696100D02*
X11953872D01*
X11936267Y4688807D01*
X11922793Y4675333D01*
X11915500Y4657728D01*
Y4638672D01*
X11922793Y4621067D01*
X11936267Y4607593D01*
X11953872Y4600300D01*
X11972928D01*
X11990533Y4607593D01*
X12004007Y4621067D01*
X12011300Y4638672D01*
Y4657728D01*
X12004007Y4675333D01*
X11990533Y4688807D01*
X11972928Y4696100D01*
D02*
G37*
G36*
X11186650Y4594500D02*
X11167595D01*
X11149990Y4587207D01*
X11136515Y4573733D01*
X11129223Y4556128D01*
Y4537072D01*
X11136515Y4519467D01*
X11149990Y4505993D01*
X11167595Y4498700D01*
X11186650D01*
X11204256Y4505993D01*
X11217730Y4519467D01*
X11225023Y4537072D01*
Y4556128D01*
X11217730Y4573733D01*
X11204256Y4587207D01*
X11186650Y4594500D01*
D02*
G37*
G36*
X11294748Y4510680D02*
X11275692D01*
X11258087Y4503387D01*
X11244613Y4489913D01*
X11237320Y4472308D01*
Y4453252D01*
X11244613Y4435647D01*
X11258087Y4422173D01*
X11275692Y4414880D01*
X11281159D01*
X11286420Y4402180D01*
X11285253Y4401013D01*
X11277960Y4383408D01*
Y4364352D01*
X11285253Y4346747D01*
X11298727Y4333273D01*
X11316332Y4325980D01*
X11335388D01*
X11349872Y4331980D01*
X11359190Y4326883D01*
X11361780Y4324212D01*
Y4311012D01*
X11369073Y4293407D01*
X11382547Y4279933D01*
X11400152Y4272640D01*
X11419208D01*
X11436813Y4279933D01*
X11450287Y4293407D01*
X11457580Y4311012D01*
Y4330068D01*
X11450287Y4347673D01*
X11436813Y4361147D01*
X11419208Y4368440D01*
X11400152D01*
X11385668Y4362440D01*
X11376350Y4367537D01*
X11373760Y4370208D01*
Y4383408D01*
X11366467Y4401013D01*
X11352993Y4414487D01*
X11335388Y4421780D01*
X11329921D01*
X11324660Y4434480D01*
X11325827Y4435647D01*
X11333120Y4453252D01*
Y4472308D01*
X11325827Y4489913D01*
X11312353Y4503387D01*
X11294748Y4510680D01*
D02*
G37*
G36*
X11845928Y4365900D02*
X11826872D01*
X11809267Y4358607D01*
X11795793Y4345133D01*
X11788500Y4327528D01*
Y4308472D01*
X11795793Y4290867D01*
X11809267Y4277393D01*
X11826872Y4270100D01*
X11845928D01*
X11863533Y4277393D01*
X11877007Y4290867D01*
X11884300Y4308472D01*
Y4327528D01*
X11877007Y4345133D01*
X11863533Y4358607D01*
X11845928Y4365900D01*
D02*
G37*
G36*
X10283828Y4302400D02*
X10264772D01*
X10247167Y4295107D01*
X10233693Y4281633D01*
X10226400Y4264028D01*
Y4244972D01*
X10233693Y4227367D01*
X10247167Y4213893D01*
X10264772Y4206600D01*
X10277200D01*
Y4194172D01*
X10284493Y4176567D01*
X10297967Y4163093D01*
X10315572Y4155800D01*
X10334628D01*
X10352233Y4163093D01*
X10365707Y4176567D01*
X10373000Y4194172D01*
Y4213228D01*
X10365707Y4230833D01*
X10352233Y4244307D01*
X10334628Y4251600D01*
X10322200D01*
Y4264028D01*
X10314907Y4281633D01*
X10301433Y4295107D01*
X10283828Y4302400D01*
D02*
G37*
G36*
X10448928Y4238900D02*
X10429872D01*
X10412267Y4231607D01*
X10398793Y4218133D01*
X10391500Y4200528D01*
Y4181472D01*
X10398793Y4163867D01*
X10412267Y4150393D01*
X10429872Y4143100D01*
X10448928D01*
X10466533Y4150393D01*
X10480007Y4163867D01*
X10487300Y4181472D01*
Y4200528D01*
X10480007Y4218133D01*
X10466533Y4231607D01*
X10448928Y4238900D01*
D02*
G37*
G36*
X3464084Y4407600D02*
X3427116D01*
X3391407Y4398032D01*
X3359392Y4379548D01*
X3333252Y4353408D01*
X3314768Y4321392D01*
X3305200Y4285684D01*
Y4248716D01*
X3314768Y4213008D01*
X3333252Y4180992D01*
X3359392Y4154852D01*
X3391407Y4136368D01*
X3427116Y4126800D01*
X3464084D01*
X3499792Y4136368D01*
X3531808Y4154852D01*
X3557948Y4180992D01*
X3576432Y4213008D01*
X3586000Y4248716D01*
Y4285684D01*
X3576432Y4321392D01*
X3557948Y4353408D01*
X3531808Y4379548D01*
X3499792Y4398032D01*
X3464084Y4407600D01*
D02*
G37*
G36*
X2914084D02*
X2877116D01*
X2841408Y4398032D01*
X2809392Y4379548D01*
X2783252Y4353408D01*
X2764768Y4321392D01*
X2755200Y4285684D01*
Y4248716D01*
X2764768Y4213008D01*
X2783252Y4180992D01*
X2809392Y4154852D01*
X2841408Y4136368D01*
X2877116Y4126800D01*
X2914084D01*
X2949792Y4136368D01*
X2981808Y4154852D01*
X3007948Y4180992D01*
X3026432Y4213008D01*
X3036000Y4248716D01*
Y4285684D01*
X3026432Y4321392D01*
X3007948Y4353408D01*
X2981808Y4379548D01*
X2949792Y4398032D01*
X2914084Y4407600D01*
D02*
G37*
G36*
X10738488Y4170320D02*
X10719432D01*
X10701827Y4163027D01*
X10688353Y4149553D01*
X10681060Y4131948D01*
Y4112892D01*
X10688353Y4095287D01*
X10701827Y4081813D01*
X10719432Y4074520D01*
X10738488D01*
X10756093Y4081813D01*
X10769567Y4095287D01*
X10776860Y4112892D01*
Y4131948D01*
X10769567Y4149553D01*
X10756093Y4163027D01*
X10738488Y4170320D01*
D02*
G37*
G36*
X11058528Y4137300D02*
X11039472D01*
X11021867Y4130007D01*
X11008393Y4116533D01*
X11001100Y4098928D01*
Y4079872D01*
X11008393Y4062267D01*
X11021867Y4048793D01*
X11039472Y4041500D01*
X11058528D01*
X11076133Y4048793D01*
X11089607Y4062267D01*
X11096900Y4079872D01*
Y4098928D01*
X11089607Y4116533D01*
X11076133Y4130007D01*
X11058528Y4137300D01*
D02*
G37*
G36*
X10626728Y4111900D02*
X10607672D01*
X10590067Y4104607D01*
X10576593Y4091133D01*
X10569300Y4073528D01*
Y4054472D01*
X10576593Y4036867D01*
X10590067Y4023393D01*
X10607672Y4016100D01*
X10626728D01*
X10644333Y4023393D01*
X10657807Y4036867D01*
X10665100Y4054472D01*
Y4073528D01*
X10657807Y4091133D01*
X10644333Y4104607D01*
X10626728Y4111900D01*
D02*
G37*
G36*
X10956928Y4061100D02*
X10937872D01*
X10920267Y4053807D01*
X10906793Y4040333D01*
X10899500Y4022728D01*
Y4016271D01*
X10886800Y4007785D01*
X10880728Y4010300D01*
X10861672D01*
X10844067Y4003007D01*
X10830593Y3989533D01*
X10823300Y3971928D01*
Y3952872D01*
X10830593Y3935267D01*
X10844067Y3921793D01*
X10861672Y3914500D01*
X10880728D01*
X10898333Y3921793D01*
X10911807Y3935267D01*
X10919100Y3952872D01*
Y3959329D01*
X10931800Y3967815D01*
X10937872Y3965300D01*
X10956928D01*
X10974533Y3972593D01*
X10988007Y3986067D01*
X10995300Y4003672D01*
Y4022728D01*
X10988007Y4040333D01*
X10974533Y4053807D01*
X10956928Y4061100D01*
D02*
G37*
G36*
X10471788Y4043320D02*
X10452732D01*
X10435127Y4036027D01*
X10421653Y4022553D01*
X10414360Y4004948D01*
Y4001908D01*
X10412055Y3999531D01*
X10401660Y3994468D01*
X10387968Y4000140D01*
X10368912D01*
X10351307Y3992847D01*
X10337833Y3979373D01*
X10332717Y3967024D01*
X10318971D01*
X10314907Y3976833D01*
X10301433Y3990307D01*
X10283828Y3997600D01*
X10264772D01*
X10247167Y3990307D01*
X10233693Y3976833D01*
X10226400Y3959228D01*
Y3940172D01*
X10233693Y3922567D01*
X10247167Y3909093D01*
X10264772Y3901800D01*
X10283828D01*
X10301433Y3909093D01*
X10314907Y3922567D01*
X10320023Y3934916D01*
X10333769D01*
X10337833Y3925107D01*
X10351307Y3911633D01*
X10368912Y3904340D01*
X10387968D01*
X10405573Y3911633D01*
X10419047Y3925107D01*
X10426340Y3942712D01*
Y3945752D01*
X10428645Y3948129D01*
X10439040Y3953192D01*
X10452732Y3947520D01*
X10471788D01*
X10489393Y3954813D01*
X10493100Y3958520D01*
X10505800Y3953259D01*
Y3940172D01*
X10513093Y3922567D01*
X10526567Y3909093D01*
X10544172Y3901800D01*
X10563228D01*
X10580833Y3909093D01*
X10594307Y3922567D01*
X10601600Y3940172D01*
Y3959228D01*
X10594307Y3976833D01*
X10580833Y3990307D01*
X10563228Y3997600D01*
X10544172D01*
X10526567Y3990307D01*
X10522860Y3986600D01*
X10510160Y3991861D01*
Y4004948D01*
X10502867Y4022553D01*
X10489393Y4036027D01*
X10471788Y4043320D01*
D02*
G37*
G36*
X11236328Y4010300D02*
X11217272D01*
X11199667Y4003007D01*
X11186193Y3989533D01*
X11182873Y3981520D01*
X11169127D01*
X11165807Y3989533D01*
X11152333Y4003007D01*
X11134728Y4010300D01*
X11115672D01*
X11098067Y4003007D01*
X11084593Y3989533D01*
X11077300Y3971928D01*
Y3952872D01*
X11084593Y3935267D01*
X11098067Y3921793D01*
X11115672Y3914500D01*
X11134728D01*
X11152333Y3921793D01*
X11165807Y3935267D01*
X11169127Y3943280D01*
X11182873D01*
X11186193Y3935267D01*
X11199667Y3921793D01*
X11217272Y3914500D01*
X11236328D01*
X11253933Y3921793D01*
X11267407Y3935267D01*
X11274700Y3952872D01*
Y3971928D01*
X11267407Y3989533D01*
X11253933Y4003007D01*
X11236328Y4010300D01*
D02*
G37*
G36*
X12023728Y4061100D02*
X12004672D01*
X11987067Y4053807D01*
X11973593Y4040333D01*
X11966300Y4022728D01*
Y4003672D01*
X11973593Y3986067D01*
X11987067Y3972593D01*
X12004672Y3965300D01*
X12023728D01*
X12041333Y3972593D01*
X12054807Y3986067D01*
X12062100Y4003672D01*
Y4022728D01*
X12054807Y4040333D01*
X12041333Y4053807D01*
X12023728Y4061100D01*
D02*
G37*
G36*
X11426828Y3997600D02*
X11407772D01*
X11390167Y3990307D01*
X11376693Y3976833D01*
X11369400Y3959228D01*
Y3940172D01*
X11376693Y3922567D01*
X11390167Y3909093D01*
X11407772Y3901800D01*
X11426828D01*
X11444433Y3909093D01*
X11457907Y3922567D01*
X11465200Y3940172D01*
Y3959228D01*
X11457907Y3976833D01*
X11444433Y3990307D01*
X11426828Y3997600D01*
D02*
G37*
G36*
X3464084Y3987600D02*
X3427116D01*
X3391407Y3978032D01*
X3359392Y3959548D01*
X3333252Y3933407D01*
X3314768Y3901392D01*
X3305200Y3865684D01*
Y3828716D01*
X3314768Y3793007D01*
X3333252Y3760992D01*
X3359392Y3734852D01*
X3391407Y3716368D01*
X3427116Y3706800D01*
X3464084D01*
X3499792Y3716368D01*
X3531808Y3734852D01*
X3557948Y3760992D01*
X3576432Y3793007D01*
X3586000Y3828716D01*
Y3865684D01*
X3576432Y3901392D01*
X3557948Y3933407D01*
X3531808Y3959548D01*
X3499792Y3978032D01*
X3464084Y3987600D01*
D02*
G37*
G36*
X2914084D02*
X2877116D01*
X2841408Y3978032D01*
X2809392Y3959548D01*
X2783252Y3933407D01*
X2764768Y3901392D01*
X2755200Y3865684D01*
Y3828716D01*
X2764768Y3793007D01*
X2783252Y3760992D01*
X2809392Y3734852D01*
X2841408Y3716368D01*
X2877116Y3706800D01*
X2914084D01*
X2949792Y3716368D01*
X2981808Y3734852D01*
X3007948Y3760992D01*
X3026432Y3793007D01*
X3036000Y3828716D01*
Y3865684D01*
X3026432Y3901392D01*
X3007948Y3933407D01*
X2981808Y3959548D01*
X2949792Y3978032D01*
X2914084Y3987600D01*
D02*
G37*
G36*
X10423528Y3680100D02*
X10404472D01*
X10386867Y3672807D01*
X10373393Y3659333D01*
X10366100Y3641728D01*
Y3622672D01*
X10373393Y3605067D01*
X10386867Y3591593D01*
X10404472Y3584300D01*
X10423528D01*
X10441133Y3591593D01*
X10454607Y3605067D01*
X10461900Y3622672D01*
Y3641728D01*
X10454607Y3659333D01*
X10441133Y3672807D01*
X10423528Y3680100D01*
D02*
G37*
G36*
X3464084Y3567600D02*
X3427116D01*
X3391407Y3558032D01*
X3359392Y3539548D01*
X3333252Y3513408D01*
X3314768Y3481392D01*
X3305200Y3445684D01*
Y3408716D01*
X3314768Y3373007D01*
X3333252Y3340992D01*
X3359392Y3314852D01*
X3391407Y3296368D01*
X3427116Y3286800D01*
X3464084D01*
X3499792Y3296368D01*
X3531808Y3314852D01*
X3557948Y3340992D01*
X3576432Y3373007D01*
X3586000Y3408716D01*
Y3445684D01*
X3576432Y3481392D01*
X3557948Y3513408D01*
X3531808Y3539548D01*
X3499792Y3558032D01*
X3464084Y3567600D01*
D02*
G37*
G36*
X4606928Y3349900D02*
X4587872D01*
X4570267Y3342607D01*
X4556793Y3329133D01*
X4549500Y3311528D01*
Y3292472D01*
X4556793Y3274867D01*
X4570267Y3261393D01*
X4587872Y3254100D01*
X4606928D01*
X4624533Y3261393D01*
X4638007Y3274867D01*
X4645300Y3292472D01*
Y3311528D01*
X4638007Y3329133D01*
X4624533Y3342607D01*
X4606928Y3349900D01*
D02*
G37*
G36*
X9610728Y3299100D02*
X9591672D01*
X9574067Y3291807D01*
X9560593Y3278333D01*
X9553300Y3260728D01*
Y3241672D01*
X9560593Y3224067D01*
X9574067Y3210593D01*
X9591672Y3203300D01*
X9610728D01*
X9628333Y3210593D01*
X9641807Y3224067D01*
X9649100Y3241672D01*
Y3260728D01*
X9641807Y3278333D01*
X9628333Y3291807D01*
X9610728Y3299100D01*
D02*
G37*
G36*
X3756028Y3261000D02*
X3736972D01*
X3719367Y3253707D01*
X3705893Y3240233D01*
X3698600Y3222628D01*
Y3203572D01*
X3705893Y3185967D01*
X3719367Y3172493D01*
X3736972Y3165200D01*
X3756028D01*
X3773633Y3172493D01*
X3787107Y3185967D01*
X3794400Y3203572D01*
Y3222628D01*
X3787107Y3240233D01*
X3773633Y3253707D01*
X3756028Y3261000D01*
D02*
G37*
G36*
X4606928Y3197500D02*
X4587872D01*
X4570267Y3190207D01*
X4556793Y3176733D01*
X4549500Y3159128D01*
Y3140072D01*
X4556793Y3122467D01*
X4570267Y3108993D01*
X4587872Y3101700D01*
X4606928D01*
X4624533Y3108993D01*
X4638007Y3122467D01*
X4645300Y3140072D01*
Y3159128D01*
X4638007Y3176733D01*
X4624533Y3190207D01*
X4606928Y3197500D01*
D02*
G37*
G36*
X3883028Y2981600D02*
X3863972D01*
X3846367Y2974307D01*
X3832893Y2960833D01*
X3825600Y2943228D01*
Y2924172D01*
X3832893Y2906567D01*
X3846367Y2893093D01*
X3863972Y2885800D01*
X3883028D01*
X3900633Y2893093D01*
X3914107Y2906567D01*
X3921400Y2924172D01*
Y2943228D01*
X3914107Y2960833D01*
X3900633Y2974307D01*
X3883028Y2981600D01*
D02*
G37*
%LPD*%
G36*
X7350873Y9563018D02*
X7354960Y9561325D01*
X7355104Y9561296D01*
X7438592Y9477808D01*
X7440397Y9476003D01*
X7440426Y9475858D01*
X7442118Y9471773D01*
X7442200Y9471650D01*
X7442200Y9471649D01*
X7442200Y9469100D01*
X7442200Y9469099D01*
Y8900727D01*
Y8890000D01*
X7518400Y8813800D01*
X7820650D01*
X7820773Y8813717D01*
X7824860Y8812025D01*
X7825004Y8811996D01*
X7908587Y8728413D01*
X7910297Y8726703D01*
X7910326Y8726558D01*
X7912018Y8722473D01*
X7912100Y8722350D01*
X7912100Y8722349D01*
X7912100Y8719800D01*
X7912100Y8719799D01*
Y7426088D01*
X7912100Y7365806D01*
Y6923233D01*
Y6905628D01*
Y6643833D01*
Y6602400D01*
Y6460491D01*
Y6360146D01*
Y6245500D01*
Y6156993D01*
Y6032500D01*
Y4690148D01*
X7912099Y4618991D01*
Y4518646D01*
Y4397100D01*
Y4053851D01*
Y3823169D01*
Y3688533D01*
Y3342650D01*
X7912017Y3342526D01*
X7910325Y3338440D01*
X7910296Y3338296D01*
X7801408Y3229408D01*
X7799603Y3227603D01*
X7799458Y3227574D01*
X7795373Y3225882D01*
X7795250Y3225800D01*
X7795249Y3225800D01*
X7792700Y3225800D01*
X7792699Y3225800D01*
X6149350D01*
X6149227Y3225882D01*
X6145140Y3227575D01*
X6144996Y3227604D01*
X6067858Y3304742D01*
X6066053Y3306547D01*
X6066024Y3306692D01*
X6064332Y3310777D01*
X6064250Y3310900D01*
X6064250Y3310901D01*
X6064250Y3313450D01*
X6064250Y3313451D01*
Y3689350D01*
X5930900Y3822700D01*
X5222250D01*
X5222127Y3822782D01*
X5218040Y3824475D01*
X5217896Y3824504D01*
X4994708Y4047692D01*
X4992903Y4049497D01*
X4992874Y4049642D01*
X4991182Y4053727D01*
X4991100Y4053850D01*
X4991100Y4053851D01*
X4991100Y4056400D01*
X4991100Y4056401D01*
Y7363450D01*
X4991182Y7363573D01*
X4992875Y7367660D01*
X4992904Y7367804D01*
X5101792Y7476692D01*
X5103597Y7478497D01*
X5103742Y7478526D01*
X5107827Y7480218D01*
X5107950Y7480300D01*
X5107951Y7480300D01*
X5110500Y7480300D01*
X5110501Y7480300D01*
X5159072D01*
X5384799Y7480299D01*
X5499100Y7594600D01*
Y9357350D01*
X5499182Y9357473D01*
X5500875Y9361560D01*
X5500904Y9361704D01*
X5698692Y9559492D01*
X5700497Y9561297D01*
X5700642Y9561326D01*
X5704727Y9563018D01*
X5704850Y9563100D01*
X5704851Y9563100D01*
X5707400Y9563100D01*
X5707401Y9563100D01*
X6273538D01*
X6273838Y9563040D01*
X6276081D01*
X6276086Y9563039D01*
X6276419Y9562810D01*
X6276592Y9562628D01*
X6276692Y9562558D01*
X6276758Y9562455D01*
X6278417Y9560747D01*
X6282010Y9555196D01*
X6283851Y9553300D01*
X6284370Y9552511D01*
X6283993Y9552133D01*
X6276700Y9534528D01*
Y9515472D01*
X6283993Y9497867D01*
X6297467Y9484393D01*
X6315072Y9477100D01*
X6334128D01*
X6351733Y9484393D01*
X6365207Y9497867D01*
X6372500Y9515472D01*
Y9534528D01*
X6365207Y9552133D01*
X6364830Y9552511D01*
X6365349Y9553301D01*
X6367190Y9555197D01*
X6370783Y9560748D01*
X6372445Y9562459D01*
X6372510Y9562561D01*
X6372609Y9562630D01*
X6372780Y9562809D01*
X6373115Y9563040D01*
X6373119Y9563041D01*
X6375364D01*
X6375663Y9563100D01*
X7350750D01*
X7350873Y9563018D01*
D02*
G37*
%LPC*%
G36*
X6918328Y8785500D02*
X6899272D01*
X6881667Y8778207D01*
X6868193Y8764733D01*
X6860900Y8747128D01*
Y8728072D01*
X6868193Y8710467D01*
X6881667Y8696993D01*
X6899272Y8689700D01*
X6918328D01*
X6935933Y8696993D01*
X6949407Y8710467D01*
X6956700Y8728072D01*
Y8747128D01*
X6949407Y8764733D01*
X6935933Y8778207D01*
X6918328Y8785500D01*
D02*
G37*
G36*
X6042028Y6944000D02*
X6022972D01*
X6005367Y6936707D01*
X5991893Y6923233D01*
X5984600Y6905628D01*
Y6886572D01*
X5991893Y6868967D01*
X6005367Y6855493D01*
X6022972Y6848200D01*
X6042028D01*
X6059633Y6855493D01*
X6073107Y6868967D01*
X6080400Y6886572D01*
Y6905628D01*
X6073107Y6923233D01*
X6059633Y6936707D01*
X6042028Y6944000D01*
D02*
G37*
G36*
X5622928Y6664600D02*
X5603872D01*
X5586267Y6657307D01*
X5572793Y6643833D01*
X5565500Y6626228D01*
Y6607172D01*
X5572793Y6589567D01*
X5586267Y6576093D01*
X5603872Y6568800D01*
X5622928D01*
X5640533Y6576093D01*
X5654007Y6589567D01*
X5661300Y6607172D01*
Y6626228D01*
X5654007Y6643833D01*
X5640533Y6657307D01*
X5622928Y6664600D01*
D02*
G37*
G36*
X7763509Y6602400D02*
X7730491D01*
X7698598Y6593854D01*
X7670003Y6577345D01*
X7646655Y6553997D01*
X7630146Y6525402D01*
X7621600Y6493509D01*
Y6460491D01*
X7630146Y6428598D01*
X7646655Y6400003D01*
X7670003Y6376655D01*
X7698598Y6360146D01*
X7730491Y6351600D01*
X7763509D01*
X7795402Y6360146D01*
X7823997Y6376655D01*
X7847345Y6400003D01*
X7863854Y6428598D01*
X7872400Y6460491D01*
Y6493509D01*
X7863854Y6525402D01*
X7847345Y6553997D01*
X7823997Y6577345D01*
X7795402Y6593854D01*
X7763509Y6602400D01*
D02*
G37*
G36*
X5267328Y6245500D02*
X5248272D01*
X5230667Y6238207D01*
X5217193Y6224733D01*
X5209900Y6207128D01*
Y6188072D01*
X5217193Y6170467D01*
X5230667Y6156993D01*
X5248272Y6149700D01*
X5267328D01*
X5284933Y6156993D01*
X5298407Y6170467D01*
X5305700Y6188072D01*
Y6207128D01*
X5298407Y6224733D01*
X5284933Y6238207D01*
X5267328Y6245500D01*
D02*
G37*
G36*
X5737228Y5826400D02*
X5718172D01*
X5700567Y5819107D01*
X5687093Y5805633D01*
X5679800Y5788028D01*
Y5768972D01*
X5687093Y5751367D01*
X5700567Y5737893D01*
X5718172Y5730600D01*
X5737228D01*
X5754833Y5737893D01*
X5768307Y5751367D01*
X5775600Y5768972D01*
Y5788028D01*
X5768307Y5805633D01*
X5754833Y5819107D01*
X5737228Y5826400D01*
D02*
G37*
G36*
X5648328Y5750200D02*
X5629272D01*
X5611667Y5742907D01*
X5598193Y5729433D01*
X5590900Y5711828D01*
Y5692772D01*
X5598193Y5675167D01*
X5611667Y5661693D01*
X5629272Y5654400D01*
X5648328D01*
X5665933Y5661693D01*
X5679407Y5675167D01*
X5686700Y5692772D01*
Y5711828D01*
X5679407Y5729433D01*
X5665933Y5742907D01*
X5648328Y5750200D01*
D02*
G37*
G36*
X5622928Y5318400D02*
X5603872D01*
X5586267Y5311107D01*
X5572793Y5297633D01*
X5565500Y5280028D01*
Y5260972D01*
X5572793Y5243367D01*
X5586267Y5229893D01*
X5603872Y5222600D01*
X5622928D01*
X5640533Y5229893D01*
X5654007Y5243367D01*
X5661300Y5260972D01*
Y5280028D01*
X5654007Y5297633D01*
X5640533Y5311107D01*
X5622928Y5318400D01*
D02*
G37*
G36*
X5325109Y4760900D02*
X5292091D01*
X5260198Y4752354D01*
X5231603Y4735845D01*
X5208255Y4712497D01*
X5191746Y4683902D01*
X5183200Y4652009D01*
Y4618991D01*
X5191746Y4587098D01*
X5208255Y4558503D01*
X5231603Y4535155D01*
X5260198Y4518646D01*
X5292091Y4510100D01*
X5325109D01*
X5357002Y4518646D01*
X5385597Y4535155D01*
X5408945Y4558503D01*
X5425454Y4587098D01*
X5434000Y4618991D01*
Y4652009D01*
X5425454Y4683902D01*
X5408945Y4712497D01*
X5385597Y4735845D01*
X5357002Y4752354D01*
X5325109Y4760900D01*
D02*
G37*
G36*
X5889628Y4492900D02*
X5870572D01*
X5852967Y4485607D01*
X5839493Y4472133D01*
X5832200Y4454528D01*
Y4435472D01*
X5839493Y4417867D01*
X5852967Y4404393D01*
X5870572Y4397100D01*
X5889628D01*
X5907233Y4404393D01*
X5920707Y4417867D01*
X5928000Y4435472D01*
Y4454528D01*
X5920707Y4472133D01*
X5907233Y4485607D01*
X5889628Y4492900D01*
D02*
G37*
%LPD*%
D79*
X3161480Y9862220D02*
D03*
X3174700Y9286800D02*
D03*
D80*
X3224700Y9143800D02*
D03*
Y10007800D02*
D03*
D81*
X2806700Y9143800D02*
D03*
Y10007800D02*
D03*
D82*
X8788400Y6527800D02*
D03*
X10820400Y10566400D02*
D03*
X11938000Y7594600D02*
D03*
D83*
X9042400Y6527800D02*
D03*
X9296400D02*
D03*
X9550400D02*
D03*
X9804400D02*
D03*
X10058400D02*
D03*
X10312400D02*
D03*
X8788400Y5829300D02*
D03*
Y5575300D02*
D03*
X10566400Y10566400D02*
D03*
X10312400D02*
D03*
X10058400D02*
D03*
X11938000Y7340600D02*
D03*
X11684000Y7594600D02*
D03*
Y7340600D02*
D03*
X11430000Y7594600D02*
D03*
Y7340600D02*
D03*
X11176000Y7594600D02*
D03*
Y7340600D02*
D03*
D84*
X9626600Y8737600D02*
D03*
X10312400Y7302500D02*
D03*
X5308600Y4635500D02*
D03*
X7747000Y6477000D02*
D03*
D85*
X11309800Y9321800D02*
D03*
X11099800Y9111800D02*
D03*
Y9251800D02*
D03*
X11239800Y9111800D02*
D03*
Y9251800D02*
D03*
X11379800Y9111800D02*
D03*
Y9251800D02*
D03*
X11169800Y9041800D02*
D03*
Y9181800D02*
D03*
Y9321800D02*
D03*
X11309800Y9041800D02*
D03*
Y9181800D02*
D03*
D86*
X8788400Y6083300D02*
D03*
D88*
X2895600Y7352400D02*
D03*
Y7772400D02*
D03*
Y8192400D02*
D03*
X3445600Y7352400D02*
D03*
Y7772400D02*
D03*
Y8192400D02*
D03*
X2895600Y5408400D02*
D03*
Y5828400D02*
D03*
Y6248400D02*
D03*
X3445600Y5408400D02*
D03*
Y5828400D02*
D03*
Y6248400D02*
D03*
X2895600Y3427200D02*
D03*
Y3847200D02*
D03*
Y4267200D02*
D03*
X3445600Y3427200D02*
D03*
Y3847200D02*
D03*
Y4267200D02*
D03*
D89*
X12014200Y4013200D02*
D03*
X12103100D02*
D03*
X10563284Y4295716D02*
D03*
X11807884Y5540316D02*
D03*
X11430000Y5168900D02*
D03*
X11341100Y4902200D02*
D03*
X11417300Y4965700D02*
D03*
X10414000Y5740400D02*
D03*
X10515600Y5537200D02*
D03*
X10807700Y9499600D02*
D03*
Y9429200D02*
D03*
X3086100Y9601200D02*
D03*
X3098800Y9499600D02*
D03*
X10388600Y9347200D02*
D03*
X10464800Y9474200D02*
D03*
X10617200Y9765716D02*
D03*
X3390900Y9512300D02*
D03*
Y9639300D02*
D03*
X7721600Y7442200D02*
D03*
Y7543800D02*
D03*
Y7340600D02*
D03*
Y7924800D02*
D03*
Y8026400D02*
D03*
Y8407400D02*
D03*
Y7823200D02*
D03*
Y8305800D02*
D03*
Y8509000D02*
D03*
X3136900Y9690100D02*
D03*
X3149600Y9423400D02*
D03*
X8864600Y8509000D02*
D03*
X5608320Y3573780D02*
D03*
X9601200Y3251200D02*
D03*
X9194800Y3505200D02*
D03*
X7188200Y3454400D02*
D03*
X6883400D02*
D03*
X6781800D02*
D03*
X6578600D02*
D03*
X6273800D02*
D03*
X6985000D02*
D03*
X6375400D02*
D03*
X7086600D02*
D03*
X6680200D02*
D03*
X6477000D02*
D03*
X6172200D02*
D03*
X9387840Y4424680D02*
D03*
X9779000Y7848600D02*
D03*
X11455400Y10198100D02*
D03*
X11938000Y6553200D02*
D03*
X4165600Y10185400D02*
D03*
X4292600Y10363200D02*
D03*
X4140200D02*
D03*
X4216400Y10287000D02*
D03*
X4003040Y9941560D02*
D03*
X5054600Y10185400D02*
D03*
X4826000Y9931400D02*
D03*
X5054600Y10363200D02*
D03*
X5003800Y10718800D02*
D03*
X3403600Y10668000D02*
D03*
X3200400Y10439400D02*
D03*
X3378200Y10185400D02*
D03*
X10820400Y5105400D02*
D03*
X10972800Y5130800D02*
D03*
X9525000Y4064000D02*
D03*
X11201400Y4191000D02*
D03*
X11303000Y4064000D02*
D03*
X10998200Y4445000D02*
D03*
X10896600Y4876800D02*
D03*
X10337800Y4673600D02*
D03*
X9804400Y5461000D02*
D03*
X9423400Y5689600D02*
D03*
X11455400Y6096000D02*
D03*
X12014200Y6019800D02*
D03*
X11303000Y3225800D02*
D03*
X12395200Y5638800D02*
D03*
Y5105400D02*
D03*
Y4368800D02*
D03*
X12319000Y3302000D02*
D03*
X12166600Y3073400D02*
D03*
X10744200Y3454400D02*
D03*
X11074400Y3200400D02*
D03*
X10490200Y3251200D02*
D03*
X8813800Y4445000D02*
D03*
X8940800Y3759200D02*
D03*
X8331200Y4851400D02*
D03*
X8382000Y6299200D02*
D03*
X11836400Y4318000D02*
D03*
X10998200Y10236200D02*
D03*
X8763000Y10325100D02*
D03*
X8572500Y10388600D02*
D03*
X12153900Y10198100D02*
D03*
Y10363200D02*
D03*
X9372600Y7886700D02*
D03*
X9766300Y7505700D02*
D03*
X8661400Y8001000D02*
D03*
Y8153400D02*
D03*
X11887200Y10490200D02*
D03*
X11557000D02*
D03*
X7670800Y10033000D02*
D03*
X11049000Y10083800D02*
D03*
X11150600Y10058400D02*
D03*
X10693400Y5562600D02*
D03*
X10414000Y3632200D02*
D03*
X10185400Y4876800D02*
D03*
X10439400Y5816600D02*
D03*
X7721600Y6858000D02*
D03*
X11277600Y9652000D02*
D03*
X11099800Y9728200D02*
D03*
X11684000Y9499600D02*
D03*
X10439400Y4191000D02*
D03*
X11201400Y5486400D02*
D03*
X10541000Y9042400D02*
D03*
X10947400Y5029200D02*
D03*
X11125200Y5130800D02*
D03*
X10693400Y5156200D02*
D03*
X10769600Y5207000D02*
D03*
X9601200Y5892800D02*
D03*
X10378440Y3952240D02*
D03*
X10058400Y9220200D02*
D03*
X7975600Y9347200D02*
D03*
X11645900Y5613400D02*
D03*
X11770360Y6418580D02*
D03*
X11177123Y4546600D02*
D03*
X11379200Y5689600D02*
D03*
X9042400Y10109200D02*
D03*
X8966200Y9448800D02*
D03*
X11226800Y3962400D02*
D03*
X11823700Y4673600D02*
D03*
X11963400Y4648200D02*
D03*
X11353800Y4673600D02*
D03*
Y4775200D02*
D03*
X10058400Y8559800D02*
D03*
Y8432800D02*
D03*
X3911600Y6350000D02*
D03*
Y6248400D02*
D03*
X8724900Y9728200D02*
D03*
X5080000Y7594600D02*
D03*
X4356100Y6235700D02*
D03*
X8890000Y10096500D02*
D03*
X8826500Y9563100D02*
D03*
X8890000Y9499600D02*
D03*
X8382000Y9626600D02*
D03*
X6032500Y6896100D02*
D03*
X7874000Y10109200D02*
D03*
X7366000Y10401300D02*
D03*
X7831753Y9626247D02*
D03*
X7880013Y9130947D02*
D03*
X8083213Y9219847D02*
D03*
X7981613D02*
D03*
X7880013D02*
D03*
X7981613Y9130947D02*
D03*
X8083213D02*
D03*
Y9042047D02*
D03*
X7981613D02*
D03*
X7880013D02*
D03*
Y8953147D02*
D03*
X7981613D02*
D03*
X8083213D02*
D03*
X8470900Y3594100D02*
D03*
X8369300D02*
D03*
X8267700D02*
D03*
Y3683000D02*
D03*
X8369300D02*
D03*
X8470900D02*
D03*
Y3771900D02*
D03*
X8369300D02*
D03*
X8267700Y3860800D02*
D03*
X8369300D02*
D03*
X8470900D02*
D03*
X8267700Y3771900D02*
D03*
X8242300Y4279900D02*
D03*
X7255173Y9245247D02*
D03*
Y9143647D02*
D03*
Y9042047D02*
D03*
Y8940447D02*
D03*
X7153573D02*
D03*
Y9042047D02*
D03*
Y9143647D02*
D03*
Y9245247D02*
D03*
Y9346847D02*
D03*
X7255173D02*
D03*
Y9448447D02*
D03*
X7153573D02*
D03*
X7721600Y7061200D02*
D03*
Y6959600D02*
D03*
X5422900Y7035800D02*
D03*
X5245100D02*
D03*
X5816600D02*
D03*
X5613400D02*
D03*
X7538720Y4140200D02*
D03*
X7640320D02*
D03*
Y4038600D02*
D03*
X7538720D02*
D03*
Y3937000D02*
D03*
Y3835400D02*
D03*
Y3733800D02*
D03*
Y3632200D02*
D03*
X7640320D02*
D03*
Y3733800D02*
D03*
Y3835400D02*
D03*
Y3937000D02*
D03*
X5880100Y4445000D02*
D03*
X5461000Y6197600D02*
D03*
X5257800D02*
D03*
X10401300Y8712200D02*
D03*
X5549900Y10642600D02*
D03*
X3733800Y10045700D02*
D03*
X4241800Y10680700D02*
D03*
X4940300Y10274300D02*
D03*
X4406900Y9944100D02*
D03*
X4538404Y10226616D02*
D03*
X4533900Y10421620D02*
D03*
X6908800Y8737600D02*
D03*
X6324600Y9525000D02*
D03*
X6337300Y10619300D02*
D03*
X6426200Y10541000D02*
D03*
X6350000Y10464800D02*
D03*
X5969000Y10210800D02*
D03*
Y10058400D02*
D03*
X5562600D02*
D03*
X4419600Y6629400D02*
D03*
X4235429Y6530446D02*
D03*
X4546600Y6350000D02*
D03*
X3873500Y2933700D02*
D03*
X4572000Y7086600D02*
D03*
Y7239000D02*
D03*
Y5181600D02*
D03*
Y5308600D02*
D03*
X4597400Y3302000D02*
D03*
Y3149600D02*
D03*
X3759200Y5257800D02*
D03*
X3746500Y3213100D02*
D03*
X10223500Y5194300D02*
D03*
X10871200Y3962400D02*
D03*
X10947400Y4013200D02*
D03*
X11049000Y4089400D02*
D03*
X11125200Y3962400D02*
D03*
X10553700Y3949700D02*
D03*
X10617200Y4064000D02*
D03*
X10728960Y4122420D02*
D03*
X10274300Y3949700D02*
D03*
X10462260Y3995420D02*
D03*
X4467860Y3573780D02*
D03*
X11409680Y4320540D02*
D03*
X11325860Y4373880D02*
D03*
X11285220Y4462780D02*
D03*
X3924300Y3314700D02*
D03*
X10840720Y5532120D02*
D03*
X10896600Y5969000D02*
D03*
X10223500Y4673600D02*
D03*
X11417300Y3949700D02*
D03*
X10325100Y4203700D02*
D03*
X10274300Y4254500D02*
D03*
X5638800Y5702300D02*
D03*
X5727700Y5778500D02*
D03*
X5613400Y5270500D02*
D03*
X5791200D02*
D03*
X5613400Y6616700D02*
D03*
X4140200Y10591800D02*
D03*
X4043680Y10574020D02*
D03*
X3886200Y10426700D02*
D03*
X3898900Y10274300D02*
D03*
X3860800Y10337800D02*
D03*
X4241800Y10566400D02*
D03*
X4533900Y10304780D02*
D03*
X4140200Y9093200D02*
D03*
X3906520Y7244080D02*
D03*
X3873500Y6858000D02*
D03*
X4457700Y7518400D02*
D03*
Y6832600D02*
D03*
X3873500Y4940300D02*
D03*
X3914140Y5303520D02*
D03*
X4457700Y4902200D02*
D03*
Y5588000D02*
D03*
X4356100Y3009900D02*
D03*
D90*
X3594100Y9042400D02*
D03*
X3797300D02*
D03*
X12014200Y7962900D02*
D03*
X12153900Y9740900D02*
D03*
X9652000Y8128000D02*
D03*
X8737600Y7620000D02*
D03*
X9169400Y8331200D02*
D03*
X7620000Y9626600D02*
D03*
X10007600Y10236200D02*
D03*
D91*
X5740400Y3733800D02*
D03*
X5537200D02*
D03*
X11658600Y6578600D02*
D03*
D92*
X5745600Y6129100D02*
D03*
X5820600D02*
D03*
X5895600D02*
D03*
X5970600D02*
D03*
X6045600D02*
D03*
X6120600D02*
D03*
X6195600D02*
D03*
X5745600Y6279100D02*
D03*
X5820600D02*
D03*
X5895600D02*
D03*
X5970600D02*
D03*
X6045600D02*
D03*
X6120600D02*
D03*
X6195600D02*
D03*
X5745600Y6204100D02*
D03*
X5820600D02*
D03*
X5895600D02*
D03*
X5970600D02*
D03*
X6045600D02*
D03*
X6120600D02*
D03*
X6195600D02*
D03*
%TF.MD5,bd7baa82e0650cbf5fb8f2e906a97c7d*%
M02*
