%TF.GenerationSoftware,Altium Limited,Altium Designer,24.4.1 (13)*%
G04 Layer_Physical_Order=3*
G04 Layer_Color=16440176*
%FSLAX45Y45*%
%MOMM*%
%TF.SameCoordinates,7BA59CB3-8EBC-4C6A-B4C6-80429C3BB8AE*%
%TF.FilePolarity,Positive*%
%TF.FileFunction,Copper,L3,Inr,Signal*%
%TF.Part,Single*%
G01*
G75*
%TA.AperFunction,Conductor*%
%ADD68C,0.20000*%
%ADD69C,0.10000*%
%ADD72C,0.30000*%
%ADD73C,0.50000*%
%TA.AperFunction,ComponentPad*%
%ADD79C,0.65000*%
%ADD80O,2.10000X1.00000*%
G04:AMPARAMS|DCode=81|XSize=1.8mm|YSize=1mm|CornerRadius=0.25mm|HoleSize=0mm|Usage=FLASHONLY|Rotation=0.000|XOffset=0mm|YOffset=0mm|HoleType=Round|Shape=RoundedRectangle|*
%AMROUNDEDRECTD81*
21,1,1.80000,0.50000,0,0,0.0*
21,1,1.30000,1.00000,0,0,0.0*
1,1,0.50000,0.65000,-0.25000*
1,1,0.50000,-0.65000,-0.25000*
1,1,0.50000,-0.65000,0.25000*
1,1,0.50000,0.65000,0.25000*
%
%ADD81ROUNDEDRECTD81*%
%ADD82R,1.37000X1.37000*%
%ADD83C,1.37000*%
%TA.AperFunction,ViaPad*%
%ADD84O,2.00000X1.52400*%
%TA.AperFunction,ComponentPad*%
%ADD85C,0.40000*%
%ADD86R,1.37000X1.37000*%
%ADD88C,2.30000*%
%TA.AperFunction,ViaPad*%
%ADD89C,0.45000*%
%ADD90C,1.00000*%
%ADD91C,0.90000*%
%ADD92C,0.60000*%
D68*
X11430000Y5168900D02*
Y5270500D01*
X10414000Y5410200D02*
Y5740400D01*
X10899140Y5334000D02*
X11366500D01*
X10899140D02*
X10972800Y5407660D01*
Y5892800D01*
X10490200Y5334000D02*
X10899140D01*
X10896600Y5969000D02*
X10972800Y5892800D01*
X10185400Y4876800D02*
Y5156200D01*
X10363200Y5334000D02*
X10490200D01*
X10414000Y5410200D02*
X10490200Y5334000D01*
X11366500D02*
X11430000Y5270500D01*
X11366500Y5334000D02*
X11645900Y5613400D01*
X10223500Y5194300D02*
X10363200Y5334000D01*
X10274300Y3949700D02*
X10363200Y3860800D01*
X11328400D01*
X11417300Y3949700D01*
X10274300D02*
Y4152900D01*
X10325100Y4203700D01*
X10185400Y5156200D02*
X10223500Y5194300D01*
X10185400Y4876800D02*
X10223500Y4838700D01*
Y4673600D02*
Y4838700D01*
Y4305300D02*
X10274300Y4254500D01*
X10223500Y4305300D02*
Y4673600D01*
X10274300Y4254500D02*
X10325100Y4203700D01*
X4343400Y6350000D02*
X4546600D01*
X4318000Y6375400D02*
X4343400Y6350000D01*
X4538404Y10226616D02*
X4892616D01*
X4940300Y10274300D01*
X4406900Y10095112D02*
X4538404Y10226616D01*
X4406900Y9944100D02*
Y10095112D01*
X4140200Y10027920D02*
X4533900Y10421620D01*
X4140200Y9093200D02*
Y10027920D01*
X3873500Y6858000D02*
X4089400D01*
X4165600Y6934200D01*
X4241800Y7239000D02*
X4572000D01*
X4165600Y7315200D02*
X4241800Y7239000D01*
X4000500Y4940300D02*
X4165600Y5105400D01*
X3873500Y4940300D02*
X4000500D01*
X4267200Y5308600D02*
X4572000D01*
X4165600Y5410200D02*
X4267200Y5308600D01*
X4165600Y3479800D02*
X4343400Y3302000D01*
X4597400D01*
D69*
X8864693Y8561900D02*
G03*
X8856994Y8561350I-93J-52900D01*
G01*
X8813054Y8555603D02*
G03*
X8813803Y8555600I746J80397D01*
G01*
X3022600Y9423400D02*
X3149600D01*
X2962606Y9483394D02*
Y10094375D01*
Y9483394D02*
X3022600Y9423400D01*
X2962606Y10094375D02*
X3206032Y10337800D01*
X11544300Y5074920D02*
X12395200Y5925820D01*
Y9525000D01*
X11287760Y5074920D02*
X11544300D01*
X10706100Y4493260D02*
X11287760Y5074920D01*
X10706100Y4330700D02*
Y4493260D01*
X10566400Y4191000D02*
X10706100Y4330700D01*
X10439400Y4191000D02*
X10566400D01*
X9601200Y5892800D02*
X9880600D01*
X10617200Y6629400D02*
Y8661400D01*
X9880600Y5892800D02*
X10617200Y6629400D01*
X10388600Y9347200D02*
X10393741Y9352341D01*
X9931400Y9652000D02*
X10541000Y9042400D01*
X10393741Y9352341D02*
Y9507170D01*
X10464800Y9474200D02*
Y9550400D01*
X10134600Y9880600D02*
X10464800Y9550400D01*
X5410200Y9880600D02*
X10134600D01*
X9931400Y9347200D02*
X10058400Y9220200D01*
X7975600Y9347200D02*
X9931400D01*
X8597900Y9652000D02*
X9931400D01*
X10096511Y9804400D02*
X10393741Y9507170D01*
X5461000Y9804400D02*
X10096511D01*
X10375900Y9753600D02*
X10485757D01*
X10172700Y9956800D02*
X10375900Y9753600D01*
X10485757D02*
X10497872Y9765716D01*
X10617200D01*
X5359400Y9956800D02*
X10172700D01*
X4826000Y9423400D02*
X5359400Y9956800D01*
X3086100Y9690100D02*
X3136900D01*
X3048000Y9728200D02*
X3086100Y9690100D01*
X3048000Y9728200D02*
Y10083800D01*
X5511800Y9728200D02*
X8521700D01*
X8597900Y9652000D01*
X8813803Y8555600D02*
X8817425Y8555601D01*
X8390190Y8559800D02*
X8813054Y8555603D01*
X8864693Y8561900D02*
X10058400Y8559800D01*
X8382000D02*
X8390190D01*
X8817425Y8555601D02*
X8856994Y8561350D01*
X8153400Y8331200D02*
X8379071Y8556871D01*
X8382000Y8559800D01*
X11582400Y4318000D02*
X11836400D01*
X11455400Y4191000D02*
X11582400Y4318000D01*
X12293600Y9626600D02*
X12395200Y9525000D01*
X11303000Y9626600D02*
X12293600D01*
X10617200Y8661400D02*
X10998200Y9042400D01*
Y10033000D01*
X11049000Y10083800D01*
X10871200Y9118600D02*
Y10312400D01*
X11023600Y10464800D01*
Y10668000D01*
X5473700Y10718800D02*
X10972800D01*
X11023600Y10668000D01*
X10401300Y8712200D02*
X10464800D01*
X10871200Y9118600D01*
X10693400Y5562600D02*
Y5842000D01*
X10160000Y5892800D02*
X10642600D01*
X10693400Y5842000D01*
X10109200Y3937000D02*
Y5842000D01*
X10160000Y5892800D01*
X10109200Y3937000D02*
X10414000Y3632200D01*
X8229600Y8280400D02*
X8382000Y8432800D01*
X10058400D01*
X8229600Y6959600D02*
Y8280400D01*
X7924800Y6654800D02*
X8229600Y6959600D01*
X8153400Y6985000D02*
Y8331200D01*
X7874000Y6705600D02*
X8153400Y6985000D01*
X7264400Y6705600D02*
X7874000D01*
X7315200Y6654800D02*
X7924800D01*
X6362700Y5702300D02*
X7315200Y6654800D01*
X6337300Y5778500D02*
X7264400Y6705600D01*
X5638800Y5702300D02*
X6362700D01*
X5727700Y5778500D02*
X6337300D01*
X11277600Y9652000D02*
X11303000Y9626600D01*
X11099800Y9728200D02*
X11252200Y9575800D01*
X12237707D01*
X12319000Y9494507D01*
Y6477000D02*
Y9494507D01*
X12141200Y9499600D02*
X12217400Y9423400D01*
X11684000Y9499600D02*
X12141200D01*
X12217400Y6502400D02*
Y9423400D01*
X11328400Y5486400D02*
X12319000Y6477000D01*
X11201400Y5486400D02*
X11328400D01*
X11770360Y6418580D02*
X12133580D01*
X12217400Y6502400D01*
X11226800Y3962400D02*
Y4114800D01*
X11303000Y4191000D01*
X11455400D01*
X5080000Y9296400D02*
X5511800Y9728200D01*
X5080000Y7594600D02*
Y9296400D01*
X5372100Y10617200D02*
X5473700Y10718800D01*
X10210800Y10464800D02*
X10312400Y10566400D01*
X6350000Y10464800D02*
X10210800D01*
X6432897Y10547697D02*
X10039697D01*
X10058400Y10566400D01*
X5257800Y5626100D02*
Y6197600D01*
Y5626100D02*
X5613400Y5270500D01*
Y4711700D02*
X5880100Y4445000D01*
X5613400Y4711700D02*
Y5270500D01*
X4292600Y10617200D02*
X5372100D01*
X4241800Y10566400D02*
X4292600Y10617200D01*
X4318000Y10490200D02*
X4394200Y10566400D01*
X6400800D01*
X6426200Y10541000D01*
X3048000Y10083800D02*
X3238500Y10274300D01*
X3898900D01*
X3206032Y10337800D02*
X3860800D01*
X6426200Y10541000D02*
X6432897Y10547697D01*
X4432300Y10502900D02*
X6311900D01*
X3886200Y10426700D02*
X4356100D01*
X4432300Y10502900D01*
X6311900D02*
X6350000Y10464800D01*
X4076700Y10490200D02*
X4318000D01*
X4043680Y10523220D02*
Y10574020D01*
Y10523220D02*
X4076700Y10490200D01*
X4902200Y9372600D02*
X5410200Y9880600D01*
X4978400Y3403600D02*
Y9321800D01*
X4724400Y3149600D02*
X4978400Y3403600D01*
Y9321800D02*
X5461000Y9804400D01*
X4673600Y5181600D02*
X4902200Y5410200D01*
Y9372600D01*
X4775200Y7086600D02*
X4826000Y7137400D01*
Y9423400D01*
X3886200Y6527800D02*
X4241800D01*
X3657600Y6299200D02*
X3886200Y6527800D01*
X4572000Y7086600D02*
X4775200D01*
X4572000Y5181600D02*
X4673600D01*
X4597400Y3149600D02*
X4724400D01*
X3657600Y4373536D02*
X3746500Y4284636D01*
X3657600Y4373536D02*
Y6299200D01*
X3746500Y3213100D02*
Y4284636D01*
D72*
X8420100Y10236200D02*
X8572500Y10388600D01*
X7061200Y10236200D02*
X8420100D01*
X10007600D01*
X6959600Y10134600D02*
X7061200Y10236200D01*
X5638800Y10134600D02*
X6959600D01*
X4165600Y5410200D02*
Y6223000D01*
X4318000Y6375400D02*
Y6781800D01*
X4165600Y6223000D02*
X4318000Y6375400D01*
X4165600Y6934200D02*
X4318000Y6781800D01*
X5562600Y10058400D02*
X5638800Y10134600D01*
X4699000Y9626600D02*
X5130800Y10058400D01*
X5562600D01*
X4165600Y7797800D02*
X4699000Y8331200D01*
Y9626600D01*
X4165600Y7315200D02*
Y7797800D01*
Y6934200D02*
Y7315200D01*
Y5105400D02*
Y5410200D01*
Y3479800D02*
Y5105400D01*
Y2971800D02*
Y3479800D01*
X3873500Y2933700D02*
X4127500D01*
X4165600Y2971800D01*
D73*
X10718800Y6578600D02*
X11658600D01*
X9474200Y5334000D02*
X10718800Y6578600D01*
X8178800Y5334000D02*
X9474200D01*
X6146800Y4140200D02*
X6985000D01*
X8178800Y5334000D01*
X8470900Y5829300D02*
X8788400D01*
X6908800Y4267200D02*
X8470900Y5829300D01*
X6070600Y4267200D02*
X6908800D01*
X5537200Y3733800D02*
X6070600Y4267200D01*
X5740400Y3733800D02*
X6146800Y4140200D01*
D79*
X3161480Y9862220D02*
D03*
X3174700Y9286800D02*
D03*
D80*
X3224700Y9143800D02*
D03*
Y10007800D02*
D03*
D81*
X2806700Y9143800D02*
D03*
Y10007800D02*
D03*
D82*
X8788400Y6527800D02*
D03*
X10820400Y10566400D02*
D03*
X11938000Y7594600D02*
D03*
D83*
X9042400Y6527800D02*
D03*
X9296400D02*
D03*
X9550400D02*
D03*
X9804400D02*
D03*
X10058400D02*
D03*
X10312400D02*
D03*
X8788400Y5829300D02*
D03*
Y5575300D02*
D03*
X10566400Y10566400D02*
D03*
X10312400D02*
D03*
X10058400D02*
D03*
X11938000Y7340600D02*
D03*
X11684000Y7594600D02*
D03*
Y7340600D02*
D03*
X11430000Y7594600D02*
D03*
Y7340600D02*
D03*
X11176000Y7594600D02*
D03*
Y7340600D02*
D03*
D84*
X9626600Y8737600D02*
D03*
X10312400Y7302500D02*
D03*
X5308600Y4635500D02*
D03*
X7747000Y6477000D02*
D03*
D85*
X11309800Y9321800D02*
D03*
X11099800Y9111800D02*
D03*
Y9251800D02*
D03*
X11239800Y9111800D02*
D03*
Y9251800D02*
D03*
X11379800Y9111800D02*
D03*
Y9251800D02*
D03*
X11169800Y9041800D02*
D03*
Y9181800D02*
D03*
Y9321800D02*
D03*
X11309800Y9041800D02*
D03*
Y9181800D02*
D03*
D86*
X8788400Y6083300D02*
D03*
D88*
X2895600Y7352400D02*
D03*
Y7772400D02*
D03*
Y8192400D02*
D03*
X3445600Y7352400D02*
D03*
Y7772400D02*
D03*
Y8192400D02*
D03*
X2895600Y5408400D02*
D03*
Y5828400D02*
D03*
Y6248400D02*
D03*
X3445600Y5408400D02*
D03*
Y5828400D02*
D03*
Y6248400D02*
D03*
X2895600Y3427200D02*
D03*
Y3847200D02*
D03*
Y4267200D02*
D03*
X3445600Y3427200D02*
D03*
Y3847200D02*
D03*
Y4267200D02*
D03*
D89*
X12014200Y4013200D02*
D03*
X12103100D02*
D03*
X10563284Y4295716D02*
D03*
X11807884Y5540316D02*
D03*
X11430000Y5168900D02*
D03*
X11341100Y4902200D02*
D03*
X11417300Y4965700D02*
D03*
X10414000Y5740400D02*
D03*
X10515600Y5537200D02*
D03*
X10807700Y9499600D02*
D03*
Y9429200D02*
D03*
X3086100Y9601200D02*
D03*
X3098800Y9499600D02*
D03*
X10388600Y9347200D02*
D03*
X10464800Y9474200D02*
D03*
X10617200Y9765716D02*
D03*
X3390900Y9512300D02*
D03*
Y9639300D02*
D03*
X7721600Y7442200D02*
D03*
Y7543800D02*
D03*
Y7340600D02*
D03*
Y7924800D02*
D03*
Y8026400D02*
D03*
Y8407400D02*
D03*
Y7823200D02*
D03*
Y8305800D02*
D03*
Y8509000D02*
D03*
X3136900Y9690100D02*
D03*
X3149600Y9423400D02*
D03*
X8864600Y8509000D02*
D03*
X5608320Y3573780D02*
D03*
X9601200Y3251200D02*
D03*
X9194800Y3505200D02*
D03*
X7188200Y3454400D02*
D03*
X6883400D02*
D03*
X6781800D02*
D03*
X6578600D02*
D03*
X6273800D02*
D03*
X6985000D02*
D03*
X6375400D02*
D03*
X7086600D02*
D03*
X6680200D02*
D03*
X6477000D02*
D03*
X6172200D02*
D03*
X9387840Y4424680D02*
D03*
X9779000Y7848600D02*
D03*
X11455400Y10198100D02*
D03*
X11938000Y6553200D02*
D03*
X4165600Y10185400D02*
D03*
X4292600Y10363200D02*
D03*
X4140200D02*
D03*
X4216400Y10287000D02*
D03*
X4003040Y9941560D02*
D03*
X5054600Y10185400D02*
D03*
X4826000Y9931400D02*
D03*
X5054600Y10363200D02*
D03*
X5003800Y10718800D02*
D03*
X3403600Y10668000D02*
D03*
X3200400Y10439400D02*
D03*
X3378200Y10185400D02*
D03*
X10820400Y5105400D02*
D03*
X10972800Y5130800D02*
D03*
X9525000Y4064000D02*
D03*
X11201400Y4191000D02*
D03*
X11303000Y4064000D02*
D03*
X10998200Y4445000D02*
D03*
X10896600Y4876800D02*
D03*
X10337800Y4673600D02*
D03*
X9804400Y5461000D02*
D03*
X9423400Y5689600D02*
D03*
X11455400Y6096000D02*
D03*
X12014200Y6019800D02*
D03*
X11303000Y3225800D02*
D03*
X12395200Y5638800D02*
D03*
Y5105400D02*
D03*
Y4368800D02*
D03*
X12319000Y3302000D02*
D03*
X12166600Y3073400D02*
D03*
X10744200Y3454400D02*
D03*
X11074400Y3200400D02*
D03*
X10490200Y3251200D02*
D03*
X8813800Y4445000D02*
D03*
X8940800Y3759200D02*
D03*
X8331200Y4851400D02*
D03*
X8382000Y6299200D02*
D03*
X11836400Y4318000D02*
D03*
X10998200Y10236200D02*
D03*
X8763000Y10325100D02*
D03*
X8572500Y10388600D02*
D03*
X12153900Y10198100D02*
D03*
Y10363200D02*
D03*
X9372600Y7886700D02*
D03*
X9766300Y7505700D02*
D03*
X8661400Y8001000D02*
D03*
Y8153400D02*
D03*
X11887200Y10490200D02*
D03*
X11557000D02*
D03*
X7670800Y10033000D02*
D03*
X11049000Y10083800D02*
D03*
X11150600Y10058400D02*
D03*
X10693400Y5562600D02*
D03*
X10414000Y3632200D02*
D03*
X10185400Y4876800D02*
D03*
X10439400Y5816600D02*
D03*
X7721600Y6858000D02*
D03*
X11277600Y9652000D02*
D03*
X11099800Y9728200D02*
D03*
X11684000Y9499600D02*
D03*
X10439400Y4191000D02*
D03*
X11201400Y5486400D02*
D03*
X10541000Y9042400D02*
D03*
X10947400Y5029200D02*
D03*
X11125200Y5130800D02*
D03*
X10693400Y5156200D02*
D03*
X10769600Y5207000D02*
D03*
X9601200Y5892800D02*
D03*
X10378440Y3952240D02*
D03*
X10058400Y9220200D02*
D03*
X7975600Y9347200D02*
D03*
X11645900Y5613400D02*
D03*
X11770360Y6418580D02*
D03*
X11177123Y4546600D02*
D03*
X11379200Y5689600D02*
D03*
X9042400Y10109200D02*
D03*
X8966200Y9448800D02*
D03*
X11226800Y3962400D02*
D03*
X11823700Y4673600D02*
D03*
X11963400Y4648200D02*
D03*
X11353800Y4673600D02*
D03*
Y4775200D02*
D03*
X10058400Y8559800D02*
D03*
Y8432800D02*
D03*
X3911600Y6350000D02*
D03*
Y6248400D02*
D03*
X8724900Y9728200D02*
D03*
X5080000Y7594600D02*
D03*
X4356100Y6235700D02*
D03*
X8890000Y10096500D02*
D03*
X8826500Y9563100D02*
D03*
X8890000Y9499600D02*
D03*
X8382000Y9626600D02*
D03*
X6032500Y6896100D02*
D03*
X7874000Y10109200D02*
D03*
X7366000Y10401300D02*
D03*
X7831753Y9626247D02*
D03*
X7880013Y9130947D02*
D03*
X8083213Y9219847D02*
D03*
X7981613D02*
D03*
X7880013D02*
D03*
X7981613Y9130947D02*
D03*
X8083213D02*
D03*
Y9042047D02*
D03*
X7981613D02*
D03*
X7880013D02*
D03*
Y8953147D02*
D03*
X7981613D02*
D03*
X8083213D02*
D03*
X8470900Y3594100D02*
D03*
X8369300D02*
D03*
X8267700D02*
D03*
Y3683000D02*
D03*
X8369300D02*
D03*
X8470900D02*
D03*
Y3771900D02*
D03*
X8369300D02*
D03*
X8267700Y3860800D02*
D03*
X8369300D02*
D03*
X8470900D02*
D03*
X8267700Y3771900D02*
D03*
X8242300Y4279900D02*
D03*
X7255173Y9245247D02*
D03*
Y9143647D02*
D03*
Y9042047D02*
D03*
Y8940447D02*
D03*
X7153573D02*
D03*
Y9042047D02*
D03*
Y9143647D02*
D03*
Y9245247D02*
D03*
Y9346847D02*
D03*
X7255173D02*
D03*
Y9448447D02*
D03*
X7153573D02*
D03*
X7721600Y7061200D02*
D03*
Y6959600D02*
D03*
X5422900Y7035800D02*
D03*
X5245100D02*
D03*
X5816600D02*
D03*
X5613400D02*
D03*
X7538720Y4140200D02*
D03*
X7640320D02*
D03*
Y4038600D02*
D03*
X7538720D02*
D03*
Y3937000D02*
D03*
Y3835400D02*
D03*
Y3733800D02*
D03*
Y3632200D02*
D03*
X7640320D02*
D03*
Y3733800D02*
D03*
Y3835400D02*
D03*
Y3937000D02*
D03*
X5880100Y4445000D02*
D03*
X5461000Y6197600D02*
D03*
X5257800D02*
D03*
X10401300Y8712200D02*
D03*
X5549900Y10642600D02*
D03*
X3733800Y10045700D02*
D03*
X4241800Y10680700D02*
D03*
X4940300Y10274300D02*
D03*
X4406900Y9944100D02*
D03*
X4538404Y10226616D02*
D03*
X4533900Y10421620D02*
D03*
X6908800Y8737600D02*
D03*
X6324600Y9525000D02*
D03*
X6337300Y10619300D02*
D03*
X6426200Y10541000D02*
D03*
X6350000Y10464800D02*
D03*
X5969000Y10210800D02*
D03*
Y10058400D02*
D03*
X5562600D02*
D03*
X4419600Y6629400D02*
D03*
X4235429Y6530446D02*
D03*
X4546600Y6350000D02*
D03*
X3873500Y2933700D02*
D03*
X4572000Y7086600D02*
D03*
Y7239000D02*
D03*
Y5181600D02*
D03*
Y5308600D02*
D03*
X4597400Y3302000D02*
D03*
Y3149600D02*
D03*
X3759200Y5257800D02*
D03*
X3746500Y3213100D02*
D03*
X10223500Y5194300D02*
D03*
X10871200Y3962400D02*
D03*
X10947400Y4013200D02*
D03*
X11049000Y4089400D02*
D03*
X11125200Y3962400D02*
D03*
X10553700Y3949700D02*
D03*
X10617200Y4064000D02*
D03*
X10728960Y4122420D02*
D03*
X10274300Y3949700D02*
D03*
X10462260Y3995420D02*
D03*
X4467860Y3573780D02*
D03*
X11409680Y4320540D02*
D03*
X11325860Y4373880D02*
D03*
X11285220Y4462780D02*
D03*
X3924300Y3314700D02*
D03*
X10840720Y5532120D02*
D03*
X10896600Y5969000D02*
D03*
X10223500Y4673600D02*
D03*
X11417300Y3949700D02*
D03*
X10325100Y4203700D02*
D03*
X10274300Y4254500D02*
D03*
X5638800Y5702300D02*
D03*
X5727700Y5778500D02*
D03*
X5613400Y5270500D02*
D03*
X5791200D02*
D03*
X5613400Y6616700D02*
D03*
X4140200Y10591800D02*
D03*
X4043680Y10574020D02*
D03*
X3886200Y10426700D02*
D03*
X3898900Y10274300D02*
D03*
X3860800Y10337800D02*
D03*
X4241800Y10566400D02*
D03*
X4533900Y10304780D02*
D03*
X4140200Y9093200D02*
D03*
X3906520Y7244080D02*
D03*
X3873500Y6858000D02*
D03*
X4457700Y7518400D02*
D03*
Y6832600D02*
D03*
X3873500Y4940300D02*
D03*
X3914140Y5303520D02*
D03*
X4457700Y4902200D02*
D03*
Y5588000D02*
D03*
X4356100Y3009900D02*
D03*
D90*
X3594100Y9042400D02*
D03*
X3797300D02*
D03*
X12014200Y7962900D02*
D03*
X12153900Y9740900D02*
D03*
X9652000Y8128000D02*
D03*
X8737600Y7620000D02*
D03*
X9169400Y8331200D02*
D03*
X7620000Y9626600D02*
D03*
X10007600Y10236200D02*
D03*
D91*
X5740400Y3733800D02*
D03*
X5537200D02*
D03*
X11658600Y6578600D02*
D03*
D92*
X5745600Y6129100D02*
D03*
X5820600D02*
D03*
X5895600D02*
D03*
X5970600D02*
D03*
X6045600D02*
D03*
X6120600D02*
D03*
X6195600D02*
D03*
X5745600Y6279100D02*
D03*
X5820600D02*
D03*
X5895600D02*
D03*
X5970600D02*
D03*
X6045600D02*
D03*
X6120600D02*
D03*
X6195600D02*
D03*
X5745600Y6204100D02*
D03*
X5820600D02*
D03*
X5895600D02*
D03*
X5970600D02*
D03*
X6045600D02*
D03*
X6120600D02*
D03*
X6195600D02*
D03*
%TF.MD5,e62f5e3883b8b27b4b61b01713c8af6e*%
M02*
