%TF.GenerationSoftware,Altium Limited,Altium Designer,24.4.1 (13)*%
G04 Layer_Color=16711935*
%FSLAX45Y45*%
%MOMM*%
%TF.SameCoordinates,7BA59CB3-8EBC-4C6A-B4C6-80429C3BB8AE*%
%TF.FilePolarity,Positive*%
%TF.FileFunction,Other,Top_Assembly*%
%TF.Part,Single*%
G01*
G75*
%TA.AperFunction,NonConductor*%
%ADD93C,0.20000*%
G36*
X11725979Y6361493D02*
X11726580Y6361447D01*
X11727273Y6361354D01*
X11728059Y6361215D01*
X11728983Y6361030D01*
X11730000Y6360799D01*
X11731064Y6360522D01*
X11732173Y6360106D01*
X11733283Y6359644D01*
X11734438Y6359089D01*
X11735640Y6358395D01*
X11736750Y6357656D01*
X11737905Y6356731D01*
X11738969Y6355714D01*
X11739015Y6355668D01*
X11739200Y6355437D01*
X11739477Y6355113D01*
X11739847Y6354651D01*
X11740263Y6354096D01*
X11740725Y6353357D01*
X11741234Y6352571D01*
X11741742Y6351646D01*
X11742251Y6350583D01*
X11742759Y6349427D01*
X11743222Y6348179D01*
X11743638Y6346838D01*
X11744007Y6345359D01*
X11744285Y6343834D01*
X11744470Y6342169D01*
X11744516Y6340459D01*
Y6340043D01*
X11744470Y6339534D01*
X11744424Y6338887D01*
X11744331Y6338101D01*
X11744239Y6337177D01*
X11744054Y6336114D01*
X11743823Y6335004D01*
X11743499Y6333802D01*
X11743129Y6332554D01*
X11742713Y6331306D01*
X11742158Y6330011D01*
X11741511Y6328717D01*
X11740772Y6327469D01*
X11739893Y6326313D01*
X11738922Y6325158D01*
X11738876Y6325111D01*
X11738645Y6324926D01*
X11738368Y6324603D01*
X11737905Y6324279D01*
X11737351Y6323817D01*
X11736703Y6323308D01*
X11735964Y6322800D01*
X11735085Y6322291D01*
X11734115Y6321737D01*
X11733051Y6321228D01*
X11731896Y6320720D01*
X11730694Y6320304D01*
X11729353Y6319934D01*
X11727966Y6319610D01*
X11726487Y6319425D01*
X11724962Y6319379D01*
X11724869D01*
X11724684D01*
X11724361D01*
X11723898Y6319425D01*
X11723390Y6319471D01*
X11722743Y6319564D01*
X11722049Y6319656D01*
X11721310Y6319795D01*
X11720524Y6319934D01*
X11719645Y6320165D01*
X11718813Y6320396D01*
X11717935Y6320720D01*
X11717057Y6321089D01*
X11716178Y6321506D01*
X11715346Y6321968D01*
X11714514Y6322523D01*
X11714468Y6322569D01*
X11714329Y6322661D01*
X11714098Y6322846D01*
X11713821Y6323123D01*
X11713497Y6323447D01*
X11713081Y6323863D01*
X11712665Y6324325D01*
X11712203Y6324834D01*
X11711740Y6325481D01*
X11711278Y6326128D01*
X11710770Y6326868D01*
X11710307Y6327700D01*
X11709891Y6328578D01*
X11709475Y6329503D01*
X11709105Y6330520D01*
X11708782Y6331583D01*
Y6331537D01*
X11708689Y6331352D01*
X11708597Y6331121D01*
X11708458Y6330797D01*
X11708273Y6330381D01*
X11708042Y6329919D01*
X11707765Y6329411D01*
X11707487Y6328856D01*
X11706748Y6327654D01*
X11705869Y6326452D01*
X11704852Y6325296D01*
X11704298Y6324788D01*
X11703697Y6324325D01*
X11703650Y6324279D01*
X11703558Y6324233D01*
X11703373Y6324094D01*
X11703096Y6323956D01*
X11702772Y6323771D01*
X11702402Y6323586D01*
X11701940Y6323355D01*
X11701432Y6323170D01*
X11700877Y6322939D01*
X11700276Y6322707D01*
X11699629Y6322523D01*
X11698935Y6322338D01*
X11697410Y6322060D01*
X11696578Y6322014D01*
X11695745Y6321968D01*
X11695653D01*
X11695422D01*
X11695052Y6322014D01*
X11694590Y6322060D01*
X11693989Y6322106D01*
X11693295Y6322245D01*
X11692510Y6322384D01*
X11691677Y6322615D01*
X11690753Y6322846D01*
X11689828Y6323170D01*
X11688857Y6323586D01*
X11687840Y6324094D01*
X11686870Y6324649D01*
X11685853Y6325296D01*
X11684928Y6326082D01*
X11684004Y6326960D01*
X11683957Y6327007D01*
X11683819Y6327192D01*
X11683541Y6327469D01*
X11683264Y6327885D01*
X11682894Y6328393D01*
X11682478Y6328994D01*
X11682062Y6329688D01*
X11681600Y6330520D01*
X11681184Y6331398D01*
X11680768Y6332415D01*
X11680352Y6333525D01*
X11679982Y6334727D01*
X11679658Y6335975D01*
X11679427Y6337362D01*
X11679288Y6338795D01*
X11679242Y6340320D01*
Y6340690D01*
X11679288Y6341106D01*
X11679335Y6341707D01*
X11679381Y6342401D01*
X11679519Y6343233D01*
X11679658Y6344157D01*
X11679843Y6345128D01*
X11680120Y6346191D01*
X11680444Y6347301D01*
X11680814Y6348410D01*
X11681322Y6349520D01*
X11681877Y6350629D01*
X11682524Y6351739D01*
X11683264Y6352802D01*
X11684142Y6353773D01*
X11684188Y6353819D01*
X11684373Y6354004D01*
X11684651Y6354235D01*
X11685021Y6354559D01*
X11685483Y6354975D01*
X11686038Y6355391D01*
X11686685Y6355853D01*
X11687424Y6356361D01*
X11688257Y6356824D01*
X11689181Y6357286D01*
X11690152Y6357702D01*
X11691169Y6358118D01*
X11692278Y6358442D01*
X11693480Y6358673D01*
X11694682Y6358858D01*
X11695977Y6358904D01*
X11696023D01*
X11696162D01*
X11696393D01*
X11696716Y6358858D01*
X11697086Y6358812D01*
X11697548Y6358765D01*
X11698057Y6358719D01*
X11698612Y6358627D01*
X11699814Y6358349D01*
X11701108Y6357933D01*
X11701755Y6357656D01*
X11702402Y6357332D01*
X11703049Y6356962D01*
X11703697Y6356546D01*
X11703743Y6356500D01*
X11703835Y6356454D01*
X11704020Y6356315D01*
X11704251Y6356084D01*
X11704529Y6355853D01*
X11704806Y6355529D01*
X11705176Y6355206D01*
X11705546Y6354790D01*
X11705962Y6354281D01*
X11706378Y6353773D01*
X11706794Y6353172D01*
X11707210Y6352571D01*
X11707626Y6351831D01*
X11708042Y6351091D01*
X11708412Y6350306D01*
X11708782Y6349427D01*
Y6349473D01*
X11708874Y6349705D01*
X11708967Y6349982D01*
X11709152Y6350398D01*
X11709336Y6350907D01*
X11709614Y6351461D01*
X11709891Y6352108D01*
X11710261Y6352756D01*
X11710677Y6353495D01*
X11711139Y6354235D01*
X11711648Y6354975D01*
X11712203Y6355714D01*
X11712804Y6356454D01*
X11713497Y6357147D01*
X11714190Y6357841D01*
X11714976Y6358442D01*
X11715023Y6358488D01*
X11715161Y6358580D01*
X11715392Y6358719D01*
X11715716Y6358950D01*
X11716132Y6359181D01*
X11716641Y6359412D01*
X11717195Y6359690D01*
X11717842Y6360013D01*
X11718582Y6360291D01*
X11719322Y6360568D01*
X11720200Y6360799D01*
X11721078Y6361077D01*
X11722049Y6361262D01*
X11723020Y6361400D01*
X11724083Y6361493D01*
X11725193Y6361539D01*
X11725285D01*
X11725563D01*
X11725979Y6361493D01*
D02*
G37*
G36*
X11724268Y6288776D02*
X11716363D01*
Y6313000D01*
X11724268D01*
Y6288776D01*
D02*
G37*
G36*
X11743453Y6239035D02*
X11743407D01*
X11743314D01*
X11743175D01*
X11742990D01*
X11742713D01*
X11742436Y6239081D01*
X11741696Y6239127D01*
X11740910Y6239220D01*
X11739986Y6239358D01*
X11739015Y6239590D01*
X11738044Y6239913D01*
X11737998D01*
X11737859Y6240006D01*
X11737628Y6240098D01*
X11737304Y6240237D01*
X11736888Y6240375D01*
X11736426Y6240607D01*
X11735918Y6240884D01*
X11735363Y6241161D01*
X11734716Y6241485D01*
X11734068Y6241901D01*
X11732635Y6242779D01*
X11731110Y6243842D01*
X11729538Y6245091D01*
X11729492Y6245137D01*
X11729353Y6245276D01*
X11729122Y6245460D01*
X11728798Y6245738D01*
X11728382Y6246108D01*
X11727920Y6246570D01*
X11727365Y6247078D01*
X11726764Y6247726D01*
X11726071Y6248419D01*
X11725331Y6249159D01*
X11724546Y6249991D01*
X11723667Y6250915D01*
X11722789Y6251932D01*
X11721864Y6252996D01*
X11720893Y6254151D01*
X11719876Y6255353D01*
X11719830Y6255399D01*
X11719784Y6255492D01*
X11719645Y6255631D01*
X11719507Y6255816D01*
X11719276Y6256047D01*
X11719044Y6256324D01*
X11718443Y6257017D01*
X11717750Y6257896D01*
X11716872Y6258820D01*
X11715947Y6259884D01*
X11714930Y6260993D01*
X11713867Y6262195D01*
X11712757Y6263351D01*
X11711648Y6264553D01*
X11710492Y6265662D01*
X11709383Y6266772D01*
X11708319Y6267742D01*
X11707256Y6268667D01*
X11706285Y6269407D01*
X11706239Y6269453D01*
X11706054Y6269545D01*
X11705777Y6269730D01*
X11705453Y6270008D01*
X11704991Y6270285D01*
X11704483Y6270562D01*
X11703882Y6270932D01*
X11703234Y6271256D01*
X11702541Y6271579D01*
X11701801Y6271949D01*
X11700183Y6272550D01*
X11699351Y6272781D01*
X11698519Y6272966D01*
X11697687Y6273059D01*
X11696855Y6273105D01*
X11696809D01*
X11696624D01*
X11696393D01*
X11696069Y6273059D01*
X11695653Y6273012D01*
X11695191Y6272920D01*
X11694682Y6272827D01*
X11694127Y6272689D01*
X11693527Y6272504D01*
X11692879Y6272273D01*
X11692232Y6271995D01*
X11691585Y6271672D01*
X11690892Y6271302D01*
X11690244Y6270840D01*
X11689597Y6270331D01*
X11688996Y6269730D01*
X11688950Y6269684D01*
X11688857Y6269591D01*
X11688719Y6269407D01*
X11688488Y6269129D01*
X11688257Y6268806D01*
X11687979Y6268390D01*
X11687656Y6267927D01*
X11687378Y6267419D01*
X11687055Y6266818D01*
X11686777Y6266171D01*
X11686500Y6265431D01*
X11686269Y6264691D01*
X11686038Y6263859D01*
X11685899Y6262981D01*
X11685806Y6262056D01*
X11685760Y6261086D01*
Y6260531D01*
X11685806Y6260161D01*
X11685853Y6259652D01*
X11685945Y6259098D01*
X11686038Y6258497D01*
X11686176Y6257803D01*
X11686361Y6257110D01*
X11686592Y6256370D01*
X11686870Y6255631D01*
X11687193Y6254845D01*
X11687609Y6254105D01*
X11688072Y6253365D01*
X11688580Y6252626D01*
X11689181Y6251979D01*
X11689227Y6251932D01*
X11689320Y6251840D01*
X11689551Y6251655D01*
X11689782Y6251470D01*
X11690152Y6251193D01*
X11690568Y6250915D01*
X11691076Y6250592D01*
X11691631Y6250314D01*
X11692232Y6249991D01*
X11692972Y6249667D01*
X11693711Y6249390D01*
X11694544Y6249112D01*
X11695468Y6248928D01*
X11696439Y6248743D01*
X11697456Y6248650D01*
X11698565Y6248604D01*
X11697733Y6240514D01*
X11697687D01*
X11697641D01*
X11697502Y6240560D01*
X11697317D01*
X11696855Y6240607D01*
X11696254Y6240745D01*
X11695514Y6240884D01*
X11694636Y6241069D01*
X11693665Y6241300D01*
X11692648Y6241577D01*
X11691539Y6241947D01*
X11690429Y6242363D01*
X11689274Y6242872D01*
X11688118Y6243473D01*
X11687008Y6244120D01*
X11685945Y6244906D01*
X11684928Y6245738D01*
X11684004Y6246709D01*
X11683957Y6246755D01*
X11683819Y6246940D01*
X11683541Y6247263D01*
X11683264Y6247679D01*
X11682894Y6248234D01*
X11682478Y6248881D01*
X11682062Y6249667D01*
X11681600Y6250546D01*
X11681184Y6251563D01*
X11680768Y6252626D01*
X11680352Y6253828D01*
X11679982Y6255122D01*
X11679658Y6256509D01*
X11679427Y6257988D01*
X11679288Y6259560D01*
X11679242Y6261224D01*
Y6261640D01*
X11679288Y6262103D01*
X11679335Y6262750D01*
X11679381Y6263536D01*
X11679519Y6264414D01*
X11679658Y6265431D01*
X11679889Y6266494D01*
X11680167Y6267650D01*
X11680490Y6268806D01*
X11680906Y6270054D01*
X11681415Y6271256D01*
X11682016Y6272458D01*
X11682663Y6273613D01*
X11683449Y6274723D01*
X11684373Y6275786D01*
X11684420Y6275832D01*
X11684605Y6276017D01*
X11684882Y6276295D01*
X11685298Y6276618D01*
X11685760Y6277034D01*
X11686361Y6277496D01*
X11687055Y6278005D01*
X11687840Y6278513D01*
X11688719Y6278976D01*
X11689690Y6279484D01*
X11690753Y6279947D01*
X11691862Y6280363D01*
X11693064Y6280686D01*
X11694312Y6280964D01*
X11695653Y6281148D01*
X11697040Y6281195D01*
X11697086D01*
X11697225D01*
X11697410D01*
X11697687D01*
X11698057Y6281148D01*
X11698427Y6281102D01*
X11698889Y6281056D01*
X11699397Y6281010D01*
X11700553Y6280825D01*
X11701848Y6280548D01*
X11703188Y6280131D01*
X11704575Y6279623D01*
X11704621D01*
X11704760Y6279530D01*
X11704945Y6279438D01*
X11705222Y6279299D01*
X11705546Y6279161D01*
X11705962Y6278930D01*
X11706424Y6278698D01*
X11706933Y6278375D01*
X11707487Y6278051D01*
X11708088Y6277681D01*
X11709429Y6276757D01*
X11710122Y6276248D01*
X11710862Y6275694D01*
X11711602Y6275046D01*
X11712388Y6274399D01*
X11712434Y6274353D01*
X11712572Y6274214D01*
X11712804Y6274029D01*
X11713127Y6273706D01*
X11713543Y6273290D01*
X11714052Y6272781D01*
X11714653Y6272226D01*
X11715346Y6271533D01*
X11716086Y6270747D01*
X11716918Y6269823D01*
X11717842Y6268852D01*
X11718859Y6267742D01*
X11719923Y6266540D01*
X11721078Y6265246D01*
X11722327Y6263813D01*
X11723621Y6262287D01*
X11723667Y6262195D01*
X11723898Y6261964D01*
X11724176Y6261640D01*
X11724592Y6261178D01*
X11725054Y6260577D01*
X11725609Y6259976D01*
X11726210Y6259283D01*
X11726857Y6258543D01*
X11728198Y6256971D01*
X11728891Y6256232D01*
X11729538Y6255492D01*
X11730185Y6254799D01*
X11730740Y6254198D01*
X11731249Y6253643D01*
X11731711Y6253227D01*
X11731803Y6253134D01*
X11732081Y6252903D01*
X11732497Y6252533D01*
X11733005Y6252071D01*
X11733652Y6251563D01*
X11734346Y6251008D01*
X11735132Y6250453D01*
X11735918Y6249945D01*
Y6281287D01*
X11743453D01*
Y6239035D01*
D02*
G37*
G36*
X11718027Y6229050D02*
X11718859D01*
X11719784Y6229003D01*
X11720847Y6228911D01*
X11721957Y6228818D01*
X11723159Y6228680D01*
X11724407Y6228541D01*
X11726949Y6228171D01*
X11728244Y6227894D01*
X11729446Y6227616D01*
X11730648Y6227247D01*
X11731757Y6226877D01*
X11731803Y6226831D01*
X11731988Y6226784D01*
X11732312Y6226646D01*
X11732682Y6226461D01*
X11733190Y6226183D01*
X11733745Y6225906D01*
X11734346Y6225536D01*
X11735039Y6225074D01*
X11735779Y6224565D01*
X11736519Y6224011D01*
X11737258Y6223363D01*
X11738044Y6222624D01*
X11738830Y6221838D01*
X11739570Y6221006D01*
X11740309Y6220035D01*
X11741003Y6219018D01*
X11741049Y6218972D01*
X11741141Y6218741D01*
X11741326Y6218417D01*
X11741557Y6218001D01*
X11741835Y6217400D01*
X11742112Y6216753D01*
X11742436Y6215921D01*
X11742759Y6215042D01*
X11743083Y6213979D01*
X11743407Y6212870D01*
X11743684Y6211668D01*
X11743961Y6210327D01*
X11744192Y6208894D01*
X11744377Y6207369D01*
X11744470Y6205797D01*
X11744516Y6204086D01*
Y6203208D01*
X11744470Y6202607D01*
X11744424Y6201821D01*
X11744331Y6200943D01*
X11744239Y6199926D01*
X11744146Y6198863D01*
X11743961Y6197707D01*
X11743776Y6196505D01*
X11743499Y6195303D01*
X11743222Y6194055D01*
X11742852Y6192853D01*
X11742436Y6191605D01*
X11741973Y6190449D01*
X11741419Y6189340D01*
X11741373Y6189293D01*
X11741280Y6189109D01*
X11741095Y6188785D01*
X11740864Y6188415D01*
X11740540Y6187953D01*
X11740124Y6187398D01*
X11739662Y6186843D01*
X11739154Y6186196D01*
X11738553Y6185549D01*
X11737859Y6184856D01*
X11737166Y6184162D01*
X11736334Y6183515D01*
X11735502Y6182868D01*
X11734531Y6182267D01*
X11733560Y6181712D01*
X11732497Y6181204D01*
X11732404Y6181157D01*
X11732219Y6181111D01*
X11731896Y6180972D01*
X11731433Y6180834D01*
X11730833Y6180649D01*
X11730093Y6180464D01*
X11729261Y6180233D01*
X11728290Y6180002D01*
X11727181Y6179770D01*
X11725979Y6179539D01*
X11724684Y6179354D01*
X11723251Y6179170D01*
X11721726Y6179031D01*
X11720061Y6178892D01*
X11718305Y6178846D01*
X11716456Y6178800D01*
X11679473D01*
Y6187259D01*
X11716409D01*
X11716502D01*
X11716779D01*
X11717195D01*
X11717750Y6187306D01*
X11718443D01*
X11719229Y6187352D01*
X11720108Y6187398D01*
X11721078Y6187444D01*
X11722049Y6187537D01*
X11723066Y6187629D01*
X11725100Y6187907D01*
X11726071Y6188092D01*
X11727042Y6188276D01*
X11727920Y6188508D01*
X11728706Y6188785D01*
X11728752D01*
X11728891Y6188877D01*
X11729076Y6188970D01*
X11729353Y6189109D01*
X11729677Y6189247D01*
X11730047Y6189478D01*
X11730925Y6190033D01*
X11731896Y6190773D01*
X11732404Y6191189D01*
X11732913Y6191697D01*
X11733421Y6192206D01*
X11733884Y6192807D01*
X11734346Y6193408D01*
X11734762Y6194101D01*
Y6194147D01*
X11734854Y6194286D01*
X11734947Y6194471D01*
X11735085Y6194795D01*
X11735270Y6195164D01*
X11735455Y6195580D01*
X11735640Y6196089D01*
X11735825Y6196690D01*
X11736010Y6197337D01*
X11736195Y6198031D01*
X11736380Y6198770D01*
X11736565Y6199602D01*
X11736703Y6200481D01*
X11736796Y6201405D01*
X11736842Y6202330D01*
X11736888Y6203347D01*
Y6203763D01*
X11736842Y6204225D01*
Y6204872D01*
X11736750Y6205658D01*
X11736657Y6206490D01*
X11736519Y6207461D01*
X11736380Y6208524D01*
X11736149Y6209588D01*
X11735871Y6210697D01*
X11735502Y6211806D01*
X11735132Y6212916D01*
X11734623Y6213979D01*
X11734068Y6214950D01*
X11733421Y6215875D01*
X11732682Y6216660D01*
X11732635Y6216707D01*
X11732497Y6216845D01*
X11732219Y6217030D01*
X11731850Y6217261D01*
X11731341Y6217585D01*
X11730694Y6217909D01*
X11729954Y6218278D01*
X11729030Y6218648D01*
X11728013Y6219018D01*
X11726857Y6219388D01*
X11725516Y6219711D01*
X11724037Y6220035D01*
X11722373Y6220266D01*
X11720570Y6220451D01*
X11718582Y6220590D01*
X11716409Y6220636D01*
X11679473D01*
Y6229096D01*
X11716456D01*
X11716502D01*
X11716548D01*
X11716687D01*
X11716872D01*
X11717103D01*
X11717380D01*
X11718027Y6229050D01*
D02*
G37*
G36*
X4056621Y10275308D02*
X4057176Y10275261D01*
X4057916Y10275215D01*
X4058748Y10275076D01*
X4059672Y10274938D01*
X4060689Y10274707D01*
X4061753Y10274476D01*
X4062908Y10274152D01*
X4064064Y10273736D01*
X4065266Y10273227D01*
X4066422Y10272673D01*
X4067577Y10272025D01*
X4068733Y10271240D01*
X4069796Y10270361D01*
X4069843Y10270315D01*
X4070027Y10270130D01*
X4070305Y10269853D01*
X4070675Y10269437D01*
X4071091Y10268928D01*
X4071599Y10268327D01*
X4072108Y10267634D01*
X4072662Y10266848D01*
X4073217Y10265970D01*
X4073772Y10264953D01*
X4074280Y10263889D01*
X4074789Y10262734D01*
X4075205Y10261485D01*
X4075621Y10260191D01*
X4075898Y10258804D01*
X4076083Y10257325D01*
X4068225Y10256262D01*
Y10256354D01*
X4068178Y10256539D01*
X4068086Y10256909D01*
X4067947Y10257371D01*
X4067808Y10257926D01*
X4067624Y10258527D01*
X4067392Y10259220D01*
X4067161Y10259960D01*
X4066514Y10261578D01*
X4065728Y10263150D01*
X4065266Y10263936D01*
X4064757Y10264675D01*
X4064249Y10265322D01*
X4063648Y10265923D01*
X4063602Y10265970D01*
X4063509Y10266062D01*
X4063324Y10266201D01*
X4063047Y10266386D01*
X4062770Y10266617D01*
X4062354Y10266848D01*
X4061938Y10267125D01*
X4061429Y10267356D01*
X4060874Y10267634D01*
X4060273Y10267911D01*
X4059626Y10268142D01*
X4058933Y10268373D01*
X4058193Y10268558D01*
X4057407Y10268697D01*
X4056621Y10268789D01*
X4055743Y10268836D01*
X4055512D01*
X4055188Y10268789D01*
X4054818D01*
X4054310Y10268697D01*
X4053755Y10268651D01*
X4053154Y10268512D01*
X4052461Y10268373D01*
X4051767Y10268142D01*
X4050981Y10267911D01*
X4050196Y10267588D01*
X4049410Y10267218D01*
X4048624Y10266755D01*
X4047838Y10266247D01*
X4047098Y10265692D01*
X4046359Y10264999D01*
X4046312Y10264953D01*
X4046174Y10264814D01*
X4045989Y10264629D01*
X4045758Y10264305D01*
X4045480Y10263936D01*
X4045157Y10263473D01*
X4044787Y10262965D01*
X4044417Y10262364D01*
X4044094Y10261717D01*
X4043724Y10260977D01*
X4043400Y10260237D01*
X4043123Y10259359D01*
X4042892Y10258481D01*
X4042707Y10257556D01*
X4042568Y10256539D01*
X4042522Y10255522D01*
Y10255476D01*
Y10255291D01*
Y10255014D01*
X4042568Y10254597D01*
X4042614Y10254181D01*
X4042707Y10253627D01*
X4042799Y10253026D01*
X4042984Y10252379D01*
X4043169Y10251685D01*
X4043400Y10250945D01*
X4043677Y10250206D01*
X4044001Y10249466D01*
X4044417Y10248727D01*
X4044926Y10247987D01*
X4045434Y10247293D01*
X4046081Y10246600D01*
X4046128Y10246554D01*
X4046220Y10246461D01*
X4046451Y10246276D01*
X4046729Y10246045D01*
X4047052Y10245768D01*
X4047468Y10245491D01*
X4047977Y10245167D01*
X4048531Y10244843D01*
X4049132Y10244520D01*
X4049826Y10244196D01*
X4050565Y10243919D01*
X4051351Y10243641D01*
X4052183Y10243410D01*
X4053108Y10243225D01*
X4054033Y10243133D01*
X4055050Y10243087D01*
X4055466D01*
X4055928Y10243133D01*
X4056575Y10243179D01*
X4057407Y10243272D01*
X4058332Y10243457D01*
X4059395Y10243641D01*
X4060597Y10243919D01*
X4059719Y10237031D01*
X4059580D01*
X4059441Y10237077D01*
X4059256D01*
X4058840Y10237123D01*
X4057962D01*
X4057638Y10237077D01*
X4057176Y10237031D01*
X4056668Y10236985D01*
X4056113Y10236892D01*
X4055466Y10236800D01*
X4054772Y10236661D01*
X4054079Y10236476D01*
X4052553Y10236014D01*
X4051767Y10235736D01*
X4050981Y10235367D01*
X4050196Y10234997D01*
X4049456Y10234535D01*
X4049410Y10234488D01*
X4049271Y10234396D01*
X4049086Y10234257D01*
X4048809Y10234026D01*
X4048531Y10233749D01*
X4048162Y10233425D01*
X4047838Y10233009D01*
X4047422Y10232547D01*
X4047052Y10231992D01*
X4046682Y10231391D01*
X4046359Y10230744D01*
X4046081Y10230004D01*
X4045804Y10229218D01*
X4045619Y10228340D01*
X4045480Y10227415D01*
X4045434Y10226445D01*
Y10226398D01*
Y10226260D01*
Y10226029D01*
X4045480Y10225705D01*
X4045527Y10225381D01*
X4045573Y10224919D01*
X4045665Y10224457D01*
X4045804Y10223948D01*
X4046174Y10222839D01*
X4046405Y10222238D01*
X4046682Y10221637D01*
X4047006Y10221036D01*
X4047422Y10220435D01*
X4047884Y10219880D01*
X4048393Y10219326D01*
X4048439Y10219279D01*
X4048531Y10219187D01*
X4048670Y10219048D01*
X4048901Y10218863D01*
X4049225Y10218678D01*
X4049548Y10218401D01*
X4049964Y10218170D01*
X4050427Y10217892D01*
X4050935Y10217615D01*
X4051490Y10217384D01*
X4052137Y10217107D01*
X4052784Y10216922D01*
X4053524Y10216737D01*
X4054264Y10216598D01*
X4055096Y10216506D01*
X4055928Y10216459D01*
X4056390D01*
X4056668Y10216506D01*
X4057084Y10216552D01*
X4057546Y10216598D01*
X4058054Y10216691D01*
X4058609Y10216829D01*
X4059811Y10217153D01*
X4060412Y10217384D01*
X4061059Y10217708D01*
X4061706Y10218031D01*
X4062354Y10218401D01*
X4062955Y10218863D01*
X4063555Y10219372D01*
X4063602Y10219418D01*
X4063694Y10219510D01*
X4063833Y10219695D01*
X4064064Y10219926D01*
X4064295Y10220204D01*
X4064573Y10220574D01*
X4064850Y10221036D01*
X4065173Y10221498D01*
X4065497Y10222099D01*
X4065821Y10222746D01*
X4066190Y10223440D01*
X4066468Y10224226D01*
X4066791Y10225058D01*
X4067023Y10225936D01*
X4067254Y10226907D01*
X4067439Y10227970D01*
X4075297Y10226583D01*
Y10226537D01*
Y10226491D01*
X4075205Y10226213D01*
X4075113Y10225844D01*
X4074974Y10225289D01*
X4074789Y10224596D01*
X4074558Y10223856D01*
X4074280Y10223024D01*
X4073957Y10222099D01*
X4073541Y10221128D01*
X4073078Y10220111D01*
X4072524Y10219094D01*
X4071923Y10218077D01*
X4071276Y10217060D01*
X4070536Y10216090D01*
X4069704Y10215165D01*
X4068779Y10214333D01*
X4068733Y10214287D01*
X4068548Y10214148D01*
X4068271Y10213917D01*
X4067855Y10213639D01*
X4067346Y10213316D01*
X4066745Y10212946D01*
X4066052Y10212576D01*
X4065266Y10212160D01*
X4064388Y10211744D01*
X4063417Y10211374D01*
X4062400Y10211004D01*
X4061290Y10210681D01*
X4060088Y10210404D01*
X4058794Y10210172D01*
X4057453Y10210034D01*
X4056067Y10209987D01*
X4055558D01*
X4055188Y10210034D01*
X4054726D01*
X4054171Y10210126D01*
X4053570Y10210172D01*
X4052923Y10210265D01*
X4052183Y10210404D01*
X4051444Y10210542D01*
X4049826Y10210958D01*
X4048947Y10211189D01*
X4048115Y10211513D01*
X4047283Y10211837D01*
X4046451Y10212253D01*
X4046405Y10212299D01*
X4046266Y10212345D01*
X4046035Y10212484D01*
X4045711Y10212669D01*
X4045342Y10212900D01*
X4044926Y10213177D01*
X4044463Y10213501D01*
X4043955Y10213871D01*
X4042845Y10214749D01*
X4041736Y10215812D01*
X4040673Y10217014D01*
X4040164Y10217708D01*
X4039702Y10218401D01*
X4039656Y10218447D01*
X4039609Y10218586D01*
X4039471Y10218771D01*
X4039332Y10219094D01*
X4039147Y10219418D01*
X4038962Y10219880D01*
X4038731Y10220343D01*
X4038500Y10220897D01*
X4038315Y10221498D01*
X4038084Y10222099D01*
X4037714Y10223486D01*
X4037437Y10225012D01*
X4037390Y10225797D01*
X4037344Y10226630D01*
Y10226676D01*
Y10226814D01*
Y10227046D01*
X4037390Y10227323D01*
Y10227693D01*
X4037483Y10228109D01*
X4037529Y10228617D01*
X4037622Y10229126D01*
X4037899Y10230328D01*
X4038315Y10231576D01*
X4038546Y10232223D01*
X4038870Y10232917D01*
X4039193Y10233564D01*
X4039609Y10234211D01*
X4039656Y10234257D01*
X4039702Y10234350D01*
X4039841Y10234535D01*
X4040025Y10234766D01*
X4040257Y10235043D01*
X4040534Y10235367D01*
X4040858Y10235736D01*
X4041274Y10236153D01*
X4041690Y10236569D01*
X4042198Y10236985D01*
X4042707Y10237447D01*
X4043308Y10237909D01*
X4043955Y10238325D01*
X4044648Y10238787D01*
X4045388Y10239204D01*
X4046174Y10239573D01*
X4046128D01*
X4045943Y10239620D01*
X4045619Y10239712D01*
X4045249Y10239851D01*
X4044741Y10239989D01*
X4044186Y10240221D01*
X4043585Y10240452D01*
X4042938Y10240775D01*
X4042244Y10241099D01*
X4041505Y10241515D01*
X4040765Y10241931D01*
X4040025Y10242440D01*
X4039332Y10242994D01*
X4038639Y10243595D01*
X4037945Y10244289D01*
X4037344Y10245028D01*
X4037298Y10245075D01*
X4037206Y10245213D01*
X4037067Y10245444D01*
X4036836Y10245768D01*
X4036605Y10246184D01*
X4036327Y10246646D01*
X4036050Y10247201D01*
X4035772Y10247848D01*
X4035495Y10248588D01*
X4035172Y10249374D01*
X4034940Y10250206D01*
X4034709Y10251130D01*
X4034478Y10252101D01*
X4034339Y10253118D01*
X4034247Y10254181D01*
X4034201Y10255337D01*
Y10255430D01*
Y10255707D01*
X4034247Y10256169D01*
X4034293Y10256724D01*
X4034386Y10257464D01*
X4034524Y10258296D01*
X4034709Y10259220D01*
X4034987Y10260237D01*
X4035310Y10261347D01*
X4035680Y10262456D01*
X4036189Y10263658D01*
X4036789Y10264860D01*
X4037483Y10266062D01*
X4038315Y10267264D01*
X4039286Y10268420D01*
X4040349Y10269529D01*
X4040441Y10269575D01*
X4040626Y10269760D01*
X4040950Y10270084D01*
X4041459Y10270454D01*
X4042059Y10270870D01*
X4042753Y10271378D01*
X4043631Y10271887D01*
X4044556Y10272441D01*
X4045619Y10272996D01*
X4046821Y10273505D01*
X4048069Y10274013D01*
X4049456Y10274429D01*
X4050889Y10274799D01*
X4052461Y10275123D01*
X4054079Y10275308D01*
X4055789Y10275354D01*
X4056159D01*
X4056621Y10275308D01*
D02*
G37*
G36*
X4106825Y10247109D02*
X4082601D01*
Y10255014D01*
X4106825D01*
Y10247109D01*
D02*
G37*
G36*
X4192994Y10275215D02*
X4193780Y10275169D01*
X4194658Y10275076D01*
X4195675Y10274984D01*
X4196738Y10274892D01*
X4197894Y10274707D01*
X4199096Y10274522D01*
X4200298Y10274244D01*
X4201546Y10273967D01*
X4202748Y10273597D01*
X4203996Y10273181D01*
X4205152Y10272719D01*
X4206261Y10272164D01*
X4206308Y10272118D01*
X4206492Y10272025D01*
X4206816Y10271841D01*
X4207186Y10271609D01*
X4207648Y10271286D01*
X4208203Y10270870D01*
X4208758Y10270407D01*
X4209405Y10269899D01*
X4210052Y10269298D01*
X4210745Y10268605D01*
X4211439Y10267911D01*
X4212086Y10267079D01*
X4212733Y10266247D01*
X4213334Y10265276D01*
X4213889Y10264305D01*
X4214397Y10263242D01*
X4214444Y10263150D01*
X4214490Y10262965D01*
X4214629Y10262641D01*
X4214767Y10262179D01*
X4214952Y10261578D01*
X4215137Y10260838D01*
X4215368Y10260006D01*
X4215599Y10259035D01*
X4215831Y10257926D01*
X4216062Y10256724D01*
X4216247Y10255430D01*
X4216431Y10253997D01*
X4216570Y10252471D01*
X4216709Y10250807D01*
X4216755Y10249050D01*
X4216801Y10247201D01*
Y10210219D01*
X4208342D01*
Y10247155D01*
Y10247247D01*
Y10247525D01*
Y10247941D01*
X4208295Y10248495D01*
Y10249189D01*
X4208249Y10249975D01*
X4208203Y10250853D01*
X4208157Y10251824D01*
X4208064Y10252795D01*
X4207972Y10253812D01*
X4207694Y10255846D01*
X4207509Y10256816D01*
X4207325Y10257787D01*
X4207093Y10258666D01*
X4206816Y10259451D01*
Y10259498D01*
X4206724Y10259636D01*
X4206631Y10259821D01*
X4206492Y10260099D01*
X4206354Y10260422D01*
X4206123Y10260792D01*
X4205568Y10261670D01*
X4204828Y10262641D01*
X4204412Y10263150D01*
X4203904Y10263658D01*
X4203395Y10264167D01*
X4202794Y10264629D01*
X4202193Y10265091D01*
X4201500Y10265507D01*
X4201454D01*
X4201315Y10265600D01*
X4201130Y10265692D01*
X4200806Y10265831D01*
X4200437Y10266016D01*
X4200021Y10266201D01*
X4199512Y10266386D01*
X4198911Y10266571D01*
X4198264Y10266755D01*
X4197570Y10266940D01*
X4196831Y10267125D01*
X4195999Y10267310D01*
X4195120Y10267449D01*
X4194196Y10267541D01*
X4193271Y10267588D01*
X4192254Y10267634D01*
X4191838D01*
X4191376Y10267588D01*
X4190729D01*
X4189943Y10267495D01*
X4189111Y10267403D01*
X4188140Y10267264D01*
X4187077Y10267125D01*
X4186013Y10266894D01*
X4184904Y10266617D01*
X4183795Y10266247D01*
X4182685Y10265877D01*
X4181622Y10265369D01*
X4180651Y10264814D01*
X4179726Y10264167D01*
X4178941Y10263427D01*
X4178894Y10263381D01*
X4178756Y10263242D01*
X4178571Y10262965D01*
X4178340Y10262595D01*
X4178016Y10262086D01*
X4177692Y10261439D01*
X4177323Y10260700D01*
X4176953Y10259775D01*
X4176583Y10258758D01*
X4176213Y10257602D01*
X4175890Y10256262D01*
X4175566Y10254782D01*
X4175335Y10253118D01*
X4175150Y10251315D01*
X4175011Y10249327D01*
X4174965Y10247155D01*
Y10210219D01*
X4166505D01*
Y10247201D01*
Y10247247D01*
Y10247293D01*
Y10247432D01*
Y10247617D01*
Y10247848D01*
Y10248126D01*
X4166551Y10248773D01*
Y10249605D01*
X4166598Y10250529D01*
X4166690Y10251593D01*
X4166783Y10252702D01*
X4166921Y10253904D01*
X4167060Y10255152D01*
X4167430Y10257695D01*
X4167707Y10258989D01*
X4167985Y10260191D01*
X4168354Y10261393D01*
X4168724Y10262502D01*
X4168770Y10262549D01*
X4168817Y10262734D01*
X4168955Y10263057D01*
X4169140Y10263427D01*
X4169418Y10263936D01*
X4169695Y10264490D01*
X4170065Y10265091D01*
X4170527Y10265785D01*
X4171036Y10266524D01*
X4171590Y10267264D01*
X4172238Y10268004D01*
X4172977Y10268789D01*
X4173763Y10269575D01*
X4174595Y10270315D01*
X4175566Y10271055D01*
X4176583Y10271748D01*
X4176629Y10271794D01*
X4176860Y10271887D01*
X4177184Y10272072D01*
X4177600Y10272303D01*
X4178201Y10272580D01*
X4178848Y10272858D01*
X4179680Y10273181D01*
X4180559Y10273505D01*
X4181622Y10273828D01*
X4182731Y10274152D01*
X4183933Y10274429D01*
X4185274Y10274707D01*
X4186707Y10274938D01*
X4188232Y10275123D01*
X4189804Y10275215D01*
X4191515Y10275261D01*
X4192393D01*
X4192994Y10275215D01*
D02*
G37*
G36*
X4133868Y10224179D02*
X4133915Y10224226D01*
X4134007Y10224318D01*
X4134146Y10224457D01*
X4134377Y10224642D01*
X4134654Y10224873D01*
X4135024Y10225196D01*
X4135440Y10225520D01*
X4135856Y10225890D01*
X4136411Y10226260D01*
X4136966Y10226722D01*
X4137567Y10227138D01*
X4138214Y10227647D01*
X4138953Y10228109D01*
X4139693Y10228617D01*
X4141357Y10229634D01*
X4141403Y10229681D01*
X4141542Y10229773D01*
X4141820Y10229912D01*
X4142143Y10230050D01*
X4142513Y10230282D01*
X4142975Y10230559D01*
X4143530Y10230836D01*
X4144085Y10231160D01*
X4145379Y10231807D01*
X4146766Y10232454D01*
X4148199Y10233101D01*
X4149586Y10233656D01*
Y10226075D01*
X4149493Y10226029D01*
X4149308Y10225936D01*
X4148939Y10225751D01*
X4148476Y10225520D01*
X4147922Y10225243D01*
X4147228Y10224873D01*
X4146489Y10224457D01*
X4145703Y10223995D01*
X4144824Y10223440D01*
X4143900Y10222885D01*
X4141958Y10221591D01*
X4139970Y10220158D01*
X4138075Y10218586D01*
X4138029Y10218540D01*
X4137844Y10218401D01*
X4137613Y10218170D01*
X4137289Y10217846D01*
X4136873Y10217430D01*
X4136411Y10216968D01*
X4135902Y10216413D01*
X4135348Y10215858D01*
X4134793Y10215211D01*
X4134192Y10214518D01*
X4133036Y10213085D01*
X4131973Y10211559D01*
X4131511Y10210773D01*
X4131095Y10209987D01*
X4126010D01*
Y10274198D01*
X4133868D01*
Y10224179D01*
D02*
G37*
G36*
X7915526Y4067753D02*
X7930828D01*
Y4059894D01*
X7915526D01*
Y4032158D01*
X7908315D01*
X7866848Y4061327D01*
Y4067753D01*
X7908315D01*
Y4076398D01*
X7915526D01*
Y4067753D01*
D02*
G37*
G36*
X7911643Y4004005D02*
X7903738D01*
Y4028228D01*
X7911643D01*
Y4004005D01*
D02*
G37*
G36*
X7930828Y3954263D02*
X7930781D01*
X7930689D01*
X7930550D01*
X7930365D01*
X7930088D01*
X7929811Y3954310D01*
X7929071Y3954356D01*
X7928285Y3954448D01*
X7927361Y3954587D01*
X7926390Y3954818D01*
X7925419Y3955142D01*
X7925373D01*
X7925234Y3955234D01*
X7925003Y3955327D01*
X7924679Y3955465D01*
X7924263Y3955604D01*
X7923801Y3955835D01*
X7923293Y3956112D01*
X7922738Y3956390D01*
X7922091Y3956713D01*
X7921443Y3957129D01*
X7920010Y3958008D01*
X7918485Y3959071D01*
X7916913Y3960319D01*
X7916867Y3960365D01*
X7916728Y3960504D01*
X7916497Y3960689D01*
X7916173Y3960966D01*
X7915757Y3961336D01*
X7915295Y3961799D01*
X7914740Y3962307D01*
X7914139Y3962954D01*
X7913446Y3963648D01*
X7912706Y3964387D01*
X7911920Y3965219D01*
X7911042Y3966144D01*
X7910164Y3967161D01*
X7909239Y3968224D01*
X7908268Y3969380D01*
X7907251Y3970582D01*
X7907205Y3970628D01*
X7907159Y3970721D01*
X7907020Y3970859D01*
X7906882Y3971044D01*
X7906650Y3971275D01*
X7906419Y3971553D01*
X7905818Y3972246D01*
X7905125Y3973124D01*
X7904247Y3974049D01*
X7903322Y3975112D01*
X7902305Y3976222D01*
X7901242Y3977424D01*
X7900132Y3978579D01*
X7899023Y3979781D01*
X7897867Y3980891D01*
X7896758Y3982000D01*
X7895694Y3982971D01*
X7894631Y3983896D01*
X7893660Y3984635D01*
X7893614Y3984681D01*
X7893429Y3984774D01*
X7893152Y3984959D01*
X7892828Y3985236D01*
X7892366Y3985513D01*
X7891857Y3985791D01*
X7891257Y3986161D01*
X7890609Y3986484D01*
X7889916Y3986808D01*
X7889176Y3987178D01*
X7887558Y3987779D01*
X7886726Y3988010D01*
X7885894Y3988195D01*
X7885062Y3988287D01*
X7884230Y3988333D01*
X7884184D01*
X7883999D01*
X7883768D01*
X7883444Y3988287D01*
X7883028Y3988241D01*
X7882566Y3988148D01*
X7882057Y3988056D01*
X7881502Y3987917D01*
X7880901Y3987732D01*
X7880254Y3987501D01*
X7879607Y3987224D01*
X7878960Y3986900D01*
X7878266Y3986531D01*
X7877619Y3986068D01*
X7876972Y3985560D01*
X7876371Y3984959D01*
X7876325Y3984913D01*
X7876232Y3984820D01*
X7876094Y3984635D01*
X7875863Y3984358D01*
X7875631Y3984034D01*
X7875354Y3983618D01*
X7875030Y3983156D01*
X7874753Y3982647D01*
X7874430Y3982046D01*
X7874152Y3981399D01*
X7873875Y3980660D01*
X7873644Y3979920D01*
X7873412Y3979088D01*
X7873274Y3978209D01*
X7873181Y3977285D01*
X7873135Y3976314D01*
Y3975759D01*
X7873181Y3975390D01*
X7873228Y3974881D01*
X7873320Y3974326D01*
X7873412Y3973725D01*
X7873551Y3973032D01*
X7873736Y3972339D01*
X7873967Y3971599D01*
X7874245Y3970859D01*
X7874568Y3970073D01*
X7874984Y3969334D01*
X7875447Y3968594D01*
X7875955Y3967854D01*
X7876556Y3967207D01*
X7876602Y3967161D01*
X7876695Y3967069D01*
X7876926Y3966884D01*
X7877157Y3966699D01*
X7877527Y3966421D01*
X7877943Y3966144D01*
X7878451Y3965820D01*
X7879006Y3965543D01*
X7879607Y3965219D01*
X7880347Y3964896D01*
X7881086Y3964618D01*
X7881918Y3964341D01*
X7882843Y3964156D01*
X7883814Y3963971D01*
X7884831Y3963879D01*
X7885940Y3963833D01*
X7885108Y3955743D01*
X7885062D01*
X7885016D01*
X7884877Y3955789D01*
X7884692D01*
X7884230Y3955835D01*
X7883629Y3955974D01*
X7882889Y3956112D01*
X7882011Y3956297D01*
X7881040Y3956529D01*
X7880023Y3956806D01*
X7878914Y3957176D01*
X7877804Y3957592D01*
X7876648Y3958100D01*
X7875493Y3958701D01*
X7874383Y3959348D01*
X7873320Y3960134D01*
X7872303Y3960966D01*
X7871378Y3961937D01*
X7871332Y3961983D01*
X7871194Y3962168D01*
X7870916Y3962492D01*
X7870639Y3962908D01*
X7870269Y3963463D01*
X7869853Y3964110D01*
X7869437Y3964896D01*
X7868975Y3965774D01*
X7868559Y3966791D01*
X7868143Y3967854D01*
X7867726Y3969056D01*
X7867357Y3970351D01*
X7867033Y3971738D01*
X7866802Y3973217D01*
X7866663Y3974789D01*
X7866617Y3976453D01*
Y3976869D01*
X7866663Y3977331D01*
X7866709Y3977978D01*
X7866756Y3978764D01*
X7866894Y3979643D01*
X7867033Y3980660D01*
X7867264Y3981723D01*
X7867542Y3982878D01*
X7867865Y3984034D01*
X7868281Y3985282D01*
X7868790Y3986484D01*
X7869391Y3987686D01*
X7870038Y3988842D01*
X7870824Y3989951D01*
X7871748Y3991015D01*
X7871795Y3991061D01*
X7871979Y3991246D01*
X7872257Y3991523D01*
X7872673Y3991847D01*
X7873135Y3992263D01*
X7873736Y3992725D01*
X7874430Y3993234D01*
X7875215Y3993742D01*
X7876094Y3994204D01*
X7877065Y3994713D01*
X7878128Y3995175D01*
X7879237Y3995591D01*
X7880439Y3995915D01*
X7881687Y3996192D01*
X7883028Y3996377D01*
X7884415Y3996423D01*
X7884461D01*
X7884600D01*
X7884785D01*
X7885062D01*
X7885432Y3996377D01*
X7885802Y3996331D01*
X7886264Y3996285D01*
X7886772Y3996238D01*
X7887928Y3996053D01*
X7889222Y3995776D01*
X7890563Y3995360D01*
X7891950Y3994852D01*
X7891996D01*
X7892135Y3994759D01*
X7892320Y3994667D01*
X7892597Y3994528D01*
X7892921Y3994389D01*
X7893337Y3994158D01*
X7893799Y3993927D01*
X7894308Y3993603D01*
X7894862Y3993280D01*
X7895463Y3992910D01*
X7896804Y3991985D01*
X7897497Y3991477D01*
X7898237Y3990922D01*
X7898977Y3990275D01*
X7899762Y3989628D01*
X7899809Y3989582D01*
X7899947Y3989443D01*
X7900179Y3989258D01*
X7900502Y3988934D01*
X7900918Y3988518D01*
X7901427Y3988010D01*
X7902028Y3987455D01*
X7902721Y3986762D01*
X7903461Y3985976D01*
X7904293Y3985051D01*
X7905217Y3984080D01*
X7906234Y3982971D01*
X7907298Y3981769D01*
X7908453Y3980475D01*
X7909701Y3979042D01*
X7910996Y3977516D01*
X7911042Y3977424D01*
X7911273Y3977192D01*
X7911551Y3976869D01*
X7911967Y3976407D01*
X7912429Y3975806D01*
X7912984Y3975205D01*
X7913585Y3974511D01*
X7914232Y3973772D01*
X7915572Y3972200D01*
X7916266Y3971460D01*
X7916913Y3970721D01*
X7917560Y3970027D01*
X7918115Y3969426D01*
X7918623Y3968871D01*
X7919086Y3968455D01*
X7919178Y3968363D01*
X7919456Y3968132D01*
X7919872Y3967762D01*
X7920380Y3967300D01*
X7921027Y3966791D01*
X7921721Y3966236D01*
X7922507Y3965682D01*
X7923293Y3965173D01*
Y3996516D01*
X7930828D01*
Y3954263D01*
D02*
G37*
G36*
X7935774Y3945757D02*
X7935728Y3945665D01*
X7935635Y3945434D01*
X7935497Y3945064D01*
X7935312Y3944555D01*
X7935034Y3943955D01*
X7934711Y3943215D01*
X7934295Y3942383D01*
X7933879Y3941458D01*
X7933324Y3940441D01*
X7932769Y3939378D01*
X7932122Y3938222D01*
X7931429Y3937067D01*
X7930643Y3935818D01*
X7929811Y3934570D01*
X7928932Y3933322D01*
X7927962Y3932028D01*
X7928008Y3931935D01*
X7928146Y3931704D01*
X7928331Y3931334D01*
X7928563Y3930780D01*
X7928886Y3930132D01*
X7929210Y3929300D01*
X7929580Y3928422D01*
X7929903Y3927405D01*
X7930273Y3926295D01*
X7930643Y3925047D01*
X7930966Y3923753D01*
X7931290Y3922412D01*
X7931521Y3920933D01*
X7931706Y3919454D01*
X7931845Y3917928D01*
X7931891Y3916310D01*
Y3915940D01*
X7931845Y3915478D01*
Y3914831D01*
X7931752Y3914091D01*
X7931660Y3913167D01*
X7931521Y3912196D01*
X7931382Y3911086D01*
X7931151Y3909884D01*
X7930874Y3908636D01*
X7930550Y3907342D01*
X7930134Y3906001D01*
X7929672Y3904614D01*
X7929117Y3903274D01*
X7928470Y3901887D01*
X7927730Y3900546D01*
X7927684Y3900454D01*
X7927545Y3900223D01*
X7927268Y3899853D01*
X7926945Y3899391D01*
X7926528Y3898790D01*
X7926020Y3898096D01*
X7925373Y3897357D01*
X7924679Y3896525D01*
X7923893Y3895646D01*
X7923015Y3894768D01*
X7922044Y3893890D01*
X7920981Y3892965D01*
X7919825Y3892087D01*
X7918623Y3891208D01*
X7917329Y3890376D01*
X7915942Y3889637D01*
X7915850Y3889590D01*
X7915619Y3889498D01*
X7915156Y3889267D01*
X7914602Y3889036D01*
X7913908Y3888758D01*
X7913030Y3888435D01*
X7912059Y3888111D01*
X7910950Y3887741D01*
X7909748Y3887371D01*
X7908453Y3887048D01*
X7907020Y3886724D01*
X7905541Y3886447D01*
X7903969Y3886216D01*
X7902305Y3886031D01*
X7900595Y3885892D01*
X7898838Y3885846D01*
X7898792D01*
X7898745D01*
X7898607D01*
X7898422D01*
X7898191D01*
X7897913Y3885892D01*
X7897220D01*
X7896434Y3885985D01*
X7895463Y3886031D01*
X7894354Y3886170D01*
X7893152Y3886308D01*
X7891857Y3886539D01*
X7890471Y3886770D01*
X7889084Y3887094D01*
X7887604Y3887464D01*
X7886125Y3887926D01*
X7884600Y3888435D01*
X7883120Y3888989D01*
X7881641Y3889683D01*
X7881549Y3889729D01*
X7881317Y3889868D01*
X7880901Y3890099D01*
X7880347Y3890376D01*
X7879700Y3890792D01*
X7878960Y3891255D01*
X7878128Y3891856D01*
X7877249Y3892503D01*
X7876325Y3893242D01*
X7875354Y3894028D01*
X7874337Y3894907D01*
X7873366Y3895924D01*
X7872395Y3896941D01*
X7871471Y3898096D01*
X7870593Y3899298D01*
X7869807Y3900593D01*
X7869760Y3900685D01*
X7869622Y3900916D01*
X7869437Y3901286D01*
X7869160Y3901841D01*
X7868882Y3902534D01*
X7868512Y3903320D01*
X7868143Y3904198D01*
X7867773Y3905262D01*
X7867403Y3906371D01*
X7867033Y3907573D01*
X7866663Y3908914D01*
X7866386Y3910301D01*
X7866108Y3911734D01*
X7865924Y3913259D01*
X7865785Y3914831D01*
X7865739Y3916449D01*
Y3916865D01*
X7865785Y3917327D01*
Y3917928D01*
X7865877Y3918714D01*
X7865970Y3919639D01*
X7866108Y3920656D01*
X7866247Y3921765D01*
X7866478Y3922967D01*
X7866756Y3924261D01*
X7867125Y3925602D01*
X7867495Y3926943D01*
X7868004Y3928329D01*
X7868559Y3929716D01*
X7869206Y3931103D01*
X7869945Y3932444D01*
X7869992Y3932536D01*
X7870130Y3932767D01*
X7870361Y3933137D01*
X7870731Y3933599D01*
X7871147Y3934200D01*
X7871656Y3934894D01*
X7872303Y3935633D01*
X7872996Y3936466D01*
X7873782Y3937344D01*
X7874661Y3938222D01*
X7875631Y3939147D01*
X7876695Y3940025D01*
X7877850Y3940903D01*
X7879052Y3941782D01*
X7880347Y3942568D01*
X7881734Y3943307D01*
X7881826Y3943354D01*
X7882057Y3943492D01*
X7882473Y3943677D01*
X7883074Y3943908D01*
X7883768Y3944186D01*
X7884646Y3944509D01*
X7885617Y3944833D01*
X7886726Y3945203D01*
X7887928Y3945526D01*
X7889222Y3945850D01*
X7890656Y3946173D01*
X7892135Y3946451D01*
X7893707Y3946728D01*
X7895325Y3946913D01*
X7897035Y3947006D01*
X7898792Y3947052D01*
X7898884D01*
X7899161D01*
X7899578D01*
X7900132Y3947006D01*
X7900826Y3946959D01*
X7901612Y3946913D01*
X7902536Y3946867D01*
X7903553Y3946774D01*
X7904616Y3946636D01*
X7905726Y3946451D01*
X7906928Y3946266D01*
X7908130Y3946035D01*
X7909378Y3945757D01*
X7910580Y3945434D01*
X7911828Y3945064D01*
X7913030Y3944648D01*
X7913122Y3944602D01*
X7913307Y3944555D01*
X7913631Y3944417D01*
X7914093Y3944186D01*
X7914648Y3943955D01*
X7915249Y3943631D01*
X7915988Y3943261D01*
X7916728Y3942845D01*
X7917560Y3942337D01*
X7918439Y3941828D01*
X7919363Y3941227D01*
X7920288Y3940580D01*
X7921212Y3939886D01*
X7922137Y3939101D01*
X7923061Y3938268D01*
X7923940Y3937390D01*
X7923986Y3937436D01*
X7924125Y3937668D01*
X7924310Y3937945D01*
X7924587Y3938407D01*
X7924957Y3938916D01*
X7925327Y3939517D01*
X7925743Y3940210D01*
X7926205Y3940950D01*
X7926667Y3941782D01*
X7927176Y3942614D01*
X7928193Y3944463D01*
X7929117Y3946358D01*
X7929533Y3947329D01*
X7929903Y3948254D01*
X7935774Y3945757D01*
D02*
G37*
G36*
X5954237Y6377824D02*
X5969538D01*
Y6369965D01*
X5954237D01*
Y6342228D01*
X5947025D01*
X5905558Y6371398D01*
Y6377824D01*
X5947025D01*
Y6386468D01*
X5954237D01*
Y6377824D01*
D02*
G37*
G36*
X5950353Y6314075D02*
X5942448D01*
Y6338299D01*
X5950353D01*
Y6314075D01*
D02*
G37*
G36*
X5969538Y6287032D02*
X5919519D01*
X5919566Y6286986D01*
X5919658Y6286893D01*
X5919797Y6286755D01*
X5919982Y6286523D01*
X5920213Y6286246D01*
X5920536Y6285876D01*
X5920860Y6285460D01*
X5921230Y6285044D01*
X5921600Y6284489D01*
X5922062Y6283935D01*
X5922478Y6283334D01*
X5922986Y6282686D01*
X5923449Y6281947D01*
X5923957Y6281207D01*
X5924974Y6279543D01*
X5925020Y6279497D01*
X5925113Y6279358D01*
X5925252Y6279081D01*
X5925390Y6278757D01*
X5925621Y6278387D01*
X5925899Y6277925D01*
X5926176Y6277370D01*
X5926500Y6276815D01*
X5927147Y6275521D01*
X5927794Y6274134D01*
X5928441Y6272701D01*
X5928996Y6271314D01*
X5921415D01*
X5921368Y6271407D01*
X5921276Y6271592D01*
X5921091Y6271962D01*
X5920860Y6272424D01*
X5920583Y6272979D01*
X5920213Y6273672D01*
X5919797Y6274412D01*
X5919334Y6275198D01*
X5918780Y6276076D01*
X5918225Y6277000D01*
X5916931Y6278942D01*
X5915497Y6280930D01*
X5913926Y6282825D01*
X5913879Y6282871D01*
X5913741Y6283056D01*
X5913510Y6283287D01*
X5913186Y6283611D01*
X5912770Y6284027D01*
X5912308Y6284489D01*
X5911753Y6284998D01*
X5911198Y6285553D01*
X5910551Y6286107D01*
X5909858Y6286708D01*
X5908425Y6287864D01*
X5906899Y6288927D01*
X5906113Y6289390D01*
X5905327Y6289806D01*
Y6294891D01*
X5969538D01*
Y6287032D01*
D02*
G37*
G36*
X5944113Y6254349D02*
X5944945D01*
X5945869Y6254302D01*
X5946932Y6254210D01*
X5948042Y6254118D01*
X5949244Y6253979D01*
X5950492Y6253840D01*
X5953035Y6253470D01*
X5954329Y6253193D01*
X5955531Y6252916D01*
X5956733Y6252546D01*
X5957842Y6252176D01*
X5957889Y6252130D01*
X5958073Y6252084D01*
X5958397Y6251945D01*
X5958767Y6251760D01*
X5959275Y6251483D01*
X5959830Y6251205D01*
X5960431Y6250835D01*
X5961124Y6250373D01*
X5961864Y6249865D01*
X5962604Y6249310D01*
X5963343Y6248663D01*
X5964129Y6247923D01*
X5964915Y6247137D01*
X5965655Y6246305D01*
X5966394Y6245334D01*
X5967088Y6244317D01*
X5967134Y6244271D01*
X5967227Y6244040D01*
X5967411Y6243716D01*
X5967643Y6243300D01*
X5967920Y6242699D01*
X5968197Y6242052D01*
X5968521Y6241220D01*
X5968845Y6240342D01*
X5969168Y6239278D01*
X5969492Y6238169D01*
X5969769Y6236967D01*
X5970046Y6235626D01*
X5970278Y6234193D01*
X5970463Y6232668D01*
X5970555Y6231096D01*
X5970601Y6229386D01*
Y6228507D01*
X5970555Y6227906D01*
X5970509Y6227120D01*
X5970416Y6226242D01*
X5970324Y6225225D01*
X5970231Y6224162D01*
X5970046Y6223006D01*
X5969862Y6221804D01*
X5969584Y6220602D01*
X5969307Y6219354D01*
X5968937Y6218152D01*
X5968521Y6216904D01*
X5968059Y6215748D01*
X5967504Y6214639D01*
X5967458Y6214593D01*
X5967365Y6214408D01*
X5967180Y6214084D01*
X5966949Y6213714D01*
X5966626Y6213252D01*
X5966210Y6212697D01*
X5965747Y6212143D01*
X5965239Y6211495D01*
X5964638Y6210848D01*
X5963944Y6210155D01*
X5963251Y6209461D01*
X5962419Y6208814D01*
X5961587Y6208167D01*
X5960616Y6207566D01*
X5959645Y6207011D01*
X5958582Y6206503D01*
X5958489Y6206456D01*
X5958305Y6206410D01*
X5957981Y6206272D01*
X5957519Y6206133D01*
X5956918Y6205948D01*
X5956178Y6205763D01*
X5955346Y6205532D01*
X5954375Y6205301D01*
X5953266Y6205070D01*
X5952064Y6204838D01*
X5950769Y6204654D01*
X5949336Y6204469D01*
X5947811Y6204330D01*
X5946147Y6204191D01*
X5944390Y6204145D01*
X5942541Y6204099D01*
X5905558D01*
Y6212559D01*
X5942495D01*
X5942587D01*
X5942864D01*
X5943280D01*
X5943835Y6212605D01*
X5944529D01*
X5945314Y6212651D01*
X5946193Y6212697D01*
X5947164Y6212743D01*
X5948134Y6212836D01*
X5949151Y6212928D01*
X5951185Y6213206D01*
X5952156Y6213391D01*
X5953127Y6213576D01*
X5954005Y6213807D01*
X5954791Y6214084D01*
X5954837D01*
X5954976Y6214177D01*
X5955161Y6214269D01*
X5955438Y6214408D01*
X5955762Y6214546D01*
X5956132Y6214778D01*
X5957010Y6215332D01*
X5957981Y6216072D01*
X5958489Y6216488D01*
X5958998Y6216996D01*
X5959506Y6217505D01*
X5959969Y6218106D01*
X5960431Y6218707D01*
X5960847Y6219400D01*
Y6219447D01*
X5960940Y6219585D01*
X5961032Y6219770D01*
X5961171Y6220094D01*
X5961356Y6220464D01*
X5961541Y6220880D01*
X5961725Y6221388D01*
X5961910Y6221989D01*
X5962095Y6222636D01*
X5962280Y6223330D01*
X5962465Y6224069D01*
X5962650Y6224901D01*
X5962789Y6225780D01*
X5962881Y6226704D01*
X5962927Y6227629D01*
X5962974Y6228646D01*
Y6229062D01*
X5962927Y6229524D01*
Y6230171D01*
X5962835Y6230957D01*
X5962742Y6231789D01*
X5962604Y6232760D01*
X5962465Y6233823D01*
X5962234Y6234887D01*
X5961957Y6235996D01*
X5961587Y6237106D01*
X5961217Y6238215D01*
X5960708Y6239278D01*
X5960154Y6240249D01*
X5959506Y6241174D01*
X5958767Y6241960D01*
X5958721Y6242006D01*
X5958582Y6242144D01*
X5958305Y6242329D01*
X5957935Y6242561D01*
X5957426Y6242884D01*
X5956779Y6243208D01*
X5956039Y6243578D01*
X5955115Y6243947D01*
X5954098Y6244317D01*
X5952942Y6244687D01*
X5951602Y6245011D01*
X5950122Y6245334D01*
X5948458Y6245565D01*
X5946655Y6245750D01*
X5944667Y6245889D01*
X5942495Y6245935D01*
X5905558D01*
Y6254395D01*
X5942541D01*
X5942587D01*
X5942633D01*
X5942772D01*
X5942957D01*
X5943188D01*
X5943465D01*
X5944113Y6254349D01*
D02*
G37*
G36*
X7526906Y9427153D02*
X7542208D01*
Y9419294D01*
X7526906D01*
Y9391558D01*
X7519695D01*
X7478228Y9420727D01*
Y9427153D01*
X7519695D01*
Y9435798D01*
X7526906D01*
Y9427153D01*
D02*
G37*
G36*
X7523023Y9363405D02*
X7515118D01*
Y9387628D01*
X7523023D01*
Y9363405D01*
D02*
G37*
G36*
X7542208Y9336361D02*
X7492189D01*
X7492235Y9336315D01*
X7492328Y9336223D01*
X7492466Y9336084D01*
X7492651Y9335853D01*
X7492882Y9335575D01*
X7493206Y9335206D01*
X7493530Y9334790D01*
X7493899Y9334374D01*
X7494269Y9333819D01*
X7494732Y9333264D01*
X7495148Y9332663D01*
X7495656Y9332016D01*
X7496118Y9331276D01*
X7496627Y9330537D01*
X7497644Y9328872D01*
X7497690Y9328826D01*
X7497783Y9328687D01*
X7497921Y9328410D01*
X7498060Y9328086D01*
X7498291Y9327717D01*
X7498568Y9327254D01*
X7498846Y9326700D01*
X7499169Y9326145D01*
X7499817Y9324851D01*
X7500464Y9323464D01*
X7501111Y9322031D01*
X7501666Y9320644D01*
X7494084D01*
X7494038Y9320736D01*
X7493946Y9320921D01*
X7493761Y9321291D01*
X7493530Y9321753D01*
X7493252Y9322308D01*
X7492882Y9323001D01*
X7492466Y9323741D01*
X7492004Y9324527D01*
X7491449Y9325405D01*
X7490895Y9326330D01*
X7489600Y9328271D01*
X7488167Y9330259D01*
X7486595Y9332155D01*
X7486549Y9332201D01*
X7486410Y9332386D01*
X7486179Y9332617D01*
X7485856Y9332940D01*
X7485440Y9333356D01*
X7484977Y9333819D01*
X7484423Y9334327D01*
X7483868Y9334882D01*
X7483221Y9335437D01*
X7482527Y9336038D01*
X7481094Y9337193D01*
X7479569Y9338257D01*
X7478783Y9338719D01*
X7477997Y9339135D01*
Y9344220D01*
X7542208D01*
Y9336361D01*
D02*
G37*
G36*
X7547154Y9305157D02*
X7547108Y9305065D01*
X7547015Y9304834D01*
X7546877Y9304464D01*
X7546692Y9303955D01*
X7546414Y9303355D01*
X7546091Y9302615D01*
X7545675Y9301783D01*
X7545259Y9300858D01*
X7544704Y9299841D01*
X7544149Y9298778D01*
X7543502Y9297622D01*
X7542809Y9296467D01*
X7542023Y9295218D01*
X7541191Y9293970D01*
X7540312Y9292722D01*
X7539342Y9291428D01*
X7539388Y9291335D01*
X7539526Y9291104D01*
X7539711Y9290734D01*
X7539943Y9290180D01*
X7540266Y9289532D01*
X7540590Y9288700D01*
X7540960Y9287822D01*
X7541283Y9286805D01*
X7541653Y9285695D01*
X7542023Y9284447D01*
X7542346Y9283153D01*
X7542670Y9281812D01*
X7542901Y9280333D01*
X7543086Y9278854D01*
X7543225Y9277328D01*
X7543271Y9275710D01*
Y9275340D01*
X7543225Y9274878D01*
Y9274231D01*
X7543132Y9273491D01*
X7543040Y9272567D01*
X7542901Y9271596D01*
X7542762Y9270486D01*
X7542531Y9269284D01*
X7542254Y9268036D01*
X7541930Y9266742D01*
X7541514Y9265401D01*
X7541052Y9264014D01*
X7540497Y9262674D01*
X7539850Y9261287D01*
X7539110Y9259946D01*
X7539064Y9259854D01*
X7538925Y9259623D01*
X7538648Y9259253D01*
X7538325Y9258791D01*
X7537908Y9258190D01*
X7537400Y9257496D01*
X7536753Y9256757D01*
X7536059Y9255925D01*
X7535273Y9255046D01*
X7534395Y9254168D01*
X7533424Y9253290D01*
X7532361Y9252365D01*
X7531205Y9251487D01*
X7530003Y9250608D01*
X7528709Y9249776D01*
X7527322Y9249037D01*
X7527230Y9248990D01*
X7526999Y9248898D01*
X7526536Y9248667D01*
X7525982Y9248436D01*
X7525288Y9248158D01*
X7524410Y9247835D01*
X7523439Y9247511D01*
X7522330Y9247141D01*
X7521128Y9246771D01*
X7519833Y9246448D01*
X7518400Y9246124D01*
X7516921Y9245847D01*
X7515349Y9245616D01*
X7513685Y9245431D01*
X7511975Y9245292D01*
X7510218Y9245246D01*
X7510172D01*
X7510125D01*
X7509987D01*
X7509802D01*
X7509571D01*
X7509293Y9245292D01*
X7508600D01*
X7507814Y9245385D01*
X7506843Y9245431D01*
X7505734Y9245570D01*
X7504532Y9245708D01*
X7503237Y9245939D01*
X7501851Y9246170D01*
X7500464Y9246494D01*
X7498984Y9246864D01*
X7497505Y9247326D01*
X7495980Y9247835D01*
X7494500Y9248389D01*
X7493021Y9249083D01*
X7492929Y9249129D01*
X7492697Y9249268D01*
X7492281Y9249499D01*
X7491727Y9249776D01*
X7491080Y9250192D01*
X7490340Y9250655D01*
X7489508Y9251256D01*
X7488629Y9251903D01*
X7487705Y9252642D01*
X7486734Y9253428D01*
X7485717Y9254307D01*
X7484746Y9255324D01*
X7483775Y9256341D01*
X7482851Y9257496D01*
X7481973Y9258698D01*
X7481187Y9259993D01*
X7481140Y9260085D01*
X7481002Y9260316D01*
X7480817Y9260686D01*
X7480540Y9261241D01*
X7480262Y9261934D01*
X7479892Y9262720D01*
X7479523Y9263598D01*
X7479153Y9264662D01*
X7478783Y9265771D01*
X7478413Y9266973D01*
X7478043Y9268314D01*
X7477766Y9269701D01*
X7477488Y9271134D01*
X7477304Y9272659D01*
X7477165Y9274231D01*
X7477119Y9275849D01*
Y9276265D01*
X7477165Y9276727D01*
Y9277328D01*
X7477257Y9278114D01*
X7477350Y9279039D01*
X7477488Y9280056D01*
X7477627Y9281165D01*
X7477858Y9282367D01*
X7478136Y9283661D01*
X7478505Y9285002D01*
X7478875Y9286343D01*
X7479384Y9287729D01*
X7479939Y9289116D01*
X7480586Y9290503D01*
X7481325Y9291844D01*
X7481372Y9291936D01*
X7481510Y9292167D01*
X7481741Y9292537D01*
X7482111Y9292999D01*
X7482527Y9293600D01*
X7483036Y9294294D01*
X7483683Y9295033D01*
X7484376Y9295866D01*
X7485162Y9296744D01*
X7486041Y9297622D01*
X7487011Y9298547D01*
X7488075Y9299425D01*
X7489230Y9300303D01*
X7490432Y9301182D01*
X7491727Y9301968D01*
X7493114Y9302707D01*
X7493206Y9302754D01*
X7493437Y9302892D01*
X7493853Y9303077D01*
X7494454Y9303308D01*
X7495148Y9303586D01*
X7496026Y9303909D01*
X7496997Y9304233D01*
X7498106Y9304603D01*
X7499308Y9304926D01*
X7500602Y9305250D01*
X7502036Y9305573D01*
X7503515Y9305851D01*
X7505087Y9306128D01*
X7506705Y9306313D01*
X7508415Y9306406D01*
X7510172Y9306452D01*
X7510264D01*
X7510541D01*
X7510958D01*
X7511512Y9306406D01*
X7512206Y9306359D01*
X7512992Y9306313D01*
X7513916Y9306267D01*
X7514933Y9306174D01*
X7515996Y9306036D01*
X7517106Y9305851D01*
X7518308Y9305666D01*
X7519510Y9305435D01*
X7520758Y9305157D01*
X7521960Y9304834D01*
X7523208Y9304464D01*
X7524410Y9304048D01*
X7524502Y9304002D01*
X7524687Y9303955D01*
X7525011Y9303817D01*
X7525473Y9303586D01*
X7526028Y9303355D01*
X7526629Y9303031D01*
X7527368Y9302661D01*
X7528108Y9302245D01*
X7528940Y9301737D01*
X7529819Y9301228D01*
X7530743Y9300627D01*
X7531668Y9299980D01*
X7532592Y9299286D01*
X7533517Y9298501D01*
X7534441Y9297668D01*
X7535320Y9296790D01*
X7535366Y9296836D01*
X7535505Y9297068D01*
X7535690Y9297345D01*
X7535967Y9297807D01*
X7536337Y9298316D01*
X7536707Y9298917D01*
X7537123Y9299610D01*
X7537585Y9300350D01*
X7538047Y9301182D01*
X7538556Y9302014D01*
X7539573Y9303863D01*
X7540497Y9305758D01*
X7540913Y9306729D01*
X7541283Y9307654D01*
X7547154Y9305157D01*
D02*
G37*
G36*
X9516370Y4955392D02*
X9497047Y4942818D01*
X9497000Y4942772D01*
X9496815Y4942679D01*
X9496492Y4942448D01*
X9496122Y4942217D01*
X9495613Y4941894D01*
X9495059Y4941524D01*
X9494412Y4941108D01*
X9493672Y4940645D01*
X9492886Y4940183D01*
X9492054Y4939675D01*
X9491129Y4939120D01*
X9490205Y4938565D01*
X9488263Y4937409D01*
X9486275Y4936300D01*
X9486322Y4936254D01*
X9486507Y4936161D01*
X9486784Y4936023D01*
X9487154Y4935791D01*
X9487616Y4935514D01*
X9488171Y4935144D01*
X9488818Y4934774D01*
X9489558Y4934312D01*
X9490343Y4933850D01*
X9491176Y4933295D01*
X9492100Y4932740D01*
X9493117Y4932139D01*
X9494134Y4931492D01*
X9495244Y4930799D01*
X9497509Y4929320D01*
X9516370Y4916930D01*
Y4907084D01*
X9479480Y4932602D01*
X9452390D01*
Y4941061D01*
X9479480D01*
X9516370Y4965701D01*
Y4955392D01*
D02*
G37*
G36*
X9453407Y4903571D02*
X9454147Y4903524D01*
X9454933Y4903432D01*
X9455857Y4903293D01*
X9456828Y4903062D01*
X9457799Y4902738D01*
X9457845D01*
X9457984Y4902646D01*
X9458215Y4902554D01*
X9458539Y4902415D01*
X9458955Y4902276D01*
X9459417Y4902045D01*
X9459925Y4901768D01*
X9460480Y4901490D01*
X9461127Y4901167D01*
X9461775Y4900751D01*
X9463208Y4899872D01*
X9464733Y4898809D01*
X9466305Y4897561D01*
X9466351Y4897515D01*
X9466490Y4897376D01*
X9466721Y4897191D01*
X9467045Y4896914D01*
X9467461Y4896544D01*
X9467923Y4896082D01*
X9468478Y4895573D01*
X9469079Y4894926D01*
X9469772Y4894233D01*
X9470512Y4893493D01*
X9471298Y4892661D01*
X9472176Y4891736D01*
X9473054Y4890719D01*
X9473979Y4889656D01*
X9474950Y4888500D01*
X9475967Y4887298D01*
X9476013Y4887252D01*
X9476059Y4887160D01*
X9476198Y4887021D01*
X9476336Y4886836D01*
X9476568Y4886605D01*
X9476799Y4886328D01*
X9477400Y4885634D01*
X9478093Y4884756D01*
X9478971Y4883831D01*
X9479896Y4882768D01*
X9480913Y4881659D01*
X9481976Y4880457D01*
X9483086Y4879301D01*
X9484195Y4878099D01*
X9485351Y4876989D01*
X9486460Y4875880D01*
X9487524Y4874909D01*
X9488587Y4873985D01*
X9489558Y4873245D01*
X9489604Y4873199D01*
X9489789Y4873106D01*
X9490066Y4872921D01*
X9490390Y4872644D01*
X9490852Y4872367D01*
X9491360Y4872089D01*
X9491961Y4871719D01*
X9492609Y4871396D01*
X9493302Y4871072D01*
X9494042Y4870702D01*
X9495660Y4870102D01*
X9496492Y4869870D01*
X9497324Y4869685D01*
X9498156Y4869593D01*
X9498988Y4869547D01*
X9499034D01*
X9499219D01*
X9499450D01*
X9499774Y4869593D01*
X9500190Y4869639D01*
X9500652Y4869732D01*
X9501161Y4869824D01*
X9501716Y4869963D01*
X9502317Y4870148D01*
X9502964Y4870379D01*
X9503611Y4870656D01*
X9504258Y4870980D01*
X9504952Y4871350D01*
X9505599Y4871812D01*
X9506246Y4872320D01*
X9506847Y4872921D01*
X9506893Y4872968D01*
X9506986Y4873060D01*
X9507124Y4873245D01*
X9507355Y4873522D01*
X9507587Y4873846D01*
X9507864Y4874262D01*
X9508187Y4874724D01*
X9508465Y4875233D01*
X9508788Y4875834D01*
X9509066Y4876481D01*
X9509343Y4877221D01*
X9509574Y4877960D01*
X9509805Y4878792D01*
X9509944Y4879671D01*
X9510037Y4880595D01*
X9510083Y4881566D01*
Y4882121D01*
X9510037Y4882491D01*
X9509990Y4882999D01*
X9509898Y4883554D01*
X9509805Y4884155D01*
X9509667Y4884848D01*
X9509482Y4885542D01*
X9509251Y4886281D01*
X9508973Y4887021D01*
X9508650Y4887807D01*
X9508234Y4888546D01*
X9507771Y4889286D01*
X9507263Y4890026D01*
X9506662Y4890673D01*
X9506616Y4890719D01*
X9506523Y4890812D01*
X9506292Y4890997D01*
X9506061Y4891181D01*
X9505691Y4891459D01*
X9505275Y4891736D01*
X9504767Y4892060D01*
X9504212Y4892337D01*
X9503611Y4892661D01*
X9502871Y4892984D01*
X9502132Y4893262D01*
X9501300Y4893539D01*
X9500375Y4893724D01*
X9499404Y4893909D01*
X9498387Y4894001D01*
X9497278Y4894048D01*
X9498110Y4902138D01*
X9498156D01*
X9498202D01*
X9498341Y4902091D01*
X9498526D01*
X9498988Y4902045D01*
X9499589Y4901906D01*
X9500329Y4901768D01*
X9501207Y4901583D01*
X9502178Y4901352D01*
X9503195Y4901074D01*
X9504304Y4900704D01*
X9505414Y4900288D01*
X9506570Y4899780D01*
X9507725Y4899179D01*
X9508835Y4898532D01*
X9509898Y4897746D01*
X9510915Y4896914D01*
X9511839Y4895943D01*
X9511886Y4895897D01*
X9512024Y4895712D01*
X9512302Y4895388D01*
X9512579Y4894972D01*
X9512949Y4894417D01*
X9513365Y4893770D01*
X9513781Y4892984D01*
X9514243Y4892106D01*
X9514659Y4891089D01*
X9515075Y4890026D01*
X9515492Y4888824D01*
X9515861Y4887529D01*
X9516185Y4886143D01*
X9516416Y4884663D01*
X9516555Y4883092D01*
X9516601Y4881427D01*
Y4881011D01*
X9516555Y4880549D01*
X9516509Y4879902D01*
X9516462Y4879116D01*
X9516324Y4878238D01*
X9516185Y4877221D01*
X9515954Y4876157D01*
X9515676Y4875002D01*
X9515353Y4873846D01*
X9514937Y4872598D01*
X9514428Y4871396D01*
X9513827Y4870194D01*
X9513180Y4869038D01*
X9512394Y4867929D01*
X9511470Y4866866D01*
X9511423Y4866819D01*
X9511239Y4866634D01*
X9510961Y4866357D01*
X9510545Y4866033D01*
X9510083Y4865617D01*
X9509482Y4865155D01*
X9508788Y4864647D01*
X9508003Y4864138D01*
X9507124Y4863676D01*
X9506153Y4863167D01*
X9505090Y4862705D01*
X9503981Y4862289D01*
X9502779Y4861965D01*
X9501531Y4861688D01*
X9500190Y4861503D01*
X9498803Y4861457D01*
X9498757D01*
X9498618D01*
X9498433D01*
X9498156D01*
X9497786Y4861503D01*
X9497416Y4861549D01*
X9496954Y4861596D01*
X9496446Y4861642D01*
X9495290Y4861827D01*
X9493995Y4862104D01*
X9492655Y4862520D01*
X9491268Y4863029D01*
X9491222D01*
X9491083Y4863121D01*
X9490898Y4863214D01*
X9490621Y4863352D01*
X9490297Y4863491D01*
X9489881Y4863722D01*
X9489419Y4863953D01*
X9488910Y4864277D01*
X9488356Y4864600D01*
X9487755Y4864970D01*
X9486414Y4865895D01*
X9485721Y4866403D01*
X9484981Y4866958D01*
X9484241Y4867605D01*
X9483456Y4868252D01*
X9483409Y4868299D01*
X9483271Y4868437D01*
X9483039Y4868622D01*
X9482716Y4868946D01*
X9482300Y4869362D01*
X9481791Y4869870D01*
X9481190Y4870425D01*
X9480497Y4871119D01*
X9479757Y4871904D01*
X9478925Y4872829D01*
X9478001Y4873800D01*
X9476984Y4874909D01*
X9475920Y4876111D01*
X9474765Y4877406D01*
X9473516Y4878839D01*
X9472222Y4880364D01*
X9472176Y4880457D01*
X9471945Y4880688D01*
X9471667Y4881011D01*
X9471251Y4881474D01*
X9470789Y4882075D01*
X9470234Y4882676D01*
X9469633Y4883369D01*
X9468986Y4884109D01*
X9467646Y4885680D01*
X9466952Y4886420D01*
X9466305Y4887160D01*
X9465658Y4887853D01*
X9465103Y4888454D01*
X9464594Y4889009D01*
X9464132Y4889425D01*
X9464040Y4889517D01*
X9463762Y4889748D01*
X9463346Y4890118D01*
X9462838Y4890581D01*
X9462191Y4891089D01*
X9461497Y4891644D01*
X9460711Y4892198D01*
X9459925Y4892707D01*
Y4861364D01*
X9452390D01*
Y4903617D01*
X9452437D01*
X9452529D01*
X9452668D01*
X9452853D01*
X9453130D01*
X9453407Y4903571D01*
D02*
G37*
G36*
X9479480Y4829652D02*
X9471575D01*
Y4853875D01*
X9479480D01*
Y4829652D01*
D02*
G37*
G36*
X9515538Y4781251D02*
X9509436D01*
X9509343Y4781298D01*
X9509158Y4781529D01*
X9508742Y4781852D01*
X9508234Y4782315D01*
X9507587Y4782869D01*
X9506801Y4783516D01*
X9505876Y4784256D01*
X9504813Y4785042D01*
X9503657Y4785920D01*
X9502363Y4786891D01*
X9500930Y4787908D01*
X9499404Y4788925D01*
X9497740Y4790035D01*
X9495983Y4791098D01*
X9494134Y4792254D01*
X9492146Y4793363D01*
X9492100D01*
X9492008Y4793409D01*
X9491869Y4793502D01*
X9491684Y4793640D01*
X9491407Y4793779D01*
X9491083Y4793918D01*
X9490713Y4794149D01*
X9490297Y4794334D01*
X9489835Y4794611D01*
X9489280Y4794842D01*
X9488125Y4795443D01*
X9486830Y4796090D01*
X9485351Y4796784D01*
X9483733Y4797524D01*
X9481976Y4798263D01*
X9480173Y4799049D01*
X9478232Y4799789D01*
X9476244Y4800575D01*
X9474210Y4801268D01*
X9472083Y4801961D01*
X9469957Y4802609D01*
X9469864Y4802655D01*
X9469587Y4802701D01*
X9469171Y4802840D01*
X9468570Y4802978D01*
X9467784Y4803163D01*
X9466906Y4803395D01*
X9465889Y4803626D01*
X9464733Y4803857D01*
X9463485Y4804134D01*
X9462144Y4804365D01*
X9460665Y4804643D01*
X9459140Y4804874D01*
X9457568Y4805105D01*
X9455904Y4805290D01*
X9454147Y4805475D01*
X9452390Y4805613D01*
Y4813703D01*
X9452483D01*
X9452714D01*
X9453176Y4813657D01*
X9453731D01*
X9454471Y4813611D01*
X9455349Y4813518D01*
X9456366Y4813426D01*
X9457475Y4813287D01*
X9458770Y4813149D01*
X9460157Y4812964D01*
X9461636Y4812733D01*
X9463254Y4812455D01*
X9464964Y4812085D01*
X9466767Y4811716D01*
X9468663Y4811299D01*
X9470604Y4810791D01*
X9470650D01*
X9470743Y4810745D01*
X9470881Y4810699D01*
X9471066Y4810652D01*
X9471344Y4810560D01*
X9471667Y4810467D01*
X9472037Y4810375D01*
X9472453Y4810236D01*
X9473378Y4809959D01*
X9474534Y4809589D01*
X9475782Y4809173D01*
X9477215Y4808711D01*
X9478740Y4808156D01*
X9480358Y4807555D01*
X9482069Y4806862D01*
X9483825Y4806168D01*
X9485628Y4805382D01*
X9487477Y4804504D01*
X9489373Y4803626D01*
X9491222Y4802655D01*
X9491268D01*
X9491314Y4802609D01*
X9491453Y4802516D01*
X9491684Y4802424D01*
X9491915Y4802285D01*
X9492193Y4802100D01*
X9492886Y4801730D01*
X9493718Y4801222D01*
X9494735Y4800667D01*
X9495845Y4799974D01*
X9497047Y4799234D01*
X9498341Y4798448D01*
X9499682Y4797570D01*
X9501068Y4796599D01*
X9502501Y4795628D01*
X9505321Y4793548D01*
X9506708Y4792438D01*
X9508003Y4791329D01*
Y4822672D01*
X9515538D01*
Y4781251D01*
D02*
G37*
G36*
X9397870Y4339292D02*
X9378547Y4326718D01*
X9378501Y4326672D01*
X9378316Y4326579D01*
X9377992Y4326348D01*
X9377623Y4326117D01*
X9377114Y4325793D01*
X9376559Y4325424D01*
X9375912Y4325008D01*
X9375173Y4324545D01*
X9374387Y4324083D01*
X9373555Y4323575D01*
X9372630Y4323020D01*
X9371705Y4322465D01*
X9369764Y4321309D01*
X9367776Y4320200D01*
X9367822Y4320154D01*
X9368007Y4320061D01*
X9368285Y4319923D01*
X9368654Y4319691D01*
X9369117Y4319414D01*
X9369671Y4319044D01*
X9370319Y4318674D01*
X9371058Y4318212D01*
X9371844Y4317750D01*
X9372676Y4317195D01*
X9373601Y4316640D01*
X9374618Y4316039D01*
X9375635Y4315392D01*
X9376744Y4314699D01*
X9379009Y4313219D01*
X9397870Y4300830D01*
Y4290984D01*
X9360981Y4316502D01*
X9333891D01*
Y4324961D01*
X9360981D01*
X9397870Y4349601D01*
Y4339292D01*
D02*
G37*
G36*
X9382060Y4280444D02*
X9382153Y4280259D01*
X9382338Y4279889D01*
X9382569Y4279427D01*
X9382846Y4278872D01*
X9383216Y4278179D01*
X9383632Y4277439D01*
X9384095Y4276653D01*
X9384649Y4275775D01*
X9385204Y4274850D01*
X9386498Y4272909D01*
X9387931Y4270921D01*
X9389503Y4269025D01*
X9389549Y4268979D01*
X9389688Y4268794D01*
X9389919Y4268563D01*
X9390243Y4268240D01*
X9390659Y4267824D01*
X9391121Y4267361D01*
X9391676Y4266853D01*
X9392231Y4266298D01*
X9392878Y4265743D01*
X9393571Y4265142D01*
X9395004Y4263987D01*
X9396530Y4262923D01*
X9397316Y4262461D01*
X9398102Y4262045D01*
Y4256960D01*
X9333891D01*
Y4264819D01*
X9383910D01*
X9383863Y4264865D01*
X9383771Y4264957D01*
X9383632Y4265096D01*
X9383447Y4265327D01*
X9383216Y4265605D01*
X9382893Y4265974D01*
X9382569Y4266391D01*
X9382199Y4266807D01*
X9381829Y4267361D01*
X9381367Y4267916D01*
X9380951Y4268517D01*
X9380443Y4269164D01*
X9379980Y4269904D01*
X9379472Y4270643D01*
X9378455Y4272308D01*
X9378408Y4272354D01*
X9378316Y4272493D01*
X9378177Y4272770D01*
X9378039Y4273094D01*
X9377808Y4273463D01*
X9377530Y4273926D01*
X9377253Y4274480D01*
X9376929Y4275035D01*
X9376282Y4276330D01*
X9375635Y4277716D01*
X9374988Y4279149D01*
X9374433Y4280536D01*
X9382014D01*
X9382060Y4280444D01*
D02*
G37*
G36*
X9360981Y4213552D02*
X9353076D01*
Y4237775D01*
X9360981D01*
Y4213552D01*
D02*
G37*
G36*
X9397038Y4165151D02*
X9390936D01*
X9390844Y4165197D01*
X9390659Y4165429D01*
X9390243Y4165752D01*
X9389734Y4166214D01*
X9389087Y4166769D01*
X9388301Y4167416D01*
X9387377Y4168156D01*
X9386313Y4168942D01*
X9385158Y4169820D01*
X9383863Y4170791D01*
X9382430Y4171808D01*
X9380905Y4172825D01*
X9379241Y4173935D01*
X9377484Y4174998D01*
X9375635Y4176153D01*
X9373647Y4177263D01*
X9373601D01*
X9373508Y4177309D01*
X9373370Y4177402D01*
X9373185Y4177540D01*
X9372907Y4177679D01*
X9372584Y4177818D01*
X9372214Y4178049D01*
X9371798Y4178234D01*
X9371336Y4178511D01*
X9370781Y4178742D01*
X9369625Y4179343D01*
X9368331Y4179990D01*
X9366851Y4180684D01*
X9365233Y4181423D01*
X9363477Y4182163D01*
X9361674Y4182949D01*
X9359732Y4183689D01*
X9357745Y4184474D01*
X9355711Y4185168D01*
X9353584Y4185861D01*
X9351458Y4186509D01*
X9351365Y4186555D01*
X9351088Y4186601D01*
X9350672Y4186740D01*
X9350071Y4186878D01*
X9349285Y4187063D01*
X9348406Y4187294D01*
X9347389Y4187526D01*
X9346234Y4187757D01*
X9344986Y4188034D01*
X9343645Y4188265D01*
X9342166Y4188543D01*
X9340640Y4188774D01*
X9339068Y4189005D01*
X9337404Y4189190D01*
X9335648Y4189375D01*
X9333891Y4189513D01*
Y4197603D01*
X9333983D01*
X9334215D01*
X9334677Y4197557D01*
X9335232D01*
X9335971Y4197511D01*
X9336849Y4197418D01*
X9337867Y4197326D01*
X9338976Y4197187D01*
X9340270Y4197049D01*
X9341657Y4196864D01*
X9343137Y4196632D01*
X9344754Y4196355D01*
X9346465Y4195985D01*
X9348268Y4195615D01*
X9350163Y4195199D01*
X9352105Y4194691D01*
X9352151D01*
X9352243Y4194645D01*
X9352382Y4194598D01*
X9352567Y4194552D01*
X9352844Y4194460D01*
X9353168Y4194367D01*
X9353538Y4194275D01*
X9353954Y4194136D01*
X9354878Y4193859D01*
X9356034Y4193489D01*
X9357282Y4193073D01*
X9358715Y4192611D01*
X9360241Y4192056D01*
X9361859Y4191455D01*
X9363569Y4190761D01*
X9365326Y4190068D01*
X9367129Y4189282D01*
X9368978Y4188404D01*
X9370873Y4187526D01*
X9372722Y4186555D01*
X9372769D01*
X9372815Y4186509D01*
X9372954Y4186416D01*
X9373185Y4186324D01*
X9373416Y4186185D01*
X9373693Y4186000D01*
X9374387Y4185630D01*
X9375219Y4185122D01*
X9376236Y4184567D01*
X9377345Y4183874D01*
X9378547Y4183134D01*
X9379842Y4182348D01*
X9381182Y4181470D01*
X9382569Y4180499D01*
X9384002Y4179528D01*
X9386822Y4177448D01*
X9388209Y4176338D01*
X9389503Y4175229D01*
Y4206571D01*
X9397038D01*
Y4165151D01*
D02*
G37*
%LPC*%
G36*
X11695930Y6350814D02*
X11695884D01*
X11695745D01*
X11695514D01*
X11695191Y6350768D01*
X11694821Y6350722D01*
X11694405Y6350675D01*
X11693943Y6350583D01*
X11693388Y6350444D01*
X11692278Y6350074D01*
X11691677Y6349843D01*
X11691030Y6349566D01*
X11690429Y6349196D01*
X11689828Y6348780D01*
X11689227Y6348318D01*
X11688673Y6347809D01*
X11688626Y6347763D01*
X11688534Y6347671D01*
X11688395Y6347486D01*
X11688210Y6347301D01*
X11687979Y6346977D01*
X11687748Y6346654D01*
X11687471Y6346237D01*
X11687193Y6345775D01*
X11686916Y6345267D01*
X11686639Y6344712D01*
X11686407Y6344111D01*
X11686176Y6343464D01*
X11685991Y6342724D01*
X11685853Y6341985D01*
X11685760Y6341245D01*
X11685714Y6340413D01*
Y6339997D01*
X11685760Y6339673D01*
X11685806Y6339303D01*
X11685853Y6338841D01*
X11685945Y6338333D01*
X11686084Y6337824D01*
X11686407Y6336622D01*
X11686639Y6336021D01*
X11686962Y6335374D01*
X11687286Y6334773D01*
X11687656Y6334126D01*
X11688118Y6333525D01*
X11688626Y6332970D01*
X11688673Y6332924D01*
X11688765Y6332831D01*
X11688904Y6332693D01*
X11689135Y6332508D01*
X11689412Y6332277D01*
X11689736Y6332046D01*
X11690106Y6331768D01*
X11690568Y6331537D01*
X11691030Y6331260D01*
X11691539Y6330982D01*
X11692741Y6330520D01*
X11693342Y6330335D01*
X11694035Y6330196D01*
X11694728Y6330104D01*
X11695468Y6330058D01*
X11695514D01*
X11695653D01*
X11695884D01*
X11696208Y6330104D01*
X11696624Y6330150D01*
X11697040Y6330196D01*
X11697548Y6330289D01*
X11698103Y6330428D01*
X11699259Y6330751D01*
X11699860Y6330982D01*
X11700507Y6331260D01*
X11701108Y6331583D01*
X11701709Y6331999D01*
X11702310Y6332415D01*
X11702865Y6332924D01*
X11702911Y6332970D01*
X11703003Y6333063D01*
X11703142Y6333247D01*
X11703327Y6333432D01*
X11703512Y6333756D01*
X11703789Y6334080D01*
X11704020Y6334496D01*
X11704298Y6334958D01*
X11704575Y6335466D01*
X11704806Y6336067D01*
X11705084Y6336668D01*
X11705268Y6337362D01*
X11705453Y6338055D01*
X11705592Y6338841D01*
X11705684Y6339673D01*
X11705731Y6340505D01*
Y6340921D01*
X11705684Y6341245D01*
X11705638Y6341661D01*
X11705592Y6342077D01*
X11705500Y6342585D01*
X11705361Y6343140D01*
X11705037Y6344296D01*
X11704806Y6344897D01*
X11704529Y6345544D01*
X11704205Y6346145D01*
X11703835Y6346746D01*
X11703419Y6347347D01*
X11702911Y6347902D01*
X11702865Y6347948D01*
X11702772Y6348040D01*
X11702633Y6348179D01*
X11702402Y6348364D01*
X11702125Y6348595D01*
X11701801Y6348826D01*
X11701385Y6349104D01*
X11700969Y6349381D01*
X11700461Y6349612D01*
X11699952Y6349890D01*
X11698750Y6350352D01*
X11698103Y6350537D01*
X11697410Y6350675D01*
X11696670Y6350768D01*
X11695930Y6350814D01*
D02*
G37*
G36*
X11725239Y6353449D02*
X11725193D01*
X11725008D01*
X11724684Y6353403D01*
X11724314D01*
X11723806Y6353357D01*
X11723251Y6353264D01*
X11722650Y6353125D01*
X11721957Y6352987D01*
X11721217Y6352756D01*
X11720477Y6352525D01*
X11719692Y6352201D01*
X11718906Y6351831D01*
X11718120Y6351415D01*
X11717380Y6350907D01*
X11716594Y6350306D01*
X11715901Y6349658D01*
X11715855Y6349612D01*
X11715716Y6349473D01*
X11715531Y6349289D01*
X11715300Y6348965D01*
X11715023Y6348595D01*
X11714699Y6348179D01*
X11714375Y6347671D01*
X11714006Y6347070D01*
X11713682Y6346422D01*
X11713358Y6345729D01*
X11713035Y6344943D01*
X11712757Y6344111D01*
X11712480Y6343233D01*
X11712295Y6342262D01*
X11712203Y6341291D01*
X11712156Y6340228D01*
Y6339673D01*
X11712203Y6339303D01*
X11712249Y6338841D01*
X11712341Y6338286D01*
X11712480Y6337685D01*
X11712619Y6336992D01*
X11712804Y6336298D01*
X11713035Y6335559D01*
X11713358Y6334819D01*
X11713728Y6334033D01*
X11714144Y6333247D01*
X11714653Y6332508D01*
X11715207Y6331768D01*
X11715855Y6331075D01*
X11715901Y6331028D01*
X11716040Y6330936D01*
X11716224Y6330751D01*
X11716502Y6330520D01*
X11716872Y6330243D01*
X11717288Y6329919D01*
X11717796Y6329595D01*
X11718351Y6329272D01*
X11718998Y6328948D01*
X11719692Y6328625D01*
X11720431Y6328301D01*
X11721263Y6328024D01*
X11722142Y6327793D01*
X11723020Y6327608D01*
X11723991Y6327515D01*
X11725008Y6327469D01*
X11725054D01*
X11725146D01*
X11725331D01*
X11725563Y6327515D01*
X11725886D01*
X11726210Y6327561D01*
X11726626Y6327608D01*
X11727042Y6327654D01*
X11728059Y6327839D01*
X11729122Y6328116D01*
X11730278Y6328532D01*
X11731480Y6329041D01*
X11731526D01*
X11731618Y6329133D01*
X11731757Y6329226D01*
X11731988Y6329318D01*
X11732266Y6329503D01*
X11732543Y6329688D01*
X11733283Y6330243D01*
X11734022Y6330890D01*
X11734854Y6331676D01*
X11735640Y6332646D01*
X11736334Y6333756D01*
Y6333802D01*
X11736426Y6333895D01*
X11736472Y6334080D01*
X11736611Y6334311D01*
X11736750Y6334588D01*
X11736888Y6334958D01*
X11737027Y6335328D01*
X11737166Y6335790D01*
X11737489Y6336807D01*
X11737767Y6337916D01*
X11737952Y6339165D01*
X11738044Y6340505D01*
Y6340736D01*
X11737998Y6341060D01*
Y6341430D01*
X11737952Y6341938D01*
X11737859Y6342493D01*
X11737720Y6343094D01*
X11737582Y6343787D01*
X11737397Y6344481D01*
X11737166Y6345267D01*
X11736888Y6346006D01*
X11736519Y6346792D01*
X11736103Y6347578D01*
X11735640Y6348364D01*
X11735085Y6349104D01*
X11734438Y6349797D01*
X11734392Y6349843D01*
X11734253Y6349936D01*
X11734068Y6350121D01*
X11733791Y6350352D01*
X11733421Y6350629D01*
X11733005Y6350953D01*
X11732497Y6351276D01*
X11731942Y6351646D01*
X11731295Y6351970D01*
X11730601Y6352293D01*
X11729862Y6352617D01*
X11729030Y6352894D01*
X11728151Y6353125D01*
X11727227Y6353310D01*
X11726256Y6353403D01*
X11725239Y6353449D01*
D02*
G37*
G36*
X7908315Y4059894D02*
X7879468D01*
X7908315Y4039831D01*
Y4059894D01*
D02*
G37*
G36*
X7898838Y3938315D02*
X7898745D01*
X7898514D01*
X7898098D01*
X7897544Y3938268D01*
X7896850Y3938222D01*
X7896064Y3938176D01*
X7895186Y3938084D01*
X7894215Y3937991D01*
X7893198Y3937852D01*
X7892135Y3937668D01*
X7890979Y3937436D01*
X7889823Y3937205D01*
X7888668Y3936882D01*
X7887512Y3936512D01*
X7886403Y3936096D01*
X7885293Y3935633D01*
X7885247Y3935587D01*
X7885016Y3935495D01*
X7884738Y3935356D01*
X7884322Y3935125D01*
X7883860Y3934848D01*
X7883259Y3934524D01*
X7882658Y3934154D01*
X7881965Y3933692D01*
X7881271Y3933183D01*
X7880532Y3932582D01*
X7879792Y3931981D01*
X7879052Y3931288D01*
X7878313Y3930502D01*
X7877573Y3929716D01*
X7876926Y3928838D01*
X7876279Y3927913D01*
X7876232Y3927867D01*
X7876140Y3927682D01*
X7876001Y3927405D01*
X7875770Y3927035D01*
X7875539Y3926527D01*
X7875262Y3925972D01*
X7874938Y3925325D01*
X7874661Y3924585D01*
X7874337Y3923753D01*
X7874060Y3922875D01*
X7873782Y3921950D01*
X7873551Y3920933D01*
X7873320Y3919916D01*
X7873181Y3918806D01*
X7873089Y3917651D01*
X7873043Y3916495D01*
Y3916079D01*
X7873089Y3915571D01*
X7873135Y3914923D01*
X7873228Y3914137D01*
X7873366Y3913167D01*
X7873597Y3912150D01*
X7873829Y3910994D01*
X7874198Y3909792D01*
X7874614Y3908544D01*
X7875123Y3907203D01*
X7875770Y3905909D01*
X7876510Y3904568D01*
X7877388Y3903274D01*
X7878359Y3902026D01*
X7879515Y3900824D01*
X7879607Y3900778D01*
X7879838Y3900546D01*
X7880208Y3900269D01*
X7880717Y3899853D01*
X7881410Y3899391D01*
X7882242Y3898836D01*
X7883213Y3898281D01*
X7884369Y3897727D01*
X7885663Y3897126D01*
X7887096Y3896571D01*
X7888668Y3896016D01*
X7890378Y3895554D01*
X7892274Y3895138D01*
X7894308Y3894860D01*
X7896480Y3894675D01*
X7898838Y3894583D01*
X7898884D01*
X7898977D01*
X7899161D01*
X7899393D01*
X7899670Y3894629D01*
X7900040D01*
X7900456D01*
X7900872Y3894675D01*
X7901380Y3894722D01*
X7901935Y3894768D01*
X7903137Y3894907D01*
X7904478Y3895092D01*
X7905911Y3895369D01*
X7907436Y3895692D01*
X7909008Y3896109D01*
X7910580Y3896571D01*
X7912198Y3897172D01*
X7913723Y3897865D01*
X7915249Y3898697D01*
X7916682Y3899668D01*
X7917976Y3900731D01*
X7918069Y3900824D01*
X7918254Y3901009D01*
X7918577Y3901379D01*
X7918993Y3901841D01*
X7919502Y3902442D01*
X7920103Y3903181D01*
X7920704Y3904060D01*
X7921305Y3905031D01*
X7921906Y3906094D01*
X7922507Y3907296D01*
X7923108Y3908590D01*
X7923570Y3909977D01*
X7924032Y3911502D01*
X7924356Y3913074D01*
X7924541Y3914738D01*
X7924633Y3916495D01*
Y3916957D01*
X7924587Y3917281D01*
Y3917697D01*
X7924541Y3918159D01*
X7924494Y3918714D01*
X7924402Y3919269D01*
X7924356Y3919916D01*
X7924217Y3920609D01*
X7923940Y3922042D01*
X7923524Y3923522D01*
X7922969Y3925047D01*
X7922923Y3925001D01*
X7922876Y3924862D01*
X7922738Y3924677D01*
X7922553Y3924354D01*
X7922322Y3923984D01*
X7922091Y3923568D01*
X7921813Y3923059D01*
X7921536Y3922551D01*
X7921258Y3921950D01*
X7920935Y3921257D01*
X7920334Y3919870D01*
X7919779Y3918298D01*
X7919317Y3916680D01*
X7913122Y3918760D01*
Y3918853D01*
X7913215Y3919084D01*
X7913353Y3919454D01*
X7913492Y3919962D01*
X7913723Y3920609D01*
X7914001Y3921303D01*
X7914324Y3922135D01*
X7914648Y3923013D01*
X7915064Y3923938D01*
X7915526Y3924909D01*
X7916035Y3925926D01*
X7916589Y3926943D01*
X7917190Y3927960D01*
X7917838Y3928930D01*
X7918531Y3929901D01*
X7919271Y3930826D01*
X7919178Y3930918D01*
X7918947Y3931149D01*
X7918531Y3931519D01*
X7917976Y3931981D01*
X7917283Y3932582D01*
X7916405Y3933183D01*
X7915341Y3933877D01*
X7914186Y3934570D01*
X7912799Y3935264D01*
X7911273Y3935957D01*
X7909609Y3936558D01*
X7907760Y3937159D01*
X7905772Y3937621D01*
X7903646Y3937991D01*
X7901334Y3938222D01*
X7898838Y3938315D01*
D02*
G37*
G36*
X5947025Y6369965D02*
X5918179D01*
X5947025Y6349902D01*
Y6369965D01*
D02*
G37*
G36*
X7519695Y9419294D02*
X7490848D01*
X7519695Y9399231D01*
Y9419294D01*
D02*
G37*
G36*
X7510218Y9297715D02*
X7510125D01*
X7509894D01*
X7509478D01*
X7508924Y9297668D01*
X7508230Y9297622D01*
X7507444Y9297576D01*
X7506566Y9297484D01*
X7505595Y9297391D01*
X7504578Y9297252D01*
X7503515Y9297068D01*
X7502359Y9296836D01*
X7501203Y9296605D01*
X7500048Y9296282D01*
X7498892Y9295912D01*
X7497783Y9295496D01*
X7496673Y9295033D01*
X7496627Y9294987D01*
X7496396Y9294895D01*
X7496118Y9294756D01*
X7495702Y9294525D01*
X7495240Y9294248D01*
X7494639Y9293924D01*
X7494038Y9293554D01*
X7493345Y9293092D01*
X7492651Y9292583D01*
X7491912Y9291982D01*
X7491172Y9291381D01*
X7490432Y9290688D01*
X7489693Y9289902D01*
X7488953Y9289116D01*
X7488306Y9288238D01*
X7487659Y9287313D01*
X7487612Y9287267D01*
X7487520Y9287082D01*
X7487381Y9286805D01*
X7487150Y9286435D01*
X7486919Y9285927D01*
X7486642Y9285372D01*
X7486318Y9284725D01*
X7486041Y9283985D01*
X7485717Y9283153D01*
X7485440Y9282275D01*
X7485162Y9281350D01*
X7484931Y9280333D01*
X7484700Y9279316D01*
X7484561Y9278206D01*
X7484469Y9277051D01*
X7484423Y9275895D01*
Y9275479D01*
X7484469Y9274971D01*
X7484515Y9274323D01*
X7484608Y9273537D01*
X7484746Y9272567D01*
X7484977Y9271550D01*
X7485209Y9270394D01*
X7485578Y9269192D01*
X7485994Y9267944D01*
X7486503Y9266603D01*
X7487150Y9265309D01*
X7487890Y9263968D01*
X7488768Y9262674D01*
X7489739Y9261426D01*
X7490895Y9260224D01*
X7490987Y9260178D01*
X7491218Y9259946D01*
X7491588Y9259669D01*
X7492097Y9259253D01*
X7492790Y9258791D01*
X7493622Y9258236D01*
X7494593Y9257681D01*
X7495749Y9257127D01*
X7497043Y9256526D01*
X7498476Y9255971D01*
X7500048Y9255416D01*
X7501758Y9254954D01*
X7503654Y9254538D01*
X7505688Y9254260D01*
X7507860Y9254075D01*
X7510218Y9253983D01*
X7510264D01*
X7510357D01*
X7510541D01*
X7510773D01*
X7511050Y9254029D01*
X7511420D01*
X7511836D01*
X7512252Y9254075D01*
X7512760Y9254122D01*
X7513315Y9254168D01*
X7514517Y9254307D01*
X7515858Y9254492D01*
X7517291Y9254769D01*
X7518816Y9255092D01*
X7520388Y9255509D01*
X7521960Y9255971D01*
X7523578Y9256572D01*
X7525103Y9257265D01*
X7526629Y9258097D01*
X7528062Y9259068D01*
X7529356Y9260131D01*
X7529449Y9260224D01*
X7529634Y9260409D01*
X7529957Y9260779D01*
X7530373Y9261241D01*
X7530882Y9261842D01*
X7531483Y9262581D01*
X7532084Y9263460D01*
X7532685Y9264431D01*
X7533286Y9265494D01*
X7533887Y9266696D01*
X7534488Y9267990D01*
X7534950Y9269377D01*
X7535412Y9270902D01*
X7535736Y9272474D01*
X7535921Y9274138D01*
X7536013Y9275895D01*
Y9276357D01*
X7535967Y9276681D01*
Y9277097D01*
X7535921Y9277559D01*
X7535874Y9278114D01*
X7535782Y9278669D01*
X7535736Y9279316D01*
X7535597Y9280009D01*
X7535320Y9281442D01*
X7534904Y9282922D01*
X7534349Y9284447D01*
X7534303Y9284401D01*
X7534256Y9284262D01*
X7534118Y9284077D01*
X7533933Y9283754D01*
X7533702Y9283384D01*
X7533471Y9282968D01*
X7533193Y9282459D01*
X7532916Y9281951D01*
X7532638Y9281350D01*
X7532315Y9280657D01*
X7531714Y9279270D01*
X7531159Y9277698D01*
X7530697Y9276080D01*
X7524502Y9278160D01*
Y9278253D01*
X7524595Y9278484D01*
X7524733Y9278854D01*
X7524872Y9279362D01*
X7525103Y9280009D01*
X7525381Y9280703D01*
X7525704Y9281535D01*
X7526028Y9282413D01*
X7526444Y9283338D01*
X7526906Y9284309D01*
X7527415Y9285326D01*
X7527969Y9286343D01*
X7528570Y9287360D01*
X7529218Y9288330D01*
X7529911Y9289301D01*
X7530651Y9290226D01*
X7530558Y9290318D01*
X7530327Y9290549D01*
X7529911Y9290919D01*
X7529356Y9291381D01*
X7528663Y9291982D01*
X7527785Y9292583D01*
X7526721Y9293277D01*
X7525566Y9293970D01*
X7524179Y9294664D01*
X7522653Y9295357D01*
X7520989Y9295958D01*
X7519140Y9296559D01*
X7517152Y9297021D01*
X7515026Y9297391D01*
X7512714Y9297622D01*
X7510218Y9297715D01*
D02*
G37*
%LPD*%
D93*
X11615692Y6043193D02*
X11835692D01*
Y6314406D01*
X11615692D02*
X11835692D01*
X11615692Y6043193D02*
Y6314406D01*
X3981193Y10039747D02*
X4452407D01*
X3981193D02*
Y10510960D01*
X4452407D01*
Y10039747D02*
Y10510960D01*
X7750773Y3705847D02*
Y4065847D01*
X8120773D01*
Y3705847D02*
Y4065847D01*
X7750773Y3705847D02*
X8120773D01*
X5655600Y5904100D02*
Y6504100D01*
X6285600D01*
Y5904100D02*
Y6504100D01*
X5655600Y5904100D02*
X6285600D01*
X7362153Y9065247D02*
Y9425247D01*
X7732153D01*
Y9065247D02*
Y9425247D01*
X7362153Y9065247D02*
X7732153D01*
X9347392Y5155700D02*
X9557392D01*
X9347392Y4775700D02*
Y5155700D01*
Y4775700D02*
X9557392D01*
Y5155700D01*
X9228892Y4474600D02*
X9438892D01*
X9228892Y4224600D02*
Y4474600D01*
Y4224600D02*
X9438892D01*
Y4474600D01*
%TF.MD5,5a260b510494262778c985d364fc3d10*%
M02*
