%TF.GenerationSoftware,Altium Limited,Altium Designer,24.4.1 (13)*%
G04 Layer_Color=16711935*
%FSLAX45Y45*%
%MOMM*%
%TF.SameCoordinates,7BA59CB3-8EBC-4C6A-B4C6-80429C3BB8AE*%
%TF.FilePolarity,Positive*%
%TF.FileFunction,Other,Mechanical_13*%
%TF.Part,Single*%
G01*
G75*
%TA.AperFunction,NonConductor*%
%ADD93C,0.20000*%
%ADD96C,0.12700*%
%ADD99C,0.07620*%
%ADD100C,0.10000*%
%ADD168C,0.00000*%
%ADD169C,0.02540*%
D93*
X3403480Y9898220D02*
G03*
X3403480Y9898220I-10000J0D01*
G01*
X8606400Y6527800D02*
G03*
X8606400Y6527800I-10000J0D01*
G01*
X11988880Y4057800D02*
G03*
X11988880Y4057800I-10000J0D01*
G01*
X9266400Y7922800D02*
G03*
X9266400Y7922800I-10000J0D01*
G01*
X6695280Y7442200D02*
G03*
X6695280Y7442200I-10000J0D01*
G01*
X10481592Y5833100D02*
G03*
X10481592Y5833100I-10000J0D01*
G01*
X6696400Y8407400D02*
G03*
X6696400Y8407400I-10000J0D01*
G01*
X6695280Y6959600D02*
G03*
X6695280Y6959600I-10000J0D01*
G01*
X6696400Y7924800D02*
G03*
X6696400Y7924800I-10000J0D01*
G01*
X12021800Y10051800D02*
G03*
X12021800Y10051800I-10000J0D01*
G01*
X8798400Y6275300D02*
G03*
X8798400Y6275300I-10000J0D01*
G01*
X11022400Y10566400D02*
G03*
X11022400Y10566400I-10000J0D01*
G01*
X12140000Y7594600D02*
G03*
X12140000Y7594600I-10000J0D01*
G01*
X3934600Y6430200D02*
G03*
X3934600Y6430200I-10000J0D01*
G01*
D96*
X11874380Y3994300D02*
X12444380D01*
Y3954300D02*
Y3994300D01*
Y3594300D02*
Y3954300D01*
X11874380Y3594300D02*
X12444380D01*
X11874380D02*
Y3954300D01*
Y3994300D01*
Y3954300D02*
X12444380D01*
X9289400Y7427800D02*
Y7827800D01*
X8839400Y7427800D02*
X9289400D01*
X8839400D02*
Y7827800D01*
X9289400D01*
X6828280Y7227200D02*
Y7657200D01*
X7558280Y7227200D02*
Y7657200D01*
X6828280D02*
X7558280D01*
X6828280Y7227200D02*
X7558280D01*
X10521592Y5653100D02*
Y5853100D01*
Y5653100D02*
X10821592D01*
Y5853100D01*
X10521592D02*
X10821592D01*
X5571400Y5085800D02*
Y5175800D01*
X5401400Y5085800D02*
Y5175800D01*
Y5085800D02*
X5571400D01*
X5401400Y5175800D02*
X5571400D01*
X5545400Y6912200D02*
X5681400D01*
X5545400Y6702200D02*
X5681400D01*
Y6912200D01*
X5545400Y6702200D02*
Y6912200D01*
X5751600Y6919900D02*
X5881600D01*
X5751600Y6719900D02*
Y6919900D01*
Y6719900D02*
X5881600D01*
Y6919900D01*
X6104800Y4908000D02*
Y4998000D01*
X5934800Y4908000D02*
Y4998000D01*
Y4908000D02*
X6104800D01*
X5934800Y4998000D02*
X6104800D01*
X6051000Y4537800D02*
X6141000D01*
X6051000Y4707800D02*
X6141000D01*
X6051000Y4537800D02*
Y4707800D01*
X6141000Y4537800D02*
Y4707800D01*
X6829400Y8192400D02*
Y8622400D01*
X7559400Y8192400D02*
Y8622400D01*
X6829400D02*
X7559400D01*
X6829400Y8192400D02*
X7559400D01*
X6828280Y6744600D02*
X7558280D01*
X6828280Y7174600D02*
X7558280D01*
Y6744600D02*
Y7174600D01*
X6828280Y6744600D02*
Y7174600D01*
X6829400Y7709800D02*
X7559400D01*
X6829400Y8139800D02*
X7559400D01*
Y7709800D02*
Y8139800D01*
X6829400Y7709800D02*
Y8139800D01*
X6179520Y3579200D02*
Y3939200D01*
X6459520Y3579200D02*
Y3939200D01*
X6179520Y3579200D02*
X6459520D01*
X6179520Y3939200D02*
X6459520D01*
X6535120Y3579200D02*
Y3939200D01*
X6815120Y3579200D02*
Y3939200D01*
X6535120Y3579200D02*
X6815120D01*
X6535120Y3939200D02*
X6815120D01*
X6890720Y3579200D02*
Y3939200D01*
X7170720Y3579200D02*
Y3939200D01*
X6890720Y3579200D02*
X7170720D01*
X6890720Y3939200D02*
X7170720D01*
X7546500Y4467700D02*
Y5717700D01*
X6296500Y4467700D02*
X7546500D01*
X6296500D02*
Y5717700D01*
X7546500D01*
X12160800Y8131800D02*
Y9931800D01*
X12760800D01*
X10210800D02*
X12160800D01*
X10210800Y8131800D02*
Y9931800D01*
Y8131800D02*
X12160800D01*
X12760800D01*
Y9931800D01*
X6173480Y9432920D02*
X6333480D01*
X6173480Y9352920D02*
X6333480D01*
X6173480D02*
Y9432920D01*
X6333480Y9352920D02*
Y9432920D01*
X6163480Y9176820D02*
Y9278820D01*
X6343480Y9176820D02*
Y9278820D01*
X6163480D02*
X6343480D01*
X6163480Y9176820D02*
X6343480D01*
X6165480Y9014720D02*
Y9110720D01*
X6341480Y9014720D02*
Y9110720D01*
X6165480D02*
X6341480D01*
X6165480Y9014720D02*
X6341480D01*
X5990580Y8298820D02*
Y8378820D01*
X5830580Y8298820D02*
Y8378820D01*
Y8298820D02*
X5990580D01*
X5830580Y8378820D02*
X5990580D01*
X6178180Y8290820D02*
Y8386820D01*
X6354180Y8290820D02*
Y8386820D01*
X6178180D02*
X6354180D01*
X6178180Y8290820D02*
X6354180D01*
X4100200Y8835400D02*
Y8995400D01*
X4180200Y8835400D02*
Y8995400D01*
X4100200Y8835400D02*
X4180200D01*
X4100200Y8995400D02*
X4180200D01*
X5159000Y8878200D02*
X5255000D01*
X5159000Y9054200D02*
X5255000D01*
X5159000Y8878200D02*
Y9054200D01*
X5255000Y8878200D02*
Y9054200D01*
X5167000Y8614400D02*
X5247000D01*
X5167000Y8454400D02*
X5247000D01*
Y8614400D01*
X5167000Y8454400D02*
Y8614400D01*
X4447800Y8826100D02*
X4543800D01*
X4447800Y9002100D02*
X4543800D01*
X4447800Y8826100D02*
Y9002100D01*
X4543800Y8826100D02*
Y9002100D01*
X4267000Y8825400D02*
X4369000D01*
X4267000Y9005400D02*
X4369000D01*
X4267000Y8825400D02*
Y9005400D01*
X4369000Y8825400D02*
Y9005400D01*
X3546100Y9221100D02*
Y9397100D01*
X3642100Y9221100D02*
Y9397100D01*
X3546100Y9221100D02*
X3642100D01*
X3546100Y9397100D02*
X3642100D01*
X3732300Y9183700D02*
Y9383700D01*
X3862300D01*
Y9183700D02*
Y9383700D01*
X3732300Y9183700D02*
X3862300D01*
X3569600Y10208000D02*
X3745600D01*
X3569600Y10112000D02*
X3745600D01*
X3569600D02*
Y10208000D01*
X3745600Y10112000D02*
Y10208000D01*
X4674500Y10061200D02*
X4850500D01*
X4674500Y10157200D02*
X4850500D01*
Y10061200D02*
Y10157200D01*
X4674500Y10061200D02*
Y10157200D01*
X4113160Y9989560D02*
X4289160D01*
X4113160Y9893560D02*
X4289160D01*
X4113160D02*
Y9989560D01*
X4289160Y9893560D02*
Y9989560D01*
X4522100Y9896100D02*
X4698100D01*
X4522100Y9992100D02*
X4698100D01*
Y9896100D02*
Y9992100D01*
X4522100Y9896100D02*
Y9992100D01*
X4072100Y6250000D02*
Y6450000D01*
X4197100D01*
Y6250000D02*
Y6450000D01*
X4072100Y6250000D02*
X4197100D01*
X1505600Y8522400D02*
X3499600D01*
Y7022400D02*
Y8522400D01*
X1505600Y7022400D02*
X3499600D01*
X1505600D02*
Y8522400D01*
X2855600Y6922700D02*
X2935600D01*
X2895600Y6992700D02*
X2935600Y6922700D01*
X2855600D02*
X2895600Y6992700D01*
X1505600Y6578400D02*
X3499600D01*
Y5078400D02*
Y6578400D01*
X1505600Y5078400D02*
X3499600D01*
X1505600D02*
Y6578400D01*
X2855600Y4978700D02*
X2935600D01*
X2895600Y5048700D02*
X2935600Y4978700D01*
X2855600D02*
X2895600Y5048700D01*
X1505600Y4597200D02*
X3499600D01*
Y3097200D02*
Y4597200D01*
X1505600Y3097200D02*
X3499600D01*
X1505600D02*
Y4597200D01*
X2855600Y2997500D02*
X2935600D01*
X2895600Y3067500D02*
X2935600Y2997500D01*
X2855600D02*
X2895600Y3067500D01*
D99*
X10117872Y5235299D02*
X10202511Y5150660D01*
X10117872D02*
X10202511Y5235299D01*
X10117872Y5192979D02*
X10202511D01*
X10160192Y5150660D02*
Y5235299D01*
D100*
X2546700Y8735800D02*
Y9128800D01*
Y10022800D02*
X3281700D01*
X2546700Y9128800D02*
Y10022800D01*
Y9128800D02*
X3281700D01*
Y10022800D01*
X8661400Y6400800D02*
Y6654800D01*
X10439400D01*
Y6400800D02*
Y6654800D01*
X8661400Y6400800D02*
X10439400D01*
X8661400D02*
Y6654800D01*
X10439400D01*
Y6400800D02*
Y6654800D01*
X9381400Y3231600D02*
Y3321600D01*
X9211400Y3231600D02*
Y3321600D01*
Y3231600D02*
X9381400D01*
X9211400Y3321600D02*
X9381400D01*
X5060400Y3691800D02*
X5150400D01*
X5060400Y3521800D02*
X5150400D01*
Y3691800D01*
X5060400Y3521800D02*
Y3691800D01*
X8746400Y8311600D02*
Y8401600D01*
X8576400Y8311600D02*
Y8401600D01*
Y8311600D02*
X8746400D01*
X8576400Y8401600D02*
X8746400D01*
X11813192Y5699000D02*
Y5795000D01*
X11638192Y5699000D02*
Y5795000D01*
Y5699000D02*
X11813192D01*
X11638192Y5795000D02*
X11813192D01*
Y5851400D02*
Y5947400D01*
X11638192Y5851400D02*
Y5947400D01*
Y5851400D02*
X11813192D01*
X11638192Y5947400D02*
X11813192D01*
X10609492Y5921000D02*
Y6017000D01*
X10784492Y5921000D02*
Y6017000D01*
X10609492D02*
X10784492D01*
X10609492Y5921000D02*
X10784492D01*
X6098600Y10347900D02*
Y10657900D01*
X5788600Y10347900D02*
Y10657900D01*
Y10347900D02*
X6098600D01*
X5788600Y10657900D02*
X6098600D01*
X8197300Y4004400D02*
Y4174400D01*
X8287300Y4004400D02*
Y4174400D01*
X8197300Y4004400D02*
X8287300D01*
X8197300Y4174400D02*
X8287300D01*
X5746200Y5376000D02*
Y5546000D01*
X5836200Y5376000D02*
Y5546000D01*
X5746200Y5376000D02*
X5836200D01*
X5746200Y5546000D02*
X5836200D01*
X5658400Y5376000D02*
Y5546000D01*
X5568400Y5376000D02*
Y5546000D01*
X5658400D01*
X5568400Y5376000D02*
X5658400D01*
X5455200D02*
Y5546000D01*
X5365200Y5376000D02*
Y5546000D01*
X5455200D01*
X5365200Y5376000D02*
X5455200D01*
X5302800Y5934800D02*
Y6104800D01*
X5212800Y5934800D02*
Y6104800D01*
X5302800D01*
X5212800Y5934800D02*
X5302800D01*
X5416000Y5933600D02*
Y6103600D01*
X5506000Y5933600D02*
Y6103600D01*
X5416000Y5933600D02*
X5506000D01*
X5416000Y6103600D02*
X5506000D01*
X5290100Y6696800D02*
Y6866800D01*
X5200100Y6696800D02*
Y6866800D01*
X5290100D01*
X5200100Y6696800D02*
X5290100D01*
X5467900D02*
Y6866800D01*
X5377900Y6696800D02*
Y6866800D01*
X5467900D01*
X5377900Y6696800D02*
X5467900D01*
X6141000Y5198200D02*
Y5368200D01*
X6051000Y5198200D02*
Y5368200D01*
X6141000D01*
X6051000Y5198200D02*
X6141000D01*
X7786753Y9360907D02*
Y9530907D01*
X7876753Y9360907D02*
Y9530907D01*
X7786753Y9360907D02*
X7876753D01*
X7786753Y9530907D02*
X7876753D01*
X9086692Y5044700D02*
X9261692D01*
X9086692Y5140700D02*
X9261692D01*
Y5044700D02*
Y5140700D01*
X9086692Y5044700D02*
Y5140700D01*
X9085492Y4790700D02*
X9260492D01*
X9085492Y4886700D02*
X9260492D01*
Y4790700D02*
Y4886700D01*
X9085492Y4790700D02*
Y4886700D01*
X10050692Y5527300D02*
X10225692D01*
X10050692Y5623300D02*
X10225692D01*
Y5527300D02*
Y5623300D01*
X10050692Y5527300D02*
Y5623300D01*
X11469500Y6357880D02*
X11644500D01*
X11469500Y6453880D02*
X11644500D01*
Y6357880D02*
Y6453880D01*
X11469500Y6357880D02*
Y6453880D01*
X9798092Y4916300D02*
Y5091300D01*
X9894092Y4916300D02*
Y5091300D01*
X9798092Y4916300D02*
X9894092D01*
X9798092Y5091300D02*
X9894092D01*
X9666100Y4625600D02*
X9841100D01*
X9666100Y4721600D02*
X9841100D01*
Y4625600D02*
Y4721600D01*
X9666100Y4625600D02*
Y4721600D01*
X9247000Y4645400D02*
X9422000D01*
X9247000Y4549400D02*
X9422000D01*
X9247000D02*
Y4645400D01*
X9422000Y4549400D02*
Y4645400D01*
X11766592Y5170300D02*
Y5345300D01*
X11862592Y5170300D02*
Y5345300D01*
X11766592Y5170300D02*
X11862592D01*
X11766592Y5345300D02*
X11862592D01*
X11862592Y4865500D02*
Y5040500D01*
X11766592Y4865500D02*
Y5040500D01*
X11862592D01*
X11766592Y4865500D02*
X11862592D01*
X9234300Y4054100D02*
X9409300D01*
X9234300Y4150100D02*
X9409300D01*
Y4054100D02*
Y4150100D01*
X9234300Y4054100D02*
Y4150100D01*
X9620292Y4230500D02*
Y4405500D01*
X9716292Y4230500D02*
Y4405500D01*
X9620292Y4230500D02*
X9716292D01*
X9620292Y4405500D02*
X9716292D01*
X9716292Y3925700D02*
Y4100700D01*
X9620292Y3925700D02*
Y4100700D01*
X9716292D01*
X9620292Y3925700D02*
X9716292D01*
X9772692Y4230500D02*
Y4405500D01*
X9868692Y4230500D02*
Y4405500D01*
X9772692Y4230500D02*
X9868692D01*
X9772692Y4405500D02*
X9868692D01*
X9868692Y3925700D02*
Y4100700D01*
X9772692Y3925700D02*
Y4100700D01*
X9868692D01*
X9772692Y3925700D02*
X9868692D01*
X10088792Y3520700D02*
X10263792D01*
X10088792Y3616700D02*
X10263792D01*
Y3520700D02*
Y3616700D01*
X10088792Y3520700D02*
Y3616700D01*
X11130192Y3520700D02*
X11305192D01*
X11130192Y3616700D02*
X11305192D01*
Y3520700D02*
Y3616700D01*
X11130192Y3520700D02*
Y3616700D01*
X11434992Y3616700D02*
X11609992D01*
X11434992Y3520700D02*
X11609992D01*
X11434992D02*
Y3616700D01*
X11609992Y3520700D02*
Y3616700D01*
X7520800Y10191600D02*
X7820800D01*
X7520800Y10331600D02*
X7820800D01*
X7520800Y10191600D02*
Y10331600D01*
X7820800Y10191600D02*
Y10331600D01*
X7321000Y10113100D02*
Y10283100D01*
X7411000Y10113100D02*
Y10283100D01*
X7321000Y10113100D02*
X7411000D01*
X7321000Y10283100D02*
X7411000D01*
X5691000Y10119100D02*
X5866000D01*
X5691000Y10023100D02*
X5866000D01*
X5691000D02*
Y10119100D01*
X5866000Y10023100D02*
Y10119100D01*
X5691000Y10271500D02*
X5866000D01*
X5691000Y10175500D02*
X5866000D01*
X5691000D02*
Y10271500D01*
X5866000Y10175500D02*
Y10271500D01*
X11557200Y10150100D02*
X11732200D01*
X11557200Y10246100D02*
X11732200D01*
Y10150100D02*
Y10246100D01*
X11557200Y10150100D02*
Y10246100D01*
X11718200Y10318200D02*
Y10408200D01*
X11548200Y10318200D02*
Y10408200D01*
Y10318200D02*
X11718200D01*
X11548200Y10408200D02*
X11718200D01*
X11875900Y10246100D02*
X12050900D01*
X11875900Y10150100D02*
X12050900D01*
X11875900D02*
Y10246100D01*
X12050900Y10150100D02*
Y10246100D01*
X11875900Y10411200D02*
X12050900D01*
X11875900Y10315200D02*
X12050900D01*
X11875900D02*
Y10411200D01*
X12050900Y10315200D02*
Y10411200D01*
X11395800Y10559500D02*
Y10649500D01*
X11565800Y10559500D02*
Y10649500D01*
X11395800D02*
X11565800D01*
X11395800Y10559500D02*
X11565800D01*
X11261000Y10191200D02*
Y10281200D01*
X11091000Y10191200D02*
Y10281200D01*
Y10191200D02*
X11261000D01*
X11091000Y10281200D02*
X11261000D01*
X9543500Y6168300D02*
X9633500D01*
X9543500Y5998300D02*
X9633500D01*
Y6168300D01*
X9543500Y5998300D02*
Y6168300D01*
X9188300Y6233300D02*
X9328300D01*
X9188300Y5933300D02*
X9328300D01*
X9188300D02*
Y6233300D01*
X9328300Y5933300D02*
Y6233300D01*
X8661400Y6210300D02*
X8915400D01*
Y5448300D02*
Y6210300D01*
X8661400Y5448300D02*
X8915400D01*
X8661400D02*
Y6210300D01*
X8915400D01*
Y5448300D02*
Y6210300D01*
X8661400Y5448300D02*
X8915400D01*
X10947400Y10439400D02*
Y10693400D01*
X9931400Y10439400D02*
X10947400D01*
X9931400D02*
Y10693400D01*
X10947400D01*
Y10439400D02*
Y10693400D01*
X9931400Y10439400D02*
X10947400D01*
X9931400D02*
Y10693400D01*
X12065000Y7213600D02*
Y7721600D01*
X11049000Y7213600D02*
X12065000D01*
X11049000D02*
Y7721600D01*
X12065000D01*
Y7213600D02*
Y7721600D01*
X11049000Y7213600D02*
X12065000D01*
X11049000D02*
Y7721600D01*
X9491800Y8038000D02*
Y8218000D01*
X9151800Y8038000D02*
Y8218000D01*
Y8038000D02*
X9491800D01*
X9151800Y8218000D02*
X9491800D01*
X8757500Y8110300D02*
X8932500D01*
X8757500Y8206300D02*
X8932500D01*
Y8110300D02*
Y8206300D01*
X8757500Y8110300D02*
Y8206300D01*
X8758700Y7957900D02*
X8933700D01*
X8758700Y8053900D02*
X8933700D01*
Y7957900D02*
Y8053900D01*
X8758700Y7957900D02*
Y8053900D01*
X9495300Y7805500D02*
X9670300D01*
X9495300Y7901500D02*
X9670300D01*
Y7805500D02*
Y7901500D01*
X9495300Y7805500D02*
Y7901500D01*
X9496600Y7643400D02*
Y7733400D01*
X9666600Y7643400D02*
Y7733400D01*
X9496600D02*
X9666600D01*
X9496600Y7643400D02*
X9666600D01*
X9666600Y7465600D02*
Y7555600D01*
X9496600Y7465600D02*
Y7555600D01*
Y7465600D02*
X9666600D01*
X9496600Y7555600D02*
X9666600D01*
X4847500Y10394400D02*
Y10484400D01*
X4677500Y10394400D02*
Y10484400D01*
Y10394400D02*
X4847500D01*
X4677500Y10484400D02*
X4847500D01*
X4677500Y10229300D02*
Y10319300D01*
X4847500Y10229300D02*
Y10319300D01*
X4677500D02*
X4847500D01*
X4677500Y10229300D02*
X4847500D01*
X4530000Y10597600D02*
Y10687600D01*
X4360000Y10597600D02*
Y10687600D01*
Y10597600D02*
X4530000D01*
X4360000Y10687600D02*
X4530000D01*
X4834800Y10597600D02*
Y10687600D01*
X4664800Y10597600D02*
Y10687600D01*
Y10597600D02*
X4834800D01*
X4664800Y10687600D02*
X4834800D01*
X4371600Y6338700D02*
X4467600D01*
X4371600Y6513700D02*
X4467600D01*
X4371600Y6338700D02*
Y6513700D01*
X4467600Y6338700D02*
Y6513700D01*
X4422400Y3478400D02*
X4518400D01*
X4422400Y3303400D02*
X4518400D01*
Y3478400D01*
X4422400Y3303400D02*
Y3478400D01*
X3918500Y3039200D02*
Y3209200D01*
X3828500Y3039200D02*
Y3209200D01*
X3918500D01*
X3828500Y3039200D02*
X3918500D01*
X4422400Y3173600D02*
X4518400D01*
X4422400Y2998600D02*
X4518400D01*
Y3173600D01*
X4422400Y2998600D02*
Y3173600D01*
X3918500Y5033100D02*
Y5203100D01*
X3828500Y5033100D02*
Y5203100D01*
X3918500D01*
X3828500Y5033100D02*
X3918500D01*
X4409700Y5180200D02*
X4505700D01*
X4409700Y5005200D02*
X4505700D01*
Y5180200D01*
X4409700Y5005200D02*
Y5180200D01*
Y5485000D02*
X4505700D01*
X4409700Y5310000D02*
X4505700D01*
Y5485000D01*
X4409700Y5310000D02*
Y5485000D01*
X3918500Y6963500D02*
Y7133500D01*
X3828500Y6963500D02*
Y7133500D01*
X3918500D01*
X3828500Y6963500D02*
X3918500D01*
X4409700Y7110600D02*
X4505700D01*
X4409700Y6935600D02*
X4505700D01*
Y7110600D01*
X4409700Y6935600D02*
Y7110600D01*
Y7415400D02*
X4505700D01*
X4409700Y7240400D02*
X4505700D01*
Y7415400D01*
X4409700Y7240400D02*
Y7415400D01*
X4028290Y3426610D02*
X4328310D01*
X4028290Y3126589D02*
Y3426610D01*
Y3126589D02*
X4328310D01*
Y3426610D01*
X4015590Y5433210D02*
X4315610D01*
X4015590Y5133189D02*
Y5433210D01*
Y5133189D02*
X4315610D01*
Y5433210D01*
X4015590Y7363610D02*
X4315610D01*
X4015590Y7063589D02*
Y7363610D01*
Y7063589D02*
X4315610D01*
Y7363610D01*
D168*
X4615180Y8719820D02*
G03*
X4615180Y8780780I0J30480D01*
G01*
X6045200Y8956040D02*
G03*
X6106160Y8956040I30480J0D01*
G01*
X4615180Y8549640D02*
X5113020D01*
X4615180D02*
Y8719820D01*
Y8780780D01*
Y8950960D01*
X5113020D01*
Y8549640D02*
Y8950960D01*
X4650740D02*
Y9060180D01*
X4696460D01*
Y8950960D02*
Y9060180D01*
X4650740Y8950960D02*
X4696460D01*
X4777740D02*
Y9060180D01*
X4823460D01*
Y8950960D02*
Y9060180D01*
X4777740Y8950960D02*
X4823460D01*
X4904740D02*
Y9060180D01*
X4950460D01*
Y8950960D02*
Y9060180D01*
X4904740Y8950960D02*
X4950460D01*
X5031740D02*
Y9060180D01*
X5077460D01*
Y8950960D02*
Y9060180D01*
X5031740Y8950960D02*
X5077460D01*
Y8440420D02*
Y8549640D01*
X5031740Y8440420D02*
X5077460D01*
X5031740D02*
Y8549640D01*
X5077460D01*
X4950460Y8440420D02*
Y8549640D01*
X4904740Y8440420D02*
X4950460D01*
X4904740D02*
Y8549640D01*
X4950460D01*
X4823460Y8440420D02*
Y8549640D01*
X4777740Y8440420D02*
X4823460D01*
X4777740D02*
Y8549640D01*
X4823460D01*
X4696460Y8440420D02*
Y8549640D01*
X4650740Y8440420D02*
X4696460D01*
X4650740D02*
Y8549640D01*
X4696460D01*
X5875020Y8874760D02*
Y8920480D01*
X5765800D02*
X5875020D01*
X5765800Y8874760D02*
Y8920480D01*
Y8874760D02*
X5875020D01*
Y8747760D02*
Y8793480D01*
X5765800D02*
X5875020D01*
X5765800Y8747760D02*
Y8793480D01*
Y8747760D02*
X5875020D01*
Y8620760D02*
Y8666480D01*
X5765800D02*
X5875020D01*
X5765800Y8620760D02*
Y8666480D01*
Y8620760D02*
X5875020D01*
Y8493760D02*
Y8539480D01*
X5765800D02*
X5875020D01*
X5765800Y8493760D02*
Y8539480D01*
Y8493760D02*
X5875020D01*
X6276340D02*
Y8539480D01*
Y8493760D02*
X6385560D01*
Y8539480D01*
X6276340D02*
X6385560D01*
X6276340Y8620760D02*
Y8666480D01*
Y8620760D02*
X6385560D01*
Y8666480D01*
X6276340D02*
X6385560D01*
X6276340Y8747760D02*
Y8793480D01*
Y8747760D02*
X6385560D01*
Y8793480D01*
X6276340D02*
X6385560D01*
X6276340Y8874760D02*
Y8920480D01*
Y8874760D02*
X6385560D01*
Y8920480D01*
X6276340D02*
X6385560D01*
X5875020Y8458200D02*
X6276340D01*
Y8956040D01*
X6106160D02*
X6276340D01*
X6045200D02*
X6106160D01*
X5875020D02*
X6045200D01*
X5875020Y8458200D02*
Y8956040D01*
D169*
X11407482Y5277930D02*
X11435422D01*
Y5378260D01*
X11407482D02*
X11435422D01*
X11407482Y5277930D02*
Y5378260D01*
X11357482Y5277930D02*
X11385422D01*
Y5378260D01*
X11357482D02*
X11385422D01*
X11357482Y5277930D02*
Y5378260D01*
X11307482Y5277930D02*
X11335422D01*
Y5378260D01*
X11307482D02*
X11335422D01*
X11307482Y5277930D02*
Y5378260D01*
X11257482Y5277930D02*
X11285422D01*
Y5378260D01*
X11257482D02*
X11285422D01*
X11257482Y5277930D02*
Y5378260D01*
X11207482Y5277930D02*
X11235422D01*
Y5378260D01*
X11207482D02*
X11235422D01*
X11207482Y5277930D02*
Y5378260D01*
X11157482Y5277930D02*
X11185422D01*
Y5378260D01*
X11157482D02*
X11185422D01*
X11157482Y5277930D02*
Y5378260D01*
X11107482Y5277930D02*
X11135422D01*
Y5378260D01*
X11107482D02*
X11135422D01*
X11107482Y5277930D02*
Y5378260D01*
X11057482Y5277930D02*
X11085422D01*
Y5378260D01*
X11057482D02*
X11085422D01*
X11057482Y5277930D02*
Y5378260D01*
X11007482Y5277930D02*
X11035422D01*
Y5378260D01*
X11007482D02*
X11035422D01*
X11007482Y5277930D02*
Y5378260D01*
X10957482Y5277930D02*
X10985422D01*
Y5378260D01*
X10957482D02*
X10985422D01*
X10957482Y5277930D02*
Y5378260D01*
X10907482Y5277930D02*
X10935422D01*
Y5378260D01*
X10907482D02*
X10935422D01*
X10907482Y5277930D02*
Y5378260D01*
X10857482Y5277930D02*
X10885422D01*
Y5378260D01*
X10857482D02*
X10885422D01*
X10857482Y5277930D02*
Y5378260D01*
X10807482Y5277930D02*
X10835422D01*
Y5378260D01*
X10807482D02*
X10835422D01*
X10807482Y5277930D02*
Y5378260D01*
X10757482Y5277930D02*
X10785422D01*
Y5378260D01*
X10757482D02*
X10785422D01*
X10757482Y5277930D02*
Y5378260D01*
X10707482Y5277930D02*
X10735422D01*
Y5378260D01*
X10707482D02*
X10735422D01*
X10707482Y5277930D02*
Y5378260D01*
X10657482Y5277930D02*
X10685422D01*
Y5378260D01*
X10657482D02*
X10685422D01*
X10657482Y5277930D02*
Y5378260D01*
X10607482Y5277930D02*
X10635422D01*
Y5378260D01*
X10607482D02*
X10635422D01*
X10607482Y5277930D02*
Y5378260D01*
X10557482Y5277930D02*
X10585422D01*
Y5378260D01*
X10557482D02*
X10585422D01*
X10557482Y5277930D02*
Y5378260D01*
X10507482Y5277930D02*
X10535422D01*
Y5378260D01*
X10507482D02*
X10535422D01*
X10507482Y5277930D02*
Y5378260D01*
X10457482Y5277930D02*
X10485422D01*
Y5378260D01*
X10457482D02*
X10485422D01*
X10457482Y5277930D02*
Y5378260D01*
X10407482Y5277930D02*
X10435422D01*
Y5378260D01*
X10407482D02*
X10435422D01*
X10407482Y5277930D02*
Y5378260D01*
X10357482Y5277930D02*
X10385422D01*
Y5378260D01*
X10357482D02*
X10385422D01*
X10357482Y5277930D02*
Y5378260D01*
X10307482Y5277930D02*
X10335422D01*
Y5378260D01*
X10307482D02*
X10335422D01*
X10307482Y5277930D02*
Y5378260D01*
X10257482Y5277930D02*
X10285422D01*
Y5378260D01*
X10257482D02*
X10285422D01*
X10257482Y5277930D02*
Y5378260D01*
X10207482Y5277930D02*
X10235422D01*
Y5378260D01*
X10207482D02*
X10235422D01*
X10207482Y5277930D02*
Y5378260D01*
X10111522Y5154030D02*
Y5181970D01*
X10011192D02*
X10111522D01*
X10011192Y5154030D02*
Y5181970D01*
Y5154030D02*
X10111522D01*
Y5104030D02*
Y5131970D01*
X10011192D02*
X10111522D01*
X10011192Y5104030D02*
Y5131970D01*
Y5104030D02*
X10111522D01*
Y5054030D02*
Y5081970D01*
X10011192D02*
X10111522D01*
X10011192Y5054030D02*
Y5081970D01*
Y5054030D02*
X10111522D01*
Y5004030D02*
Y5031970D01*
X10011192D02*
X10111522D01*
X10011192Y5004030D02*
Y5031970D01*
Y5004030D02*
X10111522D01*
Y4954030D02*
Y4981970D01*
X10011192D02*
X10111522D01*
X10011192Y4954030D02*
Y4981970D01*
Y4954030D02*
X10111522D01*
Y4904030D02*
Y4931970D01*
X10011192D02*
X10111522D01*
X10011192Y4904030D02*
Y4931970D01*
Y4904030D02*
X10111522D01*
Y4854030D02*
Y4881970D01*
X10011192D02*
X10111522D01*
X10011192Y4854030D02*
Y4881970D01*
Y4854030D02*
X10111522D01*
Y4804030D02*
Y4831970D01*
X10011192D02*
X10111522D01*
X10011192Y4804030D02*
Y4831970D01*
Y4804030D02*
X10111522D01*
Y4754030D02*
Y4781970D01*
X10011192D02*
X10111522D01*
X10011192Y4754030D02*
Y4781970D01*
Y4754030D02*
X10111522D01*
Y4704030D02*
Y4731970D01*
X10011192D02*
X10111522D01*
X10011192Y4704030D02*
Y4731970D01*
Y4704030D02*
X10111522D01*
Y4654030D02*
Y4681970D01*
X10011192D02*
X10111522D01*
X10011192Y4654030D02*
Y4681970D01*
Y4654030D02*
X10111522D01*
Y4604030D02*
Y4631970D01*
X10011192D02*
X10111522D01*
X10011192Y4604030D02*
Y4631970D01*
Y4604030D02*
X10111522D01*
Y4554030D02*
Y4581970D01*
X10011192D02*
X10111522D01*
X10011192Y4554030D02*
Y4581970D01*
Y4554030D02*
X10111522D01*
Y4504030D02*
Y4531970D01*
X10011192D02*
X10111522D01*
X10011192Y4504030D02*
Y4531970D01*
Y4504030D02*
X10111522D01*
Y4454030D02*
Y4481970D01*
X10011192D02*
X10111522D01*
X10011192Y4454030D02*
Y4481970D01*
Y4454030D02*
X10111522D01*
Y4404030D02*
Y4431970D01*
X10011192D02*
X10111522D01*
X10011192Y4404030D02*
Y4431970D01*
Y4404030D02*
X10111522D01*
Y4354030D02*
Y4381970D01*
X10011192D02*
X10111522D01*
X10011192Y4354030D02*
Y4381970D01*
Y4354030D02*
X10111522D01*
Y4304030D02*
Y4331970D01*
X10011192D02*
X10111522D01*
X10011192Y4304030D02*
Y4331970D01*
Y4304030D02*
X10111522D01*
Y4254030D02*
Y4281970D01*
X10011192D02*
X10111522D01*
X10011192Y4254030D02*
Y4281970D01*
Y4254030D02*
X10111522D01*
Y4204030D02*
Y4231970D01*
X10011192D02*
X10111522D01*
X10011192Y4204030D02*
Y4231970D01*
Y4204030D02*
X10111522D01*
Y4154030D02*
Y4181970D01*
X10011192D02*
X10111522D01*
X10011192Y4154030D02*
Y4181970D01*
Y4154030D02*
X10111522D01*
Y4104030D02*
Y4131970D01*
X10011192D02*
X10111522D01*
X10011192Y4104030D02*
Y4131970D01*
Y4104030D02*
X10111522D01*
Y4054030D02*
Y4081970D01*
X10011192D02*
X10111522D01*
X10011192Y4054030D02*
Y4081970D01*
Y4054030D02*
X10111522D01*
Y4004030D02*
Y4031970D01*
X10011192D02*
X10111522D01*
X10011192Y4004030D02*
Y4031970D01*
Y4004030D02*
X10111522D01*
Y3954030D02*
Y3981970D01*
X10011192D02*
X10111522D01*
X10011192Y3954030D02*
Y3981970D01*
Y3954030D02*
X10111522D01*
X10207482Y3858070D02*
X10235422D01*
X10207482Y3757740D02*
Y3858070D01*
Y3757740D02*
X10235422D01*
Y3858070D01*
X10257482D02*
X10285422D01*
X10257482Y3757740D02*
Y3858070D01*
Y3757740D02*
X10285422D01*
Y3858070D01*
X10307482D02*
X10335422D01*
X10307482Y3757740D02*
Y3858070D01*
Y3757740D02*
X10335422D01*
Y3858070D01*
X10357482D02*
X10385422D01*
X10357482Y3757740D02*
Y3858070D01*
Y3757740D02*
X10385422D01*
Y3858070D01*
X10407482D02*
X10435422D01*
X10407482Y3757740D02*
Y3858070D01*
Y3757740D02*
X10435422D01*
Y3858070D01*
X10457482D02*
X10485422D01*
X10457482Y3757740D02*
Y3858070D01*
Y3757740D02*
X10485422D01*
Y3858070D01*
X10507482D02*
X10535422D01*
X10507482Y3757740D02*
Y3858070D01*
Y3757740D02*
X10535422D01*
Y3858070D01*
X10557482D02*
X10585422D01*
X10557482Y3757740D02*
Y3858070D01*
Y3757740D02*
X10585422D01*
Y3858070D01*
X10607482D02*
X10635422D01*
X10607482Y3757740D02*
Y3858070D01*
Y3757740D02*
X10635422D01*
Y3858070D01*
X10657482D02*
X10685422D01*
X10657482Y3757740D02*
Y3858070D01*
Y3757740D02*
X10685422D01*
Y3858070D01*
X10707482D02*
X10735422D01*
X10707482Y3757740D02*
Y3858070D01*
Y3757740D02*
X10735422D01*
Y3858070D01*
X10757482D02*
X10785422D01*
X10757482Y3757740D02*
Y3858070D01*
Y3757740D02*
X10785422D01*
Y3858070D01*
X10807482D02*
X10835422D01*
X10807482Y3757740D02*
Y3858070D01*
Y3757740D02*
X10835422D01*
Y3858070D01*
X10857482D02*
X10885422D01*
X10857482Y3757740D02*
Y3858070D01*
Y3757740D02*
X10885422D01*
Y3858070D01*
X10907482D02*
X10935422D01*
X10907482Y3757740D02*
Y3858070D01*
Y3757740D02*
X10935422D01*
Y3858070D01*
X10957482D02*
X10985422D01*
X10957482Y3757740D02*
Y3858070D01*
Y3757740D02*
X10985422D01*
Y3858070D01*
X11007482D02*
X11035422D01*
X11007482Y3757740D02*
Y3858070D01*
Y3757740D02*
X11035422D01*
Y3858070D01*
X11057482D02*
X11085422D01*
X11057482Y3757740D02*
Y3858070D01*
Y3757740D02*
X11085422D01*
Y3858070D01*
X11107482D02*
X11135422D01*
X11107482Y3757740D02*
Y3858070D01*
Y3757740D02*
X11135422D01*
Y3858070D01*
X11157482D02*
X11185422D01*
X11157482Y3757740D02*
Y3858070D01*
Y3757740D02*
X11185422D01*
Y3858070D01*
X11207482D02*
X11235422D01*
X11207482Y3757740D02*
Y3858070D01*
Y3757740D02*
X11235422D01*
Y3858070D01*
X11257482D02*
X11285422D01*
X11257482Y3757740D02*
Y3858070D01*
Y3757740D02*
X11285422D01*
Y3858070D01*
X11307482D02*
X11335422D01*
X11307482Y3757740D02*
Y3858070D01*
Y3757740D02*
X11335422D01*
Y3858070D01*
X11357482D02*
X11385422D01*
X11357482Y3757740D02*
Y3858070D01*
Y3757740D02*
X11385422D01*
Y3858070D01*
X11407482D02*
X11435422D01*
X11407482Y3757740D02*
Y3858070D01*
Y3757740D02*
X11435422D01*
Y3858070D01*
X11531382Y3954030D02*
Y3981970D01*
Y3954030D02*
X11631712D01*
Y3981970D01*
X11531382D02*
X11631712D01*
X11531382Y4004030D02*
Y4031970D01*
Y4004030D02*
X11631712D01*
Y4031970D01*
X11531382D02*
X11631712D01*
X11531382Y4054030D02*
Y4081970D01*
Y4054030D02*
X11631712D01*
Y4081970D01*
X11531382D02*
X11631712D01*
X11531382Y4104030D02*
Y4131970D01*
Y4104030D02*
X11631712D01*
Y4131970D01*
X11531382D02*
X11631712D01*
X11531382Y4154030D02*
Y4181970D01*
Y4154030D02*
X11631712D01*
Y4181970D01*
X11531382D02*
X11631712D01*
X11531382Y4204030D02*
Y4231970D01*
Y4204030D02*
X11631712D01*
Y4231970D01*
X11531382D02*
X11631712D01*
X11531382Y4254030D02*
Y4281970D01*
Y4254030D02*
X11631712D01*
Y4281970D01*
X11531382D02*
X11631712D01*
X11531382Y4304030D02*
Y4331970D01*
Y4304030D02*
X11631712D01*
Y4331970D01*
X11531382D02*
X11631712D01*
X11531382Y4354030D02*
Y4381970D01*
Y4354030D02*
X11631712D01*
Y4381970D01*
X11531382D02*
X11631712D01*
X11531382Y4404030D02*
Y4431970D01*
Y4404030D02*
X11631712D01*
Y4431970D01*
X11531382D02*
X11631712D01*
X11531382Y4454030D02*
Y4481970D01*
Y4454030D02*
X11631712D01*
Y4481970D01*
X11531382D02*
X11631712D01*
X11531382Y4504030D02*
Y4531970D01*
Y4504030D02*
X11631712D01*
Y4531970D01*
X11531382D02*
X11631712D01*
X11531382Y4554030D02*
Y4581970D01*
Y4554030D02*
X11631712D01*
Y4581970D01*
X11531382D02*
X11631712D01*
X11531382Y4604030D02*
Y4631970D01*
Y4604030D02*
X11631712D01*
Y4631970D01*
X11531382D02*
X11631712D01*
X11531382Y4654030D02*
Y4681970D01*
Y4654030D02*
X11631712D01*
Y4681970D01*
X11531382D02*
X11631712D01*
X11531382Y4704030D02*
Y4731970D01*
Y4704030D02*
X11631712D01*
Y4731970D01*
X11531382D02*
X11631712D01*
X11531382Y4754030D02*
Y4781970D01*
Y4754030D02*
X11631712D01*
Y4781970D01*
X11531382D02*
X11631712D01*
X11531382Y4804030D02*
Y4831970D01*
Y4804030D02*
X11631712D01*
Y4831970D01*
X11531382D02*
X11631712D01*
X11531382Y4854030D02*
Y4881970D01*
Y4854030D02*
X11631712D01*
Y4881970D01*
X11531382D02*
X11631712D01*
X11531382Y4904030D02*
Y4931970D01*
Y4904030D02*
X11631712D01*
Y4931970D01*
X11531382D02*
X11631712D01*
X11531382Y4954030D02*
Y4981970D01*
Y4954030D02*
X11631712D01*
Y4981970D01*
X11531382D02*
X11631712D01*
X11531382Y5004030D02*
Y5031970D01*
Y5004030D02*
X11631712D01*
Y5031970D01*
X11531382D02*
X11631712D01*
X11531382Y5054030D02*
Y5081970D01*
Y5054030D02*
X11631712D01*
Y5081970D01*
X11531382D02*
X11631712D01*
X11531382Y5104030D02*
Y5131970D01*
Y5104030D02*
X11631712D01*
Y5131970D01*
X11531382D02*
X11631712D01*
X11531382Y5154030D02*
Y5181970D01*
Y5154030D02*
X11631712D01*
Y5181970D01*
X11531382D02*
X11631712D01*
X10111522Y5150930D02*
X10238522Y5277930D01*
X10111522Y3858070D02*
Y5277930D01*
Y3858070D02*
X11531382D01*
Y5277930D01*
X10111522D02*
X11531382D01*
%TF.MD5,e0cedea326ca36e8a7b9355c412b610f*%
M02*
